<svg width="24" height="24" viewBox="0 0 24 24" fill="none" xmlns="http://www.w3.org/2000/svg">
<rect width="24" height="24" fill="white"/>
<g clip-path="url(#clip0_2800_18414)">
<path d="M18.5483 16.7992H14.4983H14.3183C14.2621 16.7928 14.2098 16.7676 14.1699 16.7276C14.1299 16.6877 14.1047 16.6354 14.0983 16.5792C14.0881 16.4929 14.0881 16.4056 14.0983 16.3192V11.8592C14.0983 11.7692 14.0983 11.7292 13.9783 11.7292C13.9137 11.7267 13.8527 11.6992 13.8079 11.6526C13.7632 11.606 13.7382 11.5438 13.7383 11.4792C13.7383 11.0092 13.7383 10.5492 13.7383 10.0892C13.7383 10.0529 13.7456 10.017 13.7597 9.98355C13.7739 9.95012 13.7947 9.9199 13.8209 9.89469C13.847 9.86948 13.878 9.84981 13.9119 9.83684C13.9458 9.82388 13.982 9.81789 14.0183 9.81923H14.2683C14.3383 9.81923 14.3583 9.81923 14.3583 9.73923V9.01923C14.3583 8.82923 14.4383 8.71923 14.6283 8.70923C14.9611 8.68371 15.2954 8.68371 15.6283 8.70923C15.6625 8.71176 15.6958 8.72102 15.7264 8.73648C15.757 8.75194 15.7842 8.7733 15.8065 8.79932C15.8288 8.82534 15.8458 8.85552 15.8564 8.88811C15.867 8.9207 15.871 8.95507 15.8683 8.98923V9.72923C15.8683 9.79923 15.8683 9.82923 15.9583 9.81923H16.3483C16.3694 9.82273 16.391 9.81861 16.4093 9.80762C16.4276 9.79663 16.4414 9.77948 16.4483 9.75923C16.4627 9.69559 16.5005 9.63969 16.5542 9.60264C16.608 9.56558 16.6737 9.55009 16.7383 9.55923H17.3783C17.4441 9.54974 17.5112 9.56491 17.5666 9.60182C17.6219 9.63873 17.6617 9.69479 17.6783 9.75923C17.6783 9.84923 17.7783 9.81923 17.8383 9.81923C17.8514 9.82382 17.8653 9.82563 17.8792 9.82453C17.893 9.82344 17.9065 9.81948 17.9187 9.81289C17.9309 9.8063 17.9417 9.79724 17.9502 9.78628C17.9587 9.77532 17.9649 9.76271 17.9683 9.74923C17.9874 9.69936 18.022 9.65691 18.067 9.62812C18.112 9.59932 18.165 9.5857 18.2183 9.58923H18.8983C18.9575 9.58304 19.0168 9.59905 19.0649 9.63416C19.1129 9.66926 19.1462 9.72097 19.1583 9.77923C19.1583 9.87923 19.2683 9.84923 19.3283 9.84923C19.3883 9.84923 19.4383 9.84923 19.4583 9.77923C19.4702 9.72281 19.502 9.67257 19.5479 9.63768C19.5938 9.60279 19.6507 9.58559 19.7083 9.58923H20.4283C20.4828 9.58751 20.5362 9.6044 20.5799 9.63711C20.6235 9.66983 20.6547 9.71643 20.6683 9.76923C20.6683 9.83923 20.7283 9.85923 20.7983 9.84923H21.1583C21.2383 9.84923 21.2683 9.84923 21.2583 9.74923V9.00923C21.2525 8.97058 21.2552 8.93112 21.2661 8.89359C21.2771 8.85607 21.296 8.82137 21.3217 8.79189C21.3474 8.76241 21.3791 8.73886 21.4148 8.72286C21.4505 8.70686 21.4892 8.6988 21.5283 8.69923C21.8613 8.67838 22.1953 8.67838 22.5283 8.69923C22.5648 8.69876 22.6009 8.70629 22.6342 8.72127C22.6674 8.73626 22.697 8.75834 22.7209 8.78598C22.7447 8.81361 22.7622 8.84613 22.7721 8.88124C22.782 8.91636 22.7841 8.95322 22.7783 8.98923C22.7783 9.22923 22.7783 9.47923 22.7783 9.71923C22.7783 9.78923 22.7783 9.81923 22.8783 9.80923H23.1183C23.1559 9.80921 23.1932 9.81677 23.2278 9.83146C23.2624 9.84616 23.2938 9.86768 23.3199 9.89475C23.346 9.92182 23.3664 9.95388 23.3799 9.98901C23.3934 10.0241 23.3996 10.0616 23.3983 10.0992C23.3983 10.5492 23.3983 10.9992 23.3983 11.4392C23.3996 11.4755 23.3936 11.5117 23.3807 11.5456C23.3677 11.5796 23.348 11.6105 23.3228 11.6367C23.2976 11.6628 23.2674 11.6836 23.234 11.6978C23.2005 11.712 23.1646 11.7193 23.1283 11.7192C23.0383 11.7192 23.0283 11.7192 23.0283 11.8292V16.4692C23.0331 16.5111 23.0283 16.5535 23.0145 16.5933C23.0006 16.6331 22.9779 16.6692 22.9481 16.699C22.9183 16.7288 22.8821 16.7515 22.8424 16.7654C22.8026 16.7793 22.7602 16.784 22.7183 16.7792H18.5483V16.7992ZM18.5483 16.2392H22.3383C22.4683 16.2392 22.4683 16.2392 22.4683 16.1192V11.8592C22.4683 11.7392 22.4683 11.7392 22.3383 11.7392H14.7683C14.6383 11.7392 14.6383 11.7392 14.6383 11.8692V16.1092C14.6383 16.2392 14.6383 16.2392 14.7683 16.2392H18.5483ZM18.5483 11.1792H22.7083C22.7983 11.1792 22.8183 11.1792 22.8183 11.0692V10.5192C22.8183 10.3792 22.8183 10.3792 22.6683 10.3792H14.4083C14.2783 10.3792 14.2783 10.3792 14.2783 10.5092V11.0692C14.2783 11.1592 14.2783 11.1792 14.3883 11.1792H18.5483ZM15.2883 9.58923V9.38923C15.2883 9.32923 15.2883 9.29923 15.2083 9.29923H14.9883C14.9183 9.29923 14.8983 9.29923 14.8983 9.37923C14.9083 9.51238 14.9083 9.64609 14.8983 9.77923C14.8983 9.85923 14.8983 9.86923 14.9983 9.86923C15.2883 9.82923 15.2883 9.82923 15.2883 9.58923ZM21.8183 9.58923V9.79923C21.8183 9.79923 21.8183 9.87923 21.8883 9.87923H22.1383C22.1383 9.87923 22.2083 9.87923 22.1983 9.80923C22.1883 9.73923 22.1983 9.66923 22.1983 9.59923C22.1983 9.28923 22.1983 9.28923 21.8883 9.30923C21.8283 9.30923 21.8083 9.30923 21.8083 9.38923L21.8183 9.58923Z" stroke="#D5692B" stroke-width="0.25" stroke-miterlimit="10" stroke-linecap="round"/>
<path d="M18.5589 12.3789H21.6389C21.7132 12.3789 21.7844 12.4084 21.8369 12.4609C21.8894 12.5134 21.9189 12.5846 21.9189 12.6589C21.9189 12.7332 21.8894 12.8044 21.8369 12.8569C21.7844 12.9094 21.7132 12.9389 21.6389 12.9389H15.4989C15.4334 12.9469 15.367 12.9338 15.3094 12.9014C15.2519 12.869 15.2061 12.8191 15.1789 12.7589C15.1632 12.7182 15.1572 12.6743 15.1615 12.6308C15.1657 12.5874 15.1801 12.5455 15.2034 12.5086C15.2267 12.4717 15.2584 12.4407 15.2958 12.4182C15.3332 12.3957 15.3754 12.3822 15.4189 12.3789H18.5589V12.3789Z" stroke="#D5692B" stroke-width="0.25" stroke-miterlimit="10" stroke-linecap="round"/>
<path d="M18.4903 14.9395H18.2503H18.1403C18.0887 14.9477 18.0358 14.9412 17.9876 14.921C17.9395 14.9007 17.898 14.8673 17.8678 14.8246C17.8376 14.782 17.82 14.7317 17.8169 14.6796C17.8138 14.6274 17.8254 14.5754 17.8503 14.5295L18.1303 13.8595L18.2503 13.5595C18.2626 13.5233 18.282 13.4899 18.3074 13.4613C18.3327 13.4326 18.3634 13.4092 18.3978 13.3925C18.4322 13.3758 18.4696 13.366 18.5077 13.3638C18.5459 13.3615 18.5842 13.3669 18.6203 13.3795C18.6562 13.3947 18.6887 13.4169 18.7159 13.4449C18.743 13.473 18.7642 13.5062 18.7782 13.5426C18.7922 13.579 18.7987 13.6179 18.7974 13.6568C18.796 13.6958 18.7868 13.7341 18.7703 13.7695C18.7103 13.9195 18.6403 14.0795 18.5703 14.2295C18.5645 14.2659 18.5645 14.303 18.5703 14.3395H18.9503C19.1503 14.3395 19.2903 14.3995 19.3103 14.5795C19.3308 14.6377 19.3308 14.7013 19.3103 14.7595L18.7503 15.7595C18.7273 15.8073 18.6937 15.8492 18.6521 15.8821C18.6106 15.915 18.562 15.9381 18.5103 15.9495C18.4644 15.9608 18.4161 15.9583 18.3717 15.9422C18.3272 15.9262 18.2884 15.8974 18.2603 15.8595C18.2306 15.8151 18.2148 15.7629 18.2148 15.7095C18.2148 15.6561 18.2306 15.6039 18.2603 15.5595C18.3603 15.3695 18.4703 15.1895 18.5703 15.0095C18.4803 14.9895 18.5003 14.9695 18.4903 14.9395Z" stroke="#D5692B" stroke-width="0.25" stroke-miterlimit="10" stroke-linecap="round"/>
<path d="M11.6404 12.6892V12.1292C11.6359 11.9173 11.5847 11.709 11.4904 11.5192L10.8104 10.2492C10.7004 10.0492 10.7004 10.0492 10.8904 9.91922C11.0804 9.78922 10.9904 9.91922 11.0304 9.91922C11.0708 10.0004 11.1339 10.0681 11.2119 10.1143C11.29 10.1604 11.3798 10.1829 11.4704 10.1792H12.2004C12.3322 10.1767 12.4579 10.1232 12.5511 10.0299C12.6443 9.93672 12.6978 9.81103 12.7004 9.67922V9.44922C12.7004 9.31302 12.647 9.18225 12.5516 9.08501C12.4563 8.98778 12.3266 8.93184 12.1904 8.92922H11.4604C11.3552 8.93069 11.2531 8.96531 11.1687 9.02815C11.0843 9.09099 11.0219 9.17885 10.9904 9.27922C10.9782 9.33599 10.9529 9.38911 10.9164 9.43428C10.8799 9.47945 10.8333 9.5154 10.7804 9.53922L10.7104 9.58922C10.6104 9.65922 10.6104 9.65922 10.5604 9.52922C10.3404 8.89922 10.1104 8.26922 9.88038 7.63922C9.83437 7.48809 9.73994 7.35629 9.61164 7.26413C9.48333 7.17197 9.32828 7.12457 9.17038 7.12922H3.64038C3.48786 7.13128 3.3397 7.18043 3.21619 7.26994C3.09267 7.35944 2.99983 7.48492 2.95038 7.62922L2.64038 8.63922C2.52038 8.94922 2.41038 9.25922 2.30038 9.56922C2.30038 9.63922 2.25038 9.64922 2.19038 9.56922C2.13411 9.52677 2.07382 9.48992 2.01038 9.45922C1.97462 9.43965 1.94356 9.41251 1.91938 9.37969C1.8952 9.34687 1.87848 9.30917 1.87038 9.26922C1.84338 9.15998 1.78032 9.06305 1.6914 8.99409C1.60248 8.92513 1.4929 8.88818 1.38038 8.88922H0.640378C0.540829 8.88552 0.442517 8.91225 0.358546 8.96585C0.274576 9.01945 0.208937 9.09737 0.170378 9.18922C0.125499 9.36304 0.125499 9.5454 0.170378 9.71922C0.167654 9.8475 0.215358 9.97174 0.30324 10.0652C0.391123 10.1587 0.512171 10.214 0.640378 10.2192H1.30038C1.40743 10.2291 1.51492 10.2056 1.60804 10.1518C1.70117 10.0981 1.77535 10.0168 1.82038 9.91922C1.82038 9.91922 1.82038 9.86922 1.87038 9.91922C1.92038 9.96922 2.04038 9.98922 2.08038 10.0592C2.12038 10.1292 2.08038 10.1892 2.03038 10.2492C1.85038 10.5992 1.66038 10.9592 1.46038 11.3092C1.2795 11.6111 1.18603 11.9573 1.19038 12.3092C1.19038 12.8492 1.19038 13.3892 1.19038 13.9292C1.18475 14.1627 1.24571 14.393 1.36613 14.5931C1.48655 14.7932 1.66145 14.9549 1.87038 15.0592C1.89407 15.0691 1.91431 15.0858 1.92854 15.1071C1.94278 15.1285 1.95038 15.1536 1.95038 15.1792C1.95038 15.4592 1.95038 15.7292 1.95038 15.9992C1.94507 16.1156 1.96555 16.2317 2.01038 16.3392C2.01038 16.3992 2.01038 16.4192 1.95038 16.4192H1.15038C1.10619 16.4293 1.06674 16.4541 1.03847 16.4895C1.01021 16.5249 0.994819 16.5689 0.994819 16.6142C0.994819 16.6595 1.01021 16.7035 1.03847 16.7389C1.06674 16.7744 1.10619 16.7991 1.15038 16.8092H13.5204C13.5717 16.8093 13.6211 16.7896 13.6584 16.7542C13.6956 16.7188 13.7178 16.6705 13.7204 16.6192C13.7236 16.5922 13.7206 16.5648 13.7117 16.539C13.7028 16.5133 13.6882 16.4899 13.6689 16.4707C13.6497 16.4514 13.6263 16.4368 13.6006 16.4279C13.5748 16.419 13.5474 16.416 13.5204 16.4192H10.9304C10.8504 16.4192 10.8204 16.4192 10.8504 16.3192C10.8754 16.2208 10.8754 16.1177 10.8504 16.0192C10.8504 15.7492 10.8504 15.4692 10.8504 15.1992C10.8478 15.1679 10.8551 15.1366 10.8712 15.1097C10.8874 15.0828 10.9116 15.0617 10.9404 15.0492C11.1002 14.9672 11.2402 14.8511 11.3504 14.7092C11.5376 14.4769 11.6399 14.1876 11.6404 13.8892V12.7992C11.6309 12.7666 11.6309 12.7319 11.6404 12.6992V12.6992C11.636 12.719 11.636 12.7395 11.6404 12.7592V12.7592V12.6892ZM11.3504 9.48922C11.3473 9.46836 11.349 9.44707 11.3553 9.42695C11.3616 9.40682 11.3723 9.38838 11.3867 9.37299C11.4012 9.35761 11.4189 9.34568 11.4385 9.3381C11.4582 9.33052 11.4794 9.32749 11.5004 9.32922H12.1604C12.1814 9.32749 12.2025 9.33052 12.2222 9.3381C12.2419 9.34568 12.2596 9.35761 12.274 9.37299C12.2884 9.38838 12.2992 9.40682 12.3055 9.42695C12.3118 9.44707 12.3135 9.46836 12.3104 9.48922C12.3154 9.55913 12.3154 9.62931 12.3104 9.69922C12.3119 9.71799 12.3093 9.73686 12.3028 9.75453C12.2963 9.7722 12.286 9.78825 12.2727 9.80156C12.2594 9.81488 12.2434 9.82514 12.2257 9.83164C12.208 9.83814 12.1891 9.84073 12.1704 9.83922H11.5004C11.4004 9.83922 11.3504 9.78922 11.3504 9.68922C11.347 9.61862 11.3537 9.5479 11.3704 9.47922L11.3504 9.48922ZM1.47038 9.67922C1.47038 9.78922 1.42038 9.83922 1.31038 9.83922H0.640378C0.540378 9.83922 0.490378 9.78922 0.490378 9.67922V9.46922C0.490378 9.36922 0.490378 9.31922 0.630378 9.31922H1.31038C1.32879 9.3174 1.34736 9.31987 1.36466 9.32642C1.38196 9.33297 1.39751 9.34343 1.41009 9.35699C1.42268 9.37054 1.43196 9.38682 1.43721 9.40455C1.44247 9.42229 1.44355 9.441 1.44038 9.45922C1.46213 9.52791 1.47885 9.59809 1.49038 9.66922L1.47038 9.67922ZM10.7004 10.9892C10.7004 10.9892 10.7504 10.9892 10.7704 10.9892L11.0104 11.4292C11.0104 11.4292 11.0104 11.4792 11.0104 11.4992L10.3604 11.7692H10.3004C10.245 11.7698 10.1908 11.7526 10.1458 11.7202C10.1009 11.6879 10.0674 11.6419 10.0504 11.5892C10.0279 11.5375 10.0236 11.4798 10.0382 11.4253C10.0527 11.3708 10.0852 11.3229 10.1304 11.2892C10.3204 11.1992 10.5204 11.0992 10.7204 10.9792L10.7004 10.9892ZM1.81038 11.4492C1.89038 11.3092 1.97038 11.1592 2.04038 11.0092C2.11038 10.8592 2.09038 11.0092 2.13038 11.0092L2.69038 11.3392C2.72766 11.3617 2.75778 11.3943 2.77726 11.4333C2.79673 11.4722 2.80475 11.5159 2.80038 11.5592C2.80079 11.6004 2.7914 11.6412 2.77298 11.678C2.75455 11.7149 2.72762 11.7469 2.69441 11.7713C2.6612 11.7957 2.62266 11.8119 2.58197 11.8185C2.54128 11.8251 2.4996 11.8219 2.46038 11.8092C2.25038 11.7392 2.05038 11.6392 1.84038 11.5592C1.82447 11.5605 1.80868 11.5555 1.79649 11.5452C1.7843 11.5349 1.7767 11.5201 1.77538 11.5042C1.77405 11.4883 1.7791 11.4725 1.78942 11.4603C1.79973 11.4481 1.81447 11.4405 1.83038 11.4392L1.81038 11.4492ZM1.64038 13.8792V12.1892C1.63543 12.1093 1.63543 12.0291 1.64038 11.9492C1.64038 11.8792 1.64038 11.8492 1.74038 11.8892L2.33038 12.1292C2.42357 12.1651 2.52378 12.179 2.62322 12.1699C2.72266 12.1607 2.81865 12.1288 2.90376 12.0766C2.98887 12.0244 3.06081 11.9532 3.11398 11.8687C3.16715 11.7842 3.20014 11.6885 3.21038 11.5892C3.22845 11.4652 3.2085 11.3386 3.15315 11.2261C3.09781 11.1136 3.00968 11.0206 2.90038 10.9592L2.35038 10.6392C2.35038 10.6392 2.28038 10.5892 2.35038 10.5292C2.50737 10.2082 2.63457 9.87348 2.73038 9.52922C2.95038 8.93922 3.16038 8.33922 3.38038 7.73922C3.40096 7.66359 3.44704 7.5974 3.51082 7.55184C3.5746 7.50628 3.65216 7.48416 3.73038 7.48922H9.17038C9.24636 7.48211 9.32238 7.50239 9.38472 7.5464C9.44707 7.59041 9.49163 7.65525 9.51038 7.72922L10.3604 10.0792C10.4048 10.2334 10.4686 10.3812 10.5504 10.5192C10.5504 10.5192 10.5504 10.5892 10.5504 10.6092L10.0004 10.9392C9.85671 11.0202 9.74918 11.1527 9.69956 11.3099C9.64994 11.4672 9.66194 11.6374 9.73313 11.7861C9.80432 11.9349 9.92938 12.051 10.083 12.111C10.2366 12.171 10.4072 12.1703 10.5604 12.1092C10.7604 12.0392 10.9604 11.9492 11.1504 11.8692C11.3404 11.7892 11.2704 11.8692 11.2904 11.9392V13.9392C11.2931 14.0516 11.273 14.1634 11.2313 14.2677C11.1895 14.3721 11.127 14.4669 11.0475 14.5464C10.968 14.6258 10.8732 14.6884 10.7689 14.7301C10.6645 14.7718 10.5528 14.792 10.4404 14.7892H6.44038C5.13038 14.7892 3.82038 14.7892 2.52038 14.7892C2.40225 14.7893 2.28531 14.7656 2.17654 14.7195C2.06777 14.6734 1.96939 14.6059 1.88727 14.521C1.80515 14.436 1.74097 14.3355 1.69855 14.2252C1.65614 14.1149 1.63635 13.9973 1.64038 13.8792ZM3.43038 16.0592C3.43038 16.152 3.3935 16.2411 3.32787 16.3067C3.26223 16.3723 3.1732 16.4092 3.08038 16.4092H2.71038C2.66276 16.4119 2.61509 16.4049 2.57029 16.3885C2.52549 16.3722 2.48451 16.3468 2.44986 16.3141C2.41521 16.2813 2.38762 16.2418 2.3688 16.1979C2.34997 16.1541 2.3403 16.1069 2.34038 16.0592V15.2592C2.34038 15.1992 2.34038 15.1892 2.42038 15.1892H3.29038C3.36038 15.1892 3.39038 15.1892 3.39038 15.2792C3.38038 15.5892 3.39038 15.7992 3.38038 16.0592H3.43038ZM9.12038 16.4092H3.81038C3.69038 16.4092 3.69038 16.4092 3.73038 16.2992C3.74482 16.2199 3.74482 16.1386 3.73038 16.0592V15.2992C3.73038 15.2092 3.73038 15.1892 3.84038 15.1892H8.96038C9.06038 15.1892 9.08038 15.1892 9.08038 15.3092V15.9792C9.0773 16.0946 9.09422 16.2096 9.13038 16.3192C9.16038 16.3992 9.14038 16.4092 9.07038 16.4092H9.12038ZM10.5604 16.0892C10.5556 16.1725 10.5204 16.2512 10.4614 16.3102C10.4023 16.3692 10.3237 16.4044 10.2404 16.4092H9.84038C9.75971 16.4045 9.6836 16.3703 9.62646 16.3131C9.56932 16.256 9.53514 16.1799 9.53038 16.0992C9.53038 15.8192 9.53038 15.5492 9.53038 15.2692C9.53038 15.2092 9.53038 15.1892 9.61038 15.1892H10.4704C10.5304 15.1892 10.5604 15.1892 10.5604 15.2692V16.0892Z" stroke="#D5692B" stroke-width="0.25" stroke-miterlimit="10" stroke-linecap="round"/>
<path d="M6.42911 13.0805H9.98911C10.0527 13.0739 10.1169 13.0812 10.1773 13.1019C10.2378 13.1226 10.293 13.1563 10.3391 13.2005C10.3956 13.2571 10.4328 13.3301 10.4454 13.4092C10.4579 13.4882 10.4452 13.5691 10.4091 13.6405C10.3291 13.7805 10.2491 13.9205 10.1791 14.0705C10.1173 14.2049 10.0166 14.3178 9.89007 14.3944C9.76351 14.4711 9.61688 14.508 9.46911 14.5005H3.36911C3.22979 14.5036 3.09237 14.4678 2.97226 14.3971C2.85215 14.3265 2.7541 14.2237 2.68911 14.1005C2.60911 13.9505 2.52911 13.8005 2.45911 13.6505C2.42286 13.5962 2.40203 13.5332 2.39886 13.468C2.39569 13.4028 2.41029 13.338 2.4411 13.2805C2.47192 13.223 2.51778 13.1749 2.57379 13.1414C2.6298 13.108 2.69386 13.0904 2.75911 13.0905H6.42911V13.0805ZM6.42911 13.4805H2.87911C2.82911 13.4805 2.80911 13.4805 2.87911 13.5405L3.03911 13.8405C3.07192 13.9281 3.13302 14.0022 3.21273 14.0511C3.29243 14.1 3.38617 14.1209 3.47911 14.1105H9.51911C9.57557 14.11 9.63096 14.095 9.67998 14.067C9.729 14.039 9.77002 13.9989 9.79911 13.9505L10.0191 13.5405V13.4805H6.42911Z" stroke="#D5692B" stroke-width="0.25" stroke-miterlimit="10" stroke-linecap="round"/>
<path d="M6.41189 9.96998H3.11189C3.0528 9.98479 2.99097 9.98479 2.93189 9.96998C2.88822 9.94472 2.85571 9.90389 2.84088 9.85567C2.82604 9.80746 2.82997 9.75542 2.85189 9.70998L3.21189 8.70998L3.42189 8.12998C3.45825 8.00431 3.53673 7.89497 3.64416 7.82032C3.75159 7.74566 3.88143 7.71023 4.01189 7.71998H8.83189C8.96431 7.70581 9.09746 7.7393 9.20742 7.81444C9.31739 7.88958 9.39697 8.00145 9.43189 8.12998L10.0019 9.68998C10.0719 9.87998 10.0019 9.99998 9.78189 9.99998H6.41189V9.96998ZM6.41189 9.57998H9.41189C9.53189 9.57998 9.53189 9.57998 9.50189 9.47998L9.07189 8.23998C9.07189 8.09998 8.97189 8.06998 8.83189 8.06998H4.03189C3.88189 8.06998 3.84189 8.06998 3.79189 8.23998L3.34189 9.45998C3.34189 9.57998 3.34189 9.57998 3.43189 9.57998H6.41189Z" stroke="#D5692B" stroke-width="0.25" stroke-miterlimit="10" stroke-linecap="round"/>
<path d="M6.42028 12.4214H4.18028C4.08474 12.4331 3.98782 12.4243 3.89592 12.3957C3.80402 12.3671 3.71923 12.3193 3.64718 12.2555C3.57512 12.1917 3.51742 12.1133 3.47791 12.0256C3.4384 11.9378 3.41797 11.8427 3.41797 11.7464C3.41797 11.6502 3.4384 11.555 3.47791 11.4672C3.51742 11.3795 3.57512 11.3011 3.64718 11.2373C3.71923 11.1735 3.80402 11.1257 3.89592 11.0971C3.98782 11.0685 4.08474 11.0598 4.18028 11.0714H8.64028C8.76143 11.0609 8.88325 11.082 8.99372 11.1329C9.10419 11.1838 9.19951 11.2625 9.27028 11.3614C9.34344 11.4575 9.38789 11.5724 9.39851 11.6927C9.40913 11.8131 9.38547 11.934 9.33028 12.0414C9.27551 12.1585 9.18755 12.2569 9.07733 12.3245C8.96711 12.3921 8.83948 12.4257 8.71028 12.4214H6.42028ZM6.42028 11.4214H4.17028C4.13268 11.4201 4.09519 11.4263 4.06005 11.4398C4.02492 11.4532 3.99286 11.4737 3.96579 11.4998C3.93872 11.5259 3.9172 11.5573 3.90251 11.5919C3.88782 11.6265 3.88025 11.6638 3.88028 11.7014C3.88028 11.8914 4.01028 12.0014 4.24028 12.0014H8.64028H8.80028C8.83727 11.9945 8.87241 11.98 8.90344 11.9587C8.93448 11.9374 8.96072 11.9099 8.9805 11.8779C9.00027 11.8459 9.01313 11.8101 9.01826 11.7728C9.02339 11.7355 9.02067 11.6976 9.01028 11.6614C9.00001 11.6234 8.98212 11.5879 8.9577 11.5571C8.93328 11.5262 8.90284 11.5007 8.86822 11.482C8.83361 11.4632 8.79555 11.4518 8.75636 11.4482C8.71718 11.4447 8.67768 11.4492 8.64028 11.4614L6.42028 11.4214Z" stroke="#D5692B" stroke-width="0.25" stroke-miterlimit="10" stroke-linecap="round"/>
<path d="M6.73066 9.44966C6.61066 9.44966 6.53066 9.38966 6.52066 9.29966C6.51006 9.25332 6.51632 9.20471 6.53831 9.16257C6.5603 9.12042 6.59658 9.08748 6.64066 9.06966L7.98066 8.58966L8.49066 8.42966C8.5182 8.41862 8.54796 8.41418 8.57753 8.4167C8.6071 8.41923 8.63567 8.42865 8.66094 8.4442C8.68622 8.45975 8.7075 8.48101 8.72308 8.50627C8.73866 8.53153 8.7481 8.56009 8.75066 8.58966C8.76743 8.63751 8.7654 8.68995 8.74498 8.73636C8.72456 8.78277 8.68727 8.8197 8.64066 8.83966L6.85066 9.42966L6.73066 9.44966Z" stroke="#D5692B" stroke-width="0.25" stroke-miterlimit="10" stroke-linecap="round"/>
<path d="M4.30119 9.32133C4.25535 9.32475 4.20982 9.31144 4.17305 9.28386C4.13627 9.25627 4.11074 9.21629 4.10119 9.17133C4.0882 9.12754 4.09233 9.08046 4.11275 9.03961C4.13318 8.99876 4.16837 8.9672 4.21119 8.95133L4.52119 8.85133L6.06119 8.34133C6.10327 8.32035 6.15139 8.31486 6.19711 8.32584C6.24283 8.33681 6.28322 8.36354 6.31119 8.40133C6.33571 8.43654 6.34885 8.47842 6.34885 8.52133C6.34885 8.56424 6.33571 8.60612 6.31119 8.64133C6.27849 8.67038 6.24136 8.69401 6.20119 8.71133L4.39119 9.30133L4.30119 9.32133Z" stroke="#D5692B" stroke-width="0.25" stroke-miterlimit="10" stroke-linecap="round"/>
</g>
<defs>
<clipPath id="clip0_2800_18414">
<rect width="23.51" height="9.92" fill="white" transform="translate(0 7)"/>
</clipPath>
</defs>
</svg>
