<svg width="24" height="24" viewBox="0 0 24 24" fill="none" xmlns="http://www.w3.org/2000/svg">
<rect width="24" height="24" fill="white"/>
<g clip-path="url(#clip0_2800_18390)">
<path d="M21.3762 5.94922H2.54758C1.88057 5.94922 1.33984 6.47194 1.33984 7.11674V7.12514C1.33984 7.76994 1.88057 8.29266 2.54758 8.29266H21.3762C22.0432 8.29266 22.5839 7.76994 22.5839 7.12514V7.11674C22.5839 6.47194 22.0432 5.94922 21.3762 5.94922Z" stroke="#D5692B" stroke-width="0.75" stroke-miterlimit="10" stroke-linecap="round"/>
<path d="M21.1944 8.79688H2.49609V17.8935H21.1944V8.79688Z" stroke="#D5692B" stroke-width="0.75" stroke-miterlimit="10" stroke-linecap="round"/>
<path d="M10.1477 20.6641H2.64062" stroke="#D5692B" stroke-width="0.75" stroke-miterlimit="10" stroke-linecap="round"/>
<path d="M21.4806 20.6641H13.9648" stroke="#D5692B" stroke-width="0.75" stroke-miterlimit="10" stroke-linecap="round"/>
<path d="M12.0774 20.6895H11.9297" stroke="#D5692B" stroke-width="0.75" stroke-miterlimit="10" stroke-linecap="round"/>
<path d="M2.64407 20.6642C2.47104 20.6642 2.29972 20.6311 2.13997 20.5668C1.98022 20.5026 1.8352 20.4084 1.71325 20.2897C1.59131 20.1711 1.49485 20.0302 1.42943 19.8754C1.364 19.7205 1.33091 19.5547 1.33206 19.3875V19.3875C1.33206 19.0511 1.47029 18.7285 1.71634 18.4906C1.96239 18.2528 2.2961 18.1191 2.64407 18.1191H21.3597C21.7085 18.1191 22.0431 18.2525 22.2905 18.4901C22.538 18.7277 22.6781 19.0503 22.6804 19.3875V19.3875C22.6804 19.7261 22.5413 20.0508 22.2936 20.2902C22.0459 20.5297 21.71 20.6642 21.3597 20.6642" stroke="#D5692B" stroke-width="0.75" stroke-miterlimit="10" stroke-linecap="round"/>
<path d="M6.09014 3.31055C6.30995 3.31054 6.5276 3.35253 6.73057 3.4341C6.93354 3.51567 7.11783 3.63522 7.27285 3.78586C7.42788 3.9365 7.55058 4.11528 7.63391 4.31191C7.71723 4.50854 7.75954 4.71915 7.75839 4.93164V5.91437H4.4219V4.93164C4.42075 4.71915 4.46306 4.50854 4.54638 4.31191C4.62971 4.11528 4.75241 3.9365 4.90743 3.78586C5.06246 3.63522 5.24675 3.51567 5.44972 3.4341C5.65269 3.35253 5.87033 3.31054 6.09014 3.31055V3.31055Z" stroke="#D5692B" stroke-width="0.75" stroke-miterlimit="10" stroke-linecap="round"/>
<path d="M17.9933 3.34377C18.4358 3.34377 18.8601 3.51368 19.173 3.81612C19.4858 4.11856 19.6616 4.52875 19.6616 4.95646V5.9476H16.3164V4.95646C16.3164 4.74397 16.3598 4.53358 16.4442 4.33737C16.5286 4.14116 16.6523 3.963 16.8081 3.81314C16.9639 3.66328 17.1489 3.54466 17.3523 3.46411C17.5557 3.38356 17.7735 3.34267 17.9933 3.34377V3.34377Z" stroke="#D5692B" stroke-width="0.75" stroke-miterlimit="10" stroke-linecap="round"/>
<path d="M11.8528 10.1896L10.0369 12.7767C10.0137 12.8137 10.0061 12.8579 10.0159 12.9002C10.0256 12.9424 10.0518 12.9794 10.089 13.0035L11.6356 13.8434L11.1404 16.506C11.1444 16.515 11.1511 16.5227 11.1596 16.528C11.1681 16.5334 11.178 16.5363 11.1881 16.5363C11.1983 16.5363 11.2082 16.5334 11.2167 16.528C11.2252 16.5227 11.2319 16.515 11.2359 16.506L13.5906 13.541C13.6136 13.5112 13.6296 13.4769 13.6373 13.4404C13.645 13.404 13.6442 13.3664 13.6351 13.3302C13.626 13.2941 13.6087 13.2604 13.5844 13.2315C13.5602 13.2025 13.5297 13.1792 13.495 13.163L12.0787 12.5415L12.0092 10.1644C12 10.151 11.9868 10.1403 11.9715 10.1339C11.9561 10.1274 11.9391 10.1254 11.9226 10.1281C11.9061 10.1308 11.8907 10.138 11.8783 10.1489C11.8659 10.1598 11.8571 10.174 11.8528 10.1896V10.1896Z" stroke="#D5692B" stroke-width="0.75" stroke-miterlimit="10" stroke-linecap="round"/>
<path d="M15.6758 13.3828H18.5605" stroke="#D5692B" stroke-width="0.75" stroke-miterlimit="10" stroke-linecap="round"/>
<path d="M6.875 11.9883V14.7181" stroke="#D5692B" stroke-width="0.75" stroke-miterlimit="10" stroke-linecap="round"/>
<path d="M5.38672 13.3818L8.37566 13.3398" stroke="#D5692B" stroke-width="0.75" stroke-miterlimit="10" stroke-linecap="round"/>
</g>
<defs>
<clipPath id="clip0_2800_18390">
<rect width="22" height="18" fill="white" transform="translate(1 3)"/>
</clipPath>
</defs>
</svg>
