<svg width="24" height="24" viewBox="0 0 24 24" fill="none" xmlns="http://www.w3.org/2000/svg">
<rect width="24" height="24" fill="white"/>
<g clip-path="url(#clip0_2800_18371)">
<path d="M21.5995 6.00977H2.49953C1.82022 6.00977 1.26953 6.56046 1.26953 7.23977C1.26953 7.91908 1.82022 8.46977 2.49953 8.46977H21.5995C22.2788 8.46977 22.8295 7.91908 22.8295 7.23977C22.8295 6.56046 22.2788 6.00977 21.5995 6.00977Z" stroke="#D5692B" stroke-width="0.5" stroke-miterlimit="10" stroke-linecap="round"/>
<path d="M21.4214 9H2.44141V18.55H21.4214V9Z" stroke="#D5692B" stroke-width="0.5" stroke-miterlimit="10" stroke-linecap="round"/>
<path d="M10.2081 21.4609H2.57812" stroke="#D5692B" stroke-width="0.5" stroke-miterlimit="10" stroke-linecap="round"/>
<path d="M21.6981 21.4609H14.0781" stroke="#D5692B" stroke-width="0.5" stroke-miterlimit="10" stroke-linecap="round"/>
<path d="M15.3691 21.4609H12.7891" stroke="#D5692B" stroke-width="0.5" stroke-miterlimit="10" stroke-linecap="round"/>
<path d="M2.58 21.4708C2.22635 21.4681 1.88807 21.3258 1.63893 21.0748C1.38979 20.8238 1.24999 20.4844 1.25 20.1308V20.1308C1.25262 19.7789 1.39358 19.4421 1.64244 19.1932C1.8913 18.9444 2.22807 18.8034 2.58 18.8008H21.58C21.9319 18.8034 22.2687 18.9444 22.5176 19.1932C22.7664 19.4421 22.9074 19.7789 22.91 20.1308V20.1308C22.91 20.4844 22.7702 20.8238 22.5211 21.0748C22.2719 21.3258 21.9337 21.4681 21.58 21.4708" stroke="#D5692B" stroke-width="0.5" stroke-miterlimit="10" stroke-linecap="round"/>
<path d="M6.09169 3.25004C6.31363 3.25004 6.53339 3.29375 6.73843 3.37868C6.94347 3.46361 7.12977 3.58809 7.2867 3.74503C7.44363 3.90196 7.56812 4.08826 7.65305 4.2933C7.73798 4.49834 7.78169 4.7181 7.78169 4.94004V6.00004H4.39169V5.00004C4.3836 4.77226 4.42166 4.5452 4.50358 4.33252C4.58551 4.11983 4.70961 3.92591 4.86842 3.76243C5.02723 3.59895 5.21747 3.46928 5.42769 3.38122C5.63792 3.29317 5.86378 3.24854 6.09169 3.25004V3.25004Z" stroke="#D5692B" stroke-width="0.5" stroke-miterlimit="10" stroke-linecap="round"/>
<path d="M18.159 3.28128C18.3843 3.27991 18.6077 3.32362 18.8158 3.40982C19.024 3.49602 19.2129 3.62299 19.3713 3.78325C19.5297 3.94351 19.6544 4.13382 19.7382 4.343C19.8219 4.55218 19.863 4.77599 19.859 5.00128V6.00128H16.469V5.00128C16.465 4.77684 16.5058 4.55384 16.5889 4.34533C16.6721 4.13681 16.7959 3.94695 16.9533 3.78683C17.1106 3.62671 17.2983 3.49953 17.5053 3.41273C17.7123 3.32593 17.9345 3.28125 18.159 3.28128V3.28128Z" stroke="#D5692B" stroke-width="0.5" stroke-miterlimit="10" stroke-linecap="round"/>
<path d="M5.59047 15.3411C5.82511 15.4754 6.09012 15.5477 6.36047 15.5511C6.80047 15.5511 7.05047 15.3211 7.05047 14.9911C7.05047 14.6611 6.87047 14.5011 6.43047 14.3311C5.99047 14.1611 5.55047 13.8511 5.55047 13.3911C5.57587 13.131 5.70206 12.8912 5.90204 12.723C6.10201 12.5548 6.35989 12.4716 6.62047 12.4911C6.87642 12.4841 7.13028 12.5389 7.36047 12.6511L7.24047 13.0011C7.04725 12.8957 6.83058 12.8406 6.61047 12.8411C6.16047 12.8411 5.98047 13.1111 5.98047 13.3411C5.98047 13.5711 6.19047 13.8011 6.64047 13.9811C7.09047 14.1611 7.49047 14.4611 7.49047 14.9811C7.49047 15.5011 7.11047 15.9811 6.33047 15.9811C6.03432 15.9809 5.74264 15.9088 5.48047 15.7711L5.59047 15.3411Z" stroke="#D5692B" stroke-width="0.5" stroke-miterlimit="10" stroke-linecap="round"/>
<path d="M8.49813 12.5391V15.9091H8.07812V12.5391H8.49813Z" stroke="#D5692B" stroke-width="0.5" stroke-miterlimit="10" stroke-linecap="round"/>
<path d="M9.25 12.5391H9.68V15.5391H11.1V15.9091H9.25V12.5391Z" stroke="#D5692B" stroke-width="0.5" stroke-miterlimit="10" stroke-linecap="round"/>
<path d="M12.0297 15.9091L10.9297 12.5391H11.3897L11.9097 14.1691C12.0497 14.6191 12.1697 15.0291 12.2597 15.4091C12.3597 15.0291 12.4897 14.6091 12.6397 14.1791L13.1997 12.5391H13.6597L12.4797 15.9091H12.0297Z" stroke="#D5692B" stroke-width="0.5" stroke-miterlimit="10" stroke-linecap="round"/>
<path d="M15.7512 14.2991H14.4613V15.4991H15.9013V15.9091H14.0312V12.5391H15.8213V12.9091H14.4613V13.9091H15.7512V14.2991Z" stroke="#D5692B" stroke-width="0.5" stroke-miterlimit="10" stroke-linecap="round"/>
<path d="M16.4492 12.5801C16.7204 12.5377 16.9947 12.5176 17.2692 12.5201C17.4455 12.496 17.6248 12.5074 17.7966 12.5538C17.9684 12.6002 18.1291 12.6805 18.2692 12.7901C18.3563 12.8695 18.4247 12.9672 18.4697 13.0761C18.5146 13.185 18.5349 13.3025 18.5292 13.4201C18.5307 13.6084 18.471 13.792 18.3592 13.9435C18.2474 14.0949 18.0895 14.2061 17.9092 14.2601V14.2601C18.0419 14.3198 18.1569 14.4129 18.2428 14.5304C18.3287 14.6478 18.3826 14.7856 18.3992 14.9301C18.4521 15.241 18.5359 15.5459 18.6492 15.8401H18.2092C18.1078 15.5855 18.034 15.3206 17.9892 15.0501C17.8892 14.5901 17.7092 14.4201 17.3192 14.4001H16.9192V15.9101H16.4892L16.4492 12.5801ZM16.8792 14.1001H17.3192C17.7792 14.1001 18.0692 13.8401 18.0692 13.4701C18.0692 13.1001 17.7592 12.8501 17.2992 12.8501C17.1597 12.8333 17.0187 12.8333 16.8792 12.8501V14.1001Z" stroke="#D5692B" stroke-width="0.5" stroke-miterlimit="10" stroke-linecap="round"/>
</g>
<defs>
<clipPath id="clip0_2800_18371">
<rect width="22.17" height="18.71" fill="white" transform="translate(1 3)"/>
</clipPath>
</defs>
</svg>
