<svg width="24" height="24" viewBox="0 0 24 24" fill="none" xmlns="http://www.w3.org/2000/svg">
<g clip-path="url(#clip0_2800_18492)">
<rect width="24" height="24" fill="white"/>
<path d="M15.1115 22.1087C14.1271 22.1105 13.163 21.8285 12.3347 21.2964C11.5064 20.7643 10.8491 20.0048 10.4415 19.1087C10.2644 18.7665 10.1815 18.3834 10.2015 17.9987C10.2068 17.8433 10.165 17.6899 10.0815 17.5587C9.08644 15.7651 7.91748 14.0736 6.59149 12.5087C6.48532 12.3726 6.34335 12.2687 6.18149 12.2087C5.72238 12.035 5.31592 11.7456 5.00149 11.3687C4.54813 10.8698 4.19753 10.2865 3.96974 9.65202C3.74195 9.01758 3.64143 8.34446 3.67394 7.67114C3.70644 6.99782 3.87133 6.33751 4.15918 5.72796C4.44702 5.1184 4.85218 4.57156 5.35149 4.11868C5.89306 3.56178 6.54646 3.12592 7.26866 2.8398C7.99085 2.55368 8.76547 2.42379 9.54149 2.45868C10.2787 2.49964 10.9966 2.7094 11.6398 3.07177C12.2831 3.43414 12.8345 3.93944 13.2515 4.54868C13.675 5.10092 13.9813 5.73386 14.1515 6.40868C14.1856 6.49495 14.2059 6.58608 14.2115 6.67868C14.2248 7.13398 14.3785 7.57406 14.6515 7.93868C15.4617 9.35776 16.4313 10.6797 17.5415 11.8787C17.7186 12.0598 17.9206 12.2147 18.1415 12.3387C18.8138 12.7105 19.3888 13.2357 19.8197 13.8717C20.2507 14.5077 20.5254 15.2365 20.6215 15.9987C20.7605 16.8714 20.659 17.7656 20.3277 18.5849C19.9964 19.4043 19.448 20.1178 18.7415 20.6487C18.3036 21.0389 17.8201 21.3747 17.3015 21.6487C16.6137 21.9597 15.8663 22.1167 15.1115 22.1087V22.1087ZM20.0015 16.7587C20.007 15.9396 19.7818 15.1356 19.3515 14.4387C18.752 13.5725 18.0832 12.7565 17.3515 11.9987C16.4835 11.0253 15.6975 9.98169 15.0015 8.87868C14.3015 7.75868 13.7315 6.55868 13.0815 5.39868C12.6318 4.62156 11.9542 4.00142 11.1403 3.62222C10.3265 3.24302 9.41576 3.1231 8.53149 3.27868C7.62225 3.46427 6.77752 3.88491 6.08149 4.49868C5.41278 4.99939 4.90441 5.68405 4.61849 6.469C4.33257 7.25394 4.28149 8.10517 4.47149 8.91868C4.68681 9.81514 5.13928 10.6372 5.78149 11.2987C6.8558 12.5293 7.8575 13.8215 8.78149 15.1687C9.66149 16.4887 10.4215 17.8687 11.2215 19.2387C11.6779 20.0074 12.3581 20.6185 13.1712 20.9902C13.9843 21.3619 14.8915 21.4765 15.7715 21.3187C17.0489 21.0503 18.1919 20.3426 19.0015 19.3187C19.6313 18.613 19.9862 17.7044 20.0015 16.7587V16.7587ZM6.00149 11.9387L5.37149 11.1687C4.69823 10.4461 4.2754 9.52602 4.16554 8.54452C4.05568 7.56302 4.26464 6.57222 4.76149 5.71868C5.30874 4.83752 6.08227 4.11924 7.00149 3.63868C7.61562 3.24655 8.32335 3.0256 9.05149 2.99868C9.9381 2.94024 10.8218 3.14916 11.5884 3.59842C12.355 4.04767 12.9692 4.7166 13.3515 5.51868L14.0015 6.67868C14.0328 6.5914 14.0328 6.49596 14.0015 6.40868C13.8208 5.78394 13.5332 5.19523 13.1515 4.66868C12.6051 3.88597 11.8368 3.2848 10.9457 2.94261C10.0545 2.60041 9.08135 2.53287 8.15149 2.74868C7.17889 3.00786 6.28343 3.49848 5.54149 4.17868C4.98664 4.6445 4.54519 5.2306 4.25064 5.89248C3.95608 6.55437 3.81616 7.27465 3.84149 7.99868C3.86633 9.20196 4.32436 10.3559 5.13149 11.2487C5.35929 11.5477 5.6584 11.785 6.00149 11.9387V11.9387ZM18.2515 12.6487C18.3035 12.7007 18.3504 12.7577 18.3915 12.8187C18.9046 13.3601 19.3512 13.9611 19.7215 14.6087C20.0909 15.2504 20.2778 15.9809 20.2619 16.7212C20.2461 17.4615 20.0281 18.1834 19.6315 18.8087C19.0513 19.7301 18.2414 20.4847 17.2815 20.9987C16.3621 21.5028 15.2984 21.6784 14.2658 21.4966C13.2332 21.3148 12.2934 20.7864 11.6015 19.9987C11.2683 19.5647 10.9675 19.1068 10.7015 18.6287C10.64 18.4836 10.5518 18.3513 10.4415 18.2387C10.4378 18.2853 10.4378 18.3321 10.4415 18.3787V18.5587C10.5959 19.1032 10.8769 19.6035 11.2615 20.0187C11.8204 20.7461 12.5765 21.2977 13.4398 21.6079C14.3031 21.9182 15.2374 21.9739 16.1315 21.7687C17.5025 21.4614 18.7105 20.656 19.5215 19.5087C20.1745 18.6305 20.5044 17.5538 20.4552 16.4606C20.406 15.3673 19.9808 14.3246 19.2515 13.5087C18.9724 13.1567 18.6256 12.8643 18.2315 12.6487H18.2515Z" stroke="#D5692B" stroke-width="0.75" stroke-miterlimit="10" stroke-linecap="round"/>
<path d="M12.0797 15.32C11.5046 15.318 10.9429 15.1457 10.4657 14.8247C9.98848 14.5038 9.61706 14.0486 9.39834 13.5167C9.17962 12.9848 9.12342 12.4 9.23683 11.8362C9.35024 11.2723 9.62817 10.7548 10.0355 10.3488C10.4429 9.94282 10.9614 9.66666 11.5256 9.55519C12.0899 9.44371 12.6744 9.50192 13.2056 9.72246C13.7367 9.94301 14.1906 10.316 14.51 10.7943C14.8293 11.2726 14.9997 11.8349 14.9997 12.41C14.9997 12.793 14.9241 13.1722 14.7772 13.5259C14.6304 13.8796 14.4151 14.2009 14.1438 14.4712C13.8726 14.7416 13.5506 14.9557 13.1964 15.1013C12.8422 15.247 12.4627 15.3213 12.0797 15.32ZM14.7797 12.41C14.8021 12.0423 14.749 11.6738 14.6237 11.3274C14.4984 10.981 14.3035 10.6638 14.0511 10.3955C13.7986 10.1272 13.4939 9.91342 13.1558 9.76728C12.8176 9.62114 12.4531 9.54574 12.0847 9.54574C11.7163 9.54574 11.3518 9.62114 11.0136 9.76728C10.6754 9.91342 10.3707 10.1272 10.1183 10.3955C9.86584 10.6638 9.67096 10.981 9.54566 11.3274C9.42036 11.6738 9.36728 12.0423 9.38969 12.41C9.38573 12.7632 9.45139 13.1138 9.58293 13.4417C9.71446 13.7696 9.9093 14.0684 10.1563 14.3209C10.4033 14.5735 10.6977 14.775 11.0225 14.9138C11.3474 15.0526 11.6964 15.1261 12.0497 15.13C12.4077 15.1313 12.7625 15.0619 13.0937 14.9258C13.4248 14.7897 13.7259 14.5896 13.9795 14.3369C14.2331 14.0842 14.4344 13.7839 14.5717 13.4532C14.709 13.1225 14.7797 12.768 14.7797 12.41V12.41Z" stroke="#D5692B" stroke-width="0.75" stroke-miterlimit="10" stroke-linecap="round"/>
<path d="M16.2604 18.8204C16.1782 18.822 16.0968 18.8048 16.0223 18.7702C15.9478 18.7355 15.8821 18.6843 15.8304 18.6204C15.4804 18.1904 15.1304 17.7704 14.8304 17.3404C14.7814 17.2921 14.7425 17.2345 14.716 17.1709C14.6894 17.1074 14.6758 17.0393 14.6758 16.9704C14.6758 16.9016 14.6894 16.8335 14.716 16.7699C14.7425 16.7064 14.7814 16.6488 14.8304 16.6004C14.9368 16.502 15.0504 16.4118 15.1704 16.3304C15.2295 16.2873 15.2968 16.2566 15.3681 16.2402C15.4395 16.2239 15.5134 16.2222 15.5854 16.2353C15.6575 16.2484 15.7261 16.276 15.7871 16.3164C15.8481 16.3568 15.9003 16.4092 15.9404 16.4704L16.8504 17.5804C17.0204 17.7904 17.1504 18.0204 17.0004 18.2804C16.9247 18.4196 16.8191 18.5403 16.6911 18.6336C16.5631 18.727 16.416 18.7908 16.2604 18.8204V18.8204ZM16.8804 18.0204C16.8691 17.9202 16.8272 17.826 16.7604 17.7504C16.4504 17.3704 16.1504 16.9904 15.8404 16.6204C15.5304 16.2504 15.4404 16.3704 15.1804 16.6204C14.9204 16.8704 14.7904 17.0704 15.0104 17.3404C15.2304 17.6104 15.6104 18.0904 15.9104 18.4604C15.9543 18.5394 16.0237 18.6012 16.1073 18.6357C16.1908 18.6702 16.2835 18.6754 16.3704 18.6504C16.5071 18.5997 16.6271 18.5122 16.7171 18.3974C16.8072 18.2827 16.8637 18.1453 16.8804 18.0004V18.0204Z" stroke="#D5692B" stroke-width="0.75" stroke-miterlimit="10" stroke-linecap="round"/>
<path d="M12.0898 11.1799C12.2525 11.1771 12.4141 11.2074 12.5647 11.269C12.7153 11.3305 12.8518 11.4221 12.9659 11.5381C13.08 11.6541 13.1694 11.792 13.2285 11.9436C13.2876 12.0952 13.3153 12.2572 13.3098 12.4199C13.3112 12.5848 13.2794 12.7483 13.2164 12.9007C13.1533 13.0531 13.0602 13.1912 12.9426 13.3069C12.8251 13.4226 12.6855 13.5134 12.5321 13.5741C12.3787 13.6347 12.2147 13.6639 12.0498 13.6599C11.7278 13.6423 11.4242 13.5038 11.1998 13.272C10.9755 13.0403 10.8469 12.7323 10.8398 12.4099C10.8451 12.0818 10.9791 11.769 11.213 11.5389C11.4468 11.3088 11.7618 11.1798 12.0898 11.1799V11.1799ZM10.9998 12.3899C10.9917 12.5261 11.0115 12.6627 11.058 12.791C11.1046 12.9193 11.177 13.0368 11.2706 13.1361C11.3643 13.2354 11.4774 13.3145 11.6028 13.3684C11.7282 13.4224 11.8633 13.4501 11.9998 13.4499C12.195 13.4495 12.3858 13.3921 12.5487 13.2846C12.7116 13.1772 12.8395 13.0244 12.9166 12.8451C12.9937 12.6659 13.0167 12.468 12.9828 12.2758C12.9488 12.0836 12.8594 11.9056 12.7254 11.7636C12.5915 11.6217 12.419 11.522 12.2291 11.4769C12.0393 11.4318 11.8404 11.4433 11.6569 11.5099C11.4735 11.5764 11.3135 11.6952 11.1968 11.8516C11.08 12.008 11.0116 12.1951 10.9998 12.3899Z" stroke="#D5692B" stroke-width="0.75" stroke-miterlimit="10" stroke-linecap="round"/>
</g>
<defs>
<clipPath id="clip0_2800_18492">
<rect width="24" height="24" fill="white"/>
</clipPath>
</defs>
</svg>
