<svg width="116" height="115" viewBox="0 0 116 115" fill="none" xmlns="http://www.w3.org/2000/svg">
<path fill-rule="evenodd" clip-rule="evenodd" d="M65.7421 97.7702C65.2914 97.5912 64.7885 97.596 64.3415 97.7838C63.8945 97.9715 63.539 98.3272 63.3515 98.7744C63.1828 99.1612 62.9039 99.4898 62.5497 99.7192C62.1955 99.9484 61.7815 100.069 61.3596 100.064H54.6438C54.2218 100.069 53.8078 99.9484 53.4536 99.7192C53.0994 99.4898 52.8206 99.1612 52.6519 98.7744C52.464 98.3275 52.1085 97.972 51.6615 97.7843C51.2147 97.5965 50.7119 97.5914 50.2614 97.7702C50.0389 97.8552 49.8357 97.9838 49.6635 98.1482C49.4913 98.3128 49.3536 98.5099 49.2584 98.7283C49.1633 98.9465 49.1127 99.1816 49.1094 99.4197C49.1061 99.6579 49.1503 99.8941 49.2394 100.115C49.6832 101.178 50.4349 102.086 51.3978 102.719C52.3609 103.353 53.4912 103.683 54.6438 103.67H61.3609C62.5134 103.683 63.6438 103.353 64.6067 102.719C65.5697 102.086 66.3213 101.178 66.7653 100.115C66.8543 99.8941 66.8985 99.6576 66.8951 99.4194C66.8916 99.1813 66.8408 98.9463 66.7456 98.7279C66.6503 98.5096 66.5125 98.3125 66.3403 98.148C66.1679 97.9836 65.9645 97.8551 65.7421 97.7702ZM87.3343 88.4759C87.0826 87.2212 86.5634 86.0355 85.8123 84.9994C85.0611 83.9635 84.0953 83.1015 82.9811 82.4723C83.3965 82.1404 83.7821 81.7729 84.1338 81.3741C84.9914 80.4023 85.6251 79.2542 85.9906 78.0105C86.3561 76.767 86.4442 75.4585 86.2488 74.1772C85.6004 69.9656 83.7698 66.0246 80.9701 62.8123C78.8671 60.3978 76.2869 58.445 73.3923 57.0765C77.053 53.277 79.1005 48.2076 79.1052 42.9314C79.0703 38.3919 77.5515 33.9885 74.7805 30.3928C72.0096 26.7971 68.1384 24.2065 63.7578 23.0162C64.9622 21.6145 65.6231 19.8268 65.6202 17.9787C65.5994 16.1991 64.8743 14.5001 63.6038 13.2538C62.3332 12.0075 60.6205 11.3153 58.8409 11.3289C57.3972 11.3063 55.9904 11.7855 54.8609 12.6847C54.2919 13.1453 53.8337 13.7278 53.5201 14.3892C53.2066 15.0507 53.0456 15.774 53.0493 16.506C53.0493 16.9943 53.2431 17.4625 53.5884 17.8077C53.9336 18.1529 54.4018 18.3469 54.8901 18.3469C55.3782 18.3469 55.8464 18.1529 56.1917 17.8077C56.5369 17.4625 56.7309 16.9943 56.7309 16.506C56.7276 16.3015 56.7718 16.099 56.8599 15.9144C56.948 15.7299 57.0776 15.5682 57.2387 15.4422C57.701 15.0929 58.2695 14.9137 58.8485 14.9344C59.6638 14.9273 60.4487 15.2443 61.0306 15.8155C61.6123 16.3868 61.9435 17.1658 61.9512 17.9812C61.9517 18.5423 61.8398 19.0975 61.6217 19.6145C61.4036 20.1313 61.0839 20.599 60.6817 20.99C59.8639 21.7934 58.762 22.2414 57.6158 22.2367C57.5701 22.2367 57.5269 22.2367 57.4825 22.2443C52.0343 22.335 46.8365 24.5483 42.9954 28.413C39.1543 32.2778 36.9731 37.4892 36.916 42.9377C36.9207 48.2139 38.9682 53.2833 42.6289 57.0829C39.734 58.4511 37.1538 60.404 35.0511 62.8186C32.2514 66.0318 30.4213 69.9737 29.7736 74.1861C29.5781 75.4674 29.6663 76.7759 30.0317 78.0194C30.3972 79.263 31.0311 80.4112 31.8887 81.383C32.2401 81.7821 32.6258 82.1496 33.0414 82.4812C31.9237 83.1069 30.9543 83.9664 30.199 85.001C29.4438 86.0355 28.9207 87.2207 28.6653 88.4759C28.4185 89.729 28.4484 91.0207 28.7528 92.2609C29.0571 93.5011 29.6286 94.6599 30.4274 95.6564L34.363 100.593C35.6 102.112 37.3338 103.146 39.2588 103.513C41.1837 103.878 43.1761 103.553 44.8849 102.595C46.5751 101.645 47.8618 100.112 48.5046 98.2832C49.1473 96.454 49.102 94.4534 48.3774 92.6552L45.9945 86.8458C45.8353 86.4602 45.6485 86.0864 45.4359 85.7274H58.9209C59.3992 85.7274 59.8582 85.5373 60.1965 85.199C60.5347 84.8607 60.7249 84.4019 60.7249 83.9234C60.7249 83.4449 60.5347 82.9861 60.1965 82.6478C59.8582 82.3094 59.3992 82.1194 58.9209 82.1194H41.9408V78.3196C41.9431 78.0819 42.0397 77.8546 42.2095 77.6881C42.3792 77.5214 42.6081 77.4289 42.846 77.431H73.1574C73.3952 77.4289 73.6241 77.5214 73.7938 77.6881C73.9636 77.8546 74.0602 78.0819 74.0626 78.3196V82.3695C72.2337 83.3471 70.801 84.9293 70.009 86.8458L67.621 92.6578C66.8963 94.4562 66.8513 96.4568 67.4941 98.286C68.1372 100.115 69.4242 101.648 71.1147 102.597C72.8234 103.556 74.8158 103.881 76.7408 103.515C78.6657 103.148 80.3995 102.115 81.6366 100.595L85.5722 95.6589C86.3714 94.6622 86.943 93.503 87.2475 92.2623C87.5518 91.0216 87.5815 89.7293 87.3343 88.4759ZM40.5786 42.9327C40.6657 38.3692 42.5397 34.0221 45.7978 30.8255C49.0558 27.6291 53.438 25.8384 58.0023 25.8384C62.5666 25.8384 66.9487 27.6291 70.2068 30.8255C73.4649 34.0221 75.3389 38.3692 75.4261 42.9327C75.3389 47.4961 73.4649 51.8433 70.2068 55.0398C66.9487 58.2363 62.5666 60.0269 58.0023 60.0269C53.438 60.0269 49.0558 58.2363 45.7978 55.0398C42.5397 51.8433 40.6657 47.4961 40.5786 42.9327ZM42.5858 88.1941L44.9738 94.006C45.3721 94.9952 45.3969 96.0955 45.0431 97.1016C44.6894 98.1076 43.9815 98.9505 43.0517 99.4726C42.1129 100.002 41.0174 100.182 39.9586 99.9817C38.8998 99.7815 37.9459 99.2136 37.2651 98.3783L33.3296 93.4423C32.8543 92.8499 32.5142 92.1606 32.3331 91.4229C32.152 90.6853 32.1342 89.9168 32.2809 89.1716C32.4306 88.4216 32.741 87.7128 33.1907 87.0942C33.6404 86.4755 34.2188 85.9616 34.886 85.5877C35.5579 85.2083 36.3022 84.9748 37.0705 84.9024C37.8387 84.8299 38.6136 84.9203 39.3446 85.1675C40.0697 85.4111 40.7341 85.8074 41.2932 86.3294C41.8523 86.8515 42.293 87.4873 42.5858 88.1941ZM73.1701 70.2149C72.6873 70.2105 72.2225 70.3979 71.8778 70.736C71.5332 71.0739 71.3368 71.535 71.3318 72.0177V73.8217H44.6843V72.019C44.6843 71.5307 44.4903 71.0625 44.1451 70.7173C43.7998 70.3721 43.3316 70.1781 42.8435 70.1781C42.3552 70.1781 41.887 70.3721 41.5418 70.7173C41.1965 71.0625 41.0027 71.5307 41.0027 72.019V74.2013C40.1938 74.5452 39.5035 75.1185 39.0168 75.8504C38.5301 76.5823 38.2685 77.4408 38.2643 78.3196V80.8587C36.8718 80.7253 35.5824 80.0672 34.6575 79.0179C34.1436 78.4365 33.7635 77.7495 33.5443 77.0052C33.3249 76.2608 33.2716 75.4775 33.388 74.7104C33.91 71.3431 35.3224 68.1765 37.4791 65.5382C39.6356 62.8999 42.458 60.8859 45.6542 59.7045C49.2646 62.2565 53.5773 63.6267 57.9985 63.6267C62.4198 63.6267 66.7324 62.2565 70.3428 59.7045C73.539 60.8858 76.3615 62.8998 78.5182 65.5381C80.6747 68.1763 82.0871 71.3431 82.6091 74.7104C82.7255 75.4775 82.6721 76.2608 82.4528 77.0052C82.2334 77.7495 81.8533 78.4365 81.3396 79.0179C80.4144 80.067 79.1251 80.7252 77.7328 80.8587V78.3196C77.7282 77.4428 77.4675 76.5863 76.9825 75.8557C76.4976 75.1251 75.8096 74.5522 75.0033 74.2076V72.019C74.9986 71.5369 74.803 71.0763 74.4593 70.7382C74.1158 70.4 73.6522 70.2119 73.1701 70.2149ZM82.6764 93.436L78.7395 98.3783C78.0596 99.2147 77.106 99.7838 76.0472 99.9851C74.9883 100.187 73.8925 100.007 72.953 99.479C72.0228 98.9568 71.3147 98.1137 70.961 97.1075C70.6072 96.1011 70.632 95.0004 71.0309 94.0111L73.4189 88.1979C73.7122 87.4905 74.1539 86.8542 74.7141 86.3321C75.2742 85.8099 75.94 85.4141 76.6664 85.1713C77.3974 84.9244 78.1722 84.8343 78.9404 84.9068C79.7086 84.9791 80.4529 85.2125 81.125 85.5915C81.7904 85.9654 82.3672 86.4787 82.816 87.0961C83.2648 87.7136 83.5748 88.4207 83.725 89.1691C83.8711 89.9139 83.853 90.6817 83.6718 91.419C83.4908 92.156 83.1509 92.8449 82.6764 93.4373V93.436ZM67.5232 82.645C67.1754 82.3059 66.7088 82.1162 66.2232 82.1162C65.7375 82.1162 65.2709 82.3059 64.9232 82.645C64.7527 82.8106 64.6172 83.0088 64.5247 83.2277C64.4322 83.4467 64.3845 83.6819 64.3845 83.9196C64.3845 84.1572 64.4322 84.3925 64.5247 84.6115C64.6172 84.8303 64.7527 85.0285 64.9232 85.1942C65.2709 85.5333 65.7375 85.7229 66.2232 85.7229C66.7088 85.7229 67.1754 85.5333 67.5232 85.1942C67.6932 85.0286 67.8284 84.8306 67.9207 84.6118C68.013 84.3932 68.0605 84.1582 68.0605 83.9208C68.0605 83.6834 68.013 83.4484 67.9207 83.2298C67.8284 83.0111 67.6932 82.8132 67.5232 82.6475V82.645ZM63.0697 49.0924C62.6891 48.7908 62.2058 48.6498 61.7227 48.6993C61.2395 48.7489 60.7949 48.9852 60.4837 49.3578C60.1802 49.7219 59.8006 50.0148 59.3714 50.2157C58.9423 50.4168 58.4742 50.5209 58.0004 50.5209C57.5265 50.5209 57.0585 50.4168 56.6294 50.2157C56.2002 50.0148 55.8205 49.7219 55.5172 49.3578C55.2058 48.9852 54.7612 48.7489 54.2782 48.6993C53.795 48.6498 53.3117 48.7908 52.9312 49.0924C52.7434 49.2391 52.5871 49.422 52.4715 49.6302C52.356 49.8386 52.2833 50.0678 52.2581 50.3047C52.233 50.5416 52.2555 50.781 52.3247 51.0089C52.3939 51.2369 52.5082 51.4486 52.6608 51.6315C53.3133 52.4139 54.1298 53.0434 55.0526 53.4753C55.9753 53.9071 56.9816 54.1311 58.0004 54.1311C59.0192 54.1311 60.0256 53.9071 60.9483 53.4753C61.871 53.0434 62.6874 52.4139 63.3401 51.6315C63.4926 51.4486 63.607 51.2369 63.676 51.0089C63.7452 50.781 63.7678 50.5416 63.7427 50.3047C63.7174 50.0678 63.6448 49.8386 63.5293 49.6302C63.4136 49.422 63.2573 49.2391 63.0697 49.0924ZM53.3552 41.6581C52.5447 40.8716 51.4598 40.4317 50.3306 40.4317C49.2012 40.4317 48.1162 40.8716 47.3059 41.6581C47.1351 41.8237 46.9995 42.0219 46.9069 42.241C46.8142 42.46 46.7665 42.6955 46.7665 42.9333C46.7665 43.1711 46.8142 43.4066 46.9069 43.6256C46.9995 43.8447 47.1351 44.0429 47.3059 44.2085C47.6537 44.5473 48.1202 44.7368 48.6059 44.7368C49.0915 44.7368 49.5579 44.5473 49.9059 44.2085C50.0195 44.0981 50.1719 44.0363 50.3306 44.0363C50.4891 44.0363 50.6415 44.0981 50.7552 44.2085C51.1033 44.547 51.5696 44.7363 52.0552 44.7363C52.5407 44.7363 53.0071 44.547 53.3552 44.2085C53.5261 44.043 53.6621 43.8447 53.7549 43.6256C53.8478 43.4065 53.8957 43.171 53.8958 42.9329C53.8959 42.695 53.8482 42.4594 53.7556 42.2401C53.663 42.0209 53.5272 41.8226 53.3565 41.6568L53.3552 41.6581ZM68.6963 41.6581C67.8858 40.8716 66.8009 40.4317 65.6716 40.4317C64.5422 40.4317 63.4573 40.8716 62.6469 41.6581C62.4762 41.8237 62.3406 42.0219 62.2479 42.241C62.1552 42.46 62.1075 42.6955 62.1075 42.9333C62.1075 43.1711 62.1552 43.4066 62.2479 43.6256C62.3406 43.8447 62.4762 44.0429 62.6469 44.2085C62.9948 44.5473 63.4612 44.7368 63.9469 44.7368C64.4325 44.7368 64.899 44.5473 65.2469 44.2085C65.3606 44.0981 65.5129 44.0363 65.6716 44.0363C65.8302 44.0363 65.9825 44.0981 66.0963 44.2085C66.4441 44.5473 66.9105 44.7368 67.3963 44.7368C67.8819 44.7368 68.3483 44.5473 68.6963 44.2085C68.8671 44.043 69.0031 43.8447 69.0959 43.6256C69.1888 43.4065 69.2367 43.171 69.2368 42.9329C69.237 42.695 69.1892 42.4594 69.0967 42.2401C69.004 42.0209 68.8683 41.8226 68.6975 41.6568L68.6963 41.6581Z" fill="#159822"/>
</svg>
