<svg width="21" height="17" viewBox="0 0 21 17" fill="none" xmlns="http://www.w3.org/2000/svg">
<path d="M1.05755 2.0409C1.05755 2.0409 -0.402171 2.95209 0.310517 4.4138C0.310517 4.4138 -0.161746 5.0877 0.207478 5.90398C0.207478 5.90398 0.447903 5.83754 0.224651 6.18873C0.00998568 6.53992 0.104438 7.52704 0.284757 7.71688C0.465076 7.9162 -0.187506 8.08705 0.267584 9.14062C0.267584 9.14062 -0.256199 10.6498 0.533769 11.4566C1.31515 12.2634 8.56224 15.8986 18.7374 11.9881C18.7374 11.9881 20.1198 11.1054 20.0683 10.403C20.0082 9.70062 20.1885 9.5013 19.8365 9.46333C19.8365 9.46333 20.1971 8.32434 19.8536 7.75484C19.8536 7.75484 20.3001 6.91958 19.9567 6.11279C19.9567 6.11279 20.3259 4.95482 19.9567 4.62261C19.9567 4.62261 20.283 3.11345 19.9223 2.76226C19.5617 2.41107 12.8985 -2.41066 1.29798 1.90802C1.2207 1.95547 1.12624 2.02191 1.05755 2.0409Z" fill="#ED6D26"/>
<path d="M2.66406 2.64803C4.46725 1.97413 6.37348 1.6704 8.27112 1.49006C10.1688 1.31921 12.0836 1.33819 13.9726 1.62294C14.7454 1.73684 15.5526 1.8982 16.3082 2.14498C16.6087 2.24939 16.9178 2.35379 17.2098 2.46769L17.6563 2.64803C17.0466 2.4582 16.437 2.26837 15.8102 2.14498C11.4825 1.03446 6.95737 1.54701 2.66406 2.64803Z" fill="#F5F5F5"/>
<path d="M17.4844 4.34777C13.3371 2.89556 9.49027 2.97149 6.99157 3.28472C4.2782 3.6359 2.53512 4.33828 2.51795 4.34777L2.49219 4.28133C2.50936 4.27184 4.26103 3.56946 6.9744 3.21827C9.48168 2.89556 13.3371 2.81963 17.5016 4.28133L17.4844 4.34777Z" fill="#F5F5F5"/>
<path d="M4.88281 5.1811C6.1708 4.79195 7.51031 4.70652 8.83265 4.64008C10.6015 4.56415 12.3875 4.64957 14.1392 4.89635C14.5771 4.97229 15.0064 5.08619 15.4443 5.1811C15.0064 5.14314 14.5685 5.07669 14.122 5.03873C12.3789 4.79195 10.6015 4.70652 8.84124 4.78245C7.51031 4.8489 6.19656 5.01025 4.88281 5.1811Z" fill="#F5F5F5"/>
<path d="M4.69922 8.51367C6.48523 8.76995 8.27125 9.0452 10.0744 9.07368C11.8776 9.12113 13.6722 8.92181 15.4325 8.51367C13.7152 9.16859 11.869 9.23503 10.0744 9.22554C8.27125 9.1591 6.45089 9.02622 4.69922 8.51367Z" fill="#F5F5F5"/>
<path d="M2.66406 9.40625C6.75987 10.5642 11.0961 11.0388 15.2606 10.0422C15.3894 10.0137 15.5869 9.95676 15.7157 9.92829L16.1794 9.82388L16.6345 9.70049C16.9007 9.63405 17.2871 9.50117 17.5447 9.41574C17.2871 9.52015 16.9092 9.68151 16.6516 9.76693C16.3254 9.89032 15.8531 10.0517 15.5182 10.1371C13.7494 10.5737 11.9204 10.7635 10.1086 10.7351C7.59277 10.6686 5.04255 10.3459 2.66406 9.40625Z" fill="#F5F5F5"/>
<path d="M2.875 11.1348C7.01374 12.2738 11.4015 12.7958 15.5832 11.6568C16.1842 11.5239 16.7681 11.3341 17.3606 11.1348L16.9313 11.3246C16.6479 11.448 16.3474 11.5524 16.064 11.6568C15.0422 12.008 13.9603 12.1883 12.8956 12.3212C11.3672 12.4826 9.82156 12.4826 8.29315 12.3307C6.45561 12.1314 4.61808 11.8182 2.875 11.1348Z" fill="#F5F5F5"/>
<path d="M10.8035 6.37836C10.5373 6.37836 10.2711 6.37836 9.99632 6.36886C7.08546 6.30242 4.63828 6.02717 2.92954 5.57157C1.10918 5.0875 0.130308 4.41359 0.0100954 3.57833C-0.0328376 3.30308 0.0616151 3.01833 0.284867 2.72409C1.32385 1.38577 5.23934 0 10.0049 0C12.641 0 15.1998 0.398647 17.2005 1.11052C19.1325 1.8034 20.2401 2.69561 20.2401 3.55935C20.2401 3.8441 20.1199 4.12885 19.8795 4.38512C18.7718 5.59055 15.1053 6.37836 10.8035 6.37836ZM9.99632 0.227798C5.29086 0.227798 1.43547 1.57561 0.430839 2.87595C0.25052 3.11324 0.173241 3.34104 0.199001 3.54037C0.413666 5.04004 4.07156 6.01767 9.99632 6.15056C14.5902 6.25496 18.5915 5.46716 19.7249 4.23325C19.9224 4.01495 20.0255 3.78715 20.0255 3.56884C20.0255 2.81901 18.9436 1.98374 17.1232 1.33832C15.1483 0.616954 12.6152 0.227798 9.99632 0.227798Z" fill="#F5F5F5"/>
<path d="M5.67292 14.1154C5.67292 14.1154 15.9854 15.691 18.8963 12.1127V11.714L19.755 11.1445C19.755 11.1445 21.9445 13.3466 17.1532 15.0361C17.1532 15.0361 12.6796 17.2476 5.47543 15.691C5.47543 15.6815 5.35522 14.0679 5.67292 14.1154Z" fill="#ED6D26"/>
</svg>
