<svg width="115" height="115" viewBox="0 0 115 115" fill="none" xmlns="http://www.w3.org/2000/svg">
<path d="M30.1325 76.0163C29.5165 76.0163 29.0171 76.5157 29.0171 77.1318C29.0171 77.8288 28.45 78.3959 27.7529 78.3959C27.0558 78.3959 26.4887 77.8288 26.4887 77.1318C26.4887 76.4347 27.0558 75.8676 27.7529 75.8676C28.3689 75.8676 28.8683 75.3681 28.8683 74.7521C28.8683 74.1361 28.3689 73.6367 27.7529 73.6367C25.8257 73.6367 24.2578 75.2045 24.2578 77.1318C24.2578 79.059 25.8257 80.6269 27.7529 80.6269C29.6801 80.6269 31.248 79.059 31.248 77.1318C31.248 76.5157 30.7486 76.0163 30.1325 76.0163Z" fill="#159822"/>
<path d="M67.02 74.8272C66.4039 74.8272 65.9045 75.3266 65.9045 75.9427C65.9045 77.2958 64.8036 78.3967 63.4505 78.3967C62.0974 78.3967 60.9965 77.2958 60.9965 75.9427C60.9965 74.5895 62.0974 73.4887 63.4505 73.4887C64.0665 73.4887 64.5659 72.9892 64.5659 72.3732C64.5659 71.7572 64.0665 71.2578 63.4505 71.2578C60.8672 71.2578 58.7656 73.3594 58.7656 75.9427C58.7656 78.5259 60.8672 80.6276 63.4505 80.6276C66.0337 80.6276 68.1354 78.5259 68.1354 75.9427C68.1354 75.3266 67.636 74.8272 67.02 74.8272Z" fill="#159822"/>
<path d="M94.384 78.396H76.537C76.496 78.396 76.4627 78.3626 76.4627 78.3216V58.0946C76.4627 56.8235 75.4286 55.7894 74.1574 55.7894H71.7034V31.9186C71.7034 30.6474 70.6693 29.6133 69.3981 29.6133H62.2592C61.6432 29.6133 61.1437 30.1127 61.1437 30.7288C61.1437 31.3448 61.6432 31.8442 62.2592 31.8442H64.7132V62.9908C64.2954 62.9507 63.8741 62.9283 63.449 62.9283C63.0225 62.9283 62.601 62.9496 62.1848 62.9899V56.9902C62.1848 55.9605 61.9127 54.9449 61.3978 54.053L52.6377 38.8792C51.6622 36.8627 49.5916 35.5624 47.3493 35.5624H30.134C28.2068 35.5624 26.6389 37.1303 26.6389 39.0575V59.3588H25.3747C22.7915 59.3588 20.6898 61.4605 20.6898 64.0437V72.3725C20.6898 72.5078 20.7151 72.6371 20.7594 72.7571C19.9627 74.0265 19.5 75.5257 19.5 77.1318C19.5 81.6833 23.2029 85.3862 27.7544 85.3862C31.5057 85.3862 34.6784 82.8698 35.6787 79.437H51.7801C51.7827 79.437 51.7851 79.4374 51.7876 79.4374C51.7898 79.4374 51.7919 79.437 51.7941 79.437H54.678C56.0705 82.9189 59.4759 85.3862 63.4489 85.3862C68.6564 85.3862 72.8931 81.1495 72.8931 75.942C72.8931 74.2714 72.4552 72.7019 71.6911 71.339C71.6982 71.2878 71.7033 71.2359 71.7033 71.1827V66.4818C71.7052 66.4444 71.705 66.4067 71.7033 66.3694V58.0203H74.1573C74.1983 58.0203 74.2316 58.0536 74.2316 58.0946V78.3216C74.2316 79.5928 75.2657 80.6269 76.5369 80.6269H94.384C95 80.6269 95.5 80.1274 95.5 79.5114C95.5 78.8954 95 78.396 94.384 78.396ZM69.3981 31.8442C69.4392 31.8442 69.4725 31.8775 69.4725 31.9186V55.7894H66.9441V31.8442H69.3981ZM50.6422 39.8773C50.6552 39.9045 50.6691 39.9313 50.6843 39.9575L59.1374 54.5995H41.9579V41.4371C41.9579 40.8211 41.4584 40.3217 40.8424 40.3217C40.2264 40.3217 39.727 40.8211 39.727 41.4371V54.5995H37.273C35.9198 54.5995 34.8189 53.4987 34.8189 52.1455V37.7933H47.3493C48.75 37.7933 50.0426 38.6113 50.6422 39.8773ZM28.8698 39.0575C28.8698 38.3604 29.4369 37.7933 30.134 37.7933H32.588V52.1455C32.588 54.7288 34.6897 56.8305 37.273 56.8305H59.8796C59.9029 56.8305 59.9257 56.8284 59.9486 56.827C59.9509 56.8813 59.9539 56.9358 59.9539 56.9902V63.4056C58.4159 63.8349 56.9922 64.5403 55.7391 65.4648L52.0508 61.7764C50.4917 60.2174 48.4189 59.3588 46.2142 59.3588H28.8698V39.0575ZM27.7544 83.1552C24.433 83.1552 21.7309 80.4532 21.7309 77.1318C21.7309 73.8104 24.433 71.1083 27.7544 71.1083C31.0758 71.1083 33.7779 73.8104 33.7779 77.1318C33.7779 80.4532 31.0758 83.1552 27.7544 83.1552ZM27.7544 68.8774C25.9502 68.8774 24.2806 69.4608 22.9207 70.4468V64.0437C22.9207 62.6906 24.0216 61.5897 25.3747 61.5897H46.2142C47.8231 61.5897 49.3357 62.2163 50.4734 63.3539L54.0598 66.9404C51.8161 69.2796 50.4353 72.4525 50.4353 75.942C50.4353 76.3643 50.4568 76.7866 50.4974 77.2061H36.007C36.0071 77.1813 36.0089 77.1568 36.0089 77.1318C36.0088 72.5803 32.3059 68.8774 27.7544 68.8774ZM52.7427 77.2061C52.6939 76.7875 52.6663 76.3651 52.6663 75.942C52.6663 69.9963 57.5033 65.1592 63.449 65.1592C65.6207 65.1592 67.6912 65.7944 69.4725 66.9987V68.6739C67.8365 67.3157 65.7366 66.4977 63.449 66.4977C58.2415 66.4977 54.0048 70.7344 54.0048 75.942C54.0048 76.3709 54.0362 76.7922 54.0918 77.2061H52.7427ZM63.449 83.1552C59.4716 83.1552 56.2357 79.9194 56.2357 75.942C56.2357 71.9645 59.4716 68.7287 63.449 68.7287C67.4264 68.7287 70.6623 71.9645 70.6623 75.942C70.6623 79.9194 67.4264 83.1552 63.449 83.1552ZM69.4725 64.4014C68.665 63.978 67.8185 63.645 66.9441 63.4023V58.0203H69.4725V64.4014Z" fill="#159822"/>
</svg>
