<svg width="25" height="24" viewBox="0 0 25 24" fill="none" xmlns="http://www.w3.org/2000/svg">
<path d="M20.3984 22C21.2269 22 21.8984 21.3284 21.8984 20.5C21.8984 19.6716 21.2269 19 20.3984 19C19.57 19 18.8984 19.6716 18.8984 20.5C18.8984 21.3284 19.57 22 20.3984 22Z" fill="white" stroke="white" stroke-width="1.5" stroke-linecap="round" stroke-linejoin="round"/>
<path d="M10.3984 22C11.2269 22 11.8984 21.3284 11.8984 20.5C11.8984 19.6716 11.2269 19 10.3984 19C9.57001 19 8.89844 19.6716 8.89844 20.5C8.89844 21.3284 9.57001 22 10.3984 22Z" fill="white" stroke="white" stroke-width="1.5" stroke-linecap="round" stroke-linejoin="round"/>
<path d="M5.89844 4H22.8984L20.8984 15H7.89844L5.89844 4ZM5.89844 4C5.73177 3.33333 4.89844 2 2.89844 2" stroke="white" stroke-width="1.5" stroke-linecap="round" stroke-linejoin="round"/>
<path d="M20.8984 15H7.89844H6.12921C4.3449 15 3.39844 15.7812 3.39844 17C3.39844 18.2188 4.3449 19 6.12921 19H20.3984" stroke="white" stroke-width="1.5" stroke-linecap="round" stroke-linejoin="round"/>
</svg>
