<svg width="17" height="16" viewBox="0 0 17 16" fill="none" xmlns="http://www.w3.org/2000/svg">
<path d="M16.4986 6.40561C16.4613 6.66914 16.44 6.93804 16.3814 7.20156C15.8491 9.46573 14.4756 10.9178 12.2503 11.5201C11.8776 11.6223 11.4783 11.6492 11.0524 11.7138C11.095 11.5686 11.1216 11.4771 11.1536 11.3857C11.2175 11.1975 11.292 11.0092 11.3399 10.8156C11.3772 10.6812 11.4464 10.6328 11.5795 10.6166C12.3088 10.5252 12.9796 10.2617 13.5759 9.82606C14.6779 9.01935 15.3167 7.93298 15.4551 6.56695C15.6894 4.21674 14.0923 2.0924 11.7818 1.66754C9.57778 1.26418 7.37377 2.60332 6.68701 4.7653C6.33033 5.88394 6.39421 6.98644 6.79349 8.07819C6.80413 8.11583 6.82011 8.1481 6.8414 8.21264C6.64975 8.21264 6.47407 8.21264 6.29306 8.21264C6.15464 8.21264 6.01091 8.21802 5.87249 8.20726C5.8299 8.20188 5.77134 8.15348 5.75537 8.11583C5.41998 6.9972 5.3348 5.87856 5.6276 4.72765C6.18126 2.59256 8.03391 0.887717 10.19 0.559655C12.7613 0.167057 15.3327 1.74821 16.1791 4.24363C16.3389 4.7169 16.4507 5.2063 16.4773 5.70646C16.4773 5.73335 16.4932 5.76024 16.4986 5.78713C16.4986 5.99688 16.4986 6.20124 16.4986 6.40561Z" fill="white"/>
<path d="M8.05097 15.4989C8.0137 15.4881 7.97643 15.4774 7.93917 15.4666C7.50795 15.3752 7.19917 14.9611 7.24709 14.547C7.30032 14.0629 7.65169 13.7295 8.11485 13.7295C8.56204 13.7295 8.9347 14.0737 8.97729 14.5201C9.01988 14.9664 8.71643 15.3698 8.27988 15.4612C8.24262 15.4666 8.20535 15.4827 8.16809 15.4935C8.13082 15.4989 8.09355 15.4989 8.05097 15.4989Z" fill="white"/>
<path d="M4.29232 15.5C4.19649 15.4678 4.09534 15.4516 4.00484 15.4086C3.60556 15.2311 3.40858 14.7955 3.5257 14.3706C3.6375 13.9565 4.02613 13.693 4.45735 13.736C4.8513 13.7737 5.19202 14.1179 5.22396 14.5158C5.26123 14.9622 4.98972 15.3548 4.56382 15.4624C4.52123 15.4731 4.48397 15.4839 4.44138 15.5C4.39347 15.5 4.34023 15.5 4.29232 15.5Z" fill="white"/>
<path d="M4.18048 12.4185C4.23904 12.4185 4.28695 12.4185 4.33487 12.4185C5.83615 12.4185 7.33743 12.4185 8.83338 12.4239C8.95583 12.4239 9.01439 12.3916 9.04633 12.2679C9.09957 12.0474 9.16878 11.8269 9.23798 11.5849C9.15813 11.5849 9.10489 11.5849 9.04633 11.5849C7.6675 11.5849 6.28866 11.5849 4.90982 11.5849C4.7235 11.5849 4.57443 11.4666 4.52652 11.2837C4.47328 11.074 4.53717 10.8858 4.70753 10.7997C4.77141 10.7674 4.85659 10.7567 4.93112 10.7567C6.38981 10.7567 7.85383 10.7513 9.31252 10.7567C9.44028 10.7567 9.49885 10.7244 9.53079 10.5953C9.58935 10.3533 9.6692 10.1167 9.74373 9.85318C9.67453 9.85318 9.62129 9.85318 9.56805 9.85318C8.08274 9.85318 6.59743 9.85318 5.11213 9.85318C4.89918 9.85318 4.74479 9.72948 4.69155 9.52511C4.63832 9.30999 4.71817 9.10562 4.89918 9.0142C4.95242 8.98731 5.02162 8.97655 5.08018 8.97655C6.82103 8.97655 8.5672 8.97655 10.308 8.97655C10.7233 8.97655 10.9362 9.22932 10.8298 9.63805C10.702 10.1059 10.5423 10.5631 10.3879 11.0202C10.1696 11.6871 9.94071 12.354 9.72244 13.0262C9.62129 13.3328 9.45093 13.4672 9.13151 13.4672C7.39066 13.4672 5.64449 13.4672 3.90365 13.4672C3.55229 13.4672 3.34999 13.2951 3.30207 12.9402C3.16366 11.9237 3.03056 10.9127 2.89747 9.8962C2.82826 9.37991 2.76438 8.86361 2.68985 8.3527C2.65791 8.12144 2.48755 7.98699 2.2959 7.89556C1.86468 7.68582 1.42813 7.48683 0.991592 7.27708C0.746702 7.15877 0.533755 6.99742 0.501813 6.70701C0.491166 6.59407 0.528431 6.45424 0.586991 6.35206C0.656199 6.22298 0.810586 6.17996 0.943678 6.24449C1.70497 6.63171 2.46093 7.02431 3.22222 7.42229C3.27545 7.44918 3.32337 7.49758 3.3766 7.53523C3.52567 7.64817 3.61085 7.79338 3.63746 7.98699C3.77588 9.17554 3.92494 10.3587 4.06868 11.5473C4.0953 11.8269 4.13789 12.112 4.18048 12.4185Z" fill="white"/>
<path d="M10.4194 4.8895C10.4194 4.36782 10.4141 3.85153 10.4194 3.32986C10.4247 2.98566 10.7122 2.7813 10.9997 2.91575C11.1753 2.99642 11.2339 3.147 11.2339 3.33524C11.2339 4.07741 11.2339 4.8142 11.2339 5.55638C11.2339 5.75537 11.2392 5.95973 11.2339 6.15872C11.2286 6.26628 11.2605 6.32544 11.3617 6.36846C11.7397 6.53518 12.1123 6.71266 12.4797 6.89551C12.7139 7.00845 12.7884 7.27736 12.6553 7.49248C12.5489 7.66458 12.3359 7.73449 12.1443 7.64307C11.6651 7.42256 11.186 7.19669 10.7069 6.96543C10.4939 6.86325 10.4141 6.65888 10.4141 6.433C10.4194 5.91671 10.4194 5.40579 10.4194 4.8895Z" fill="white"/>
</svg>
