<svg width="136" height="135" viewBox="0 0 136 135" fill="none" xmlns="http://www.w3.org/2000/svg">
<g clip-path="url(#clip0_8589_22074)">
<path d="M68 125.5C100.033 125.5 126 99.5325 126 67.5C126 35.4675 100.033 9.5 68 9.5C35.9675 9.5 10 35.4675 10 67.5C10 99.5325 35.9675 125.5 68 125.5Z" stroke="#D1D1D1"/>
<path d="M133 67.5C133 103.399 103.899 132.5 68 132.5C32.1015 132.5 3 103.399 3 67.5C3 31.6015 32.1015 2.5 68 2.5C103.899 2.5 133 31.6015 133 67.5ZM68 134.5C105.003 134.5 135 104.503 135 67.5C135 30.4969 105.003 0.5 68 0.5C30.9969 0.5 1 30.4969 1 67.5C1 104.503 30.9969 134.5 68 134.5Z" fill="#159822" stroke="#159822"/>
<path d="M100.31 90.1484H35.6902C32.8284 90.1484 30.5 92.4768 30.5 95.3387V103.886C30.5 104.501 30.9988 105 31.6139 105H104.386C105.001 105 105.5 104.501 105.5 103.886V95.3387C105.5 92.4768 103.172 90.1484 100.31 90.1484ZM103.272 102.772H32.7277V95.3387C32.7277 93.7049 34.0568 92.376 35.6902 92.376H100.31C101.943 92.376 103.272 93.7051 103.272 95.3387V102.772Z" fill="#159822"/>
<path d="M65.6559 54.957H42.4342C37.8009 54.957 34.0312 58.7272 34.0312 63.3614V73.7781C34.0312 74.3932 34.53 74.892 35.1451 74.892C35.7602 74.892 36.2589 74.3932 36.2589 73.7781V63.3614C36.2589 59.9555 39.0293 57.1846 42.4342 57.1846H65.6559C66.271 57.1846 66.7697 56.6858 66.7697 56.0708C66.7697 55.4557 66.271 54.957 65.6559 54.957Z" fill="#159822"/>
<path d="M98.304 56.4169C97.7961 56.0699 97.1029 56.2004 96.7562 56.7083C96.4093 57.2161 96.5396 57.9093 97.0476 58.2563C98.7365 59.41 99.7448 61.3187 99.7448 63.3619V84.7006C99.7448 85.7618 98.8811 86.6254 97.82 86.6254H38.1838C37.1226 86.6254 36.2589 85.7618 36.2589 84.7006V77.4916C36.2589 76.8765 35.7602 76.3778 35.1451 76.3778C34.53 76.3778 34.0312 76.8765 34.0312 77.4916V84.7006C34.0312 86.9904 35.8941 88.8532 38.1838 88.8532H97.82C100.11 88.8532 101.973 86.9904 101.973 84.7007V63.362C101.973 60.5823 100.601 57.9861 98.304 56.4169Z" fill="#159822"/>
<path d="M61.4398 30H38.6717C36.2421 30 34.2656 31.9765 34.2656 34.4061V42.8615C34.2656 45.2911 36.2421 47.2676 38.6717 47.2676H61.4398C63.8694 47.2676 65.8459 45.2909 65.8459 42.8615V34.4061C65.8459 31.9765 63.8694 30 61.4398 30ZM63.6181 42.8615C63.6181 44.0626 62.6409 45.0398 61.4398 45.0398H38.6717C37.4705 45.0398 36.4933 44.0626 36.4933 42.8615V34.4061C36.4933 33.2049 37.4705 32.2277 38.6717 32.2277H61.4398C62.6409 32.2277 63.6181 33.2049 63.6181 34.4061V42.8615Z" fill="#159822"/>
<path d="M60.2783 34.4551H39.8366C39.2215 34.4551 38.7227 34.9539 38.7227 35.5689V41.698C38.7227 42.3131 39.2215 42.8119 39.8366 42.8119H60.2783C60.8934 42.8119 61.3922 42.3131 61.3922 41.698V35.5689C61.3922 34.9537 60.8936 34.4551 60.2783 34.4551ZM59.1645 40.5841H40.9505V36.6828H59.1645V40.5841Z" fill="#159822"/>
<path d="M53.1763 47.7129C52.5612 47.7129 52.0625 48.2117 52.0625 48.8268V53.3971C52.0625 54.0122 52.5612 54.5109 53.1763 54.5109C53.7914 54.5109 54.2902 54.0122 54.2902 53.3971V48.8268C54.2902 48.2117 53.7916 47.7129 53.1763 47.7129Z" fill="#159822"/>
<path d="M46.9381 47.7129C46.323 47.7129 45.8242 48.2117 45.8242 48.8268V53.3971C45.8242 54.0122 46.323 54.5109 46.9381 54.5109C47.5532 54.5109 48.052 54.0122 48.052 53.3971V48.8268C48.052 48.2117 47.5533 47.7129 46.9381 47.7129Z" fill="#159822"/>
<path d="M94.4354 60.1884C95.0505 60.1884 95.5493 59.6897 95.5493 59.0746V51.3503C95.5493 48.6898 93.3849 46.5254 90.7244 46.5254H72.6022C69.9418 46.5254 67.7773 48.6898 67.7773 51.3503V78.1968C67.7773 80.8572 69.9418 83.0217 72.6022 83.0217H90.7244C93.3849 83.0217 95.5493 80.8572 95.5493 78.1968V62.7876C95.5493 62.1726 95.0505 61.6738 94.4354 61.6738C93.8203 61.6738 93.3216 62.1726 93.3216 62.7876V78.1966C93.3216 79.6288 92.1564 80.7938 90.7244 80.7938H72.6022C71.1701 80.7938 70.0051 79.6287 70.0051 78.1966V51.3503C70.0051 49.9181 71.1702 48.7531 72.6022 48.7531H90.7244C92.1566 48.7531 93.3216 49.9183 93.3216 51.3503V59.0746C93.3216 59.6897 93.8203 60.1884 94.4354 60.1884Z" fill="#159822"/>
<path d="M89.982 50.9805H73.3483C72.7332 50.9805 72.2344 51.4793 72.2344 52.0944V62.936C72.2344 63.5511 72.7332 64.0499 73.3483 64.0499H89.9819C90.597 64.0499 91.0957 63.5511 91.0957 62.936V52.0944C91.0959 51.4793 90.5971 50.9805 89.982 50.9805ZM88.8681 61.8221H74.4621V53.2083H88.8681V61.8221Z" fill="#159822"/>
<path d="M76.3185 67.3164H73.3483C72.7332 67.3164 72.2344 67.8152 72.2344 68.4302C72.2344 69.0453 72.7332 69.5441 73.3483 69.5441H76.3185C76.9336 69.5441 77.4324 69.0453 77.4324 68.4302C77.4324 67.8152 76.9339 67.3164 76.3185 67.3164Z" fill="#159822"/>
<path d="M89.9825 67.3164H87.0123C86.3972 67.3164 85.8984 67.8152 85.8984 68.4302C85.8984 69.0453 86.3972 69.5441 87.0123 69.5441H89.9825C90.5976 69.5441 91.0964 69.0453 91.0964 68.4302C91.0964 67.8152 90.5976 67.3164 89.9825 67.3164Z" fill="#159822"/>
<path d="M83.1504 67.3164H80.1803C79.5652 67.3164 79.0664 67.8152 79.0664 68.4302C79.0664 69.0453 79.5652 69.5441 80.1803 69.5441H83.1504C83.7655 69.5441 84.2643 69.0453 84.2643 68.4302C84.2643 67.8152 83.7657 67.3164 83.1504 67.3164Z" fill="#159822"/>
<path d="M76.3185 75.3359H73.3483C72.7332 75.3359 72.2344 75.8347 72.2344 76.4498C72.2344 77.0649 72.7332 77.5636 73.3483 77.5636H76.3185C76.9336 77.5636 77.4324 77.0649 77.4324 76.4498C77.4324 75.8347 76.9339 75.3359 76.3185 75.3359Z" fill="#159822"/>
<path d="M89.9825 75.3359H87.0123C86.3972 75.3359 85.8984 75.8347 85.8984 76.4498C85.8984 77.0649 86.3972 77.5636 87.0123 77.5636H89.9825C90.5976 77.5636 91.0964 77.0649 91.0964 76.4498C91.0964 75.8347 90.5976 75.3359 89.9825 75.3359Z" fill="#159822"/>
<path d="M83.1504 75.3359H80.1803C79.5652 75.3359 79.0664 75.8347 79.0664 76.4498C79.0664 77.0649 79.5652 77.5636 80.1803 77.5636H83.1504C83.7655 77.5636 84.2643 77.0649 84.2643 76.4498C84.2643 75.8347 83.7657 75.3359 83.1504 75.3359Z" fill="#159822"/>
<path d="M76.3185 71.3281H73.3483C72.7332 71.3281 72.2344 71.8269 72.2344 72.442C72.2344 73.0571 72.7332 73.5559 73.3483 73.5559H76.3185C76.9336 73.5559 77.4324 73.0571 77.4324 72.442C77.4324 71.8269 76.9339 71.3281 76.3185 71.3281Z" fill="#159822"/>
<path d="M89.9825 71.3281H87.0123C86.3972 71.3281 85.8984 71.8269 85.8984 72.442C85.8984 73.0571 86.3972 73.5559 87.0123 73.5559H89.9825C90.5976 73.5559 91.0964 73.0571 91.0964 72.442C91.0964 71.8269 90.5976 71.3281 89.9825 71.3281Z" fill="#159822"/>
<path d="M83.1504 71.3281H80.1803C79.5652 71.3281 79.0664 71.8269 79.0664 72.442C79.0664 73.0571 79.5652 73.5559 80.1803 73.5559H83.1504C83.7655 73.5559 84.2643 73.0571 84.2643 72.442C84.2643 71.8269 83.7657 71.3281 83.1504 71.3281Z" fill="#159822"/>
<path d="M61.7618 61.6719H40.2271C39.612 61.6719 39.1133 62.1706 39.1133 62.7857C39.1133 63.4008 39.612 63.8996 40.2271 63.8996H42.4549V80.459C42.4549 80.8483 42.658 81.2092 42.9907 81.4112C43.3232 81.6131 43.7373 81.627 44.0826 81.4472L47.2817 79.7838L50.4807 81.4472C50.6417 81.531 50.8181 81.5729 50.9946 81.5729C51.1711 81.5729 51.3473 81.531 51.5085 81.4472L54.7075 79.7838L57.9066 81.4472C58.2519 81.6268 58.666 81.6132 58.9985 81.4112C59.3312 81.2092 59.5343 80.8481 59.5343 80.459V63.8996H61.7621C62.3772 63.8996 62.8759 63.4008 62.8759 62.7857C62.8759 62.1706 62.3769 61.6719 61.7618 61.6719ZM57.3063 78.6242L55.2211 77.5399C54.899 77.3723 54.5155 77.3723 54.1934 77.5399L50.9943 79.2034L47.7952 77.5399C47.6343 77.4561 47.4577 77.4142 47.2814 77.4142C47.105 77.4142 46.9286 77.4561 46.7675 77.5399L44.6823 78.6242V63.8996H57.306V78.6242H57.3063Z" fill="#159822"/>
<path d="M52.2572 66.1289H46.7623C46.1472 66.1289 45.6484 66.6277 45.6484 67.2428C45.6484 67.8579 46.1472 68.3567 46.7623 68.3567H52.2572C52.8723 68.3567 53.3711 67.8579 53.3711 67.2428C53.3711 66.6277 52.8723 66.1289 52.2572 66.1289Z" fill="#159822"/>
<path d="M54.4851 69.7676H46.7623C46.1472 69.7676 45.6484 70.2664 45.6484 70.8814C45.6484 71.4965 46.1472 71.9953 46.7623 71.9953H54.4851C55.1002 71.9953 55.599 71.4965 55.599 70.8814C55.599 70.2662 55.1002 69.7676 54.4851 69.7676Z" fill="#159822"/>
</g>
<defs>
<clipPath id="clip0_8589_22074">
<rect width="135" height="135" fill="white" transform="translate(0.5)"/>
</clipPath>
</defs>
</svg>
