<svg width="116" height="115" viewBox="0 0 116 115" fill="none" xmlns="http://www.w3.org/2000/svg">
<path fill-rule="evenodd" clip-rule="evenodd" d="M48.9836 84.5265C48.5858 84.5272 48.2044 84.6858 47.9233 84.9676C47.6423 85.2494 47.4846 85.6312 47.485 86.0292V87.5318C47.4767 88.7538 47.8436 89.9491 48.5362 90.9558C49.229 91.9627 50.2139 92.7327 51.3582 93.1616C52.5025 93.5907 53.751 93.6582 54.9347 93.3549C56.1187 93.0517 57.1809 92.3923 57.978 91.466C58.7756 92.3903 59.8374 93.0478 61.0203 93.3498C62.2031 93.6518 63.4502 93.5838 64.5934 93.155C65.7364 92.7262 66.7204 91.9572 67.4129 90.9518C68.1052 89.9462 68.4727 88.7526 68.4656 87.5318V86.0305C68.4656 85.6329 68.3076 85.2515 68.0264 84.9703C67.7453 84.6892 67.3639 84.5312 66.9663 84.5312C66.5687 84.5312 66.1873 84.6892 65.9062 84.9703C65.625 85.2515 65.467 85.6329 65.467 86.0305V87.5332C65.4755 87.9321 65.4042 88.3289 65.2573 88.7001C65.1104 89.0712 64.8911 89.4093 64.6119 89.6944C64.3325 89.9797 63.9992 90.2062 63.6313 90.361C63.2634 90.5157 62.8682 90.5953 62.4691 90.5953C62.07 90.5953 61.6748 90.5157 61.3069 90.361C60.939 90.2062 60.6057 89.9797 60.3264 89.6944C60.0472 89.4093 59.8278 89.0712 59.6809 88.7001C59.534 88.3289 59.4627 87.9321 59.4712 87.5332V82.7403C59.9996 82.5458 60.4766 82.2332 60.8659 81.8263L63.1097 79.4218C63.5254 78.9946 63.8053 78.4539 63.9138 77.8678C64.0225 77.2818 63.955 76.6766 63.72 76.1289C63.4073 75.4744 62.9106 74.9252 62.2909 74.5482C61.6711 74.1714 60.955 73.9831 60.23 74.0065H55.7301C55.0033 73.981 54.2848 74.1681 53.663 74.5452C53.0411 74.9222 52.5428 75.4726 52.2293 76.1289C51.9946 76.6766 51.9273 77.2815 52.0355 77.8674C52.144 78.4534 52.4232 78.9942 52.8382 79.4218L55.0847 81.8263C55.473 82.233 55.9492 82.5456 56.4767 82.7403V87.5318C56.4852 87.9308 56.4139 88.3276 56.267 88.6987C56.1201 89.0699 55.9007 89.4079 55.6215 89.6931C55.3422 89.9784 55.0089 90.2049 54.641 90.3596C54.2731 90.5143 53.8779 90.594 53.4788 90.594C53.0797 90.594 52.6845 90.5143 52.3166 90.3596C51.9487 90.2049 51.6154 89.9784 51.3361 89.6931C51.0569 89.4079 50.8375 89.0699 50.6906 88.6987C50.5437 88.3276 50.4724 87.9308 50.4809 87.5318V86.0305C50.4816 85.6325 50.3243 85.2506 50.0436 84.9685C49.7628 84.6866 49.3815 84.5276 48.9836 84.5265ZM54.9781 77.3305C55.0635 77.2146 55.1786 77.1239 55.311 77.0679C55.4436 77.0119 55.5889 76.9924 55.7314 77.0119H60.23C60.7417 77.0119 60.9644 77.2616 60.9307 77.3669L58.6868 79.7715C58.4821 79.9194 58.236 79.9991 57.9834 79.9991C57.7308 79.9991 57.4847 79.9194 57.28 79.7715L54.9781 77.3305ZM39.0334 68.8775C41.7012 67.8312 43.8249 67.7083 45.3478 68.5157C46.4117 69.1301 47.1907 70.139 47.5161 71.3239C47.5575 71.5164 47.6364 71.699 47.7483 71.861C47.8602 72.023 48.0031 72.1614 48.1685 72.2683C48.3338 72.3752 48.5187 72.4484 48.7124 72.4839C48.9061 72.5193 49.105 72.5162 49.2975 72.4749C49.4901 72.4334 49.6726 72.3546 49.8346 72.2426C49.9966 72.1307 50.1351 71.9879 50.2419 71.8225C50.3489 71.6571 50.422 71.4721 50.4576 71.2784C50.4929 71.0848 50.4899 70.8859 50.4485 70.6934C50.1962 69.6884 49.7432 68.7449 49.1168 67.9196C48.4903 67.0943 47.7033 66.4043 46.8032 65.8911C44.4716 64.6328 41.4919 64.6963 37.9452 66.0842C37.6016 66.2468 37.3324 66.5336 37.1919 66.8869C37.0513 67.2401 37.05 67.6335 37.188 67.9878C37.3259 68.3421 37.5931 68.6307 37.9355 68.7958C38.278 68.9609 38.6704 68.9901 39.0334 68.8775ZM65.1551 72.4701C65.3479 72.5109 65.5469 72.5132 65.7407 72.4771C65.9344 72.441 66.1191 72.367 66.2842 72.2594C66.4493 72.1518 66.5916 72.0127 66.703 71.8502C66.8144 71.6875 66.8926 71.5045 66.9332 71.3117C67.2532 70.1403 68.0209 69.1413 69.0704 68.5305C70.5947 67.707 72.7292 67.8244 75.4159 68.8762C75.7872 69.021 76.2008 69.0124 76.5658 68.8523C76.9308 68.6921 77.2172 68.3935 77.3621 68.0222C77.5069 67.6509 77.4983 67.2373 77.3382 66.8722C77.178 66.5073 76.8794 66.2209 76.5081 66.0761C72.9628 64.6882 69.9831 64.6247 67.6501 65.8816C66.7503 66.3951 65.9634 67.0853 65.337 67.9104C64.7107 68.7358 64.2575 69.6791 64.0049 70.684C63.963 70.877 63.9598 71.0764 63.9951 71.2708C64.0305 71.4653 64.1039 71.6508 64.2113 71.8167C64.3185 71.9826 64.4574 72.1257 64.6201 72.2379C64.7828 72.35 64.966 72.429 65.1592 72.4701H65.1551ZM19.0033 70.9999C20.3677 71.0014 21.7308 71.0869 23.0847 71.2564C22.381 73.612 22.0173 76.056 22.0046 78.5145V78.524C20.6533 78.924 19.3641 79.5102 18.1744 80.2656C17.8421 80.4858 17.6108 80.829 17.5316 81.2197C17.4523 81.6103 17.5316 82.0165 17.7518 82.3488C17.972 82.6811 18.3152 82.9122 18.7059 82.9915C19.0965 83.0707 19.5027 82.9916 19.835 82.7714C20.5885 82.2886 21.3971 81.8979 22.2436 81.6076C22.5059 83.4347 23.0277 85.2151 23.7935 86.8946C22.4231 87.7963 21.2784 89.0012 20.4478 90.4158C19.6172 91.8304 19.123 93.4171 19.0033 95.0532C19.0033 99.6881 23.5937 102.567 30.9949 102.567C34.3317 102.772 37.6458 101.897 40.4456 100.07C46.1301 101.782 52.0418 102.62 57.978 102.556C63.914 102.617 69.8247 101.775 75.5077 100.059C78.3075 101.886 81.6216 102.761 84.9584 102.556C92.3556 102.556 96.95 99.6773 96.95 95.0424C96.829 93.4083 96.3343 91.8237 95.5042 90.4111C94.6738 88.9983 93.53 87.7952 92.1612 86.8946C92.9274 85.2151 93.4497 83.4348 93.7124 81.6076C94.5594 81.898 95.3683 82.2886 96.1224 82.7714C96.2864 82.8888 96.4725 82.9721 96.6693 83.0162C96.8663 83.0602 97.07 83.0641 97.2685 83.0276C97.4669 82.9913 97.6561 82.9153 97.8244 82.8042C97.9929 82.6931 98.1373 82.5493 98.2489 82.3812C98.3606 82.2131 98.4372 82.0242 98.4744 81.8259C98.5115 81.6276 98.5083 81.4239 98.4648 81.2267C98.4214 81.0298 98.3388 80.8434 98.2219 80.679C98.1051 80.5146 97.9562 80.3754 97.7843 80.2697C96.5946 79.5143 95.3054 78.9281 93.9541 78.528V78.5145C93.9421 76.056 93.5784 73.6119 92.874 71.2564C94.2279 71.0875 95.591 71.0018 96.9554 70.9999C97.3541 70.9995 97.7363 70.8407 98.018 70.5585C98.2997 70.2764 98.4578 69.8939 98.4574 69.4952C98.457 69.0965 98.2983 68.7142 98.0162 68.4325C97.7338 68.1509 97.3514 67.9928 96.9527 67.9932C95.2416 67.9933 93.5326 68.1143 91.8385 68.355C91.2085 66.8062 90.463 65.3069 89.6081 63.87C90.5937 60.6608 94.4577 47.1571 91.127 42.5519C90.7794 42.0466 90.3123 41.6348 89.7673 41.3534C89.2223 41.0719 88.6162 40.9294 88.0029 40.9386C85.7706 41.1085 83.6005 41.7529 81.6372 42.8287C77.8015 37.3999 71.0389 33.5819 63.3352 32.3506C63.3098 30.3031 63.0536 28.265 62.571 26.2751C62.4059 25.4572 62.4678 24.6096 62.7498 23.8244C63.0318 23.0391 63.5233 22.3458 64.1709 21.8198C66.0354 20.5615 69.0893 22.5151 70.3152 23.4129C70.7921 23.7776 71.3371 24.0434 71.9182 24.1945C72.4993 24.3456 73.1047 24.3791 73.6988 24.2929C74.293 24.2068 74.864 24.0026 75.3781 23.6927C75.8923 23.3827 76.3394 22.9731 76.6929 22.488C77.0467 22.0027 77.2997 21.4518 77.4374 20.8673C77.5751 20.283 77.5946 19.6769 77.4946 19.0849C77.3949 18.4929 77.1776 17.9268 76.8559 17.4198C76.5342 16.913 76.1143 16.4756 75.6211 16.1332C67.3936 10.0955 61.3668 12.8538 59.1499 14.3254C56.9729 15.8846 55.3067 18.054 54.3616 20.5595C53.4166 23.065 53.2351 25.7942 53.8399 28.4029C54.1381 29.6219 54.3105 30.8682 54.3543 32.1224C45.9297 33.0175 38.4353 36.9895 34.3243 42.8246C32.3731 41.7558 30.2171 41.1138 27.999 40.9413C27.3842 40.9328 26.7767 41.0761 26.2306 41.3587C25.6843 41.6414 25.2164 42.0544 24.8682 42.5614C21.5496 47.1423 25.3974 60.6068 26.3762 63.8079C25.5088 65.2644 24.7527 66.7843 24.1148 68.355C22.4215 68.1152 20.7135 67.9943 19.0033 67.9932C18.6046 67.9932 18.2223 68.1516 17.9403 68.4335C17.6584 68.7154 17.5 69.0979 17.5 69.4965C17.5 69.8952 17.6584 70.2776 17.9403 70.5595C18.2223 70.8415 18.6046 70.9999 19.0033 70.9999ZM22.0019 95.0465C22.0019 91.6631 26.1521 87.5318 30.9949 87.5318C35.8377 87.5318 39.9893 91.6631 39.9893 95.0465C39.9893 97.2337 37.9736 98.4906 35.3584 99.0968C35.4444 98.7549 35.4898 98.4042 35.4935 98.0518V95.0465C35.4935 94.6489 35.3355 94.2675 35.0543 93.9863C34.7732 93.7052 34.3918 93.5472 33.9942 93.5472C33.5966 93.5472 33.2152 93.7052 32.9341 93.9863C32.6528 94.2675 32.4949 94.6489 32.4949 95.0465V98.0518C32.4949 98.4494 32.3369 98.8308 32.0557 99.1119C31.7746 99.3931 31.3932 99.5511 30.9956 99.5511C30.598 99.5511 30.2166 99.3931 29.9355 99.1119C29.6543 98.8308 29.4963 98.4494 29.4963 98.0518V95.0465C29.4963 94.6489 29.3383 94.2675 29.0571 93.9863C28.776 93.7052 28.3946 93.5472 27.997 93.5472C27.5994 93.5472 27.218 93.7052 26.9369 93.9863C26.6557 94.2675 26.4977 94.6489 26.4977 95.0465V98.0518C26.5015 98.4042 26.5467 98.7549 26.6327 99.0968C24.0176 98.4919 22.0019 97.235 22.0019 95.0465ZM93.9528 95.0465C93.9528 97.2337 91.9371 98.4906 89.3219 99.0968C89.4075 98.7549 89.4529 98.4042 89.4569 98.0518V95.0465C89.4569 94.6489 89.299 94.2675 89.0177 93.9863C88.7366 93.7052 88.3552 93.5472 87.9576 93.5472C87.56 93.5472 87.1786 93.7052 86.8975 93.9863C86.6163 94.2675 86.4584 94.6489 86.4584 95.0465V98.0518C86.4584 98.4494 86.3004 98.8308 86.0192 99.1119C85.7381 99.3931 85.3567 99.5511 84.9591 99.5511C84.5615 99.5511 84.1801 99.3931 83.899 99.1119C83.6177 98.8308 83.4598 98.4494 83.4598 98.0518V95.0465C83.4598 94.6489 83.3018 94.2675 83.0206 93.9863C82.7395 93.7052 82.3581 93.5472 81.9605 93.5472C81.5629 93.5472 81.1815 93.7052 80.9004 93.9863C80.6192 94.2675 80.4612 94.6489 80.4612 95.0465V98.0518C80.4649 98.4042 80.5101 98.7549 80.5962 99.0968C77.9811 98.4906 75.9654 97.2337 75.9654 95.0465C75.9654 91.6631 80.1156 87.5318 84.9597 87.5318C89.8039 87.5318 93.9528 91.6658 93.9528 95.0465ZM56.7494 27.6873C56.2778 25.6777 56.4122 23.5734 57.1354 21.6401C57.8587 19.7068 59.1384 18.031 60.8132 16.8244C62.9072 15.4365 67.3855 13.8124 73.8525 18.5593C74.0121 18.6754 74.1472 18.8218 74.2502 18.9901C74.3531 19.1585 74.4219 19.3455 74.4527 19.5404C74.4834 19.7354 74.4754 19.9345 74.4291 20.1264C74.3829 20.3182 74.2994 20.4991 74.1832 20.6587C74.0671 20.8183 73.9207 20.9534 73.7523 21.0563C73.5839 21.1593 73.3969 21.2282 73.202 21.2588C73.007 21.2896 72.808 21.2817 72.6162 21.2353C72.4243 21.1892 72.2434 21.1056 72.0838 20.9895C68.3616 18.2596 64.9567 17.6723 62.4981 19.3289C61.3392 20.1993 60.4549 21.3845 59.9505 22.7434C59.4461 24.1023 59.3431 25.5775 59.6535 26.9934C60.0557 28.6396 60.2847 30.3233 60.3366 32.0171C59.5549 31.9644 58.7705 31.9253 57.978 31.9253C57.7647 31.9253 57.5554 31.9401 57.3435 31.9442C57.289 30.5089 57.09 29.0827 56.7494 27.6873ZM57.978 34.9293C66.7172 34.9293 74.753 38.5475 78.9653 44.2558C76.9563 45.3952 74.7395 46.8074 72.2837 48.5329C67.7907 46.5116 62.9203 45.4653 57.9937 45.463C53.0669 45.4607 48.1956 46.5023 43.7007 48.5194C41.2327 46.7926 39.0078 45.3817 36.9948 44.2436C41.1936 38.5435 49.2307 34.9293 57.978 34.9293ZM29.4369 63.5514C26.6895 55.1105 25.7268 46.4875 27.2875 44.3219C27.3595 44.2009 27.4633 44.1021 27.5875 44.0362C27.7119 43.9703 27.8519 43.9397 27.9923 43.9479C30.1315 44.1859 32.1907 44.8976 34.0205 46.0311C34.034 46.0392 34.0394 46.0541 34.0529 46.0608C34.1016 46.0847 34.1517 46.1059 34.2028 46.1243C37.1383 47.7209 39.9669 49.5068 42.6706 51.4707C42.8867 51.625 43.1403 51.719 43.4049 51.7427C43.6695 51.7664 43.9358 51.7191 44.1759 51.6057C48.4873 49.5406 53.2073 48.4698 57.9876 48.4721C62.768 48.4744 67.4869 49.5499 71.7963 51.6192C72.0371 51.7348 72.3047 51.7832 72.5708 51.7595C72.8371 51.7357 73.0918 51.6407 73.3084 51.4842C80.0224 46.694 85.3769 43.9479 87.9988 43.9479C88.1376 43.9401 88.276 43.9705 88.3987 44.0357C88.5216 44.1009 88.6242 44.1984 88.6955 44.3179C90.2697 46.4942 89.303 55.147 86.5434 63.604C86.475 63.813 86.4534 64.0346 86.48 64.2529C86.5066 64.4713 86.5807 64.6811 86.6973 64.8677C87.5029 66.1638 88.2117 67.5177 88.8183 68.918C85.5125 69.6105 82.37 70.9299 79.5607 72.805C79.2549 73.0476 79.0555 73.3998 79.0051 73.7869C78.9546 74.1741 79.0568 74.5656 79.2903 74.8786C79.5237 75.1915 79.8699 75.4013 80.2553 75.4633C80.6408 75.5253 81.0351 75.4348 81.355 75.2108C83.958 73.5363 86.8531 72.3675 89.889 71.7654C90.495 73.7118 90.8423 75.7295 90.9218 77.7666C88.4604 77.3002 85.9633 77.0482 83.4584 77.0132C83.0599 77.0132 82.6777 77.1714 82.3959 77.4533C82.1141 77.7351 81.9558 78.1173 81.9558 78.5159C81.9558 78.9144 82.1141 79.2966 82.3959 79.5784C82.6777 79.8602 83.0599 80.0185 83.4584 80.0185C85.9274 80.0628 88.3874 80.3262 90.8097 80.8056C90.6114 82.4023 90.1811 83.9614 89.5325 85.4338C88.0801 84.838 86.5256 84.5303 84.9557 84.5279C78.2052 84.5279 72.9641 90.1821 72.9641 95.0478C72.9588 95.9088 73.135 96.7612 73.4812 97.5496C68.4295 98.9287 63.2117 99.6039 57.9753 99.5558C52.7385 99.6039 47.5201 98.9288 42.4681 97.5496C42.8142 96.7612 42.9904 95.9088 42.9852 95.0478C42.9852 90.1875 37.7481 84.5279 30.9936 84.5279C29.4241 84.5303 27.8701 84.838 26.4181 85.4338C25.7695 83.9614 25.3392 82.4023 25.1409 80.8056C27.5636 80.3262 30.0242 80.0628 32.4935 80.0185C32.8921 80.0185 33.2743 79.8602 33.5561 79.5784C33.8378 79.2966 33.9962 78.9144 33.9962 78.5159C33.9962 78.1173 33.8378 77.7351 33.5561 77.4533C33.2743 77.1714 32.8921 77.0132 32.4935 77.0132C29.9881 77.0479 27.4906 77.3 25.0288 77.7666C25.1078 75.7299 25.4545 73.7126 26.0603 71.7667C29.0963 72.3686 31.9914 73.5375 34.5943 75.2122C34.9139 75.4414 35.3105 75.5361 35.6992 75.476C36.0879 75.4158 36.4374 75.2054 36.6726 74.8903C36.9078 74.5751 37.01 74.1802 36.9571 73.7905C36.9043 73.4007 36.7006 73.0474 36.3899 72.8063C33.58 70.9303 30.4365 69.6103 27.1296 68.918C27.7437 67.4973 28.4631 66.1245 29.2816 64.811C29.3987 64.6244 29.4732 64.4144 29.5001 64.1958C29.5268 63.9772 29.5054 63.7552 29.4369 63.546V63.5514Z" fill="#159822"/>
</svg>
