<svg width="24" height="24" viewBox="0 0 24 24" fill="none" xmlns="http://www.w3.org/2000/svg">
<rect width="24" height="24" fill="white"/>
<g clip-path="url(#clip0_2800_18461)">
<path d="M9.35464 13.4357C9.35464 11.9403 9.35464 10.4563 9.35464 8.96083C9.35454 8.66139 9.26016 8.36909 9.08407 8.12291C8.90798 7.87673 8.65857 7.68838 8.36908 7.58297C8.07959 7.47755 7.76379 7.46009 7.46378 7.5329C7.16378 7.60572 6.89383 7.76535 6.68994 7.99052C6.45421 8.22606 6.32302 8.54154 6.32443 8.86951C6.32443 10.228 6.32443 11.5864 6.32443 12.9449C6.32443 13.1503 6.40696 13.2188 6.61919 13.2302C7.79827 13.2302 7.8808 13.4357 7.8808 14.5316C7.8808 15.1709 7.8808 15.7987 7.8808 16.4266C7.89542 16.5745 7.87057 16.7235 7.80863 16.8594C7.7467 16.9954 7.64975 17.1136 7.52708 17.2028C7.47305 17.2395 7.43027 17.2896 7.40329 17.3479C7.3763 17.4062 7.36611 17.4705 7.3738 17.5339C7.3738 17.785 7.3738 18.0362 7.3738 18.2759C7.38522 18.3946 7.36907 18.5142 7.32654 18.6261C7.28401 18.738 7.21617 18.8392 7.12799 18.9224C7.03981 19.0055 6.93353 19.0686 6.81693 19.1068C6.70033 19.1451 6.57637 19.1576 6.45412 19.1435H5.51087C5.40363 19.1496 5.29622 19.1349 5.19499 19.1001C5.09377 19.0652 5.00081 19.0111 4.92162 18.9408C4.84244 18.8705 4.77864 18.7856 4.73403 18.691C4.68942 18.5963 4.66491 18.494 4.66193 18.3901C4.66193 18.2188 4.66193 18.0476 4.66193 17.8878C4.66193 17.728 4.66193 17.3056 4.36717 17.1115C4.29636 17.0531 4.24117 16.979 4.20627 16.8956C4.17137 16.8121 4.15781 16.7217 4.16672 16.6321V13.9951C4.16496 13.8118 4.23222 13.6343 4.35593 13.4956C4.47963 13.3569 4.6513 13.2666 4.8388 13.2417H5.05103C5.71131 13.2417 5.71131 13.2417 5.71131 12.5796C5.71131 11.438 5.71131 10.2965 5.71131 9.08641C5.68731 8.63913 5.81325 8.19632 6.07034 7.82398C6.32744 7.45164 6.70192 7.16971 7.13799 7.0202C7.45776 6.90378 7.80195 6.86426 8.14097 6.90504C8.48 6.94581 8.80374 7.06566 9.08438 7.25428C9.36502 7.4429 9.59417 7.69467 9.75215 7.98794C9.91012 8.28122 9.9922 8.60724 9.99134 8.938C9.99134 11.849 9.99134 14.7713 9.99134 17.6937C9.9727 18.0004 10.0536 18.3051 10.2228 18.5651C10.3919 18.8251 10.6408 19.0273 10.9346 19.1435C11.2682 19.2757 11.6355 19.3061 11.9874 19.2307C12.3393 19.1552 12.659 18.9774 12.9036 18.7211C13.1295 18.475 13.2589 18.1598 13.2692 17.8307C13.2692 17.3969 13.2692 16.9631 13.2692 16.5293C13.2692 16.3695 13.2692 16.2896 13.0333 16.2668C12.9062 16.2498 12.7885 16.1924 12.6989 16.1035C12.6092 16.0146 12.5526 15.8994 12.5381 15.7759C12.4855 15.535 12.45 15.2909 12.432 15.0453C12.435 15.006 12.4283 14.9666 12.4126 14.9302C12.3968 14.8938 12.3725 14.8616 12.3415 14.836C12.3105 14.8104 12.2737 14.7923 12.2342 14.783C12.1946 14.7738 12.1533 14.7737 12.1137 14.7828H11.8661C11.7405 14.7979 11.6131 14.7849 11.4935 14.7447C11.374 14.7046 11.2656 14.6384 11.1767 14.5512C11.0878 14.4641 11.0208 14.3583 10.9809 14.2421C10.941 14.1258 10.9292 14.0023 10.9464 13.8809C10.9464 11.2554 10.9464 8.62217 10.9464 5.98138C10.9314 5.86348 10.9442 5.74382 10.9838 5.63138C11.0233 5.51893 11.0887 5.4166 11.1749 5.33206C11.261 5.24751 11.3659 5.18294 11.4815 5.14316C11.5971 5.10339 11.7205 5.08945 11.8425 5.10239C13.0216 5.10239 14.2006 5.10239 15.2972 5.10239C15.4889 5.08195 15.6818 5.12813 15.8417 5.23267C16.0015 5.33722 16.1177 5.49333 16.1697 5.67316C16.1865 5.73978 16.2286 5.79784 16.2875 5.83589C16.3465 5.87393 16.418 5.88919 16.488 5.87864H17.0658C17.2171 5.84778 17.3748 5.8684 17.5123 5.93703C17.6498 6.00565 17.7586 6.11808 17.8204 6.25536C17.8204 6.38093 17.9972 6.36951 18.1033 6.36951C18.4099 6.36951 18.7165 6.36951 19.023 6.36951C19.1357 6.35999 19.2491 6.37331 19.3561 6.40861C19.4631 6.4439 19.5614 6.50041 19.6446 6.57453C19.7278 6.64864 19.7941 6.73873 19.8394 6.83905C19.8846 6.93937 19.9078 7.04772 19.9073 7.15718C19.9125 7.26592 19.894 7.3745 19.853 7.47586C19.812 7.57723 19.7494 7.66911 19.6694 7.74554C19.5893 7.82198 19.4935 7.88125 19.3883 7.91952C19.283 7.95779 19.1706 7.9742 19.0584 7.96768C18.7283 7.96768 18.4099 7.96768 18.0798 7.96768C17.9501 7.96768 17.844 7.96768 17.8322 8.16175C17.8204 8.35581 17.9383 8.36723 18.0798 8.37864C18.472 8.34496 18.8666 8.34496 19.2588 8.37864C19.4003 8.4018 19.5319 8.46349 19.6384 8.55649C19.7449 8.64949 19.8218 8.76995 19.8602 8.90376C19.9103 9.04056 19.9191 9.18834 19.8857 9.32983C19.8523 9.47133 19.778 9.60071 19.6715 9.70284C19.5893 9.78538 19.4903 9.85036 19.3806 9.89361C19.2709 9.93686 19.1532 9.95743 19.0348 9.95399H18.3627C18.0916 9.95399 17.8204 9.95399 17.6789 10.2508C17.6199 10.3992 17.4313 10.4334 17.2544 10.4334C17.0306 10.4449 16.8062 10.4449 16.5823 10.4334C16.3347 10.4334 16.2758 10.5248 16.2758 10.7531V13.7782C16.2758 14.5202 15.9692 14.8284 15.2028 14.817C14.8963 14.817 14.743 14.8855 14.743 15.2051C14.726 15.3816 14.6985 15.5569 14.6605 15.7302C14.6605 16.0613 14.46 16.2896 14.0827 16.3124C13.9059 16.3124 13.9059 16.438 13.9059 16.5636V17.8307C13.9028 18.3667 13.6823 18.8801 13.2919 19.2602C12.9015 19.6403 12.3725 19.8567 11.8189 19.8627C11.2731 19.9197 10.7254 19.7732 10.2873 19.4529C9.84915 19.1326 9.55358 18.6628 9.46076 18.1389C9.44864 17.9831 9.44864 17.8267 9.46076 17.6709V13.4357H9.35464ZM15.6037 10.0111V6.1412C15.6037 5.75307 15.6037 5.70741 15.1675 5.70741H12.149C11.5241 5.70741 11.5123 5.70741 11.5241 6.32385V6.38093C11.5241 6.57499 11.6067 6.64348 11.8071 6.64348C12.1016 6.62637 12.3969 6.62637 12.6914 6.64348C12.8801 6.64348 13.0687 6.64348 13.0569 6.94029C13.0451 7.23709 12.8683 7.22568 12.6678 7.22568C12.4674 7.22568 12.0783 7.22568 11.7835 7.22568C11.4888 7.22568 11.5359 7.41974 11.5241 7.59097C11.5123 7.7622 11.5241 7.92202 11.7953 7.91061H12.6207C12.8329 7.91061 13.0569 7.91061 13.0569 8.19599C13.0569 8.48138 12.8211 8.48138 12.6089 8.48138C12.3966 8.48138 12.1372 8.48138 11.9014 8.48138C11.6656 8.48138 11.5241 8.56129 11.5241 8.84668C11.5241 10.4905 11.5241 12.1344 11.5241 13.7782C11.5241 14.1777 11.5241 14.2006 11.9604 14.212H15.1321C15.5801 14.212 15.6037 14.212 15.6037 13.7554V10.0111ZM4.74447 15.2736C4.74447 15.6389 4.74447 15.9928 4.74447 16.4152C4.74447 16.8375 4.8388 16.8147 5.13356 16.8147H6.90217C7.17336 16.8147 7.29126 16.712 7.29126 16.438C7.29126 15.7074 7.29126 14.9654 7.29126 14.2234C7.29126 13.9837 7.19694 13.8695 6.93754 13.8695H5.0864C4.85059 13.8695 4.73268 13.9608 4.74447 14.2006V15.2736ZM16.2286 8.20741V9.34896C16.2286 10.0339 16.1461 9.94257 16.8653 9.9654C17.1129 9.9654 17.1955 9.89691 17.1837 9.65718C17.1837 8.81243 17.1837 7.96768 17.1837 7.12294C17.1837 6.27819 17.3016 6.5065 16.5352 6.49508C16.2758 6.49508 16.2168 6.59782 16.2286 6.81472C16.2404 7.25992 16.2286 7.72796 16.2286 8.20741V8.20741ZM5.98249 18.4814C6.77247 18.4814 6.7371 18.4814 6.7371 17.7394V17.4768C6.7371 17.3398 6.7371 17.2713 6.53666 17.2713C6.50808 17.266 6.4786 17.2671 6.45054 17.2745C6.42247 17.282 6.39657 17.2957 6.37488 17.3145C6.35318 17.3333 6.33627 17.3567 6.32547 17.3829C6.31467 17.4091 6.31028 17.4373 6.31264 17.4654C6.31848 17.5719 6.31848 17.6786 6.31264 17.785C6.30976 17.8206 6.29941 17.8553 6.28222 17.8869C6.26503 17.9185 6.24137 17.9464 6.21267 17.9688C6.18398 17.9912 6.15085 18.0078 6.11533 18.0174C6.07981 18.027 6.04263 18.0295 6.00608 18.0248C5.93928 18.0248 5.87502 17.9999 5.8267 17.9553C5.77838 17.9106 5.74972 17.8496 5.74668 17.785C5.73451 17.6788 5.73451 17.5716 5.74668 17.4654C5.74865 17.4384 5.74442 17.4114 5.73427 17.3862C5.72413 17.361 5.70834 17.3383 5.68803 17.3197C5.66773 17.3011 5.64342 17.2872 5.61686 17.2788C5.5903 17.2704 5.56215 17.2679 5.53445 17.2713C5.39296 17.2713 5.28684 17.2713 5.28684 17.4654V17.7622C5.27505 18.527 5.27505 18.527 5.98249 18.527V18.4814ZM13.5286 14.817C12.9508 14.817 12.9508 14.817 13.0333 15.3764C13.0923 15.7417 13.0923 15.7302 13.5639 15.7531C13.8587 15.7531 14.0002 15.6846 14.0356 15.3764C14.1417 14.7942 14.2124 14.817 13.5286 14.817ZM18.4807 6.99736H17.9265C17.9013 6.99567 17.876 6.99924 17.8523 7.00782C17.8286 7.0164 17.8071 7.0298 17.7892 7.04711C17.7713 7.06442 17.7575 7.08524 17.7486 7.10817C17.7398 7.13109 17.7361 7.15559 17.7378 7.18001C17.7378 7.29417 17.7378 7.39691 17.8911 7.39691H19.0702C19.096 7.39696 19.1215 7.39188 19.1452 7.382C19.1689 7.37211 19.1903 7.35763 19.2079 7.33944C19.2256 7.32125 19.2393 7.29975 19.248 7.27625C19.2568 7.25276 19.2605 7.22777 19.2588 7.20284C19.2588 7.06586 19.1645 7.0202 19.0466 7.00878L18.4807 6.99736ZM18.4807 9.41746H18.9994C19.1291 9.41746 19.2471 9.41746 19.2471 9.22339C19.2471 9.02933 19.1409 9.01791 18.9994 9.01791H17.9972C17.844 9.01791 17.7732 9.01791 17.7732 9.22339C17.7732 9.42887 17.8557 9.41746 17.9854 9.41746H18.4807Z" stroke="#D5692B" stroke-width="0.25" stroke-miterlimit="10" stroke-linecap="round"/>
<path d="M5.20273 14.6801C5.20273 14.5887 5.13198 14.3719 5.34421 14.2919C5.47066 14.2385 5.60714 14.2109 5.7451 14.2109C5.88306 14.2109 6.01954 14.2385 6.14598 14.2919C6.20094 14.3147 6.24491 14.3569 6.26898 14.4099C6.29306 14.4628 6.29546 14.5227 6.27568 14.5773C6.27926 14.6373 6.25943 14.6964 6.22012 14.743C6.18082 14.7895 6.1249 14.82 6.06345 14.8285C5.8748 14.8285 5.78047 14.9198 5.75689 15.1139C5.74368 15.1756 5.70891 15.2309 5.65844 15.2707C5.60797 15.3105 5.54488 15.3322 5.47981 15.3322C5.41473 15.3322 5.35165 15.3105 5.30118 15.2707C5.25071 15.2309 5.21594 15.1756 5.20273 15.1139C5.19296 14.9694 5.19296 14.8245 5.20273 14.6801V14.6801Z" stroke="#D5692B" stroke-width="0.25" stroke-miterlimit="10" stroke-linecap="round"/>
</g>
<defs>
<clipPath id="clip0_2800_18461">
<rect width="16" height="15" fill="white" transform="translate(4 5)"/>
</clipPath>
</defs>
</svg>
