<svg width="115" height="115" viewBox="0 0 115 115" fill="none" xmlns="http://www.w3.org/2000/svg">
<path d="M100.002 61.4414C99.235 53.7349 95.7924 46.4695 90.3066 40.9836C85.6185 36.2956 79.8804 33.2831 73.8426 31.9435V27.7088C76.3086 27.0952 78.1417 24.863 78.1417 22.2098C78.1417 19.0851 75.5996 16.543 72.4749 16.543H60.4746C57.3498 16.543 54.8078 19.0851 54.8078 22.2098C54.8078 24.8629 56.6408 27.0951 59.1067 27.7088V31.9554C53.0874 33.3006 47.3683 36.309 42.6935 40.9837C41.6705 42.0068 40.7271 43.08 39.8636 44.1953C39.8218 44.1921 39.7799 44.189 39.7373 44.189H27.8601C26.9398 44.189 26.1934 44.9352 26.1934 45.8557C26.1934 46.7762 26.9398 47.5224 27.8601 47.5224H37.5957C36.3737 49.5683 35.3883 51.7168 34.6383 53.9285H16.4987C15.5784 53.9285 14.832 54.6747 14.832 55.5952C14.832 56.5158 15.5784 57.262 16.4987 57.262H33.6965C33.2161 59.3705 32.9404 61.5164 32.8693 63.6683H25.4989C24.5786 63.6683 23.8322 64.4145 23.8322 65.335C23.8322 66.2555 24.5786 67.0017 25.4989 67.0017H32.9224C33.0631 69.1591 33.4099 71.3051 33.9631 73.408H23.1655C22.2452 73.408 21.4988 74.1542 21.4988 75.0747C21.4988 75.9952 22.2452 76.7414 23.1655 76.7414H35.0268C36.6619 81.0667 39.2171 85.1206 42.6935 88.597C48.1846 94.0882 55.4575 97.532 63.172 98.294C64.273 98.403 65.3749 98.457 66.4752 98.457C72.979 98.457 79.4002 96.574 84.8486 93.0263C85.62 92.5239 85.8382 91.4914 85.3358 90.7201C84.8335 89.9487 83.801 89.7305 83.0296 90.2329C71.1032 97.999 55.1306 96.32 45.0506 86.24C33.2233 74.4127 33.2233 55.1684 45.0506 43.341C56.8777 31.5139 76.1219 31.5139 87.9494 43.341C98.016 53.4079 99.704 69.3667 91.9638 81.2874C91.4625 82.0594 91.682 83.0917 92.4538 83.5929C93.2262 84.0943 94.2582 83.8747 94.7594 83.1027C98.895 76.7334 100.757 69.0407 100.002 61.4414ZM58.1412 22.21C58.1412 20.9233 59.1879 19.8766 60.4746 19.8766H72.4749C73.7616 19.8766 74.8082 20.9233 74.8082 22.21C74.8082 23.4967 73.7616 24.5434 72.4749 24.5434H72.1759H60.7734H60.4746C59.1879 24.5434 58.1412 23.4965 58.1412 22.21ZM62.4401 31.3823V27.8768H70.5091V31.3763C67.8297 31.0577 65.119 31.0597 62.4401 31.3823Z" fill="#159822"/>
<path d="M89.1315 85.75C88.6915 85.75 88.2631 85.9283 87.9533 86.2383C87.6416 86.5483 87.4648 86.9784 87.4648 87.4167C87.4648 87.855 87.6416 88.285 87.9533 88.595C88.2631 88.9067 88.6916 89.0834 89.1315 89.0834C89.5698 89.0834 89.9981 88.9067 90.3098 88.595C90.6198 88.285 90.7981 87.855 90.7981 87.4167C90.7981 86.9784 90.62 86.5483 90.3098 86.2383C89.9981 85.9283 89.5696 85.75 89.1315 85.75Z" fill="#159822"/>
<path d="M66.4999 38.9336C52.2433 38.9336 40.6445 50.5322 40.6445 64.7891C40.6445 79.0459 52.2433 90.6445 66.4999 90.6445C80.7566 90.6445 92.3554 79.0459 92.3554 64.7891C92.3554 50.5322 80.7566 38.9336 66.4999 38.9336ZM66.4999 87.3111C54.0811 87.3111 43.9779 77.2077 43.9779 64.7891C43.9779 52.3704 54.0811 42.267 66.4999 42.267C78.9187 42.267 89.022 52.3704 89.022 64.7891C89.022 77.2077 78.9187 87.3111 66.4999 87.3111Z" fill="#159822"/>
<path d="M77.0424 51.8904L68.7872 60.1454C68.0969 59.8041 67.3205 59.6113 66.4996 59.6113C65.6786 59.6113 64.9022 59.8041 64.2119 60.1454L60.5173 56.4509C59.8663 55.8 58.8112 55.8 58.1601 56.4509C57.5091 57.1017 57.5091 58.1571 58.1601 58.8079L61.8546 62.5025C61.5131 63.1928 61.3205 63.9694 61.3205 64.7902C61.3205 67.6459 63.6437 69.9693 66.4996 69.9693C69.3555 69.9693 71.6787 67.6459 71.6787 64.7902C71.6787 63.9694 71.4858 63.1928 71.1444 62.5025L79.1573 54.4896L79.3996 54.2475C80.0504 53.5966 80.0504 52.5413 79.3996 51.8904C78.7487 51.2396 77.6936 51.2396 77.0424 51.8904ZM66.4996 66.6361C65.4819 66.6361 64.6538 65.8081 64.6538 64.7904C64.6538 63.7727 65.4819 62.9447 66.4996 62.9447C67.5173 62.9447 68.3453 63.7727 68.3453 64.7904C68.3453 65.8081 67.5173 66.6361 66.4996 66.6361Z" fill="#159822"/>
<path d="M84.3203 63.1445H82.7761C81.8558 63.1445 81.1094 63.8907 81.1094 64.8112C81.1094 65.7317 81.8558 66.4778 82.7761 66.4778H84.3203C85.2406 66.4778 85.987 65.7317 85.987 64.8112C85.987 63.8907 85.2406 63.1445 84.3203 63.1445Z" fill="#159822"/>
<path d="M50.2263 63.1016H48.6822C47.7619 63.1016 47.0156 63.8477 47.0156 64.7682C47.0156 65.6888 47.7619 66.4349 48.6822 66.4349H50.2263C51.1466 66.4349 51.8929 65.6888 51.8929 64.7682C51.8929 63.8477 51.1466 63.1016 50.2263 63.1016Z" fill="#159822"/>
<path d="M66.5222 50.18C67.4425 50.18 68.1889 49.4339 68.1889 48.5134V46.9693C68.1889 46.0488 67.4425 45.3027 66.5222 45.3027C65.6018 45.3027 64.8555 46.0488 64.8555 46.9693V48.5134C64.8555 49.4339 65.6018 50.18 66.5222 50.18Z" fill="#159822"/>
<path d="M66.4791 79.3984C65.5588 79.3984 64.8125 80.1446 64.8125 81.0651V82.6091C64.8125 83.5296 65.5588 84.2758 66.4791 84.2758C67.3995 84.2758 68.1458 83.5296 68.1458 82.6091V81.0651C68.1458 80.1446 67.3995 79.3984 66.4791 79.3984Z" fill="#159822"/>
<path d="M16.4987 73.4082C16.0604 73.4082 15.6303 73.5866 15.3203 73.8966C15.0103 74.2066 14.832 74.6366 14.832 75.0749C14.832 75.5149 15.0102 75.9433 15.3203 76.2533C15.6305 76.5633 16.0604 76.7416 16.4987 76.7416C16.937 76.7416 17.367 76.5633 17.6769 76.2533C17.9869 75.9433 18.1654 75.5133 18.1654 75.0749C18.1654 74.6366 17.987 74.2066 17.6769 73.8966C17.367 73.5866 16.937 73.4082 16.4987 73.4082Z" fill="#159822"/>
</svg>
