<svg width="116" height="115" viewBox="0 0 116 115" fill="none" xmlns="http://www.w3.org/2000/svg">
<path d="M72.8995 80.0303C70.7268 77.8575 67.1916 77.8575 65.0188 80.0303L63.6795 81.3696V76.4616C63.6795 75.7497 63.1023 75.1726 62.3905 75.1726C61.6786 75.1726 61.1014 75.7497 61.1014 76.4616V84.4815C61.1014 85.0028 61.4155 85.4728 61.8972 85.6724C62.3788 85.8719 62.9334 85.7617 63.3019 85.3929L66.8419 81.8529C68.0094 80.6856 69.9092 80.6854 71.0673 81.8435C71.0703 81.8466 71.0776 81.854 71.0807 81.8571C72.2466 83.023 72.248 84.9216 71.0834 86.0891L58.3572 98.849C58.2984 98.908 58.2312 98.921 58.1852 98.921H58.185C58.1389 98.921 58.0719 98.908 58.0131 98.849L45.2517 86.088C44.0842 84.9204 44.0842 83.0206 45.2517 81.8529C46.4192 80.6854 48.3191 80.6854 49.4866 81.8529L53.0305 85.3969C53.3993 85.7657 53.9539 85.8759 54.4352 85.6763C54.9169 85.4768 55.2309 85.0067 55.2309 84.4854V61.723C55.2309 61.0111 54.6538 60.434 53.9419 60.434H31.1832C30.6618 60.434 30.1919 60.748 29.9924 61.2297C29.7928 61.7115 29.9032 62.2657 30.2718 62.6344L33.8118 66.1744C34.9793 67.3419 34.9793 69.2417 33.8078 70.4134C32.6417 71.5793 30.7433 71.5807 29.5757 70.4161L16.8157 57.6899C16.7564 57.6311 16.744 57.5639 16.744 57.5179C16.744 57.4718 16.7564 57.4046 16.8154 57.3457L23.7185 50.4426C24.2219 49.9392 24.2219 49.1229 23.7185 48.6197C23.2151 48.1163 22.3989 48.1163 21.8956 48.6197L14.9923 55.5228C14.4589 56.0563 14.1655 56.7653 14.166 57.5198C14.1665 58.2741 14.4609 58.9827 14.9949 59.5155L27.755 72.2417C29.9277 74.4086 33.4607 74.4062 35.6345 72.2324C37.8072 70.0596 37.8072 66.5245 35.6345 64.3517L34.2951 63.0123H52.6527V81.3739L51.3092 80.0304C49.1365 77.8577 45.6013 77.8578 43.4285 80.0304C41.2558 82.203 41.2558 85.7384 43.4285 87.9111L56.19 100.672C56.7229 101.206 57.4314 101.499 58.1848 101.499H58.1867C58.9411 101.499 59.6498 101.204 60.1826 100.67L72.9088 87.9099C75.0757 85.7372 75.0733 82.2042 72.9129 80.0438C72.9099 80.0406 72.9026 80.0334 72.8995 80.0303Z" fill="#159822"/>
<path d="M101.339 55.5241L88.5773 42.7627C87.5248 41.7102 86.1255 41.1305 84.6369 41.1305C83.1483 41.1305 81.7491 41.7102 80.6965 42.7627C78.5238 44.9353 78.5238 48.4706 80.6965 50.6434L82.0398 51.9867H63.6784V33.6291L65.0178 34.9685C67.1905 37.1412 70.7259 37.1412 72.9024 34.9645C75.0722 32.7947 75.0745 29.2617 72.9077 27.089L60.1817 14.3289C59.6489 13.7949 58.9403 13.5005 58.1861 13.5C58.1853 13.5 58.1848 13.5 58.1841 13.5C57.4304 13.5 56.722 13.7936 56.1892 14.3263L43.4276 27.0879C41.2548 29.2607 41.2548 32.7959 43.4276 34.9686C45.6005 37.1414 49.1355 37.1414 51.3083 34.9686L52.6518 33.6253V51.9869H34.2902L35.6335 50.6436C37.8063 48.4708 37.8063 44.9356 35.6335 42.7627C33.4606 40.5899 29.9254 40.5903 27.7527 42.7627L26.0943 44.4211C25.5909 44.9245 25.5909 45.7407 26.0943 46.2439C26.5977 46.7473 27.414 46.7473 27.9172 46.2439L29.5755 44.5855C30.1411 44.0199 30.8932 43.7083 31.6929 43.7083C32.4926 43.7083 33.2447 44.0199 33.8104 44.5855C34.9779 45.753 34.9779 47.6529 33.8104 48.8204L30.2664 52.3643C29.8978 52.733 29.7874 53.2874 29.987 53.769C30.1865 54.2508 30.6566 54.5648 31.1778 54.5648H53.9403C54.6522 54.5648 55.2293 53.9876 55.2293 53.2757V30.5133C55.2293 29.9918 54.9153 29.5219 54.4336 29.3224C53.9522 29.123 53.3975 29.233 53.0289 29.6019L49.485 33.1458C48.3173 34.3133 46.4176 34.3131 45.2501 33.1458C44.0826 31.9783 44.0826 30.0785 45.2501 28.9109L58.0115 16.1495C58.0705 16.0907 58.1375 16.0782 58.1836 16.0782H58.1837C58.2298 16.0782 58.2971 16.0906 58.3559 16.1497L71.082 28.9097C72.2464 30.0773 72.2453 31.9757 71.0751 33.1458C69.9076 34.3133 68.0077 34.3133 66.8402 33.1458L63.3003 29.6058C62.9316 29.237 62.3772 29.1266 61.8956 29.3264C61.4138 29.5259 61.0998 29.996 61.0998 30.5172V53.2757C61.0998 53.9876 61.677 54.5648 62.3888 54.5648H85.152C85.6733 54.5648 86.1433 54.2508 86.3429 53.769C86.5424 53.2873 86.4321 52.733 86.0634 52.3643L82.5195 48.8204C81.352 47.6529 81.352 45.753 82.5195 44.5854C83.6868 43.418 85.5866 43.4179 86.7545 44.5854L99.516 57.3468C99.575 57.4057 99.587 57.4729 99.587 57.519C99.587 57.5651 99.575 57.6323 99.516 57.691L86.7557 70.4172C85.5882 71.5816 83.6897 71.5804 82.5197 70.4104C81.3521 69.2429 81.3521 67.343 82.5197 66.1755L86.0596 62.6355C86.4283 62.2669 86.5387 61.7124 86.3391 61.2309C86.1396 60.7491 85.6695 60.4351 85.1482 60.4351H62.3895C61.6776 60.4351 61.1004 61.0122 61.1004 61.7241V70.5045C61.1004 71.2164 61.6776 71.7936 62.3895 71.7936C63.1012 71.7936 63.6784 71.2164 63.6784 70.5045V63.0131H82.036L80.6966 64.3525C78.5239 66.5253 78.5239 70.0604 80.7006 72.2372C81.7865 73.3232 83.2135 73.8663 84.641 73.8661C86.0657 73.8661 87.4908 73.3249 88.5761 72.2425L101.336 59.5163C101.87 58.9835 102.165 58.2749 102.165 57.5206C102.166 56.7666 101.872 56.0574 101.339 55.5241Z" fill="#159822"/>
</svg>
