<svg width="136" height="135" viewBox="0 0 136 135" fill="none" xmlns="http://www.w3.org/2000/svg">
<g clip-path="url(#clip0_8567_25040)">
<path d="M68 125.5C100.033 125.5 126 99.5325 126 67.5C126 35.4675 100.033 9.5 68 9.5C35.9675 9.5 10 35.4675 10 67.5C10 99.5325 35.9675 125.5 68 125.5Z" stroke="#D1D1D1"/>
<path d="M133 67.5C133 103.399 103.899 132.5 68 132.5C32.1015 132.5 3 103.399 3 67.5C3 31.6015 32.1015 2.5 68 2.5C103.899 2.5 133 31.6015 133 67.5ZM68 134.5C105.003 134.5 135 104.503 135 67.5C135 30.4969 105.003 0.5 68 0.5C30.9969 0.5 1 30.4969 1 67.5C1 104.503 30.9969 134.5 68 134.5Z" fill="#159822" stroke="#159822"/>
<path d="M67.9297 59.2812C67.9297 59.0183 68.1433 58.8047 68.4062 58.8047C68.6692 58.8047 68.8828 59.0183 68.8828 59.2812C68.8828 59.5442 68.6692 59.7578 68.4062 59.7578C68.1433 59.7578 67.9297 59.5442 67.9297 59.2812Z" fill="#159822" stroke="#159822"/>
<path d="M44.4922 63.6853V64.1471V69.0469C44.4922 76.4254 48.4921 82.8952 54.4753 86.3656L54.476 86.3659L54.5158 86.3888C54.5169 86.3894 54.5179 86.3901 54.519 86.3907L44.4922 63.6853ZM44.4922 63.6853L44.0319 63.6486L44.4922 63.6853ZM44.4922 63.6853L44.0319 63.6486L44.4922 63.6853ZM44.0319 63.6486C41.779 63.4692 40 61.5788 40 59.2812V53.4219C40 53.1587 40.2134 52.9453 40.4766 52.9453H88.5234C88.7866 52.9453 89 53.1587 89 53.4219V59.2812C89 61.5788 87.221 63.4693 84.9681 63.6486L84.5078 63.6853V64.1471V69.0469C84.5078 72.6221 83.5533 76.1305 81.7483 79.1927C79.996 82.1652 77.4908 84.6499 74.5043 86.3774L74.5071 86.3823M44.0319 63.6486L74.5071 86.3823L44.0319 63.6486ZM74.5071 86.3823L74.5037 86.3778C71.5988 88.0649 68.1323 89.0547 64.5 89.0547C60.9951 89.0547 57.5489 88.1356 54.5312 86.3977L54.5304 86.3971L54.5209 86.3918L54.519 86.3906L74.5071 86.3823ZM73.5262 85.8312L73.7891 85.6896V85.391V76.8594C73.7891 71.7369 69.6224 67.5703 64.5 67.5703C59.3776 67.5703 55.2109 71.7369 55.2109 76.8594V85.391V85.6896L55.4738 85.8312C58.2342 87.318 61.342 88.1016 64.5 88.1016C67.6581 88.1016 70.7659 87.318 73.5262 85.8312ZM74.7422 84.175V85.145L75.5323 84.5823C80.5201 81.0295 83.5547 75.2298 83.5547 69.0469V64.1641V63.6641H83.0547H45.9453H45.4453V64.1641V69.0469C45.4453 75.2298 48.4799 81.0295 53.4677 84.5823L54.2578 85.145V84.175V76.8594C54.2578 71.2123 58.8529 66.6172 64.5 66.6172C70.1471 66.6172 74.7422 71.2123 74.7422 76.8594V84.175ZM87.5469 58.8047H88.0469V58.3047V54.3984V53.8984H87.5469H41.4531H40.9531V54.3984V59.2812C40.9531 61.1728 42.4912 62.7109 44.3828 62.7109H44.4121H44.4419H44.4724H44.5035H44.5352H44.5675H44.6004H44.6338H44.6679H44.7026H44.7378H44.7737H44.8101H44.8471H44.8847H44.9229H44.9616H45.0009H45.0408H45.0812H45.1222H45.1638H45.2059H45.2486H45.2918H45.3356H45.3799H45.4248H45.4702H45.5162H45.5627H45.6098H45.6573H45.7054H45.7541H45.8032H45.8529H45.9032H45.9539H46.0051H46.0569H46.1092H46.162H46.2153H46.2691H46.3234H46.3782H46.4335H46.4893H46.5455H46.6023H46.6596H46.7173H46.7756H46.8343H46.8935H46.9531H47.0133H47.0739H47.135H47.1965H47.2585H47.321H47.3839H47.4473H47.5111H47.5754H47.6401H47.7053H47.7709H47.837H47.9035H47.9705H48.0378H48.1056H48.1739H48.2425H48.3116H48.3811H48.451H48.5214H48.5921H48.6633H48.7349H48.8069H48.8792H48.952H49.0252H49.0988H49.1728H49.2471H49.3219H49.3971H49.4726H49.5485H49.6248H49.7015H49.7785H49.8559H49.9337H50.0119H50.0904H50.1693H50.2485H50.3281H50.4081H50.4884H50.569H50.65H50.7314H50.8131H50.8951H50.9775H51.0602H51.1432H51.2266H51.3103H51.3943H51.4787H51.5634H51.6483H51.7336H51.8193H51.9052H51.9914H52.078H52.1648H52.252H52.3394H52.4271H52.5152H52.6035H52.6921H52.781H52.8702H52.9597H53.0494H53.1394H53.2297H53.3203H53.4111H53.5023H53.5936H53.6852H53.7771H53.8693H53.9617H54.0543H54.1472H54.2404H54.3338H54.4274H54.5213H54.6154H54.7098H54.8043H54.8991H54.9942H55.0894H55.1849H55.2806H55.3766H55.4727H55.569H55.6656H55.7624H55.8594H55.9565H56.0539H56.1515H56.2493H56.3472H56.4454H56.5437H56.6422H56.7409H56.8398H56.9389H57.0382H57.1376H57.2372H57.3369H57.4369H57.5369H57.6372H57.7376H57.8382H57.9389H58.0398H58.1408H58.2419H58.3432H58.4447H58.5463H58.648H58.7499H58.8519H58.954H59.0562H59.1586H59.2611H59.3637H59.4664H59.5693H59.6722H59.7753H59.8785H59.9818H60.0851H60.1886H60.2922H60.3959H60.4996H60.6035H60.7074H60.8114H60.9156H61.0197H61.124H61.2284H61.3328H61.4373H61.5418H61.6464H61.7511H61.8558H61.9606H62.0655H62.1704H62.2754H62.3804H62.4854H62.5905H62.6957H62.8008H62.906H63.0113H63.1166H63.2219H63.3272H63.4326H63.5379H63.6433H63.7487H63.8542H63.9596H64.065H64.1705H64.2759H64.3814H64.4868H64.5923H64.6977H64.8032H64.9086H65.014H65.1194H65.2248H65.3301H65.4355H65.5408H65.6461H65.7513H65.8565H65.9617H66.0669H66.172H66.277H66.3821H66.487H66.5919H66.6968H66.8016H66.9064H67.0111H67.1157H67.2203H67.3248H67.4292H67.5336H67.6378H67.7421H67.8462H67.9502H68.0542H68.1581H68.2618H68.3655H68.4691H68.5726H68.676H68.7793H68.8825H68.9856H69.0886H69.1915H69.2942H69.3969H69.4994H69.6018H69.7041H69.8062H69.9082H70.0101H70.1119H70.2135H70.315H70.4163H70.5175H70.6186H70.7195H70.8202H70.9208H71.0213H71.1216H71.2217H71.3217H71.4214H71.5211H71.6205H71.7198H71.8189H71.9179H72.0166H72.1152H72.2136H72.3118H72.4098H72.5076H72.6052H72.7026H72.7998H72.8969H72.9937H73.0903H73.1867H73.2829H73.3788H73.4746H73.5701H73.6654H73.7605H73.8554H73.95H74.0444H74.1386H74.2325H74.3262H74.4197H74.5129H74.6058H74.6985H74.791H74.8832H74.9751H75.0668H75.1583H75.2494H75.3403H75.4309H75.5213H75.6114H75.7012H75.7907H75.88H75.9689H76.0576H76.146H76.2341H76.3219H76.4094H76.4966H76.5836H76.6702H76.7565H76.8425H76.9282H77.0135H77.0986H77.1833H77.2677H77.3518H77.4356H77.5191H77.6022H77.685H77.7674H77.8495H77.9313H78.0127H78.0938H78.1745H78.2549H78.335H78.4146H78.494H78.5729H78.6515H78.7298H78.8076H78.8851H78.9623H79.039H79.1154H79.1914H79.267H79.3422H79.4171H79.4916H79.5656H79.6393H79.7126H79.7854H79.8579H79.93H80.0017H80.0729H80.1438H80.2142H80.2842H80.3538H80.423H80.4917H80.5601H80.628H80.6954H80.7625H80.8291H80.8953H80.961H81.0263H81.0911H81.1555H81.2194H81.2829H81.3459H81.4085H81.4706H81.5323H81.5934H81.6542H81.7144H81.7742H81.8335H81.8923H81.9506H82.0085H82.0659H82.1227H82.1791H82.235H82.2905H82.3454H82.3998H82.4537H82.5071H82.56H82.6124H82.6643H82.7156H82.7665H82.8168H82.8666H82.9159H82.9647H83.0129H83.0606H83.1078H83.1544H83.2005H83.246H83.291H83.3355H83.3794H83.4228H83.4656H83.5078H83.5495H83.5906H83.6312H83.6712H83.7106H83.7495H83.7878H83.8255H83.8626H83.8992H83.9351H83.9705H84.0053H84.0395H84.0732H84.1062H84.1386H84.1704H84.2016H84.2323H84.2623H84.2917H84.3204H84.3486H84.3762H84.4031H84.4294H84.4551H84.4801H84.5046H84.5284H84.5515H84.5741H84.5959H84.6172C86.1119 62.7109 87.3796 61.7418 87.8501 60.4152L88.0868 59.748H87.3789H72.3125C72.0427 59.748 71.8359 59.5379 71.8359 59.2812C71.8359 59.0181 72.0493 58.8047 72.3125 58.8047H87.5469Z" fill="#159822"/>
<path d="M44.4922 63.6853L44.0319 63.6486M44.4922 63.6853L44.0319 63.6486M44.0319 63.6486C41.779 63.4692 40 61.5788 40 59.2812V53.4219C40 53.1587 40.2134 52.9453 40.4766 52.9453H88.5234C88.7866 52.9453 89 53.1587 89 53.4219V59.2812C89 61.5788 87.221 63.4693 84.9681 63.6486L84.5078 63.6853V64.1471V69.0469C84.5078 72.6221 83.5533 76.1305 81.7483 79.1927C79.996 82.1652 77.4908 84.6499 74.5043 86.3774L74.5071 86.3823M44.0319 63.6486L74.5071 86.3823M44.4922 63.6853V64.1471V69.0469C44.4922 76.4254 48.4921 82.8952 54.4753 86.3656L54.476 86.3659L54.5158 86.3888C54.5169 86.3894 54.5179 86.3901 54.519 86.3907L44.4922 63.6853ZM74.5071 86.3823L74.5037 86.3778C71.5988 88.0649 68.1323 89.0547 64.5 89.0547C60.9951 89.0547 57.5489 88.1356 54.5312 86.3977L54.5304 86.3971L54.5209 86.3918L54.519 86.3906L74.5071 86.3823ZM73.5262 85.8312L73.7891 85.6896V85.391V76.8594C73.7891 71.7369 69.6224 67.5703 64.5 67.5703C59.3776 67.5703 55.2109 71.7369 55.2109 76.8594V85.391V85.6896L55.4738 85.8312C58.2342 87.318 61.342 88.1016 64.5 88.1016C67.6581 88.1016 70.7659 87.318 73.5262 85.8312ZM74.7422 84.175V85.145L75.5323 84.5823C80.5201 81.0295 83.5547 75.2298 83.5547 69.0469V64.1641V63.6641H83.0547H45.9453H45.4453V64.1641V69.0469C45.4453 75.2298 48.4799 81.0295 53.4677 84.5823L54.2578 85.145V84.175V76.8594C54.2578 71.2123 58.8529 66.6172 64.5 66.6172C70.1471 66.6172 74.7422 71.2123 74.7422 76.8594V84.175ZM87.5469 58.8047H88.0469V58.3047V54.3984V53.8984H87.5469H41.4531H40.9531V54.3984V59.2812C40.9531 61.1728 42.4912 62.7109 44.3828 62.7109H44.4121H44.4419H44.4724H44.5035H44.5352H44.5675H44.6004H44.6338H44.6679H44.7026H44.7378H44.7737H44.8101H44.8471H44.8847H44.9229H44.9616H45.0009H45.0408H45.0812H45.1222H45.1638H45.2059H45.2486H45.2918H45.3356H45.3799H45.4248H45.4702H45.5162H45.5627H45.6098H45.6573H45.7054H45.7541H45.8032H45.8529H45.9032H45.9539H46.0051H46.0569H46.1092H46.162H46.2153H46.2691H46.3234H46.3782H46.4335H46.4893H46.5455H46.6023H46.6596H46.7173H46.7756H46.8343H46.8935H46.9531H47.0133H47.0739H47.135H47.1965H47.2585H47.321H47.3839H47.4473H47.5111H47.5754H47.6401H47.7053H47.7709H47.837H47.9035H47.9705H48.0378H48.1056H48.1739H48.2425H48.3116H48.3811H48.451H48.5214H48.5921H48.6633H48.7349H48.8069H48.8792H48.952H49.0252H49.0988H49.1728H49.2471H49.3219H49.3971H49.4726H49.5485H49.6248H49.7015H49.7785H49.8559H49.9337H50.0119H50.0904H50.1693H50.2485H50.3281H50.4081H50.4884H50.569H50.65H50.7314H50.8131H50.8951H50.9775H51.0602H51.1432H51.2266H51.3103H51.3943H51.4787H51.5634H51.6483H51.7336H51.8193H51.9052H51.9914H52.078H52.1648H52.252H52.3394H52.4271H52.5152H52.6035H52.6921H52.781H52.8702H52.9597H53.0494H53.1394H53.2297H53.3203H53.4111H53.5023H53.5936H53.6852H53.7771H53.8693H53.9617H54.0543H54.1472H54.2404H54.3338H54.4274H54.5213H54.6154H54.7098H54.8043H54.8991H54.9942H55.0894H55.1849H55.2806H55.3766H55.4727H55.569H55.6656H55.7624H55.8594H55.9565H56.0539H56.1515H56.2493H56.3472H56.4454H56.5437H56.6422H56.7409H56.8398H56.9389H57.0382H57.1376H57.2372H57.3369H57.4369H57.5369H57.6372H57.7376H57.8382H57.9389H58.0398H58.1408H58.2419H58.3432H58.4447H58.5463H58.648H58.7499H58.8519H58.954H59.0562H59.1586H59.2611H59.3637H59.4664H59.5693H59.6722H59.7753H59.8785H59.9818H60.0851H60.1886H60.2922H60.3959H60.4996H60.6035H60.7074H60.8114H60.9156H61.0197H61.124H61.2284H61.3328H61.4373H61.5418H61.6464H61.7511H61.8558H61.9606H62.0655H62.1704H62.2754H62.3804H62.4854H62.5905H62.6957H62.8008H62.906H63.0113H63.1166H63.2219H63.3272H63.4326H63.5379H63.6433H63.7487H63.8542H63.9596H64.065H64.1705H64.2759H64.3814H64.4868H64.5923H64.6977H64.8032H64.9086H65.014H65.1194H65.2248H65.3301H65.4355H65.5408H65.6461H65.7513H65.8565H65.9617H66.0669H66.172H66.277H66.3821H66.487H66.5919H66.6968H66.8016H66.9064H67.0111H67.1157H67.2203H67.3248H67.4292H67.5336H67.6378H67.7421H67.8462H67.9502H68.0542H68.1581H68.2618H68.3655H68.4691H68.5726H68.676H68.7793H68.8825H68.9856H69.0886H69.1915H69.2942H69.3969H69.4994H69.6018H69.7041H69.8062H69.9082H70.0101H70.1119H70.2135H70.315H70.4163H70.5175H70.6186H70.7195H70.8202H70.9208H71.0213H71.1216H71.2217H71.3217H71.4214H71.5211H71.6205H71.7198H71.8189H71.9179H72.0166H72.1152H72.2136H72.3118H72.4098H72.5076H72.6052H72.7026H72.7998H72.8969H72.9937H73.0903H73.1867H73.2829H73.3788H73.4746H73.5701H73.6654H73.7605H73.8554H73.95H74.0444H74.1386H74.2325H74.3262H74.4197H74.5129H74.6058H74.6985H74.791H74.8832H74.9751H75.0668H75.1583H75.2494H75.3403H75.4309H75.5213H75.6114H75.7012H75.7907H75.88H75.9689H76.0576H76.146H76.2341H76.3219H76.4094H76.4966H76.5836H76.6702H76.7565H76.8425H76.9282H77.0135H77.0986H77.1833H77.2677H77.3518H77.4356H77.5191H77.6022H77.685H77.7674H77.8495H77.9313H78.0127H78.0938H78.1745H78.2549H78.335H78.4146H78.494H78.5729H78.6515H78.7298H78.8076H78.8851H78.9623H79.039H79.1154H79.1914H79.267H79.3422H79.4171H79.4916H79.5656H79.6393H79.7126H79.7854H79.8579H79.93H80.0017H80.0729H80.1438H80.2142H80.2842H80.3538H80.423H80.4917H80.5601H80.628H80.6954H80.7625H80.8291H80.8953H80.961H81.0263H81.0911H81.1555H81.2194H81.2829H81.3459H81.4085H81.4706H81.5323H81.5934H81.6542H81.7144H81.7742H81.8335H81.8923H81.9506H82.0085H82.0659H82.1227H82.1791H82.235H82.2905H82.3454H82.3998H82.4537H82.5071H82.56H82.6124H82.6643H82.7156H82.7665H82.8168H82.8666H82.9159H82.9647H83.0129H83.0606H83.1078H83.1544H83.2005H83.246H83.291H83.3355H83.3794H83.4228H83.4656H83.5078H83.5495H83.5906H83.6312H83.6712H83.7106H83.7495H83.7878H83.8255H83.8626H83.8992H83.9351H83.9705H84.0053H84.0395H84.0732H84.1062H84.1386H84.1704H84.2016H84.2323H84.2623H84.2917H84.3204H84.3486H84.3762H84.4031H84.4294H84.4551H84.4801H84.5046H84.5284H84.5515H84.5741H84.5959H84.6172C86.1119 62.7109 87.3796 61.7418 87.8501 60.4152L88.0868 59.748H87.3789H72.3125C72.0427 59.748 71.8359 59.5379 71.8359 59.2812C71.8359 59.0181 72.0493 58.8047 72.3125 58.8047H87.5469Z" stroke="#159822"/>
<path d="M58.1641 76.8594C58.1641 73.3662 61.0068 70.5234 64.5 70.5234C67.9932 70.5234 70.8359 73.3662 70.8359 76.8594C70.8359 80.3526 67.9932 83.1953 64.5 83.1953C61.0068 83.1953 58.1641 80.3526 58.1641 76.8594ZM59.1172 76.8594C59.1172 79.8279 61.5315 82.2422 64.5 82.2422C67.4685 82.2422 69.8828 79.8279 69.8828 76.8594C69.8828 73.8908 67.4685 71.4766 64.5 71.4766C61.5315 71.4766 59.1172 73.8908 59.1172 76.8594Z" fill="#159822" stroke="#159822"/>
<path d="M62.0703 76.8594C62.0703 75.5201 63.1607 74.4297 64.5 74.4297C65.8393 74.4297 66.9297 75.5201 66.9297 76.8594C66.9297 78.1987 65.8393 79.2891 64.5 79.2891C63.1607 79.2891 62.0703 78.1987 62.0703 76.8594ZM63.0234 76.8594C63.0234 77.674 63.6854 78.3359 64.5 78.3359C65.3146 78.3359 65.9766 77.674 65.9766 76.8594C65.9766 76.0448 65.3146 75.3828 64.5 75.3828C63.6854 75.3828 63.0234 76.0448 63.0234 76.8594Z" fill="#159822" stroke="#159822"/>
<path d="M30.5 53H88.5" stroke="#159822" stroke-width="2" stroke-linecap="round"/>
<path d="M30.5 36H104.5" stroke="#159822" stroke-width="2" stroke-linecap="round"/>
<path d="M88.5 99V53" stroke="#159822" stroke-width="2" stroke-linecap="round"/>
<path d="M104.5 99V37" stroke="#159822" stroke-width="2" stroke-linecap="round"/>
<path d="M88.3008 52.912L104.887 36.3262" stroke="#159822" stroke-width="2" stroke-linecap="round"/>
</g>
<defs>
<clipPath id="clip0_8567_25040">
<rect width="135" height="135" fill="white" transform="translate(0.5)"/>
</clipPath>
</defs>
</svg>
