<svg width="136" height="135" viewBox="0 0 136 135" fill="none" xmlns="http://www.w3.org/2000/svg">
<g clip-path="url(#clip0_8567_25003)">
<path d="M68 125.5C100.033 125.5 126 99.5325 126 67.5C126 35.4675 100.033 9.5 68 9.5C35.9675 9.5 10 35.4675 10 67.5C10 99.5325 35.9675 125.5 68 125.5Z" stroke="#D1D1D1"/>
<path d="M133 67.5C133 103.399 103.899 132.5 68 132.5C32.1015 132.5 3 103.399 3 67.5C3 31.6015 32.1015 2.5 68 2.5C103.899 2.5 133 31.6015 133 67.5ZM68 134.5C105.003 134.5 135 104.503 135 67.5C135 30.4969 105.003 0.5 68 0.5C30.9969 0.5 1 30.4969 1 67.5C1 104.503 30.9969 134.5 68 134.5Z" fill="#159822" stroke="#159822"/>
<path d="M33 101.499L55.3713 80.4941" stroke="#159822" stroke-width="2" stroke-linecap="round" stroke-linejoin="round"/>
<path d="M101.871 101.005L79.5 80" stroke="#159822" stroke-width="2" stroke-linecap="round" stroke-linejoin="round"/>
<path d="M33 32L55.3713 53.0051" stroke="#159822" stroke-width="2" stroke-linecap="round" stroke-linejoin="round"/>
<path d="M101.871 31.4941L79.5 52.4993" stroke="#159822" stroke-width="2" stroke-linecap="round" stroke-linejoin="round"/>
<path d="M79.2938 52.5508H55.5664V80.0301H79.2938V52.5508Z" stroke="#159822" stroke-width="2"/>
<path d="M74.5 58H60.5V80H74.5V58Z" stroke="#159822" stroke-width="2"/>
<path d="M47.7109 106L60.0859 84H74.9163L87.2913 106H47.7109Z" stroke="#159822" stroke-width="2"/>
<path d="M44.9918 90.0652L34.6641 99.6995V44.5625L44.9918 53.0941V90.0652Z" stroke="#159822" stroke-width="2" stroke-linecap="round"/>
<path d="M41.5078 69.2383V75.1341" stroke="#159822" stroke-width="2" stroke-linecap="round"/>
<path d="M96.9805 69.2383V75.1341" stroke="#159822" stroke-width="2" stroke-linecap="round"/>
<path d="M71.1836 69.2383V72.1862" stroke="#159822" stroke-width="2" stroke-linecap="round"/>
<path d="M89.8711 89.4401L100.199 99.0943V44.5625L89.8711 53.0941V89.4401Z" stroke="#159822" stroke-width="2"/>
<mask id="mask0_8567_25003" style="mask-type:alpha" maskUnits="userSpaceOnUse" x="60" y="27" width="15" height="8">
<path d="M74.4004 27.9688C74.4004 28.8838 74.2202 29.7899 73.8701 30.6353C73.5199 31.4806 73.0066 32.2488 72.3596 32.8958C71.7126 33.5427 70.9445 34.0561 70.0991 34.4063C69.2537 34.7564 68.3476 34.9366 67.4326 34.9366C66.5176 34.9366 65.6115 34.7564 64.7661 34.4063C63.9208 34.0561 63.1526 33.5427 62.5056 32.8958C61.8586 32.2488 61.3453 31.4806 60.9952 30.6353C60.645 29.7899 60.4648 28.8838 60.4648 27.9688H67.4326H74.4004Z" fill="white"/>
</mask>
<g mask="url(#mask0_8567_25003)">
<path d="M74.4004 27.9688C74.4004 28.8838 74.2202 29.7899 73.8701 30.6353C73.5199 31.4807 73.0066 32.2488 72.3596 32.8958C71.7126 33.5428 70.9445 34.0561 70.0991 34.4063C69.2537 34.7564 68.3476 34.9366 67.4326 34.9366C66.5176 34.9366 65.6115 34.7564 64.7661 34.4063C63.9208 34.0561 63.1526 33.5428 62.5056 32.8958C61.8586 32.2488 61.3453 31.4807 60.9952 30.6353C60.645 29.7899 60.4648 28.8838 60.4648 27.9688H67.4326H74.4004Z" stroke="#159822" stroke-width="4"/>
</g>
<mask id="mask1_8567_25003" style="mask-type:alpha" maskUnits="userSpaceOnUse" x="62" y="42" width="11" height="6">
<path d="M72.79 42.4395C72.79 43.1434 72.6514 43.8404 72.382 44.4907C72.1127 45.141 71.7179 45.7318 71.2202 46.2295C70.7225 46.7272 70.1316 47.122 69.4813 47.3914C68.831 47.6608 68.134 47.7994 67.4302 47.7994C66.7263 47.7994 66.0293 47.6608 65.379 47.3914C64.7287 47.122 64.1379 46.7272 63.6402 46.2295C63.1424 45.7318 62.7476 45.141 62.4783 44.4907C62.2089 43.8404 62.0703 43.1434 62.0703 42.4395H67.4302H72.79Z" fill="white"/>
</mask>
<g mask="url(#mask1_8567_25003)">
<path d="M72.79 42.4395C72.79 43.1434 72.6514 43.8404 72.382 44.4907C72.1127 45.141 71.7179 45.7318 71.2202 46.2295C70.7225 46.7272 70.1316 47.122 69.4813 47.3914C68.831 47.6608 68.134 47.7994 67.4302 47.7994C66.7263 47.7994 66.0293 47.6608 65.379 47.3914C64.7287 47.122 64.1379 46.7272 63.6402 46.2295C63.1424 45.7318 62.7476 45.141 62.4783 44.4907C62.2089 43.8404 62.0703 43.1434 62.0703 42.4395H67.4302H72.79Z" stroke="#159822" stroke-width="4"/>
</g>
</g>
<defs>
<clipPath id="clip0_8567_25003">
<rect width="135" height="135" fill="white" transform="translate(0.5)"/>
</clipPath>
</defs>
</svg>
