<svg width="24" height="24" viewBox="0 0 24 24" fill="none" xmlns="http://www.w3.org/2000/svg">
<rect width="24" height="24" fill="white"/>
<g clip-path="url(#clip0_2800_18530)">
<path d="M22.7801 12.3302V12.5002L21.4601 15.1102C21.3885 15.2566 21.3509 15.4173 21.3501 15.5802C21.3501 16.3702 21.3501 17.1702 21.3501 17.9702C21.3693 18.0913 21.3459 18.2153 21.2839 18.321C21.2219 18.4268 21.1252 18.5078 21.0101 18.5502C20.1501 18.9502 19.3102 19.3902 18.4701 19.8102C18.366 19.8602 18.2712 19.9279 18.1901 20.0102L15.3901 22.8302H15.1801L12.4601 22.1402C12.4011 22.1254 12.3392 22.1254 12.2801 22.1402L9.58015 22.8302H9.38015L6.56015 19.9902C6.47393 19.9122 6.37609 19.8481 6.27015 19.8002L3.64015 18.4902C3.56585 18.4603 3.50326 18.4071 3.46178 18.3386C3.42031 18.2701 3.40219 18.1899 3.41015 18.1102C3.41015 17.2602 3.41015 16.4002 3.41015 15.5502C3.41142 15.401 3.37715 15.2536 3.31015 15.1202C2.89015 14.2902 2.48015 13.4502 2.06015 12.6102C2.02144 12.5556 1.99743 12.492 1.99042 12.4255C1.98342 12.3589 1.99366 12.2917 2.02015 12.2302C2.44015 11.4002 2.85015 10.5702 3.26015 9.74023C3.36276 9.59034 3.41526 9.41181 3.41015 9.23023C3.41015 8.38023 3.41015 7.52023 3.41015 6.67023C3.40491 6.59609 3.4234 6.52221 3.46295 6.45928C3.50251 6.39636 3.56107 6.34766 3.63015 6.32023L6.28015 5.03023C6.37646 4.98552 6.46439 4.92464 6.54015 4.85023L9.38015 2.00023H9.58015L12.3001 2.69023C12.3525 2.70472 12.4078 2.70472 12.4601 2.69023L15.1801 1.99023H15.3901L18.2201 4.85023C18.297 4.91589 18.3808 4.97289 18.4701 5.02023C19.3302 5.45023 20.1901 5.89023 21.0501 6.30023C21.1537 6.33813 21.241 6.4105 21.2975 6.5052C21.3539 6.5999 21.3761 6.71114 21.3601 6.82023C21.3601 7.64023 21.3601 8.46023 21.3601 9.28023C21.3359 9.38215 21.3359 9.48832 21.3601 9.59023L22.7801 12.3302ZM19.9201 8.78023C19.9201 8.26023 19.9201 7.91023 19.9201 7.56023C19.9316 7.49174 19.9189 7.4214 19.8842 7.36123C19.8496 7.30105 19.7951 7.25475 19.7301 7.23023L17.6201 6.16023C17.4679 6.08346 17.3294 5.9821 17.2101 5.86023L15.0701 3.72023C15.0278 3.66538 14.9693 3.62524 14.9029 3.60549C14.8365 3.58575 14.7656 3.58741 14.7001 3.61023L12.5801 4.15023C12.4553 4.18037 12.325 4.18037 12.2001 4.15023C11.5001 3.97023 10.8001 3.80023 10.1001 3.61023C10.0269 3.58742 9.94865 3.58563 9.87439 3.60508C9.80014 3.62452 9.73284 3.66442 9.68015 3.72023C8.93015 4.48023 8.16015 5.23023 7.40015 5.98023C7.27121 6.10668 7.12261 6.21137 6.96015 6.29023C6.33015 6.60023 5.70015 6.93023 5.07015 7.23023C4.9983 7.2567 4.93749 7.30665 4.89756 7.37198C4.85763 7.43732 4.84093 7.51422 4.85015 7.59023C4.85015 8.26023 4.85015 8.92023 4.85015 9.59023C4.85268 9.76114 4.81137 9.92984 4.73015 10.0802C4.38015 10.7802 4.04015 11.4902 3.73015 12.1902C3.68789 12.2613 3.66559 12.3425 3.66559 12.4252C3.66559 12.5079 3.68789 12.5891 3.73015 12.6602C4.10015 13.3702 4.45015 14.0902 4.81015 14.8002C4.87715 14.9336 4.91142 15.081 4.91015 15.2302C4.91015 15.8802 4.91015 16.5302 4.91015 17.1802C4.89858 17.2759 4.91872 17.3727 4.9675 17.4558C5.01628 17.5389 5.09098 17.6037 5.18015 17.6402C5.88015 17.9802 6.56015 18.3402 7.24015 18.6902C7.38585 18.7638 7.51778 18.8619 7.63015 18.9802L9.75015 21.1102C9.79859 21.169 9.86358 21.2119 9.93669 21.2333C10.0098 21.2547 10.0877 21.2536 10.1601 21.2302L12.2601 20.6902C12.3912 20.655 12.5291 20.655 12.6601 20.6902L14.7401 21.2102C14.8155 21.2366 14.8971 21.2393 14.974 21.2178C15.0509 21.1964 15.1194 21.1518 15.1701 21.0902L17.4501 18.8402C17.5634 18.7327 17.6913 18.6418 17.8301 18.5702L19.8301 17.5702C19.8949 17.5445 19.9494 17.4983 19.9855 17.4388C20.0216 17.3792 20.0373 17.3095 20.0301 17.2402C20.0301 16.5702 20.0301 15.9002 20.0301 15.2402C20.0279 15.0769 20.0657 14.9156 20.1402 14.7702C20.5002 14.0502 20.8501 13.3302 21.2201 12.6102C21.2543 12.5491 21.2722 12.4803 21.2722 12.4102C21.2722 12.3402 21.2543 12.2714 21.2201 12.2102C21.0002 11.7802 20.8101 11.3302 20.5701 10.9202C20.0956 10.3122 19.864 9.54949 19.9201 8.78023Z" fill="#D5692B"/>
<path d="M8.78036 17.0291C8.74945 17.0283 8.71908 17.0208 8.69142 17.007C8.66376 16.9931 8.6395 16.9734 8.62036 16.9491L7.86036 16.2291C7.77036 16.1391 7.76036 16.0591 7.86036 15.9791L7.96036 15.8791L15.8004 8.00906C16.0204 7.79906 16.0204 7.79906 16.2404 8.00906C16.4604 8.21906 16.6404 8.41906 16.8604 8.61906C17.0804 8.81906 17.0104 8.83906 16.8604 8.97906C16.2704 9.54906 15.6904 10.1391 15.1104 10.7291L8.94036 16.8791C8.89216 16.9343 8.83856 16.9845 8.78036 17.0291Z" fill="#D5692B"/>
<path d="M11.7091 9.64859C11.7218 9.92558 11.6768 10.2022 11.5769 10.4608C11.477 10.7195 11.3244 10.9546 11.1288 11.1511C10.9332 11.3476 10.6989 11.5014 10.4407 11.6025C10.1825 11.7036 9.90613 11.75 9.62909 11.7386C9.35425 11.7399 9.08188 11.6868 8.82771 11.5822C8.57355 11.4776 8.34262 11.3237 8.14828 11.1294C7.95394 10.9351 7.80004 10.7041 7.69548 10.45C7.59092 10.1958 7.53776 9.92343 7.53909 9.64859C7.54684 9.09671 7.76953 8.5696 8.15981 8.17932C8.55009 7.78904 9.0772 7.56635 9.62909 7.55859C9.90308 7.55859 10.1744 7.61272 10.4274 7.71788C10.6804 7.82303 10.9101 7.97714 11.1034 8.17134C11.2967 8.36555 11.4497 8.59603 11.5536 8.84954C11.6576 9.10305 11.7104 9.3746 11.7091 9.64859ZM9.63909 9.00859C9.55508 9.0085 9.47193 9.02547 9.39468 9.05849C9.31744 9.0915 9.24771 9.13987 9.18972 9.20066C9.13174 9.26145 9.08672 9.33339 9.05738 9.41211C9.02805 9.49083 9.01502 9.57469 9.01909 9.65859C9.01641 9.74431 9.03098 9.82969 9.06194 9.90966C9.0929 9.98963 9.13962 10.0626 9.19932 10.1241C9.25902 10.1857 9.33048 10.2346 9.40946 10.268C9.48844 10.3014 9.57333 10.3186 9.65909 10.3186C9.83278 10.3114 9.99759 10.2399 10.1214 10.1179C10.2453 9.99588 10.3193 9.83216 10.3291 9.65859C10.3293 9.56976 10.3112 9.48184 10.2761 9.40025C10.2409 9.31866 10.1894 9.24514 10.1248 9.18423C10.0601 9.12332 9.98367 9.07631 9.90013 9.0461C9.81659 9.01589 9.72775 9.00313 9.63909 9.00859Z" fill="#D5692B"/>
<path d="M13.0212 15.1696C13.0099 14.8934 13.056 14.6179 13.1565 14.3604C13.2571 14.103 13.4099 13.8691 13.6053 13.6737C13.8008 13.4782 14.0346 13.3254 14.2921 13.2249C14.5495 13.1244 14.825 13.0783 15.1012 13.0896C15.3837 13.0826 15.6645 13.1334 15.9268 13.2386C16.189 13.3438 16.427 13.5014 16.6263 13.7016C16.8256 13.9019 16.982 14.1406 17.086 14.4033C17.19 14.666 17.2394 14.9471 17.2312 15.2296C17.2006 15.769 16.9652 16.2765 16.573 16.6482C16.1809 17.0199 15.6615 17.2279 15.1212 17.2296C14.5703 17.2323 14.0407 17.0173 13.6474 16.6316C13.2542 16.2458 13.0291 15.7204 13.0212 15.1696ZM15.0912 15.8196C15.1764 15.8223 15.2614 15.8077 15.3408 15.7766C15.4202 15.7455 15.4925 15.6986 15.5533 15.6388C15.6141 15.579 15.6621 15.5074 15.6944 15.4285C15.7267 15.3495 15.7426 15.2648 15.7412 15.1796C15.7439 15.0934 15.7293 15.0075 15.6985 14.927C15.6677 14.8465 15.6211 14.7729 15.5615 14.7105C15.502 14.6482 15.4306 14.5983 15.3516 14.5638C15.2725 14.5293 15.1874 14.5108 15.1012 14.5096C14.9284 14.5143 14.7637 14.5837 14.6396 14.7041C14.5155 14.8244 14.4412 14.987 14.4312 15.1596C14.4295 15.2501 14.4468 15.34 14.482 15.4235C14.5171 15.507 14.5693 15.5823 14.6352 15.6444C14.7011 15.7066 14.7793 15.7543 14.8647 15.7844C14.9501 15.8146 15.0409 15.8265 15.1312 15.8196H15.0912Z" fill="#D5692B"/>
</g>
<defs>
<clipPath id="clip0_2800_18530">
<rect width="20.77" height="20.82" fill="white" transform="translate(2 2)"/>
</clipPath>
</defs>
</svg>
