<svg width="136" height="135" viewBox="0 0 136 135" fill="none" xmlns="http://www.w3.org/2000/svg">
<g clip-path="url(#clip0_8567_24967)">
<path d="M68 125.5C100.033 125.5 126 99.5325 126 67.5C126 35.4675 100.033 9.5 68 9.5C35.9675 9.5 10 35.4675 10 67.5C10 99.5325 35.9675 125.5 68 125.5Z" stroke="#D1D1D1"/>
<path d="M133 67.5C133 103.399 103.899 132.5 68 132.5C32.1015 132.5 3 103.399 3 67.5C3 31.6015 32.1015 2.5 68 2.5C103.899 2.5 133 31.6015 133 67.5ZM68 134.5C105.003 134.5 135 104.503 135 67.5C135 30.4969 105.003 0.5 68 0.5C30.9969 0.5 1 30.4969 1 67.5C1 104.503 30.9969 134.5 68 134.5Z" fill="#159822" stroke="#159822"/>
<path d="M106.2 104.4H30.7999C30.081 104.4 29.5 104.983 29.5 105.7C29.5 106.418 30.081 107 30.7999 107H106.2C106.919 107 107.5 106.418 107.5 105.701C107.5 104.983 106.919 104.4 106.2 104.4Z" fill="#159822"/>
<path d="M68.4984 29H34.6984C33.9794 29 33.3984 29.5824 33.3984 30.2999V105.7C33.3984 106.417 33.9794 107 34.6984 107H68.4984C69.2173 107 69.7983 106.417 69.7983 105.7V30.2999C69.7983 29.5824 69.2173 29 68.4984 29ZM67.1984 104.4H35.9985V31.6001H67.1984V104.4Z" fill="#159822"/>
<path d="M63.3015 34.1992H39.9015C39.1826 34.1992 38.6016 34.7816 38.6016 35.4991V105.699C38.6016 106.417 39.1826 106.999 39.9015 106.999H63.3015C64.0205 106.999 64.6015 106.417 64.6015 105.699V35.4991C64.6015 34.7816 64.0205 34.1992 63.3015 34.1992ZM62.0014 104.399H41.2015V36.7992H62.0014V104.399Z" fill="#159822"/>
<path d="M102.299 29H68.4991C67.7802 29 67.1992 29.5824 67.1992 30.2999V105.7C67.1992 106.417 67.7802 107 68.4991 107H102.299C103.018 107 103.599 106.417 103.599 105.7V30.2999C103.599 29.5824 103.018 29 102.299 29ZM100.999 104.4H69.7991V31.6001H100.999V104.4Z" fill="#159822"/>
<path d="M97.0984 34.1992H73.6984C72.9794 34.1992 72.3984 34.7816 72.3984 35.4991V105.699C72.3984 106.417 72.9794 106.999 73.6984 106.999H97.0984C97.8173 106.999 98.3983 106.417 98.3983 105.699V35.4991C98.3985 34.7816 97.8173 34.1992 97.0984 34.1992ZM95.7984 104.399H74.9985V36.7992H95.7984V104.399Z" fill="#159822"/>
<path d="M78.9015 61.5C78.1826 61.5 77.6016 62.0824 77.6016 62.7999V78.3999C77.6016 79.1175 78.1826 79.6999 78.9015 79.6999C79.6205 79.6999 80.2015 79.1175 80.2015 78.3999V62.7999C80.2015 62.0824 79.6205 61.5 78.9015 61.5Z" fill="#159822"/>
<path d="M58.1008 61.5C57.3819 61.5 56.8008 62.0824 56.8008 62.7999V78.3999C56.8008 79.1175 57.3819 79.6999 58.1008 79.6999C58.8197 79.6999 59.4008 79.1175 59.4008 78.3999V62.7999C59.4009 62.0824 58.8197 61.5 58.1008 61.5Z" fill="#159822"/>
</g>
<defs>
<clipPath id="clip0_8567_24967">
<rect width="135" height="135" fill="white" transform="translate(0.5)"/>
</clipPath>
</defs>
</svg>
