<svg width="136" height="135" viewBox="0 0 136 135" fill="none" xmlns="http://www.w3.org/2000/svg">
<g clip-path="url(#clip0_8499_18384)">
<path d="M68 125.5C100.033 125.5 126 99.5325 126 67.5C126 35.4675 100.033 9.5 68 9.5C35.9675 9.5 10 35.4675 10 67.5C10 99.5325 35.9675 125.5 68 125.5Z" stroke="#D1D1D1"/>
<path d="M133 67.5C133 103.399 103.899 132.5 68 132.5C32.1015 132.5 3 103.399 3 67.5C3 31.6015 32.1015 2.5 68 2.5C103.899 2.5 133 31.6015 133 67.5ZM68 134.5C105.003 134.5 135 104.503 135 67.5C135 30.4969 105.003 0.5 68 0.5C30.9969 0.5 1 30.4969 1 67.5C1 104.503 30.9969 134.5 68 134.5Z" fill="#159822" stroke="#159822"/>
<path d="M104.225 97.6891H94.3336V35.0519C94.3332 34.7399 94.218 34.439 94.01 34.2065C93.802 33.9739 93.5158 33.826 93.2057 33.791L59.8068 30.008C59.629 29.9879 59.4489 30.0056 59.2784 30.0599C59.1078 30.1143 58.9507 30.204 58.8173 30.3233C58.6838 30.4426 58.5771 30.5887 58.504 30.7521C58.431 30.9155 58.3933 31.0925 58.3934 31.2714V33.7692H43.9326C43.7648 33.7692 43.5985 33.8024 43.4436 33.8671C43.2886 33.9317 43.148 34.0263 43.0299 34.1456C42.9117 34.2649 42.8184 34.4064 42.7552 34.562C42.6921 34.7175 42.6604 34.8841 42.662 35.0519V97.6891H32.7706C31.0765 97.6891 31.0765 100.23 32.7706 100.23H58.3934V102.728C58.3934 103.065 58.5273 103.388 58.7656 103.627C59.0038 103.865 59.327 103.999 59.664 103.999C59.7124 104.002 59.7609 104.002 59.8092 103.999L93.1356 100.23H104.227C105.922 100.23 105.922 97.6891 104.227 97.6891H104.225ZM45.2032 36.3105H58.3934V39.5779H49.7411C49.5733 39.5779 49.407 39.6111 49.2521 39.6758C49.0971 39.7404 48.9565 39.835 48.8384 39.9543C48.7202 40.0736 48.6269 40.2151 48.5638 40.3707C48.5006 40.5262 48.4689 40.6928 48.4705 40.8606V97.6891H45.2032V36.3105ZM51.0118 97.6867V42.1192H58.3934V97.6891L51.0118 97.6867ZM60.9346 32.6922L91.7923 36.1774V97.8222L60.9346 101.307V32.6922Z" fill="#159822"/>
<path d="M66.4133 63.2211C65.6656 63.2211 64.9347 63.4428 64.313 63.8582C63.6913 64.2737 63.2067 64.8642 62.9206 65.555C62.6345 66.2458 62.5596 67.006 62.7055 67.7394C62.8513 68.4727 63.2114 69.1464 63.7401 69.6751C64.2688 70.2038 64.9424 70.5639 65.6758 70.7097C66.4091 70.8556 67.1692 70.7807 67.86 70.4945C68.5508 70.2084 69.1413 69.7238 69.5567 69.1021C69.9721 68.4804 70.1938 67.7495 70.1938 67.0018C70.1938 65.9989 69.7956 65.0369 69.0867 64.3276C68.3777 63.6182 67.4162 63.2194 66.4133 63.2188V63.2211ZM66.4133 68.2434C66.1676 68.2439 65.9274 68.1715 65.7229 68.0354C65.5184 67.8992 65.3588 67.7055 65.2645 67.4785C65.1702 67.2517 65.1452 67.0021 65.1929 66.761C65.2405 66.52 65.3585 66.2986 65.5321 66.1247C65.7056 65.9508 65.9269 65.8323 66.1678 65.7842C66.4087 65.7361 66.6585 65.7605 66.8855 65.8544C67.1125 65.9483 67.3065 66.1074 67.4431 66.3116C67.5796 66.5159 67.6525 66.7561 67.6525 67.0018C67.6519 67.3303 67.5211 67.645 67.2888 67.8772C67.0566 68.1095 66.7418 68.2403 66.4133 68.2409V68.2434Z" fill="#159822"/>
</g>
<defs>
<clipPath id="clip0_8499_18384">
<rect width="135" height="135" fill="white" transform="translate(0.5)"/>
</clipPath>
</defs>
</svg>
