<svg width="24" height="24" viewBox="0 0 24 24" fill="none" xmlns="http://www.w3.org/2000/svg">
<rect width="24" height="24" fill="white"/>
<path d="M7.89718 7.54883L7.10475 8.7049C7.0926 8.71947 7.08594 8.73789 7.08594 8.75692C7.08594 8.77595 7.0926 8.79437 7.10475 8.80894L7.78233 9.21357L7.56413 10.3696L8.58625 9.01704C8.59847 9.00619 8.60825 8.99285 8.61496 8.9779C8.62166 8.96295 8.62513 8.94673 8.62513 8.93033C8.62513 8.91393 8.62166 8.89772 8.61496 8.88277C8.60825 8.86782 8.59847 8.85447 8.58625 8.84363L8.00054 8.62397V7.54883H7.89718Z" stroke="#D5692B" stroke-width="0.25" stroke-miterlimit="10" stroke-linecap="round"/>
<path d="M7.09529 19.5493C6.95205 19.337 6.76377 19.1593 6.54403 19.0291C5.51043 18.7169 5.61379 18.3239 6.45216 17.873C5.48746 17.1794 5.48746 17.1331 6.54403 16.636C7.94514 15.9771 8.24373 16.0349 9.24288 17.1678C9.67929 17.6649 10.7588 17.3643 11.1034 16.6129C11.3755 15.9426 11.4396 15.205 11.2871 14.4973C11.1723 13.8499 10.2076 13.7458 9.51851 14.3239C9.12955 14.7026 8.65742 14.9838 8.14037 15.1447C7.67284 15.2865 7.17618 15.3002 6.70163 15.1844C6.22708 15.0686 5.79181 14.8274 5.44073 14.4858C5.08964 14.1441 4.83545 13.7144 4.70437 13.2409C4.57329 12.7674 4.57007 12.2673 4.69503 11.7921C4.77542 11.3875 4.90175 11.1216 4.47683 10.7401C3.84518 10.1852 4.0519 9.17937 4.53425 8.42793C5.88942 6.32388 7.92217 6.62446 9.8975 6.84411C10.1371 6.88327 10.3625 6.98443 10.5516 7.13768C10.7407 7.29092 10.887 7.49099 10.9761 7.71828C11.0653 7.94557 11.0943 8.19227 11.0602 8.43422C11.0261 8.67617 10.9302 8.90505 10.7818 9.09845C10.3569 9.73428 9.8975 10.3239 10.4373 11.0291C10.977 11.7343 11.9992 11.5262 12.8146 11.4799C13.1779 11.4664 13.5261 11.3302 13.8032 11.0932C14.0803 10.8563 14.27 10.5323 14.342 10.1736C14.5124 9.44 14.4852 8.6739 14.2631 7.95444C14.041 7.23499 13.6321 6.58827 13.0787 6.08111C12.8835 5.91926 12.7227 5.74585 12.826 5.47995C12.9294 5.21405 13.0787 5.15625 13.3543 5.15625C14.2732 5.18212 15.1814 5.36184 16.0417 5.68804C16.5126 5.82677 16.4092 6.23139 16.168 6.6129C16.0623 6.83795 16.0022 7.08197 15.9913 7.33067C15.9803 7.57938 16.0187 7.82778 16.1043 8.06136C16.1898 8.29495 16.3208 8.50902 16.4895 8.69106C16.6582 8.8731 16.8612 9.01945 17.0868 9.12157C18.0153 9.67409 18.8021 10.4383 19.3837 11.3528C19.5697 11.6625 19.6838 12.0105 19.7176 12.3708C19.7515 12.7311 19.704 13.0944 19.5789 13.4337C19.4443 13.9014 19.1809 14.3212 18.8191 14.6445C18.4573 14.9677 18.012 15.1813 17.5347 15.2603C17.0357 15.3983 16.5066 15.3779 16.0195 15.2021C15.5324 15.0262 15.111 14.7034 14.8129 14.2776C14.1468 13.1216 13.3888 14.1736 12.6997 14.0927C12.0106 14.0117 12.2059 14.7632 12.1829 15.2487C12.1599 15.7343 12.1829 16.0002 12.1829 16.4048C12.1957 16.8572 12.0422 17.2984 11.7519 17.644C11.4616 17.9896 11.0548 18.2152 10.6095 18.2776C9.87453 18.4279 9.13952 18.4395 8.80647 19.295C8.80647 19.4453 8.47342 19.5031 8.30116 19.6071L7.09529 19.5493ZM18.4305 12.7285C18.4366 12.6361 18.4366 12.5434 18.4305 12.451C18.4031 12.2091 18.3177 11.9774 18.1817 11.776C18.0456 11.5747 17.863 11.4096 17.6495 11.295C17.5927 11.2656 17.5297 11.2502 17.4658 11.2502C17.4019 11.2502 17.3389 11.2656 17.282 11.295C17.0064 11.7343 17.5347 11.9193 17.6265 12.2661C17.7049 12.4379 17.7127 12.6339 17.6482 12.8115C17.5836 12.989 17.452 13.1337 17.282 13.2141C17.209 13.2577 17.1281 13.2864 17.044 13.2984C16.9598 13.3104 16.8742 13.3055 16.792 13.284C16.7098 13.2625 16.6326 13.2248 16.5649 13.1731C16.4972 13.1214 16.4404 13.0568 16.3977 12.9828C16.3029 12.7668 16.2446 12.5362 16.2254 12.3008C16.2254 12.0811 16.2254 11.7574 15.9039 11.7805C15.5823 11.8036 15.5823 12.0927 15.5249 12.3239C15.4711 12.6908 15.5608 13.0644 15.7749 13.3662C15.9891 13.668 16.3111 13.8746 16.6733 13.9424C16.8683 13.9841 17.0697 13.9854 17.2652 13.9463C17.4607 13.9073 17.6463 13.8286 17.8107 13.715C17.975 13.6015 18.1147 13.4555 18.2213 13.2859C18.3278 13.1163 18.399 12.9266 18.4305 12.7285V12.7285ZM6.49809 13.9424C6.5767 13.9923 6.6617 14.0312 6.75075 14.058C6.97855 14.1273 7.21959 14.1405 7.45348 14.0962C7.68737 14.0519 7.90723 13.9516 8.09444 13.8036C8.14247 13.763 8.18008 13.7113 8.20407 13.653C8.22806 13.5946 8.23773 13.5313 8.23225 13.4684C7.94514 13.0291 7.55467 13.4684 7.22162 13.3875C6.88857 13.3065 6.50958 13.1331 6.48661 12.6823C6.4771 12.5963 6.48482 12.5092 6.50929 12.4263C6.53377 12.3434 6.57451 12.2662 6.62911 12.1994C6.68371 12.1326 6.75107 12.0774 6.82719 12.0373C6.90331 11.9971 6.98667 11.9727 7.07232 11.9655C7.30295 11.9663 7.53187 12.0054 7.7499 12.0811C7.96811 12.0811 8.23225 12.3354 8.35858 12.0117C8.48491 11.688 8.20928 11.5724 8.02553 11.4337C7.70768 11.2322 7.32402 11.1641 6.95687 11.2441C6.58973 11.324 6.26835 11.5457 6.06168 11.8615C5.95141 12.0259 5.87511 12.211 5.83733 12.4057C5.79955 12.6005 5.80107 12.8009 5.84178 12.995C5.88249 13.1892 5.96158 13.3731 6.07433 13.5358C6.18708 13.6986 6.33119 13.8368 6.49809 13.9424Z" stroke="#D5692B" stroke-width="0.5" stroke-miterlimit="10"/>
</svg>
