<svg width="136" height="135" viewBox="0 0 136 135" fill="none" xmlns="http://www.w3.org/2000/svg">
<g clip-path="url(#clip0_8499_18401)">
<path d="M68 126.5C100.033 126.5 126 100.533 126 68.5C126 36.4675 100.033 10.5 68 10.5C35.9675 10.5 10 36.4675 10 68.5C10 100.533 35.9675 126.5 68 126.5Z" stroke="#D1D1D1"/>
<path d="M133 68.498C133 104.397 103.899 133.498 68 133.498C32.1015 133.498 3 104.397 3 68.498C3 32.5995 32.1015 3.49805 68 3.49805C103.899 3.49805 133 32.5995 133 68.498ZM68 135.498C105.003 135.498 135 105.501 135 68.498C135 31.495 105.003 1.49805 68 1.49805C30.9969 1.49805 1 31.495 1 68.498C1 105.501 30.9969 135.498 68 135.498Z" fill="#159822" stroke="#159822"/>
<path d="M36.5 60.5559V105.321C36.5 106.4 36.9288 107.436 37.6919 108.199C38.4551 108.962 39.4903 109.391 40.5696 109.391H94.8305C95.9098 109.391 96.9449 108.962 97.7081 108.199C98.4713 107.436 98.9 106.4 98.9 105.321V60.5559C98.9 59.4766 98.4713 58.4415 97.7081 57.6783C96.9449 56.9151 95.9098 56.4863 94.8305 56.4863H40.5696C39.4903 56.4863 38.4551 56.9151 37.6919 57.6783C36.9288 58.4415 36.5 59.4766 36.5 60.5559ZM96.187 60.5559V105.321C96.187 105.681 96.0441 106.026 95.7897 106.28C95.5353 106.535 95.1902 106.678 94.8305 106.678H40.5696C40.2098 106.678 39.8648 106.535 39.6104 106.28C39.356 106.026 39.213 105.681 39.213 105.321V60.5559C39.213 60.1961 39.356 59.8511 39.6104 59.5967C39.8648 59.3423 40.2098 59.1994 40.5696 59.1994H94.8305C95.1902 59.1994 95.5353 59.3423 95.7897 59.5967C96.0441 59.8511 96.187 60.1961 96.187 60.5559Z" fill="#159822"/>
<path d="M54.6969 28.7944C54.1881 28.2858 53.4981 28 52.7787 28C52.0592 28 51.3692 28.2858 50.8605 28.7944L41.3648 38.2901C40.9861 38.6689 40.728 39.1513 40.623 39.6765C40.518 40.2018 40.5708 40.7463 40.7748 41.2416C40.9788 41.7369 41.3249 42.1607 41.7693 42.4596C42.2138 42.7585 42.7368 42.9192 43.2724 42.9213H45.9939V51.0605C45.9939 51.78 46.2798 52.4701 46.7886 52.9789C47.2974 53.4877 47.9874 53.7735 48.707 53.7735H56.8461C57.5657 53.7735 58.2557 53.4877 58.7645 52.9789C59.2733 52.4701 59.5592 51.78 59.5592 51.0605V42.9213H62.2722C62.8087 42.9213 63.3332 42.7621 63.7793 42.464C64.2254 42.1659 64.573 41.7422 64.7784 41.2465C64.9837 40.7508 65.0374 40.2053 64.9327 39.6791C64.8281 39.1529 64.5698 38.6695 64.1904 38.2901L54.6969 28.7944ZM62.2807 40.2083H58.2026C57.8429 40.2083 57.4978 40.3512 57.2434 40.6056C56.989 40.86 56.8461 41.205 56.8461 41.5648V51.0605H48.707V41.5648C48.707 41.205 48.5641 40.86 48.3097 40.6056C48.0553 40.3512 47.7102 40.2083 47.3505 40.2083H43.2809L52.7766 30.7126L62.2786 40.2083H62.2807Z" fill="#159822"/>
<path d="M86.6919 28H78.5528C77.8333 28 77.1432 28.2858 76.6344 28.7946C76.1256 29.3034 75.8398 29.9935 75.8398 30.713V38.8522H73.1267C72.5902 38.8523 72.0657 39.0114 71.6197 39.3095C71.1736 39.6077 70.8259 40.0313 70.6206 40.527C70.4153 41.0227 70.3615 41.5682 70.4662 42.0944C70.5708 42.6206 70.8292 43.104 71.2085 43.4834L80.7042 52.9791C80.956 53.2312 81.255 53.4312 81.5841 53.5677C81.9133 53.7041 82.2661 53.7744 82.6224 53.7744C82.9787 53.7744 83.3315 53.7041 83.6606 53.5677C83.9898 53.4312 84.2888 53.2312 84.5406 52.9791L94.0362 43.4834C94.4156 43.104 94.6739 42.6206 94.7786 42.0944C94.8832 41.5682 94.8295 41.0227 94.6242 40.527C94.4189 40.0313 94.0712 39.6077 93.6251 39.3095C93.179 39.0114 92.6546 38.8523 92.118 38.8522H89.405V30.713C89.405 29.9935 89.1192 29.3034 88.6104 28.7946C88.1016 28.2858 87.4115 28 86.6919 28ZM92.118 41.5652L82.6224 51.0609L73.1267 41.5652H77.1963C77.3744 41.5652 77.5508 41.5301 77.7154 41.462C77.88 41.3938 78.0295 41.2939 78.1555 41.1679C78.2815 41.0419 78.3814 40.8924 78.4496 40.7278C78.5177 40.5632 78.5528 40.3868 78.5528 40.2087V30.713H86.6919V40.2087C86.6919 40.5685 86.8349 40.9135 87.0893 41.1679C87.3437 41.4223 87.6887 41.5652 88.0485 41.5652H92.118Z" fill="#159822"/>
<path d="M45.9953 87.6871C46.4585 87.6821 46.9174 87.5975 47.3519 87.437V101.252C47.3569 102.33 47.7873 103.362 48.5494 104.124C49.3115 104.886 50.3437 105.317 51.4214 105.322C52.4261 105.318 53.3933 104.94 54.1345 104.262C54.8727 104.945 55.8418 105.324 56.8475 105.322C57.9268 105.322 58.962 104.893 59.7251 104.13C60.4883 103.367 60.9171 102.332 60.9171 101.252V87.437C61.5291 87.6637 62.187 87.7383 62.8343 87.6544C63.4815 87.5704 64.0986 87.3304 64.6325 86.955C65.1664 86.5796 65.6011 86.0801 65.8991 85.4994C66.1971 84.9188 66.3495 84.2744 66.3432 83.6218V78.1914C66.3432 76.3926 65.6286 74.6674 64.3566 73.3954C63.0846 72.1234 61.3594 71.4088 59.5606 71.4088H59.5245C60.4224 70.2417 60.9117 68.8118 60.9171 67.3393C60.9171 65.5404 60.2025 63.8152 58.9305 62.5432C57.6585 61.2712 55.9333 60.5566 54.1345 60.5566C52.3356 60.5566 50.6104 61.2712 49.3384 62.5432C48.0665 63.8152 47.3519 65.5404 47.3519 67.3393C47.3573 68.8118 47.8466 70.2417 48.7444 71.4088H48.7084C46.9095 71.4088 45.1843 72.1234 43.9124 73.3954C42.6404 74.6674 41.9258 76.3926 41.9258 78.1914V83.6175C41.9258 84.6968 42.3545 85.7319 43.1177 86.4951C43.8809 87.2583 44.916 87.6871 45.9953 87.6871ZM50.0649 67.3393C50.0649 66.5344 50.3036 65.7476 50.7508 65.0783C51.1979 64.4091 51.8335 63.8875 52.5771 63.5795C53.3207 63.2714 54.139 63.1909 54.9284 63.3479C55.7178 63.5049 56.443 63.8925 57.0121 64.4616C57.5812 65.0308 57.9688 65.7559 58.1259 66.5453C58.2829 67.3347 58.2023 68.153 57.8943 68.8966C57.5863 69.6402 57.0646 70.2758 56.3954 70.723C55.7262 71.1701 54.9394 71.4088 54.1345 71.4088C53.0552 71.4088 52.0201 70.9801 51.2569 70.2169C50.4937 69.4537 50.0649 68.4186 50.0649 67.3393ZM44.6388 78.1914C44.6388 77.1121 45.0676 76.077 45.8308 75.3138C46.594 74.5506 47.6291 74.1219 48.7084 74.1219H59.5606C60.0953 74.1207 60.625 74.2252 61.1192 74.4294C61.6135 74.6335 62.0626 74.9332 62.4407 75.3113C62.8188 75.6894 63.1185 76.1385 63.3226 76.6327C63.5268 77.127 63.6313 77.6567 63.6301 78.1914V83.6175C63.6301 83.7957 63.595 83.9721 63.5269 84.1366C63.4587 84.3012 63.3588 84.4508 63.2328 84.5767C63.1069 84.7027 62.9573 84.8026 62.7927 84.8708C62.6282 84.939 62.4518 84.974 62.2736 84.974C62.0955 84.974 61.9191 84.939 61.7545 84.8708C61.5899 84.8026 61.4404 84.7027 61.3144 84.5767C61.1884 84.4508 61.0885 84.3012 61.0203 84.1366C60.9522 83.9721 60.9171 83.7957 60.9171 83.6175V78.1914C60.9171 77.8317 60.7742 77.4866 60.5198 77.2322C60.2654 76.9778 59.9203 76.8349 59.5606 76.8349C59.2008 76.8349 58.8558 76.9778 58.6014 77.2322C58.347 77.4866 58.204 77.8317 58.204 78.1914V101.252C58.204 101.43 58.169 101.607 58.1008 101.771C58.0326 101.936 57.9327 102.086 57.8067 102.212C57.6808 102.337 57.5312 102.437 57.3666 102.506C57.2021 102.574 57.0257 102.609 56.8475 102.609C56.666 102.608 56.4864 102.57 56.3201 102.497C56.1539 102.425 56.0044 102.318 55.881 102.185C55.7561 102.062 55.6573 101.916 55.5903 101.754C55.5233 101.592 55.4895 101.419 55.491 101.244V87.6786C55.491 87.5005 55.4559 87.3241 55.3877 87.1595C55.3196 86.9949 55.2197 86.8454 55.0937 86.7194C54.9677 86.5934 54.8182 86.4935 54.6536 86.4253C54.489 86.3572 54.3126 86.3221 54.1345 86.3221C53.9563 86.3221 53.7799 86.3572 53.6154 86.4253C53.4508 86.4935 53.3012 86.5934 53.1753 86.7194C53.0493 86.8454 52.9494 86.9949 52.8812 87.1595C52.813 87.3241 52.778 87.5005 52.778 87.6786V101.244C52.778 101.604 52.635 101.949 52.3806 102.203C52.1262 102.457 51.7812 102.6 51.4214 102.6C51.2402 102.6 51.061 102.562 50.8951 102.489C50.7292 102.416 50.5801 102.309 50.457 102.176C50.3318 102.054 50.2326 101.908 50.1656 101.746C50.0986 101.584 50.065 101.41 50.067 101.235V78.1914C50.067 77.8317 49.9241 77.4866 49.6697 77.2322C49.4153 76.9778 49.0703 76.8349 48.7105 76.8349C48.3507 76.8349 48.0057 76.9778 47.7513 77.2322C47.4969 77.4866 47.354 77.8317 47.354 78.1914V83.6175C47.354 83.7957 47.3189 83.9721 47.2507 84.1366C47.1826 84.3012 47.0826 84.4508 46.9567 84.5767C46.8307 84.7027 46.6812 84.8026 46.5166 84.8708C46.352 84.939 46.1756 84.974 45.9975 84.974C45.8193 84.974 45.6429 84.939 45.4783 84.8708C45.3138 84.8026 45.1642 84.7027 45.0383 84.5767C44.9123 84.4508 44.8124 84.3012 44.7442 84.1366C44.676 83.9721 44.6409 83.7957 44.6409 83.6175L44.6388 78.1914Z" fill="#159822"/>
<path d="M73.1243 87.6871C73.5875 87.6821 74.0463 87.5975 74.4808 87.437V101.252C74.4858 102.33 74.9162 103.362 75.6783 104.124C76.4404 104.886 77.4726 105.317 78.5504 105.322C79.555 105.318 80.5222 104.94 81.2634 104.262C82.0017 104.945 82.9708 105.324 83.9765 105.322C85.0558 105.322 86.0909 104.893 86.8541 104.13C87.6173 103.367 88.0461 102.332 88.0461 101.252V87.437C88.6581 87.6637 89.316 87.7383 89.9632 87.6544C90.6105 87.5704 91.2276 87.3304 91.7615 86.955C92.2954 86.5796 92.73 86.0801 93.028 85.4994C93.326 84.9188 93.4784 84.2744 93.4721 83.6218V78.1914C93.4721 76.3926 92.7575 74.6674 91.4856 73.3954C90.2136 72.1234 88.4884 71.4088 86.6895 71.4088H86.6535C87.5513 70.2417 88.0406 68.8118 88.0461 67.3393C88.0461 65.5404 87.3315 63.8152 86.0595 62.5432C84.7875 61.2712 83.0623 60.5566 81.2634 60.5566C79.4646 60.5566 77.7394 61.2712 76.4674 62.5432C75.1954 63.8152 74.4808 65.5404 74.4808 67.3393C74.4862 68.8118 74.9755 70.2417 75.8734 71.4088H75.8374C74.0385 71.4088 72.3133 72.1234 71.0413 73.3954C69.7693 74.6674 69.0547 76.3926 69.0547 78.1914V83.6175C69.0547 84.6968 69.4835 85.7319 70.2467 86.4951C71.0099 87.2583 72.045 87.6871 73.1243 87.6871ZM77.1939 67.3393C77.1939 66.5344 77.4326 65.7476 77.8797 65.0783C78.3269 64.4091 78.9625 63.8875 79.7061 63.5795C80.4497 63.2714 81.268 63.1909 82.0574 63.3479C82.8468 63.5049 83.5719 63.8925 84.1411 64.4616C84.7102 65.0308 85.0978 65.7559 85.2548 66.5453C85.4118 67.3347 85.3312 68.153 85.0232 68.8966C84.7152 69.6402 84.1936 70.2758 83.5244 70.723C82.8551 71.1701 82.0683 71.4088 81.2634 71.4088C80.1841 71.4088 79.149 70.9801 78.3858 70.2169C77.6226 69.4537 77.1939 68.4186 77.1939 67.3393ZM71.7678 78.1914C71.7678 77.1121 72.1965 76.077 72.9597 75.3138C73.7229 74.5506 74.758 74.1219 75.8374 74.1219H86.6895C87.2243 74.1207 87.754 74.2252 88.2482 74.4294C88.7425 74.6335 89.1915 74.9332 89.5696 75.3113C89.9478 75.6894 90.2475 76.1385 90.4516 76.6327C90.6557 77.127 90.7602 77.6567 90.7591 78.1914V83.6175C90.7591 83.9773 90.6162 84.3223 90.3618 84.5767C90.1074 84.8311 89.7623 84.974 89.4026 84.974C89.0428 84.974 88.6978 84.8311 88.4434 84.5767C88.189 84.3223 88.0461 83.9773 88.0461 83.6175V78.1914C88.0461 77.8317 87.9031 77.4866 87.6487 77.2322C87.3943 76.9778 87.0493 76.8349 86.6895 76.8349C86.3298 76.8349 85.9847 76.9778 85.7303 77.2322C85.4759 77.4866 85.333 77.8317 85.333 78.1914V101.252C85.333 101.612 85.1901 101.957 84.9357 102.212C84.6813 102.466 84.3363 102.609 83.9765 102.609C83.7949 102.608 83.6154 102.57 83.4491 102.497C83.2828 102.425 83.1333 102.318 83.01 102.185C82.8851 102.062 82.7862 101.916 82.7192 101.754C82.6522 101.592 82.6185 101.419 82.62 101.244V87.6786C82.62 87.3188 82.477 86.9738 82.2226 86.7194C81.9682 86.465 81.6232 86.3221 81.2634 86.3221C80.9037 86.3221 80.5586 86.465 80.3042 86.7194C80.0498 86.9738 79.9069 87.3188 79.9069 87.6786V101.244C79.9069 101.604 79.764 101.949 79.5096 102.203C79.2552 102.457 78.9102 102.6 78.5504 102.6C78.3692 102.6 78.19 102.562 78.0241 102.489C77.8582 102.416 77.709 102.309 77.586 102.176C77.4607 102.054 77.3616 101.908 77.2946 101.746C77.2275 101.584 77.194 101.41 77.196 101.235V78.1914C77.196 77.8317 77.0531 77.4866 76.7987 77.2322C76.5443 76.9778 76.1992 76.8349 75.8395 76.8349C75.4797 76.8349 75.1347 76.9778 74.8803 77.2322C74.6259 77.4866 74.4829 77.8317 74.4829 78.1914V83.6175C74.4829 83.9773 74.34 84.3223 74.0856 84.5767C73.8312 84.8311 73.4862 84.974 73.1264 84.974C72.7667 84.974 72.4216 84.8311 72.1672 84.5767C71.9128 84.3223 71.7699 83.9773 71.7699 83.6175L71.7678 78.1914Z" fill="#159822"/>
</g>
<defs>
<clipPath id="clip0_8499_18401">
<rect width="135" height="135" fill="white" transform="translate(0.5)"/>
</clipPath>
</defs>
</svg>
