<svg width="96" height="96" viewBox="0 0 96 96" fill="none" xmlns="http://www.w3.org/2000/svg">
<path d="M88 56V15C88 13.3431 86.6569 12 85 12H27C25.3431 12 24 13.3431 24 15V52" stroke="url(#paint0_linear_2306_14832)" stroke-width="8" stroke-linecap="round" stroke-linejoin="round"/>
<path d="M48 84H24C15.1634 84 8 76.8366 8 68C8 59.1634 15.1634 52 24 52H68H72C63.1634 52 56 59.1634 56 68C56 76.8366 63.1634 84 72 84C80.8366 84 88 76.8366 88 68V56" stroke="url(#paint1_linear_2306_14832)" stroke-width="8" stroke-linecap="round" stroke-linejoin="round"/>
<defs>
<linearGradient id="paint0_linear_2306_14832" x1="24" y1="13.0512" x2="94.1368" y2="40.0697" gradientUnits="userSpaceOnUse">
<stop stop-color="#8BD1BA"/>
<stop offset="1" stop-color="#9EDE5D" stop-opacity="0.86"/>
</linearGradient>
<linearGradient id="paint1_linear_2306_14832" x1="8" y1="52.7645" x2="77.996" y2="99.1094" gradientUnits="userSpaceOnUse">
<stop stop-color="#8BD1BA"/>
<stop offset="1" stop-color="#9EDE5D" stop-opacity="0.86"/>
</linearGradient>
</defs>
</svg>
