<svg width="24" height="24" viewBox="0 0 24 24" fill="none" xmlns="http://www.w3.org/2000/svg">
<g clip-path="url(#clip0_2800_18524)">
<rect width="24" height="24" fill="white"/>
<path d="M8.81961 2.33008C9.11533 2.37477 9.3944 2.49536 9.62961 2.68008C9.71108 2.74822 9.78792 2.82172 9.85961 2.90008C9.85961 2.90008 9.93961 2.95008 9.97961 2.90008C10.2421 2.74652 10.5477 2.68329 10.8496 2.72008C11.3296 2.72008 11.8496 2.72008 12.2996 2.72008C12.5578 2.7321 12.8044 2.83074 12.9996 3.00008C13.1481 3.09278 13.2697 3.22285 13.3522 3.37728C13.4347 3.53171 13.4752 3.70509 13.4696 3.88008C13.4696 4.02008 13.4696 4.15008 13.4696 4.29008C13.4696 4.43008 13.4696 4.37008 13.5596 4.37008H14.7196C14.74 4.3694 14.7599 4.36354 14.7774 4.35304C14.7949 4.34254 14.8094 4.32776 14.8196 4.31008C14.875 4.23627 14.9351 4.16612 14.9996 4.10008C15.1586 3.92071 15.3807 3.80965 15.6196 3.79008C16.4996 3.58008 17.3796 3.38008 18.2696 3.19008C18.9796 3.04008 19.6996 2.88008 20.4196 2.75008C20.4578 2.74329 20.4969 2.74422 20.5347 2.75281C20.5725 2.76139 20.6081 2.77747 20.6396 2.80008C20.7139 2.83923 20.7757 2.89837 20.8181 2.97083C20.8605 3.04328 20.8818 3.12615 20.8796 3.21008C20.8796 4.57008 20.8796 5.94008 20.8796 7.30008C20.8895 7.42655 20.8895 7.55361 20.8796 7.68008C20.8671 7.78457 20.8138 7.87991 20.7315 7.94542C20.6491 8.01094 20.5442 8.04135 20.4396 8.03008L19.4396 7.82008L16.1696 7.11008L15.5096 7.00008C15.3862 6.97851 15.2691 6.9296 15.167 6.85693C15.0649 6.78426 14.9804 6.68966 14.9196 6.58008C14.8913 6.52708 14.8472 6.48418 14.7935 6.45731C14.7398 6.43044 14.679 6.42092 14.6196 6.43008C14.2896 6.43008 13.9496 6.43008 13.6196 6.43008C13.5596 6.43008 13.5296 6.43008 13.5296 6.52008C13.5296 6.75008 13.5296 6.98008 13.5296 7.21008C13.5263 7.23636 13.5325 7.26297 13.5472 7.28502C13.5619 7.30706 13.5841 7.32306 13.6096 7.33008C14.4041 7.62556 15.0742 8.18283 15.5096 8.91008C15.91 9.48916 16.2015 10.1364 16.3696 10.8201C16.3745 10.87 16.3745 10.9202 16.3696 10.9701C16.3696 13.9701 16.3696 16.9701 16.3696 19.9701C16.3946 20.3597 16.3946 20.7505 16.3696 21.1401C16.3062 21.5163 16.1327 21.8653 15.8711 22.1429C15.6094 22.4206 15.2714 22.6145 14.8996 22.7001C14.7965 22.7098 14.6927 22.7098 14.5896 22.7001C13.0696 22.7001 11.5396 22.7001 10.0196 22.7001C9.49961 22.7001 9.01961 22.7001 8.46961 22.7001C8.2114 22.7054 7.95511 22.6546 7.71854 22.5509C7.48196 22.4473 7.27077 22.2935 7.09961 22.1001C6.87937 21.8819 6.72069 21.6093 6.63961 21.3101C6.62976 21.217 6.62976 21.1232 6.63961 21.0301C6.63961 20.5901 6.63961 20.1501 6.63961 19.7101C6.63961 17.0901 6.63961 14.4701 6.63961 11.8501C6.61811 11.3944 6.65169 10.9377 6.73961 10.4901C6.82272 10.1624 6.94705 9.84652 7.10961 9.55008C7.44754 8.83776 7.94755 8.21446 8.56961 7.73008C8.79502 7.55743 9.04882 7.42545 9.31961 7.34008C9.3566 7.33071 9.38902 7.30842 9.41102 7.27725C9.43303 7.24608 9.44317 7.20807 9.43961 7.17008C9.43961 6.69008 9.43961 6.17008 9.43961 5.73008C9.43961 5.61008 9.43961 5.60008 9.29961 5.62008C8.89973 5.66876 8.50488 5.75241 8.11961 5.87008C7.63569 6.01614 7.20097 6.29183 6.86253 6.66729C6.52409 7.04274 6.29484 7.50365 6.19961 8.00008C6.17108 8.13475 6.10115 8.25712 5.99961 8.35008C5.94029 8.39879 5.86821 8.42941 5.79196 8.43827C5.71571 8.44714 5.63853 8.43388 5.56961 8.40008C5.50569 8.37518 5.45112 8.33099 5.41348 8.27363C5.37584 8.21628 5.35701 8.14863 5.35961 8.08008C5.36119 7.7896 5.42603 7.50296 5.54961 7.24008C5.71813 6.77581 5.98409 6.353 6.32961 6.00008C6.64218 5.68076 7.01192 5.42296 7.41961 5.24008C7.51961 5.24008 7.49961 5.16008 7.41961 5.09008C7.24111 4.8932 7.10496 4.66175 7.01961 4.41008C6.9588 4.19249 6.94361 3.96469 6.97497 3.74095C7.00634 3.51722 7.0836 3.30237 7.2019 3.1099C7.3202 2.91743 7.477 2.75147 7.66245 2.62244C7.8479 2.49341 8.05802 2.40409 8.27961 2.36008H8.39961L8.81961 2.33008ZM15.5196 15.8801V11.1101C15.52 10.9745 15.4997 10.8396 15.4596 10.7101C15.219 9.95067 14.7928 9.26326 14.2196 8.71008C13.9758 8.46227 13.6781 8.27405 13.3496 8.16008C13.0885 8.09349 12.8188 8.06652 12.5496 8.08008H10.3696C10.1766 8.06486 9.98265 8.06486 9.78961 8.08008C9.41181 8.18387 9.06731 8.38368 8.78961 8.66008C8.35753 9.07119 8.01681 9.56864 7.78961 10.1201C7.59638 10.5087 7.49381 10.9361 7.48961 11.3701V21.0701C7.47933 21.106 7.47933 21.1441 7.48961 21.1801C7.56896 21.3616 7.68467 21.525 7.82961 21.6601C8.06853 21.8454 8.36821 21.9346 8.66961 21.9101H14.4996C14.6797 21.9149 14.8572 21.8662 15.0096 21.7701C15.1328 21.7076 15.2418 21.6202 15.3296 21.5135C15.4173 21.4068 15.4821 21.283 15.5196 21.1501C15.5399 21.0041 15.5399 20.856 15.5196 20.7101V15.8801ZM19.9996 6.00008C19.9996 5.58008 19.9996 5.21008 19.9996 4.83008C19.9996 4.45008 19.9996 4.13008 19.9996 3.77008C19.9996 3.68008 19.9996 3.66008 19.8896 3.68008L16.3196 4.47008C16.1138 4.50939 15.9102 4.55946 15.7096 4.62008C15.6496 4.62008 15.5796 4.62008 15.5796 4.75008C15.5746 4.84001 15.5746 4.93015 15.5796 5.02008C15.5796 5.33008 15.5796 5.65008 15.5796 6.02008C15.5796 6.12008 15.5796 6.16008 15.7196 6.18008C16.4896 6.38008 17.2696 6.55008 18.0496 6.72008L19.8696 7.11008C19.9996 7.10008 19.9996 7.10008 19.9996 7.00008C20.0496 6.63008 19.9996 6.30008 19.9996 6.00008ZM11.4696 7.22008H12.5696C12.7096 7.22008 12.7096 7.22008 12.7096 7.08008C12.7096 6.69008 12.7096 6.30008 12.7096 5.91008C12.7096 5.24008 12.7096 4.57008 12.7096 3.91008C12.7073 3.82765 12.6741 3.74909 12.6168 3.68987C12.5594 3.63064 12.4819 3.59504 12.3996 3.59008C12.1996 3.59008 11.9896 3.59008 11.7896 3.59008C11.3796 3.59008 10.9796 3.59008 10.5796 3.59008C10.4296 3.59008 10.2796 3.72008 10.2796 3.84008C10.2796 4.93008 10.2796 6.02008 10.2796 7.11008C10.2796 7.20008 10.2796 7.22008 10.3896 7.22008H11.4696ZM8.61961 4.74008C8.82217 4.74549 9.0187 4.67084 9.16658 4.53232C9.31447 4.39379 9.40179 4.20256 9.40961 4.00008C9.41159 3.84102 9.3661 3.68498 9.27896 3.5519C9.19182 3.41882 9.06699 3.31474 8.92041 3.25295C8.77382 3.19117 8.61215 3.17448 8.45604 3.20503C8.29993 3.23558 8.15647 3.31197 8.04399 3.42445C7.93151 3.53693 7.85511 3.68039 7.82456 3.83651C7.79402 3.99262 7.8107 4.15429 7.87249 4.30087C7.93427 4.44745 8.03835 4.57229 8.17143 4.65943C8.30452 4.74657 8.46055 4.79205 8.61961 4.79008V4.74008ZM14.1096 5.58008H14.4796C14.7696 5.58008 14.7196 5.58008 14.7296 5.32008C14.7296 5.23008 14.7296 5.21008 14.6196 5.21008H13.7796C13.5096 5.21008 13.5096 5.21008 13.5096 5.48008C13.5096 5.56008 13.5096 5.58008 13.6196 5.58008H14.1096Z" stroke="#D5692B" stroke-width="0.5" stroke-miterlimit="10" stroke-linecap="round"/>
</g>
<defs>
<clipPath id="clip0_2800_18524">
<rect width="24" height="24" fill="white"/>
</clipPath>
</defs>
</svg>
