<svg width="135" height="136" viewBox="0 0 135 136" fill="none" xmlns="http://www.w3.org/2000/svg">
<g clip-path="url(#clip0_8556_20959)">
<path d="M67.5 126.5C99.5325 126.5 125.5 100.533 125.5 68.5C125.5 36.4675 99.5325 10.5 67.5 10.5C35.4675 10.5 9.5 36.4675 9.5 68.5C9.5 100.533 35.4675 126.5 67.5 126.5Z" stroke="#D1D1D1"/>
<path d="M132.5 68.4961C132.5 104.395 103.399 133.496 67.5 133.496C31.6015 133.496 2.5 104.395 2.5 68.4961C2.5 32.5976 31.6015 3.49609 67.5 3.49609C103.399 3.49609 132.5 32.5976 132.5 68.4961ZM67.5 135.496C104.503 135.496 134.5 105.499 134.5 68.4961C134.5 31.493 104.503 1.49609 67.5 1.49609C30.4969 1.49609 0.5 31.493 0.5 68.4961C0.5 105.499 30.4969 135.496 67.5 135.496Z" fill="#159822" stroke="#159822"/>
<path d="M101.215 44.7306L67.381 33.0638C67.1345 32.9787 66.8668 32.9787 66.6203 33.0638L32.7863 44.7306C32.3159 44.8928 32.0001 45.3356 32 45.8332V101.834C32 102.479 32.5224 103.001 33.1667 103.001H39.0001C39.6444 103.001 40.1668 102.479 40.1668 101.834V65.6669H93.8345V101.834C93.8345 102.479 94.3569 103.001 95.0012 103.001H100.835C101.479 103.001 102.001 102.479 102.001 101.834V45.8332C102.001 45.3356 101.685 44.8928 101.215 44.7306ZM37.8334 64.5002V100.668H34.3334V56.3334H37.8334V64.5002ZM93.8345 63.3335H40.1668V61.0001H93.8345V63.3335ZM93.8345 58.6667H40.1668V56.3334H93.8345V58.6667ZM99.6679 100.668H96.1679V56.3334H99.6679V100.668ZM99.6679 54H34.3334V46.665L67.0006 35.4006L99.6679 46.665V54Z" fill="#159822"/>
<path d="M89.6865 83.2835L85.3697 81.1251L81.5196 73.425C80.9274 72.2401 79.7141 71.4938 78.3894 71.5H55.6063C54.2795 71.4956 53.0657 72.2458 52.4761 73.4343L48.626 81.1345L44.3093 83.2928C43.9148 83.49 43.6653 83.8925 43.6641 84.3335V100.667C43.6641 101.956 44.7087 103.001 45.9975 103.001H50.6642C51.953 103.001 52.9976 101.956 52.9976 100.667V97.1671H80.9981V100.667C80.9981 101.956 82.0428 103.001 83.3315 103.001H87.9983C89.287 103.001 90.3316 101.956 90.3316 100.667V84.3335C90.3341 83.8892 90.0839 83.482 89.6865 83.2835ZM54.5633 74.4785C54.7595 74.0821 55.164 73.8319 55.6063 73.8333H78.3894C78.8317 73.8319 79.2363 74.0821 79.4324 74.4785L82.6105 80.8335H51.3853L54.5633 74.4785ZM50.6642 100.667H45.9975V97.1671H50.6642V100.667ZM87.9983 100.667H83.3315V97.1671H87.9983V100.667ZM87.9983 94.8337H51.8309H45.9975V85.0545L49.7729 83.1668H84.2229L87.9983 85.0545V94.8337Z" fill="#159822"/>
<path d="M54.1654 85.5H50.6654C49.3766 85.5 48.332 86.5446 48.332 87.8334V90.1668C48.332 91.4555 49.3766 92.5001 50.6654 92.5001H54.1654C55.4542 92.5001 56.4988 91.4555 56.4988 90.1668V87.8334C56.4988 86.5446 55.4542 85.5 54.1654 85.5ZM54.1654 90.1668H50.6654V87.8334H54.1654V90.1668Z" fill="#159822"/>
<path d="M83.3334 85.5H79.8334C78.5446 85.5 77.5 86.5446 77.5 87.8334V90.1668C77.5 91.4555 78.5446 92.5001 79.8334 92.5001H83.3334C84.6222 92.5001 85.6668 91.4555 85.6668 90.1668V87.8334C85.6668 86.5446 84.6222 85.5 83.3334 85.5ZM83.3334 90.1668H79.8334V87.8334H83.3334V90.1668Z" fill="#159822"/>
<path d="M72.8323 85.5H61.1654C59.8766 85.5 58.832 86.5446 58.832 87.8334V90.1668C58.832 91.4555 59.8766 92.5001 61.1654 92.5001H72.8323C74.121 92.5001 75.1656 91.4555 75.1656 90.1668V87.8334C75.1656 86.5446 74.121 85.5 72.8323 85.5ZM72.8323 90.1668H61.1654V87.8334H72.8323V90.1668Z" fill="#159822"/>
</g>
<defs>
<clipPath id="clip0_8556_20959">
<rect width="135" height="136" fill="white"/>
</clipPath>
</defs>
</svg>
