<svg width="116" height="115" viewBox="0 0 116 115" fill="none" xmlns="http://www.w3.org/2000/svg">
<path fill-rule="evenodd" clip-rule="evenodd" d="M104.878 75.4018L83.6108 68.8838V46.8034L86.2437 49.6639C86.3838 49.8159 86.5533 49.9391 86.7423 50.0264C86.9312 50.1138 87.1358 50.1634 87.3444 50.1726C87.5529 50.1817 87.7613 50.1502 87.9574 50.0798C88.1535 50.0095 88.3334 49.9016 88.4869 49.7625C88.7987 49.4776 88.9841 49.0837 89.0029 48.6656C89.0216 48.2477 88.8724 47.8392 88.5873 47.5284L74.1359 31.8209C74.1359 31.8209 74.1264 31.8209 74.1241 31.8116C73.9963 31.6799 73.8461 31.5711 73.6801 31.4903C73.6435 31.4718 73.6081 31.4532 73.5703 31.437C73.5325 31.4207 73.5125 31.4045 73.4806 31.394L44.8151 21.5852C44.4941 21.4762 44.146 21.4717 43.8221 21.5722C43.4983 21.6726 43.216 21.8728 43.0169 22.1431L22.8676 49.2301C22.7187 49.4313 22.6198 49.664 22.5788 49.9096C22.5378 50.1552 22.5558 50.4067 22.6314 50.6441C22.7058 50.8806 22.8359 51.0966 23.011 51.2746C23.1862 51.4525 23.4016 51.5874 23.6397 51.6684L28.3624 53.2529V68.0417L11.1341 73.2117C10.809 73.3114 10.5244 73.5094 10.3207 73.7776C10.117 74.0457 10.0049 74.3701 10.0002 74.7047C9.99543 75.0391 10.0985 75.3665 10.2945 75.6401C10.4905 75.9136 10.7695 76.1193 11.0916 76.2277L63.0576 93.42C63.2197 93.4731 63.3896 93.5001 63.5606 93.5C63.7489 93.4999 63.9357 93.4666 64.112 93.4014L104.963 78.3946C105.276 78.277 105.542 78.067 105.729 77.7937C105.914 77.5203 106.009 77.1971 105.999 76.8686C105.99 76.5402 105.878 76.2226 105.676 75.9599C105.475 75.6971 105.196 75.5021 104.878 75.4018ZM74.542 71.1098L68.5206 73.3208V58.1261L74.542 55.7133V71.1145V71.1098ZM77.0214 52.0547C76.8063 51.9099 76.558 51.8199 76.2989 51.7925C76.0397 51.7652 75.7776 51.8014 75.5361 51.8981L66.3375 55.5938C66.0424 55.7137 65.7901 55.9171 65.6128 56.1782C65.4356 56.4393 65.3414 56.7462 65.3422 57.06V74.4935L60.1366 76.4064V52.0581L73.0674 35.3461L80.4348 43.3501V68.9499L77.7192 69.9464V53.3689C77.7201 53.1115 77.6572 52.8577 77.5358 52.6294C77.4144 52.4013 77.2383 52.2056 77.0226 52.0593L77.0214 52.0547ZM44.8847 24.9514L70.3518 33.6665L51.7102 57.7548L26.7225 49.367L44.8847 24.9514ZM51.7681 61.1188C52.0829 61.2237 52.4233 61.2286 52.7412 61.1329C53.059 61.037 53.3381 60.8455 53.5391 60.5852L56.9536 56.1773V76.4841L31.5432 68.0788V54.3224L51.7681 61.1188ZM63.5393 90.2451L16.8509 74.7974L29.9233 70.8732L58.041 80.1763C58.0575 80.1763 58.0752 80.1763 58.0929 80.1845C58.4066 80.2877 58.747 80.2812 59.0563 80.1659C59.0693 80.1659 59.0823 80.1659 59.0953 80.1601L82.0759 71.7188L99.4584 77.0478L63.5393 90.2451Z" fill="#159822"/>
</svg>
