<svg width="135" height="135" viewBox="0 0 135 135" fill="none" xmlns="http://www.w3.org/2000/svg">
<g clip-path="url(#clip0_8556_20908)">
<path d="M67.5 125.5C99.5325 125.5 125.5 99.5325 125.5 67.5C125.5 35.4675 99.5325 9.5 67.5 9.5C35.4675 9.5 9.5 35.4675 9.5 67.5C9.5 99.5325 35.4675 125.5 67.5 125.5Z" stroke="#D1D1D1"/>
<path d="M132.5 67.5C132.5 103.399 103.399 132.5 67.5 132.5C31.6015 132.5 2.5 103.399 2.5 67.5C2.5 31.6015 31.6015 2.5 67.5 2.5C103.399 2.5 132.5 31.6015 132.5 67.5ZM67.5 134.5C104.503 134.5 134.5 104.503 134.5 67.5C134.5 30.4969 104.503 0.5 67.5 0.5C30.4969 0.5 0.5 30.4969 0.5 67.5C0.5 104.503 30.4969 134.5 67.5 134.5Z" fill="#159822" stroke="#159822"/>
<path d="M97.5909 75.6758H80.955C80.285 75.6758 79.7422 76.2188 79.7422 76.8886V91.4975C79.7422 92.1674 80.2852 92.7103 80.955 92.7103H97.591C98.261 92.7103 98.8038 92.1672 98.8038 91.4975V76.8886C98.8037 76.2188 98.261 75.6758 97.5909 75.6758ZM96.3781 90.2847H82.1676V82.5406H96.3781V90.2847ZM96.3782 80.1152H82.1678V78.1014H96.3782V80.1152Z" fill="#159822"/>
<path d="M107.7 93.8995H102.198V83.5242C102.198 82.8544 101.655 82.3114 100.985 82.3114C100.315 82.3114 99.7721 82.8544 99.7721 83.5242V93.8995H80.9565C80.2867 93.8995 79.7437 94.4426 79.7437 95.1123V100.975H77.9279V76.8895C77.9279 76.2197 77.3849 75.6767 76.7151 75.6767H62.1063C61.4365 75.6767 60.8935 76.2197 60.8935 76.8895V100.975H59.808V95.1123C59.808 94.4426 59.265 93.8995 58.5952 93.8995H57.8996V73.064L78.8353 53.0762L99.7719 73.0651V77.8643C99.7719 78.5341 100.315 79.0771 100.985 79.0771C101.655 79.0771 102.198 78.5341 102.198 77.8643V75.3809L103.216 76.3532C103.663 76.78 104.36 76.8022 104.833 76.4049L108.333 73.4672C108.495 73.3308 108.63 73.1613 108.707 72.9638C108.893 72.4875 108.765 71.9699 108.416 71.6377L102.433 65.9399V50.264C102.433 49.5942 101.89 49.0512 101.221 49.0512H90.1461C89.4763 49.0512 88.9333 49.5942 88.9333 50.264V53.083L81.4193 45.9271L79.6611 44.2938C79.1959 43.8615 78.4761 43.8615 78.0102 44.2938L76.241 45.9376L63.2494 58.3103C63.1581 49.0896 60.0856 40.5328 55.1147 35.5258C54.622 35.0296 53.8089 35.0616 53.3479 35.5877C52.9264 36.0682 52.953 36.7906 53.4035 37.2441C58.0066 41.8751 60.8284 49.9736 60.8284 58.7327C60.8284 59.3789 60.8089 60.0247 60.7785 60.6633L49.2551 71.6378C48.9064 71.9701 48.7781 72.4875 48.9639 72.9639C49.041 73.1613 49.1762 73.331 49.3385 73.4673L52.8381 76.4051C53.0642 76.595 53.3411 76.6891 53.6176 76.6891C53.92 76.6891 54.2215 76.5766 54.4552 76.3535L55.4746 75.3804V77.7327C52.6051 81.8029 48.958 84.04 45.1721 84.04C41.096 84.04 37.2233 81.4808 34.2673 76.834C31.2033 72.0169 29.5157 65.5885 29.5157 58.7328C29.5157 51.8771 31.2033 45.4488 34.2675 40.6318C37.2232 35.985 41.096 33.4258 45.1723 33.4258C46.588 33.4258 47.9846 33.7345 49.3371 34.3447C49.9027 34.5999 50.57 34.3725 50.8767 33.8328V33.8326C51.2297 33.2111 50.9715 32.4199 50.3199 32.1267C48.6582 31.3784 46.932 31 45.1723 31C40.2372 31 35.6375 33.9581 32.221 39.3296C28.9119 44.5305 27.0898 51.4213 27.0898 58.7323C27.0898 66.0433 28.9119 72.934 32.2205 78.1354C34.5233 81.7559 37.3641 84.278 40.4823 85.5387V93.8994H36.7922V92.0948C36.7922 91.4306 36.2803 90.8516 35.6166 90.8317C34.9299 90.811 34.3666 91.3617 34.3666 92.044V93.8995H32.8965V92.095C32.8965 91.4308 32.3846 90.8518 31.7209 90.8318C31.0342 90.8114 30.4709 91.3619 30.4709 92.0441V93.8997H28.3026C27.6328 93.8997 27.0898 94.4427 27.0898 95.1125V102.188C27.0898 102.858 27.6328 103.401 28.3026 103.401H58.5954C58.5965 103.401 58.5975 103.401 58.5984 103.401H62.1063H76.7151H80.9533C80.9544 103.401 80.9554 103.401 80.9563 103.401H107.7C108.369 103.401 108.913 102.858 108.913 102.188V95.1125C108.913 94.4424 108.37 93.8995 107.7 93.8995ZM91.3587 51.4765H100.008V63.6297L91.3587 55.3929V51.4765ZM53.5655 73.8486L51.9099 72.4588L77.9027 47.7042L78.8357 46.8375L79.7576 47.6938L105.762 72.4588L104.106 73.8488L79.6731 50.5221C79.4389 50.2984 79.1374 50.1865 78.8357 50.1865C78.5343 50.1865 78.2325 50.2984 77.9983 50.5221L53.5655 73.8486ZM49.8614 85.5346C51.8685 84.7202 53.7645 83.3816 55.4743 81.5673V93.8995H53.8807V92.044C53.8807 91.3742 53.3378 90.8312 52.6679 90.8312C51.9979 90.8312 51.4551 91.3742 51.4551 92.044V93.8995H49.8614V85.5346ZM42.9079 86.2541C43.6525 86.3937 44.4081 86.4648 45.1718 86.4648C45.9346 86.4648 46.6902 86.3921 47.4357 86.2512V93.8994H42.9079V86.2541ZM57.3826 100.975H56.6869H29.5154V96.3251H41.6811C41.6857 96.3251 41.6905 96.3258 41.6951 96.3258H48.6485C48.6531 96.3258 48.6579 96.3251 48.6625 96.3251H57.3827V100.975H57.3826ZM75.5025 100.975H63.3192V78.1023H75.5025V100.975ZM106.487 100.975H100.985H82.1693V96.3251H106.487V100.975Z" fill="#159822"/>
<path d="M73.8373 88.2441H71.7167C71.0468 88.2441 70.5039 88.7872 70.5039 89.4569C70.5039 90.1267 71.0468 90.6697 71.7167 90.6697H73.8373C74.5072 90.6697 75.05 90.1267 75.05 89.4569C75.05 88.7872 74.5072 88.2441 73.8373 88.2441Z" fill="#159822"/>
<path d="M78.8357 60.3242C75.926 60.3242 73.5586 62.6916 73.5586 65.6013C73.5586 68.5113 75.926 70.8784 78.8357 70.8784C81.7455 70.8784 84.113 68.5111 84.113 65.6013C84.1131 62.6915 81.7457 60.3242 78.8357 60.3242ZM78.8357 68.4528C77.2633 68.4528 75.9842 67.1735 75.9842 65.6013C75.9842 64.0291 77.2633 62.7498 78.8357 62.7498C80.4081 62.7498 81.6874 64.0291 81.6874 65.6013C81.6875 67.1737 80.4082 68.4528 78.8357 68.4528Z" fill="#159822"/>
</g>
<defs>
<clipPath id="clip0_8556_20908">
<rect width="135" height="135" fill="white"/>
</clipPath>
</defs>
</svg>
