<svg width="24" height="24" viewBox="0 0 24 24" fill="none" xmlns="http://www.w3.org/2000/svg">
<rect width="24" height="24" fill="white"/>
<g clip-path="url(#clip0_2800_18340)">
<path d="M12.0812 20.4948H2.42741C2.2222 20.5112 2.01656 20.4689 1.8345 20.3728C1.65244 20.2767 1.50147 20.1308 1.39919 19.9521C1.32648 19.8304 1.28051 19.6945 1.26434 19.5536C1.24816 19.4128 1.26215 19.27 1.30537 19.135C1.34859 18.9999 1.42006 18.8756 1.51503 18.7702C1.60999 18.6649 1.72628 18.581 1.85617 18.5241C1.9129 18.485 1.95763 18.4309 1.98537 18.3678C2.01312 18.3048 2.02277 18.2353 2.01326 18.167C2.01326 14.7968 2.01326 11.4265 2.01326 8.05622C2.01326 7.67747 2.16372 7.31423 2.43154 7.04641C2.69936 6.77859 3.06259 6.62814 3.44134 6.62814C3.66984 6.62814 3.91261 6.62814 4.1411 6.62814C4.17035 6.63312 4.20037 6.63103 4.22863 6.62203C4.2569 6.61302 4.2826 6.59738 4.30358 6.5764C4.32456 6.55542 4.34021 6.52972 4.34921 6.50145C4.35821 6.47318 4.3603 6.44317 4.35532 6.41392V6.12831C4.32714 5.99935 4.33132 5.86541 4.36749 5.73846C4.40367 5.61151 4.4707 5.49548 4.56262 5.40074C4.65453 5.306 4.76847 5.23548 4.89427 5.19548C5.02007 5.15547 5.15381 5.14724 5.28357 5.17149H5.46922C5.65487 5.17149 5.712 5.17149 5.712 4.92872C5.6977 4.85322 5.6977 4.77572 5.712 4.70023C5.70728 4.629 5.71833 4.55762 5.74435 4.49115C5.77038 4.42468 5.81073 4.36477 5.86255 4.31568C5.91437 4.26659 5.97637 4.22953 6.04415 4.20713C6.11192 4.18474 6.1838 4.17756 6.25467 4.18612C6.76878 4.18612 7.28289 4.18612 7.797 4.18612C8.2397 4.18612 8.38251 4.32892 8.38251 4.77163V4.88588C8.38251 5.11437 8.38251 5.18577 8.66813 5.18577C8.84826 5.17857 9.02668 5.22317 9.18223 5.3143C9.30537 5.37967 9.40716 5.47901 9.47551 5.60052C9.54385 5.72203 9.57589 5.8606 9.56782 5.99978C9.56782 6.57101 9.56782 6.57101 10.1676 6.57101H14.2662C14.5661 6.57101 14.5661 6.57101 14.5661 6.27112C14.5519 6.11435 14.5519 5.95662 14.5661 5.79985C14.6022 5.63247 14.691 5.48109 14.8196 5.36798C14.9481 5.25487 15.1095 5.18599 15.2801 5.17149H15.4372C15.78 5.17149 15.78 5.17149 15.78 4.82875C15.78 4.48601 15.9085 4.18612 16.4369 4.18612C16.9653 4.18612 17.408 4.18612 17.865 4.18612C18.322 4.18612 18.4219 4.3432 18.4219 4.72879C18.4219 5.11437 18.4219 5.17149 18.8932 5.17149C18.9994 5.17148 19.1046 5.19262 19.2026 5.2337C19.3005 5.27478 19.3893 5.33497 19.4638 5.41075C19.5382 5.48653 19.5969 5.57639 19.6362 5.67507C19.6755 5.77375 19.6948 5.87928 19.6929 5.9855C19.6929 6.61386 19.6929 6.52817 20.2356 6.54245C20.5883 6.49161 20.9483 6.53599 21.2781 6.67098C21.5096 6.77792 21.7054 6.94925 21.8422 7.1645C21.9789 7.37976 22.0508 7.62983 22.0493 7.88485C22.0493 11.2742 22.0493 14.6587 22.0493 18.0385C22.0362 18.1398 22.0554 18.2426 22.1041 18.3323C22.1528 18.422 22.2286 18.4941 22.3206 18.5383C22.5362 18.6357 22.7088 18.8084 22.8061 19.024C22.9034 19.2396 22.9186 19.4833 22.849 19.7094C22.7783 19.9417 22.6344 20.1451 22.4389 20.2892C22.2434 20.4333 22.0065 20.5104 21.7636 20.5091L12.0812 20.4948ZM12.0812 18.3241H19.5644C20.2356 18.3241 20.1356 18.4098 20.1499 17.7386C20.1499 17.5387 20.1499 17.4387 19.8929 17.4958C19.7838 17.5104 19.6734 17.5104 19.5644 17.4958H4.91227C4.71 17.5404 4.50046 17.5404 4.29819 17.4958C4.16967 17.4958 4.0697 17.4958 4.05542 17.6672V18.0385C4.05542 18.3813 4.05542 18.3813 4.38388 18.3813L12.0812 18.3241ZM21.6208 7.79916C21.4352 7.29933 21.1638 7.08512 20.7354 7.08512H3.44134C3.34734 7.0637 3.24973 7.0637 3.15573 7.08512C2.9386 7.16234 2.75541 7.31321 2.638 7.5115C2.52059 7.70979 2.47639 7.94296 2.51309 8.17047C2.51309 8.48464 2.51309 8.79882 2.51309 9.09872C2.51309 9.39862 2.51309 9.58427 2.99864 9.52714H3.0986C3.21285 9.52714 3.26997 9.52714 3.24141 9.34149C3.22714 9.18473 3.22714 9.02699 3.24141 8.87022C3.21998 8.70448 3.23711 8.53602 3.29148 8.37798C3.34584 8.21994 3.43597 8.07659 3.55484 7.95911C3.67371 7.84162 3.8181 7.75317 3.97676 7.70066C4.13543 7.64815 4.30408 7.63298 4.46956 7.65636H19.8643C20.0971 7.67741 20.3313 7.67741 20.5641 7.65636C20.7161 7.62696 20.8727 7.63088 21.0231 7.66787C21.1735 7.70485 21.3141 7.774 21.4352 7.87057C21.4352 7.87057 21.5209 7.84201 21.5923 7.79916H21.6208ZM17.7222 14.5826C18.6219 13.6971 19.393 12.8117 20.2213 11.8978H18.7932C18.6076 11.8978 18.4648 11.8121 18.4933 11.6407C18.5268 11.2759 18.6035 10.9164 18.7218 10.5696C18.7715 10.3349 18.8432 10.1054 18.936 9.88416C18.9576 9.74217 18.9576 9.59773 18.936 9.45574C18.883 9.47327 18.8376 9.50858 18.8075 9.5557C18.1077 10.3269 17.4651 11.1409 16.7368 11.8978C16.7368 11.8978 16.6511 11.9692 16.7368 12.0263C16.8225 12.0834 16.8225 12.0263 16.8796 12.0263H17.865C18.1363 12.0263 18.2506 12.1834 18.2077 12.4261C18.1649 12.6689 17.9792 13.2687 17.8793 13.6971C17.7805 13.9821 17.7274 14.281 17.7222 14.5826V14.5826ZM16.9653 6.54245H18.6219C19.1074 6.54245 19.1788 6.45677 19.1502 6.01406C19.1502 5.84269 19.036 5.78557 18.8932 5.84269C18.7269 5.89432 18.5532 5.91844 18.3791 5.9141C18.0105 5.90921 17.6429 5.87578 17.2795 5.81413C17.1081 5.81413 17.051 5.62848 17.0652 5.45711C17.0795 5.28574 17.1367 5.18577 17.3223 5.18577H17.7079C17.8793 5.18577 17.9221 5.10009 17.9221 4.943C17.9221 4.78591 17.9221 4.72879 17.6936 4.72879C17.4651 4.72879 17.0224 4.72879 16.6797 4.72879C16.3369 4.72879 16.4226 4.72879 16.4226 4.98584C16.4576 5.2082 16.4576 5.43468 16.4226 5.65704C16.4226 5.79985 16.2941 5.87125 16.1227 5.84269C15.9138 5.82216 15.7033 5.82216 15.4944 5.84269C15.223 5.84269 15.1659 5.84269 15.1516 6.17115C15.1589 6.22326 15.1589 6.27613 15.1516 6.32824C15.1516 6.54245 15.1516 6.61386 15.423 6.61386L16.9653 6.54245ZM2.51309 16.2391V18.167C2.51309 18.2527 2.51309 18.367 2.58449 18.4098C2.76093 18.4666 2.95073 18.4666 3.12717 18.4098C3.28425 18.4098 3.22713 18.1956 3.22713 18.0671C3.22713 16.9246 3.22713 15.7679 3.22713 14.6111C3.22713 14.1684 3.22713 14.1827 2.78443 14.1684C2.57021 14.1684 2.51309 14.2541 2.51309 14.454C2.52737 14.9967 2.51309 15.6108 2.51309 16.2391ZM3.22713 11.7264V10.2983C3.22713 10.2983 3.22713 10.1698 3.22713 10.1412C3.13806 10.0982 3.04043 10.0759 2.94152 10.0759C2.84261 10.0759 2.74497 10.0982 2.6559 10.1412C2.49881 10.1412 2.54165 10.3269 2.54165 10.4411V13.0117C2.54165 13.4972 2.54165 13.4829 3.01292 13.4829C3.19857 13.4829 3.26997 13.4829 3.26997 13.2259C3.22713 12.726 3.22713 12.2262 3.22713 11.7264ZM2.62734 18.9525H2.27032C1.94186 18.9525 1.78477 19.1096 1.78477 19.4095C1.78477 19.7094 1.95614 19.9521 2.27032 19.9521H2.92723C3.26997 19.9521 3.26997 19.9521 3.26997 19.6237C3.28426 18.9525 3.28425 18.9525 2.62734 18.9525ZM6.98299 4.67166H6.71165C6.24039 4.67166 6.24039 4.67166 6.25467 5.14293C6.25467 5.25718 6.25467 5.39999 6.41176 5.39999C6.56884 5.39999 6.71165 5.49995 6.71165 5.3143C6.71668 5.27701 6.7294 5.24117 6.74902 5.20906C6.76864 5.17695 6.79472 5.14927 6.82561 5.12779C6.8565 5.1063 6.89152 5.09147 6.92845 5.08424C6.96537 5.07702 7.0034 5.07755 7.04011 5.08581H7.51138C7.53443 5.08802 7.55769 5.08511 7.57949 5.07727C7.60128 5.06944 7.62108 5.05689 7.63746 5.04051C7.65383 5.02414 7.66639 5.00434 7.67422 4.98255C7.68205 4.96075 7.68496 4.93749 7.68275 4.91444C7.68275 4.81447 7.68275 4.78591 7.51138 4.78591C7.34001 4.78591 7.16864 4.72879 6.98299 4.72879V4.67166ZM5.45494 6.09975C5.45494 5.95694 5.45494 5.74273 5.22645 5.74273C4.99795 5.74273 4.95511 5.74273 4.95511 6.12831V6.31396C4.95511 6.48533 5.0408 6.52817 5.19789 6.52817C5.35497 6.52817 5.46922 6.52817 5.45494 6.31396V6.09975Z" stroke="#D5692B" stroke-width="0.357021" stroke-miterlimit="10"/>
<path d="M5.30859 11.7393V13.4672H6.33681" stroke="#D5692B" stroke-width="0.357021" stroke-miterlimit="10"/>
<path d="M7.09766 11.7393V13.5672" stroke="#D5692B" stroke-width="0.357021" stroke-miterlimit="10"/>
<path d="M8.08203 12.6543H9.05313" stroke="#D5692B" stroke-width="0.357021" stroke-miterlimit="10"/>
<path d="M9.85547 11.7393V13.5672" stroke="#D5692B" stroke-width="0.357021" stroke-miterlimit="10"/>
<path d="M10.8407 12.3403V12.9115C10.8379 13.0441 10.8762 13.1743 10.9504 13.2842C11.0245 13.3942 11.1309 13.4785 11.2548 13.5256V13.5256C11.3526 13.5544 11.4558 13.5601 11.5562 13.5421C11.6566 13.5241 11.7514 13.4831 11.8332 13.4221C11.9149 13.3611 11.9814 13.282 12.0272 13.1909C12.0731 13.0998 12.0971 12.9992 12.0974 12.8973V12.326C12.0998 12.1699 12.0464 12.018 11.947 11.8977C11.8476 11.7773 11.7085 11.6962 11.5547 11.6691V11.6691C11.4621 11.6586 11.3682 11.6684 11.2798 11.6978C11.1913 11.7273 11.1103 11.7756 11.0423 11.8394C10.9744 11.9033 10.9212 11.9812 10.8863 12.0677C10.8515 12.1542 10.8359 12.2472 10.8407 12.3403V12.3403Z" stroke="#D5692B" stroke-width="0.357021" stroke-miterlimit="10"/>
<path d="M12.8945 13.5677V11.6826L13.9799 13.5677V11.6826" stroke="#D5692B" stroke-width="0.357021" stroke-linecap="round" stroke-linejoin="round"/>
<path d="M3.24219 10.9121H15.7665" stroke="#D5692B" stroke-width="0.357021" stroke-miterlimit="10"/>
<path d="M3.42578 14.3818H15.3074" stroke="#D5692B" stroke-width="0.357021" stroke-miterlimit="10"/>
</g>
<defs>
<clipPath id="clip0_2800_18340">
<rect width="22.1496" height="16.68" fill="white" transform="translate(1 4)"/>
</clipPath>
</defs>
</svg>
