<svg width="116" height="115" viewBox="0 0 116 115" fill="none" xmlns="http://www.w3.org/2000/svg">
<path d="M93.7092 86.9688H93.4732C93.6172 86.5665 93.7092 86.1384 93.7092 85.6874V70.3124C93.7092 68.1933 91.9842 66.4688 89.8652 66.4688H81.942C82.0855 66.0664 82.1777 65.6385 82.1777 65.1874V49.8125C82.1777 47.6933 80.4531 45.9688 78.334 45.9688H67.9699L59.948 30.5938H61.6777V17.7812H53.9902V30.5938H55.6789L47.3239 45.9688H37.334C35.2148 45.9688 33.4902 47.6933 33.4902 49.8125V65.1874C33.4902 65.6385 33.5824 66.0664 33.726 66.4688H25.8027C23.6835 66.4688 21.959 68.1933 21.959 70.3124V85.6874C21.959 86.1384 22.0512 86.5665 22.1947 86.9688H21.959C19.8398 86.9688 18.1152 88.6933 18.1152 90.8124V93.3751C18.1152 95.4943 19.8398 97.2193 21.959 97.2193H93.7092C95.8282 97.2193 97.5532 95.4943 97.5532 93.3751V90.8124C97.5532 88.6933 95.8282 86.9688 93.7092 86.9688ZM91.1462 70.3124V85.6874C91.1462 86.3947 90.5722 86.9688 89.8652 86.9688H89.3604L84.0124 76.7188H86.0214V69.0312H89.8652C90.5722 69.0312 91.1462 69.6052 91.1462 70.3124ZM47.584 85.6874V70.3124C47.584 69.6052 48.1579 69.0312 48.8652 69.0312H52.709V76.7188H62.959V69.0312H66.8027C67.5099 69.0312 68.084 69.6052 68.084 70.3124V85.6874C68.084 86.3947 67.5099 86.9688 66.8027 86.9688H48.8652C48.1579 86.9688 47.584 86.3947 47.584 85.6874ZM66.8027 49.273L69.0897 53.6562H66.8027V49.273ZM70.4274 56.2188L75.7753 66.4688H71.9277H66.8027H60.3964C59.6892 66.4688 59.1152 65.8947 59.1152 65.1874V49.8125C59.1152 49.1066 59.6892 48.5312 60.3964 48.5312H64.2402V56.2188H70.4274ZM82.6761 74.1562L80.0021 69.0312H83.459V74.1562H82.6761ZM60.3964 69.0312V74.1562H55.2714V69.0312H60.3964ZM70.6464 85.6874V70.3124C70.6464 69.6052 71.2205 69.0312 71.9277 69.0312H77.1116L86.4699 86.9688H71.9277C71.2205 86.9688 70.6464 86.3947 70.6464 85.6874ZM78.334 48.5312C79.0412 48.5312 79.6152 49.1066 79.6152 49.8125V65.1874C79.6152 65.7884 79.1924 66.2701 78.6338 66.4085L69.3063 48.5312H78.334ZM56.5527 20.3438H59.1152V28.0312H56.5527V20.3438ZM57.8109 32.0391L65.0794 45.9688H60.3964C59.4086 45.9688 58.5156 46.3545 57.834 46.9682C57.1523 46.3532 56.2593 45.9688 55.2714 45.9688H50.24L57.8109 32.0391ZM43.7402 48.5312H48.8652V53.6562H43.7402V48.5312ZM36.0527 65.1874V49.8125C36.0527 49.1066 36.6267 48.5312 37.334 48.5312H41.1777V56.2188H51.4277V48.5312H55.2714C55.9787 48.5312 56.5527 49.1066 56.5527 49.8125V65.1874C56.5527 65.8947 55.9787 66.4688 55.2714 66.4688H48.8652H43.7402H37.334C36.6267 66.4688 36.0527 65.8947 36.0527 65.1874ZM32.209 69.0312H37.334V74.1562H32.209V69.0312ZM24.5214 85.6874V70.3124C24.5214 69.6052 25.0954 69.0312 25.8027 69.0312H29.6464V76.7188H39.8964V69.0312H43.7402C44.4475 69.0312 45.0214 69.6052 45.0214 70.3124V85.6874C45.0214 86.3947 44.4475 86.9688 43.7402 86.9688H25.8027C25.0954 86.9688 24.5214 86.3947 24.5214 85.6874ZM20.6777 93.3751V90.8124C20.6777 90.1052 21.2517 89.5312 21.959 89.5312H25.8027H43.7402H48.8652H66.8027H71.9277H87.3027V94.6562H21.959C21.2517 94.6562 20.6777 94.0823 20.6777 93.3751ZM94.9902 93.3751C94.9902 94.0823 94.4162 94.6562 93.7092 94.6562H89.8652V89.5312H93.7092C94.4162 89.5312 94.9902 90.1052 94.9902 90.8124V93.3751Z" fill="#159822"/>
</svg>
