<svg width="116" height="115" viewBox="0 0 116 115" fill="none" xmlns="http://www.w3.org/2000/svg">
<path fill-rule="evenodd" clip-rule="evenodd" d="M65.8637 86.3103C64.495 90.8433 61.53 94.7332 57.5127 97.2661C53.4955 99.7991 48.6954 100.805 43.993 100.099C39.2908 99.3941 35.0017 97.0249 31.9127 93.4261C28.8238 89.8272 27.1423 85.2404 27.1766 80.5072V14.6806H66.7306V71.4114H69.9079V11.5H24.0006V80.5072C23.961 86.0838 25.9734 91.482 29.658 95.6833C33.3426 99.8847 38.4445 102.598 44.0013 103.312C49.5579 104.026 55.1849 102.69 59.8206 99.5592C64.4562 96.4268 67.7798 91.7141 69.1644 86.3103H65.8637ZM91.9988 84.4518H47.4906C46.0008 84.4518 44.5722 83.8627 43.5187 82.8143C42.4653 81.7658 41.8736 80.3436 41.8736 78.8608C41.8736 77.3781 42.4653 75.9559 43.5187 74.9074C44.5722 73.8589 46.0008 73.2698 47.4906 73.2698H92V84.4518H91.9988ZM47.4894 76.4528C46.8471 76.4528 46.2311 76.7067 45.777 77.1588C45.3229 77.6109 45.0677 78.224 45.0677 78.8632C45.0677 79.5025 45.3229 80.1156 45.777 80.5677C46.2311 81.0197 46.8471 81.2737 47.4894 81.2737H88.824V76.4528H47.4906H47.4894ZM62.632 61.7612H31.274V18.5433H62.6344V61.7612H62.632ZM34.45 58.5794H59.4572V21.7251H34.45V58.5794ZM45.0895 55.9038H38.0437V51.9218H45.0895V55.899V55.9038ZM56.148 55.9038H49.1034V51.9218H56.1492V55.899L56.148 55.9038ZM45.0895 46.878H38.0437V42.9007H45.0895V46.878ZM56.148 46.878H49.1034V42.9007H56.1492V46.878H56.148ZM45.0895 37.8521H38.0437V33.8749H45.0895V37.8521ZM56.148 37.8521H49.1034V33.8749H56.1492V37.8521H56.148ZM56.148 29.183H38.0437V25.2057H56.148V29.183Z" fill="#099B17"/>
</svg>
