<svg width="116" height="115" viewBox="0 0 116 115" fill="none" xmlns="http://www.w3.org/2000/svg">
<path d="M52.3652 90.3125C56.2142 90.3125 59.4006 87.4541 59.9342 83.75H71.5999L70.1857 85.1642L71.7323 86.7108L75.0136 83.4296C75.2272 83.2159 75.334 82.9361 75.334 82.6562C75.334 82.3764 75.2272 82.0966 75.0136 81.8829L71.7323 78.6017L70.1857 80.1483L71.5999 81.5625H59.9342C59.4006 77.8584 56.2142 75 52.3652 75C48.1441 75 44.709 78.4345 44.709 82.6562C44.709 86.878 48.1441 90.3125 52.3652 90.3125ZM52.3652 77.1875C55.3805 77.1875 57.834 79.641 57.834 82.6562C57.834 85.6715 55.3805 88.125 52.3652 88.125C49.35 88.125 46.8965 85.6715 46.8965 82.6562C46.8965 79.641 49.35 77.1875 52.3652 77.1875Z" fill="#159822"/>
<path d="M82.9902 90.3125C87.2114 90.3125 90.646 86.878 90.646 82.6562C90.646 78.4345 87.2114 75 82.9902 75C78.7691 75 75.334 78.4345 75.334 82.6562C75.334 86.878 78.7691 90.3125 82.9902 90.3125ZM82.9902 77.1875C86.0055 77.1875 88.459 79.641 88.459 82.6562C88.459 85.6715 86.0055 88.125 82.9902 88.125C79.975 88.125 77.5215 85.6715 77.5215 82.6562C77.5215 79.641 79.975 77.1875 82.9902 77.1875Z" fill="#159822"/>
<path d="M47.9902 49.8438C44.1413 49.8438 40.955 52.7021 40.4214 56.4061H38.6934C31.1546 56.4061 25.0215 62.5394 25.0215 70.0781C25.0215 77.6169 31.1546 83.75 38.6934 83.75H40.9749L39.5607 85.1642L41.1073 86.7108L44.3886 83.4296C44.6022 83.2159 44.709 82.936 44.709 82.6561C44.709 82.3763 44.6022 82.0965 44.3886 81.8828L41.1073 78.6017L39.5607 80.1483L40.9749 81.5625H38.6934C32.3605 81.5625 27.209 76.4104 27.209 70.0781C27.209 63.7458 32.3605 58.5938 38.6934 58.5938H40.4214C40.955 62.2978 44.1413 65.1561 47.9902 65.1561C52.2114 65.1561 55.6465 61.7217 55.6465 57.5C55.6465 53.2783 52.2114 49.8438 47.9902 49.8438ZM47.9902 62.9688C44.975 62.9688 42.5215 60.5153 42.5215 57.5C42.5215 54.4847 44.975 52.0312 47.9902 52.0312C51.0055 52.0312 53.459 54.4847 53.459 57.5C53.459 60.5153 51.0055 62.9688 47.9902 62.9688Z" fill="#159822"/>
<path d="M52.0448 28.2892L50.4982 29.8358L51.9124 31.25H40.2467C39.7131 27.5459 36.5267 24.6875 32.6778 24.6875C28.4566 24.6875 25.0215 28.122 25.0215 32.3438C25.0215 36.5655 28.4566 40 32.6778 40C36.5267 40 39.7131 37.1416 40.2467 33.4375H51.9124L50.4982 34.8517L52.0448 36.3983L55.3261 33.1171C55.5397 32.9034 55.6465 32.6236 55.6465 32.3438C55.6465 32.0639 55.5397 31.7841 55.3261 31.5704L52.0448 28.2892ZM32.6778 37.8125C29.6625 37.8125 27.209 35.359 27.209 32.3438C27.209 29.3285 29.6625 26.875 32.6778 26.875C35.693 26.875 38.1465 29.3285 38.1465 32.3438C38.1465 35.359 35.693 37.8125 32.6778 37.8125Z" fill="#159822"/>
<path d="M90.646 44.9219C90.646 37.3831 84.5134 31.25 76.9746 31.25H70.8717C70.3381 27.5459 67.1517 24.6875 63.3028 24.6875C59.0816 24.6875 55.6465 28.122 55.6465 32.3438C55.6465 36.5655 59.0816 40 63.3028 40C67.1517 40 70.3381 37.1416 70.8717 33.4375H76.9746C83.3075 33.4375 88.459 38.5896 88.459 44.9219C88.459 51.2542 83.3075 56.4062 76.9746 56.4062H59.3806L60.7948 54.9921L59.2482 53.4454L55.9669 56.7267C55.7533 56.9403 55.6465 57.2202 55.6465 57.5C55.6465 57.7798 55.7533 58.0597 55.9669 58.2733L59.2482 61.5546L60.7948 60.0079L59.3806 58.5938H76.9746C84.5134 58.5938 90.646 52.4606 90.646 44.9219ZM63.3028 37.8125C60.2875 37.8125 57.834 35.359 57.834 32.3438C57.834 29.3285 60.2875 26.875 63.3028 26.875C66.318 26.875 68.7715 29.3285 68.7715 32.3438C68.7715 35.359 66.318 37.8125 63.3028 37.8125Z" fill="#159822"/>
</svg>
