<svg width="24" height="24" viewBox="0 0 24 24" fill="none" xmlns="http://www.w3.org/2000/svg">
<rect width="24" height="24" fill="white"/>
<g clip-path="url(#clip0_2800_18450)">
<path d="M12.4498 7.81921H19.8098C20.2229 7.80564 20.6247 7.95553 20.928 8.23636C21.2313 8.51718 21.4116 8.90627 21.4298 9.31921C21.4298 10.2592 21.4298 11.1992 21.4298 12.1392C21.4312 12.3518 21.3797 12.5615 21.2798 12.7492C21.1351 13.033 20.9099 13.2679 20.6325 13.4244C20.355 13.5809 20.0375 13.6522 19.7198 13.6292H5.14977C4.96026 13.6447 4.76966 13.6184 4.5914 13.5523C4.41315 13.4861 4.25158 13.3816 4.11808 13.2462C3.98459 13.1108 3.88242 12.9478 3.81878 12.7686C3.75515 12.5894 3.73159 12.3985 3.74977 12.2092C3.74977 11.8192 3.74977 11.4292 3.74977 11.0292C3.74977 10.8692 3.68977 10.8292 3.53977 10.8392C3.18561 10.8773 2.85058 11.0191 2.57664 11.2468C2.3027 11.4745 2.10203 11.778 1.99977 12.1192C1.88821 12.5641 1.87118 13.0274 1.94977 13.4792C1.99664 13.8745 2.1784 14.2416 2.4644 14.5185C2.75041 14.7954 3.12315 14.9652 3.51977 14.9992C4.59977 14.9992 5.68977 14.9992 6.77977 14.9992C7.19237 14.9643 7.60718 14.9643 8.01977 14.9992C8.33912 15.0693 8.62813 15.2386 8.84545 15.4829C9.06278 15.7271 9.1973 16.0339 9.22977 16.3592C9.28134 16.7173 9.19993 17.0819 9.00093 17.3841C8.80194 17.6863 8.49914 17.9051 8.14977 17.9992C7.42212 18.1142 6.68262 18.1344 5.94977 18.0592V18.0592C5.87044 18.0426 5.79964 17.9982 5.75013 17.9341C5.70063 17.8699 5.67568 17.7902 5.67977 17.7092C5.67686 17.6302 5.70422 17.5531 5.75626 17.4936C5.80831 17.4342 5.88111 17.3968 5.95977 17.3892H6.22977H7.74977C7.86348 17.3915 7.97643 17.3701 8.08143 17.3264C8.18644 17.2827 8.2812 17.2177 8.35971 17.1354C8.43821 17.0531 8.49874 16.9554 8.53744 16.8484C8.57614 16.7415 8.59217 16.6276 8.58451 16.5142C8.57686 16.4007 8.54568 16.29 8.49296 16.1893C8.44024 16.0885 8.36713 15.9998 8.27828 15.9288C8.18943 15.8578 8.08678 15.806 7.97686 15.7768C7.86694 15.7477 7.75214 15.7416 7.63977 15.7592C6.30977 15.7592 4.97977 15.7592 3.63977 15.7592C3.07836 15.7513 2.53624 15.5531 2.10208 15.1971C1.66793 14.841 1.36745 14.3482 1.24977 13.7992C1.18141 13.3863 1.15794 12.9672 1.17977 12.5492C1.18195 12.1595 1.28533 11.777 1.47977 11.4392C1.68084 11.0582 1.97921 10.7372 2.34455 10.5088C2.70989 10.2805 3.12917 10.153 3.55977 10.1392C3.69977 10.1392 3.75977 10.1392 3.75977 9.94921C3.75977 9.75921 3.75977 9.45921 3.75977 9.21921C3.74519 9.03553 3.77012 8.85086 3.83288 8.67763C3.89565 8.50439 3.9948 8.34662 4.12366 8.21492C4.25252 8.08322 4.4081 7.98065 4.57992 7.91411C4.75174 7.84758 4.93582 7.81863 5.11977 7.82921L12.4498 7.81921ZM5.08977 8.54921C4.65977 8.54921 4.46977 8.77921 4.46977 9.20921C4.46977 10.1392 4.46977 11.0692 4.46977 11.9992C4.46977 12.1092 4.46977 12.2092 4.46977 12.3192C4.46175 12.3995 4.47185 12.4807 4.49931 12.5566C4.52678 12.6325 4.57092 12.7013 4.62849 12.7579C4.68605 12.8145 4.75558 12.8575 4.83195 12.8837C4.90832 12.9098 4.98959 12.9186 5.06977 12.9092H19.7598C19.8958 12.9295 20.0346 12.9176 20.1652 12.8745C20.2958 12.8314 20.4144 12.7583 20.5116 12.6611C20.6088 12.5638 20.6819 12.4452 20.725 12.3146C20.7681 12.184 20.78 12.0452 20.7598 11.9092V9.53921C20.78 9.40321 20.7681 9.26436 20.725 9.1338C20.6819 9.00323 20.6088 8.88458 20.5116 8.78736C20.4144 8.69013 20.2958 8.61705 20.1652 8.57395C20.0346 8.53086 19.8958 8.51896 19.7598 8.53921H5.08977V8.54921Z" stroke="#D5692B" stroke-width="0.5" stroke-miterlimit="10" stroke-linecap="round"/>
<path d="M5.05953 10.7299C5.05953 10.3599 5.05953 9.97992 5.05953 9.60992C5.05953 9.23992 5.17953 9.16992 5.47953 9.16992H6.47953C6.77953 9.16992 6.92953 9.30992 6.92953 9.59992C6.92953 10.3599 6.92953 11.1199 6.92953 11.8899C6.93764 11.9448 6.93298 12.0007 6.91591 12.0535C6.89883 12.1062 6.8698 12.1543 6.83109 12.194C6.79237 12.2337 6.74502 12.2639 6.69271 12.2823C6.6404 12.3006 6.58456 12.3067 6.52953 12.2999C6.14953 12.2999 5.77953 12.2999 5.39953 12.2999C5.01953 12.2999 5.02953 12.1499 5.01953 11.8899V10.7299H5.05953ZM5.99953 10.3799C6.24953 10.3799 6.23953 10.3799 6.25953 10.1299C6.27953 9.87992 6.18953 9.86992 5.99953 9.87992C5.80953 9.88992 5.74953 9.87992 5.74953 10.1699C5.74953 10.4599 5.80953 10.3899 5.99953 10.3799ZM5.75953 11.3099C5.75953 11.5699 5.75953 11.5699 6.00953 11.5699C6.25953 11.5699 6.24953 11.5699 6.25953 11.3099C6.26953 11.0499 6.19953 10.9999 5.99953 11.0799C5.79953 11.1599 5.73953 11.1199 5.74953 11.3099H5.75953Z" stroke="#D5692B" stroke-width="0.5" stroke-miterlimit="10" stroke-linecap="round"/>
<path d="M16.7191 10.7699C16.6794 11.1381 16.5022 11.4779 16.2228 11.7211C15.9435 11.9643 15.5826 12.0931 15.2124 12.0818C14.8422 12.0704 14.4899 11.9197 14.226 11.6597C13.9621 11.3998 13.8061 11.0499 13.7891 10.6799C13.8047 10.2952 13.9706 9.9321 14.251 9.66845C14.5315 9.4048 14.9042 9.26169 15.2891 9.26986C15.4821 9.27241 15.6726 9.31347 15.8496 9.39063C16.0265 9.46779 16.1862 9.5795 16.3194 9.71921C16.4526 9.85892 16.5566 10.0238 16.6252 10.2042C16.6938 10.3847 16.7257 10.577 16.7191 10.7699V10.7699ZM15.2391 9.99986C15.0538 10.0212 14.8828 10.11 14.7588 10.2492C14.6347 10.3884 14.5661 10.5684 14.5661 10.7549C14.5661 10.9414 14.6347 11.1213 14.7588 11.2606C14.8828 11.3998 15.0538 11.4885 15.2391 11.5099C15.4243 11.4885 15.5953 11.3998 15.7194 11.2606C15.8435 11.1213 15.912 10.9414 15.912 10.7549C15.912 10.5684 15.8435 10.3884 15.7194 10.2492C15.5953 10.11 15.4243 10.0212 15.2391 9.99986V9.99986Z" stroke="#D5692B" stroke-width="0.5" stroke-miterlimit="10" stroke-linecap="round"/>
<path d="M7.42969 10.7608C7.42969 10.3736 7.58351 10.0022 7.85731 9.7284C8.13111 9.4546 8.50247 9.30078 8.88969 9.30078C9.2769 9.30078 9.64826 9.4546 9.92206 9.7284C10.1959 10.0022 10.3497 10.3736 10.3497 10.7608C10.3497 11.148 10.1959 11.5194 9.92206 11.7932C9.64826 12.067 9.2769 12.2208 8.88969 12.2208C8.50247 12.2208 8.13111 12.067 7.85731 11.7932C7.58351 11.5194 7.42969 11.148 7.42969 10.7608V10.7608ZM8.85969 10.0008C8.66332 10.0134 8.47897 10.0997 8.34359 10.2425C8.20821 10.3853 8.13181 10.574 8.12969 10.7708C8.13493 10.9706 8.21868 11.1603 8.36281 11.2988C8.50693 11.4373 8.69982 11.5135 8.89969 11.5108C8.99857 11.5108 9.09646 11.491 9.18757 11.4526C9.27868 11.4142 9.36116 11.3579 9.43015 11.287C9.49913 11.2162 9.55321 11.1322 9.5892 11.0401C9.62519 10.948 9.64236 10.8496 9.63969 10.7508C9.6384 10.6501 9.61712 10.5507 9.57709 10.4583C9.53706 10.366 9.47908 10.2825 9.40651 10.2127C9.33394 10.1429 9.24823 10.0882 9.15436 10.0519C9.06049 10.0155 8.96033 9.99812 8.85969 10.0008Z" stroke="#D5692B" stroke-width="0.5" stroke-miterlimit="10" stroke-linecap="round"/>
<path d="M13.5306 10.6413C13.5481 10.9302 13.4793 11.2178 13.333 11.4675C13.1867 11.7173 12.9695 11.9179 12.709 12.0439C12.4484 12.1699 12.1563 12.2156 11.8697 12.1753C11.5831 12.1349 11.315 12.0103 11.0993 11.8172C10.8837 11.6241 10.7304 11.3713 10.6587 11.0909C10.5871 10.8105 10.6004 10.5151 10.697 10.2423C10.7936 9.96947 10.9691 9.7315 11.2012 9.55862C11.4333 9.38574 11.7116 9.28575 12.0006 9.27134C12.3847 9.2522 12.7608 9.38535 13.0472 9.64185C13.3337 9.89836 13.5074 10.2575 13.5306 10.6413ZM11.3206 10.7413C11.3206 10.8385 11.3398 10.9347 11.3769 11.0245C11.4141 11.1143 11.4686 11.1959 11.5374 11.2646C11.6061 11.3333 11.6876 11.3878 11.7774 11.425C11.8672 11.4622 11.9634 11.4813 12.0606 11.4813C12.1671 11.4936 12.2749 11.4832 12.377 11.4509C12.4792 11.4186 12.5734 11.365 12.6533 11.2937C12.7333 11.2224 12.7973 11.135 12.8412 11.0372C12.885 10.9394 12.9076 10.8335 12.9076 10.7263C12.9076 10.6192 12.885 10.5133 12.8412 10.4155C12.7973 10.3177 12.7333 10.2303 12.6533 10.159C12.5734 10.0877 12.4792 10.0341 12.377 10.0018C12.2749 9.96945 12.1671 9.95907 12.0606 9.97134C11.9613 9.97263 11.8632 9.99365 11.772 10.0332C11.6808 10.0727 11.5984 10.1299 11.5296 10.2016C11.4607 10.2732 11.4068 10.3578 11.3709 10.4505C11.3351 10.5432 11.318 10.642 11.3206 10.7413V10.7413Z" stroke="#D5692B" stroke-width="0.5" stroke-miterlimit="10" stroke-linecap="round"/>
<path d="M18.441 9.25977C18.6366 9.26102 18.83 9.30131 19.0099 9.37827C19.1897 9.45522 19.3524 9.5673 19.4884 9.70793C19.6243 9.84856 19.7309 10.0149 19.8017 10.1972C19.8726 10.3796 19.9063 10.5742 19.901 10.7698C19.901 11.157 19.7472 11.5283 19.4734 11.8021C19.1996 12.0759 18.8282 12.2298 18.441 12.2298C18.0538 12.2298 17.6824 12.0759 17.4086 11.8021C17.1348 11.5283 16.981 11.157 16.981 10.7698C16.9757 10.5742 17.0094 10.3796 17.0803 10.1972C17.1512 10.0149 17.2577 9.84856 17.3937 9.70793C17.5296 9.5673 17.6923 9.45522 17.8722 9.37827C18.052 9.30131 18.2454 9.26102 18.441 9.25977V9.25977ZM17.681 10.7398C17.677 10.8909 17.7182 11.0397 17.7993 11.1673C17.8803 11.2949 17.9976 11.3954 18.136 11.456C18.2745 11.5166 18.4279 11.5345 18.5766 11.5075C18.7254 11.4805 18.8626 11.4097 18.9709 11.3043C19.0792 11.1988 19.1536 11.0635 19.1846 10.9155C19.2156 10.7676 19.2018 10.6138 19.1449 10.4737C19.088 10.3337 18.9906 10.2138 18.8653 10.1294C18.7399 10.0449 18.5922 9.99982 18.441 9.99977C18.2429 9.9997 18.0525 10.077 17.9106 10.2152C17.7686 10.3535 17.6862 10.5417 17.681 10.7398V10.7398Z" stroke="#D5692B" stroke-width="0.5" stroke-miterlimit="10" stroke-linecap="round"/>
</g>
<defs>
<clipPath id="clip0_2800_18450">
<rect width="23.51" height="13.84" fill="white" transform="translate(0 5)"/>
</clipPath>
</defs>
</svg>
