<svg width="24" height="24" viewBox="0 0 24 24" fill="none" xmlns="http://www.w3.org/2000/svg">
<g clip-path="url(#clip0_2800_18501)">
<rect width="24" height="24" fill="white"/>
<g clip-path="url(#clip1_2800_18501)">
<path d="M7.09844 9.94037H13.4784C13.7784 9.94037 13.7784 9.94037 13.7884 10.2504C13.7984 10.5604 13.7884 10.8104 13.7884 11.0804C13.7885 11.374 13.6732 11.6559 13.4675 11.8653C13.2618 12.0748 12.982 12.1951 12.6884 12.2004H1.52844C1.38266 12.203 1.2378 12.1769 1.10211 12.1236C0.966422 12.0702 0.842574 11.9907 0.737639 11.8895C0.632704 11.7882 0.548738 11.6673 0.490537 11.5337C0.432336 11.4 0.40104 11.2561 0.398438 11.1104C0.398438 10.8004 0.398438 10.4904 0.398438 10.1804C0.398438 9.87037 0.458437 9.94037 0.638437 9.94037H7.09844ZM7.09844 10.7204H1.50844C1.16844 10.7204 1.07844 10.8704 1.21844 11.1904C1.35844 11.5104 1.48844 11.4304 1.69844 11.4304H12.6984C12.9484 11.4304 13.0684 11.2004 13.0484 10.9004C13.0284 10.6004 12.8284 10.7304 12.6984 10.7304L7.09844 10.7204Z" fill="#D5692B"/>
<path d="M17.4808 20.6914H23.8508C24.1708 20.6914 24.1708 20.6914 24.1708 21.0114V21.7314C24.1879 21.8939 24.1701 22.0582 24.1188 22.2133C24.0674 22.3684 23.9836 22.5107 23.8729 22.6309C23.7622 22.7511 23.6271 22.8463 23.4768 22.9101C23.3264 22.974 23.1641 23.0051 23.0008 23.0014H12.0008C11.8349 23.0133 11.6684 22.9894 11.5125 22.9313C11.3567 22.8732 11.2152 22.7822 11.0976 22.6646C10.98 22.547 10.889 22.4055 10.8309 22.2497C10.7728 22.0938 10.7489 21.9273 10.7608 21.7614C10.7608 21.5114 10.7608 21.2614 10.7608 21.0214C10.7608 20.7814 10.8208 20.7414 11.0408 20.7414H17.4608L17.4808 20.6914ZM17.4808 21.4714H11.7408C11.6208 21.4714 11.5608 21.4714 11.5608 21.6514C11.5608 22.0114 11.7008 22.1814 12.0808 22.1814H22.8808C22.9504 22.1914 23.0211 22.1914 23.0908 22.1814C23.3108 22.1814 23.4308 21.9214 23.4008 21.6414C23.3708 21.3614 23.1808 21.4914 23.0608 21.4914L17.4808 21.4714Z" fill="#D5692B"/>
<path d="M7.07883 2.1586H11.7988C11.9627 2.14761 12.127 2.17248 12.2803 2.23148C12.4336 2.29049 12.5722 2.3822 12.6865 2.50024C12.8007 2.61828 12.8878 2.75981 12.9418 2.91496C12.9957 3.07011 13.0152 3.23516 12.9988 3.3986V8.9086C12.9988 9.2286 12.9988 9.2386 12.6888 9.2286C12.1688 9.2286 12.2288 9.2886 12.2288 8.7786V3.5186C12.2288 3.0486 12.1188 2.9286 11.6388 2.9286H2.50883C2.01883 2.9286 1.91883 3.0386 1.91883 3.5186V8.9086C1.91883 9.2286 1.91883 9.2386 1.59883 9.2286C1.07883 9.2286 1.13883 9.2886 1.13883 8.7786C1.13883 6.9886 1.13883 5.1986 1.13883 3.4086C1.13612 3.24239 1.16687 3.07733 1.22923 2.92324C1.2916 2.76915 1.38431 2.62917 1.50185 2.51163C1.6194 2.39408 1.75938 2.30137 1.91347 2.23901C2.06756 2.17664 2.23262 2.1459 2.39883 2.1486C3.99883 2.1886 5.51883 2.1586 7.07883 2.1586Z" fill="#D5692B"/>
<path d="M17.4612 12.9104H22.1613C22.3323 12.8932 22.505 12.9143 22.6668 12.9721C22.8287 13.0298 22.9758 13.1228 23.0973 13.2444C23.2188 13.3659 23.3118 13.5129 23.3696 13.6748C23.4273 13.8367 23.4484 14.0094 23.4313 14.1804V19.6704C23.4313 19.9804 23.4313 19.9804 23.1113 19.9804C22.6013 19.9804 22.6613 20.0304 22.6613 19.5404V14.2104C22.6613 13.8204 22.5312 13.6804 22.1312 13.6804H12.8413C12.4313 13.6804 12.3013 13.8104 12.3013 14.2304V19.6304C12.3013 19.9804 12.3013 19.9804 11.9513 19.9804C11.6013 19.9804 11.5313 20.0304 11.5313 19.5604C11.5313 17.7504 11.5313 15.9404 11.5313 14.1404C11.5312 13.8132 11.6605 13.4994 11.8909 13.2671C12.1213 13.0348 12.4341 12.903 12.7613 12.9004C14.3213 12.9304 15.8912 12.9104 17.4612 12.9104Z" fill="#D5692B"/>
<path d="M7.12109 3.64062H11.2611C11.5011 3.64062 11.5711 3.71062 11.5611 3.94062V8.94063C11.5611 9.18062 11.4911 9.25062 11.2611 9.24062C10.8011 9.24062 10.3511 9.24062 9.89109 9.24062C9.74109 9.24062 9.67109 9.19063 9.67109 9.02063C9.67109 8.35063 9.60109 8.47062 10.2111 8.46062C10.8211 8.45062 10.7911 8.46063 10.7911 7.89062C10.7911 6.83063 10.7911 5.76062 10.7911 4.70062C10.7911 4.49062 10.7911 4.41062 10.5211 4.41062H3.66109C3.46109 4.41062 3.39109 4.41062 3.39109 4.67062C3.39109 5.85063 3.39109 7.03062 3.39109 8.22062C3.39109 8.41062 3.44109 8.48063 3.64109 8.47062C3.84109 8.46062 4.09109 8.47062 4.31109 8.47062C4.53109 8.47062 4.50109 8.47062 4.50109 8.66062C4.50109 9.37062 4.58109 9.23062 3.96109 9.24062H2.86109C2.69109 9.24062 2.62109 9.19062 2.62109 9.01062C2.62109 7.30062 2.62109 5.59062 2.62109 3.87062C2.62109 3.66062 2.73109 3.64062 2.90109 3.64062H7.12109Z" fill="#D5692B"/>
<path d="M17.4994 14.3906H21.6494C21.8794 14.3906 21.9494 14.4506 21.9494 14.6906C21.9494 16.3506 21.9494 18.0206 21.9494 19.6906C21.9494 19.9206 21.8794 20.0006 21.6494 19.9906C21.2094 19.9906 20.7694 19.9906 20.3294 19.9906C20.1294 19.9906 20.0494 19.9906 20.0594 19.7306C20.0594 19.1206 19.9894 19.2206 20.5694 19.2106C21.1494 19.2006 21.1694 19.2106 21.1694 18.6206C21.1694 17.5506 21.1694 16.4906 21.1694 15.4206C21.1694 15.2206 21.1094 15.1606 20.8994 15.1606H14.0494C13.8294 15.1606 13.7794 15.2306 13.7794 15.4406C13.7794 16.6106 13.7794 17.7706 13.7794 18.9406C13.7794 19.1506 13.8394 19.2306 14.0494 19.2106C14.2594 19.1906 14.4394 19.2106 14.6294 19.2106C14.8194 19.2106 14.7594 19.2106 14.7894 19.2106C15.0094 19.3706 14.8594 19.6106 14.8894 19.8106C14.9194 20.0106 14.8894 19.9706 14.7294 19.9706H13.1794C13.1563 19.974 13.1327 19.9719 13.1105 19.9645C13.0884 19.9572 13.0683 19.9448 13.0517 19.9282C13.0352 19.9117 13.0228 19.8916 13.0155 19.8695C13.0081 19.8473 13.006 19.8237 13.0094 19.8006V14.7406C13.0094 14.3906 13.0094 14.3906 13.3494 14.3906H17.4994Z" fill="#D5692B"/>
<path d="M21.1991 6.27977C21.1951 6.57555 21.1038 6.86357 20.9366 7.1076C20.7694 7.35163 20.5338 7.54077 20.2594 7.65124C19.985 7.76171 19.684 7.78858 19.3944 7.72846C19.1047 7.66835 18.8393 7.52393 18.6316 7.31338C18.4238 7.10283 18.2829 6.83554 18.2266 6.54512C18.1703 6.25471 18.2012 5.95414 18.3153 5.68122C18.4294 5.40829 18.6216 5.17519 18.8678 5.01124C19.1141 4.84728 19.4033 4.75979 19.6991 4.75977C19.8974 4.76107 20.0935 4.80143 20.2762 4.87853C20.4589 4.95562 20.6246 5.06795 20.7639 5.2091C20.9032 5.35024 21.0133 5.51744 21.088 5.70115C21.1627 5.88485 21.2004 6.08147 21.1991 6.27977ZM19.7091 5.52977C19.5643 5.52778 19.4222 5.5689 19.3008 5.6479C19.1795 5.7269 19.0844 5.8402 19.0276 5.97341C18.9708 6.10661 18.9549 6.25369 18.9819 6.39595C19.0089 6.53821 19.0777 6.66922 19.1794 6.77231C19.281 6.87541 19.4111 6.94593 19.553 6.97492C19.6948 7.00391 19.8421 6.99005 19.9761 6.9351C20.1101 6.88016 20.2247 6.78661 20.3053 6.66635C20.386 6.5461 20.4291 6.40457 20.4291 6.25977C20.4242 6.06942 20.347 5.88808 20.2133 5.75252C20.0796 5.61695 19.8993 5.53732 19.7091 5.52977Z" fill="#D5692B"/>
<path d="M4.86096 20.3496C4.56558 20.3476 4.27736 20.2584 4.03246 20.0933C3.78755 19.9281 3.59685 19.6943 3.48429 19.4212C3.37172 19.1481 3.34229 18.8479 3.39969 18.5581C3.45709 18.2684 3.59876 18.002 3.80694 17.7925C4.01512 17.5829 4.28054 17.4395 4.56991 17.3802C4.85928 17.3208 5.15972 17.3483 5.43356 17.4591C5.70739 17.5698 5.94243 17.759 6.10919 18.0028C6.27595 18.2466 6.36702 18.5342 6.37096 18.8296C6.37097 19.231 6.2122 19.6161 5.9293 19.9009C5.64641 20.1856 5.26235 20.3469 4.86096 20.3496ZM4.86096 19.5796C5.0513 19.5746 5.23265 19.4975 5.36821 19.3638C5.50377 19.2301 5.58341 19.0498 5.59096 18.8596C5.58856 18.6701 5.51359 18.4888 5.3815 18.353C5.24941 18.2172 5.07026 18.1372 4.88096 18.1296C4.7786 18.1175 4.67486 18.1273 4.57655 18.1582C4.47823 18.1892 4.38759 18.2406 4.31057 18.3091C4.23355 18.3776 4.17191 18.4616 4.1297 18.5556C4.08749 18.6496 4.06567 18.7515 4.06567 18.8546C4.06567 18.9576 4.08749 19.0595 4.1297 19.1536C4.17191 19.2476 4.23355 19.3316 4.31057 19.4001C4.38759 19.4686 4.47823 19.52 4.57655 19.5509C4.67486 19.5818 4.7786 19.5916 4.88096 19.5796H4.86096Z" fill="#D5692B"/>
<path d="M15.6018 6.63991H14.0018C13.8118 6.63991 13.7518 6.57991 13.7518 6.38991C13.7518 5.77991 13.6918 5.86991 14.2618 5.86991H17.2618C17.4718 5.86991 17.5518 5.93991 17.5418 6.14991C17.5418 6.72991 17.6018 6.63991 17.0518 6.64991L15.6018 6.63991Z" fill="#D5692B"/>
<path d="M20.0894 10.331V12.001C20.0894 12.171 20.0394 12.241 19.8694 12.231C19.2094 12.231 19.3194 12.301 19.3194 11.701C19.3194 10.701 19.3194 9.751 19.3194 8.771C19.3194 8.561 19.3794 8.481 19.5994 8.491C20.1794 8.491 20.0894 8.421 20.0994 8.991C20.1094 9.561 20.0894 9.871 20.0894 10.331Z" fill="#D5692B"/>
<path d="M5.24932 14.7799C5.24932 15.3199 5.24932 15.8599 5.24932 16.3999C5.24932 16.5799 5.18932 16.6599 4.99932 16.6499C4.37932 16.6499 4.47932 16.7199 4.46932 16.1399C4.46932 15.1399 4.46932 14.1399 4.46932 13.1399C4.46932 12.9399 4.46932 12.8599 4.73932 12.8699C5.31932 12.8699 5.23932 12.7999 5.23932 13.3699C5.23932 13.9399 5.24932 14.3199 5.24932 14.7799Z" fill="#D5692B"/>
<path d="M9.00052 18.4708C9.53052 18.4708 10.0705 18.4708 10.6005 18.4708C10.7905 18.4708 10.8605 18.5308 10.8505 18.7208C10.8505 19.3308 10.9205 19.2408 10.3405 19.2408H7.34052C7.13052 19.2408 7.06052 19.1708 7.06052 18.9608C7.06052 18.3808 7.00052 18.4608 7.55052 18.4608L9.00052 18.4708Z" fill="#D5692B"/>
<path d="M5.62085 8.46141C6.00085 8.46141 6.00085 8.46141 6.00085 8.86141C6.00085 9.26141 6.00085 9.24141 5.60085 9.23141C5.20085 9.22141 5.23085 9.23141 5.22085 8.81141C5.21085 8.39141 5.22085 8.46141 5.62085 8.46141Z" fill="#D5692B"/>
<path d="M7.11094 9.23094C6.71094 9.23094 6.71094 9.23094 6.71094 8.85094C6.71094 8.47094 6.71094 8.46094 7.10094 8.46094C7.49094 8.46094 7.48094 8.46094 7.48094 8.85094C7.48094 9.24094 7.48094 9.23094 7.11094 9.23094Z" fill="#D5692B"/>
<path d="M8.57942 8.46096C8.95942 8.46096 8.95942 8.46096 8.95942 8.85096C8.95942 9.24096 8.95942 9.24096 8.54942 9.23096C8.13942 9.22096 8.18942 9.23096 8.18942 8.84096C8.18942 8.45096 8.18942 8.46096 8.57942 8.46096Z" fill="#D5692B"/>
<path d="M16.3794 19.6009C16.3794 19.9809 16.3794 19.9809 15.9894 19.9809C15.5994 19.9809 15.6094 19.9809 15.6094 19.6009C15.6094 19.2209 15.6094 19.2109 16.0194 19.2109C16.4294 19.2109 16.3794 19.2109 16.3794 19.6009Z" fill="#D5692B"/>
<path d="M17.8709 19.619C17.8709 19.979 17.8709 19.979 17.4609 19.979C17.0509 19.979 17.0909 19.979 17.0909 19.569C17.0909 19.159 17.0909 19.209 17.5009 19.209C17.9109 19.209 17.8709 19.209 17.8709 19.619Z" fill="#D5692B"/>
<path d="M19.35 19.6209C19.35 19.9809 19.35 19.9809 18.94 19.9809C18.53 19.9809 18.58 19.9809 18.58 19.5709C18.58 19.1609 18.58 19.2109 18.99 19.2109C19.4 19.2109 19.35 19.2109 19.35 19.6209Z" fill="#D5692B"/>
</g>
</g>
<defs>
<clipPath id="clip0_2800_18501">
<rect width="24" height="24" fill="white"/>
</clipPath>
<clipPath id="clip1_2800_18501">
<rect width="24.74" height="22.37" fill="white" transform="translate(0 1)"/>
</clipPath>
</defs>
</svg>
