<svg width="116" height="115" viewBox="0 0 116 115" fill="none" xmlns="http://www.w3.org/2000/svg">
<path d="M97.4806 31.6691C97.4806 31.6605 97.4786 31.6519 97.4786 31.6432C97.4776 31.6089 97.4756 31.5751 97.4716 31.5417C97.4706 31.5294 97.4676 31.5171 97.4666 31.5048C97.4616 31.4739 97.4556 31.4435 97.4486 31.4137C97.4456 31.4019 97.4426 31.3902 97.4396 31.3784C97.4306 31.346 97.4206 31.3142 97.4086 31.2829C97.4066 31.2769 97.4056 31.2707 97.4036 31.2649L94.2787 23.2664C93.9637 22.4604 93.2009 21.9395 92.3355 21.9395H86.6465C86.0263 21.9395 85.5237 22.4422 85.5237 23.0623C85.5237 23.6824 86.0263 24.1851 86.6465 24.1851H92.2268L94.7133 30.5506H71.2049L69.732 24.1851H78.4141C79.0342 24.1851 79.5368 23.6824 79.5368 23.0623C79.5368 22.4422 79.0342 21.9395 78.4141 21.9395H68.3197H57.0063H32.9903C32.1247 21.9395 31.3621 22.4604 31.0471 23.2667L27.9226 31.2649C27.9203 31.2709 27.9191 31.277 27.9168 31.2829C27.9051 31.3141 27.895 31.3458 27.886 31.3784C27.8828 31.3902 27.8797 31.4019 27.877 31.4137C27.8699 31.4437 27.8642 31.4741 27.8596 31.5048C27.8578 31.5171 27.8555 31.5294 27.8539 31.5417C27.8501 31.5751 27.848 31.6089 27.847 31.6432C27.8469 31.6518 27.8458 31.6604 27.8457 31.6691C27.8457 31.6705 27.8455 31.6719 27.8455 31.6733V48.1688C27.8455 48.7889 28.3482 49.2916 28.9683 49.2916C29.5884 49.2916 30.0911 48.7889 30.0911 48.1688V32.7962H53.891V49.8627C53.891 50.5302 54.2841 51.1383 54.8927 51.4122C55.1156 51.5125 55.3529 51.5614 55.5886 51.5614C55.9965 51.5614 56.3999 51.4149 56.7163 51.1345L62.6629 45.8662L68.6095 51.1343C69.1088 51.5771 69.8247 51.686 70.4334 51.4122C71.0418 51.1382 71.435 50.5302 71.435 49.8627V32.7962H95.2347V83.1571C95.2347 83.9627 94.5791 84.6184 93.7734 84.6184H73.1862C73.1862 84.6057 73.1847 84.5929 73.1845 84.5802C73.1833 84.4794 73.1796 84.3788 73.171 84.279C75.104 84.7915 77.1695 83.798 77.9441 81.8983C78.3515 80.899 78.3456 79.8008 77.9271 78.8063C77.8876 78.7127 77.8441 78.6217 77.7984 78.5322C77.7899 78.5158 77.7818 78.4992 77.7733 78.4829C77.7283 78.3975 77.6804 78.3141 77.6299 78.2329C77.6201 78.2171 77.6099 78.2017 77.6 78.186C77.5465 78.1026 77.4911 78.0208 77.4319 77.942C77.4309 77.9405 77.4296 77.9391 77.4286 77.9377C77.3699 77.8598 77.3079 77.7849 77.2438 77.7117C77.2321 77.6983 77.2206 77.6848 77.2088 77.6714C77.1454 77.6008 77.0795 77.5324 77.0113 77.4665C76.9979 77.4536 76.9844 77.4412 76.9709 77.4286C76.8995 77.3615 76.8264 77.2962 76.7502 77.2346C76.7476 77.2327 76.745 77.2307 76.7424 77.2287C76.6674 77.1683 76.5896 77.1112 76.5102 77.0562C76.4959 77.0462 76.4818 77.0361 76.4672 77.0262C76.3878 76.9728 76.3064 76.9223 76.2228 76.8742C76.2159 76.8702 76.2096 76.8656 76.2026 76.8615C76.6771 76.451 77.0517 75.9313 77.2956 75.3332C77.703 74.3339 77.697 73.2358 77.2785 72.2411C76.9124 71.3708 76.2688 70.6707 75.4444 70.2365C75.3266 70.1744 75.2051 70.1178 75.0802 70.067L57.6053 62.9415L65.7396 60.4238C67.6748 59.8247 68.7648 57.7607 68.1692 55.823C67.947 55.0997 67.5064 54.4897 66.9372 54.0438C66.0902 53.3802 64.9582 53.0806 63.8356 53.3163C63.8302 53.3176 63.825 53.3185 63.8196 53.3199C63.7574 53.3339 57.5217 54.736 51.009 56.0059C50.7201 56.0623 50.4386 56.1166 50.1611 56.1701C49.939 56.2128 49.72 56.2549 49.5052 56.2957C49.4434 56.3075 49.3815 56.3192 49.3203 56.3309C48.9409 56.4029 48.5734 56.4719 48.2162 56.5382C48.0725 56.5649 47.9299 56.5913 47.7897 56.6171C39.6108 58.1239 37.3131 58.1509 36.6755 58.0646C36.673 58.0643 36.6709 58.064 36.6684 58.0635C36.6587 58.0621 36.6492 58.0608 36.6403 58.0594C36.6339 58.0583 36.6279 58.0572 36.6219 58.0563C36.6176 58.0555 36.613 58.0548 36.6088 58.0542C36.569 58.0469 36.538 58.0393 36.5141 58.0322L36.3301 57.9572L36.5594 57.395C36.7848 56.8421 36.7814 56.2346 36.55 55.6842C36.4921 55.5466 36.4216 55.4168 36.3399 55.2958C36.0948 54.9329 35.7482 54.6503 35.3335 54.4812L29.3029 52.0223C28.7502 51.7967 28.1425 51.8003 27.5923 52.0317C27.0418 52.2631 26.6147 52.6951 26.3893 53.2479L19.0151 71.3334C18.5497 72.4746 19.0997 73.7815 20.2409 74.247L26.2717 76.706C26.547 76.8183 26.8319 76.8714 27.1125 76.8714C27.9945 76.8714 28.8321 76.3459 29.1851 75.4802L29.2406 75.3443L30.6311 75.9111C30.6318 75.9114 30.6326 75.9119 30.6335 75.9122C31.9635 76.4545 33.1889 77.2282 34.2494 78.1884C34.4423 78.363 34.6297 78.5437 34.8114 78.7303C34.9931 78.9169 35.1687 79.1095 35.3384 79.3076C35.4232 79.4067 35.5066 79.5073 35.5882 79.6091C37.1336 81.5361 39.1596 83.0478 41.4468 83.9804L43.0111 84.6182H31.5525C30.7468 84.6182 30.0912 83.9626 30.0912 83.157V80.316C30.0912 79.6958 29.5886 79.1932 28.9684 79.1932C28.3483 79.1932 27.8457 79.6958 27.8457 80.316V83.157C27.8457 85.2009 29.5084 86.8638 31.5525 86.8638H48.5184L62.9823 92.7615C63.4802 92.9645 63.9953 93.0605 64.5026 93.0605C66.0965 93.0605 67.6105 92.1105 68.2486 90.5455C68.5103 89.9045 68.5943 89.2335 68.5238 88.5885C69.2762 88.6965 70.0562 88.5975 70.7632 88.2924C71.4818 87.9815 72.0774 87.4873 72.5003 86.8637H93.7736C95.8175 86.8637 97.4806 85.2009 97.4806 83.1568V31.6734C97.4806 31.6719 97.4806 31.6707 97.4806 31.6691ZM57.8988 24.1851H67.427L68.8999 30.5506H56.4259L57.8988 24.1851ZM54.121 30.5506H30.6125L33.099 24.1851H55.594L54.121 30.5506ZM69.1897 48.6481H69.1896L63.7895 43.8642C63.4684 43.5798 63.0657 43.4376 62.6632 43.4376C62.2605 43.4376 61.8577 43.5798 61.5366 43.8642L56.1367 48.6481V32.7962H69.1897V48.6481ZM27.1097 74.6226L21.0983 72.1716L28.4647 54.1057L34.4761 56.5569L27.1097 74.6226ZM71.9668 81.3985L70.6782 80.873C70.6775 80.8727 70.6769 80.8725 70.6763 80.8722C70.6759 80.8721 70.6754 80.8717 70.6749 80.8716C70.6748 80.8716 70.6746 80.8715 70.6745 80.8715L57.2541 75.3994C56.6801 75.1654 56.0248 75.4408 55.7905 76.0153C55.5563 76.5895 55.832 77.2448 56.4064 77.479L69.827 82.9512C69.8831 82.9741 69.9373 82.9994 69.9897 83.0272C70.0044 83.035 70.0181 83.0446 70.0325 83.0527C70.0694 83.0736 70.1064 83.0945 70.1413 83.1177C70.158 83.1289 70.1734 83.1418 70.1896 83.1534C70.2205 83.1756 70.252 83.1974 70.2812 83.2213C70.2988 83.2358 70.3148 83.2519 70.3318 83.2669C70.358 83.2901 70.3847 83.3125 70.4092 83.3371C70.4263 83.354 70.4415 83.3726 70.4578 83.3901C70.4804 83.4144 70.5035 83.4382 70.5247 83.4637C70.5409 83.4832 70.555 83.5039 70.5703 83.524C70.5895 83.5492 70.6095 83.5739 70.6272 83.6C70.6421 83.6219 70.6548 83.6449 70.6686 83.6672C70.6846 83.693 70.7015 83.7183 70.7161 83.7449C70.7293 83.7687 70.7404 83.7939 70.7525 83.8183C70.7654 83.8445 70.7794 83.8703 70.791 83.8972C70.8022 83.923 70.8113 83.9497 70.8213 83.976C70.8314 84.0026 70.8425 84.0287 70.8514 84.0557C70.8603 84.0829 70.8671 84.1107 70.8746 84.1382C70.8821 84.1654 70.8906 84.1921 70.8968 84.2196C70.9031 84.2474 70.9071 84.2756 70.9122 84.3036C70.9173 84.3315 70.9231 84.3592 70.9268 84.3874C70.9305 84.4157 70.9319 84.4442 70.9342 84.4727C70.9365 84.5012 70.9398 84.5296 70.9408 84.5582C70.9417 84.5863 70.9403 84.6147 70.94 84.643C70.9397 84.6722 70.9402 84.7013 70.9383 84.7307C70.9366 84.7585 70.9325 84.7863 70.9294 84.8141C70.9262 84.844 70.9237 84.8739 70.9188 84.9037C70.9144 84.9311 70.9074 84.9582 70.9018 84.9855C70.8953 85.0159 70.8899 85.0461 70.8818 85.0762C70.8747 85.1028 70.8652 85.1292 70.8568 85.1556C70.8472 85.1857 70.8385 85.2158 70.8273 85.2455C70.8178 85.2659 70.8084 85.2865 70.7996 85.3072C70.7976 85.3119 70.7966 85.3169 70.7947 85.3215C70.6193 85.7264 70.2956 86.0481 69.8728 86.2308C69.4075 86.4314 68.8747 86.4386 68.4109 86.2494L66.0331 85.2799C66.0221 85.2754 66.0108 85.2723 65.9998 85.2682C65.9886 85.2631 65.978 85.2573 65.9666 85.2527L55.0511 80.8018C54.4766 80.5677 53.8216 80.8434 53.5875 81.4177C53.3533 81.992 53.629 82.6473 54.2032 82.8815L65.1187 87.3322C65.1304 87.337 65.1422 87.3403 65.154 87.3447C65.1646 87.3493 65.1745 87.3549 65.1854 87.3593C66.1015 87.7328 66.543 88.7825 66.1695 89.6985C65.7958 90.6145 64.7471 91.0564 63.8305 90.6824L49.1648 84.7024C49.1642 84.7021 49.1636 84.7018 49.163 84.7015L42.2951 81.901C41.0862 81.4081 39.9635 80.7239 38.9725 79.882C38.3779 79.3769 37.8307 78.8154 37.3405 78.2042C36.8575 77.602 36.3276 77.0404 35.7576 76.5242C34.5033 75.3888 33.0543 74.4739 31.4819 73.8326C31.4817 73.8326 31.4816 73.8325 31.4814 73.8325L30.0891 73.2649L32.8622 66.4638L35.4828 60.0368L35.6762 60.1156C35.8581 60.1898 36.1177 60.2951 36.8161 60.3215C37.6888 60.361 39.1324 60.2699 41.7186 59.9046C43.4778 59.6561 45.6357 59.2967 48.1548 58.8332C48.2168 58.8219 48.2784 58.8105 48.3411 58.799C48.4589 58.7771 48.5779 58.7551 48.6974 58.733C48.7903 58.7158 48.8836 58.6982 48.9778 58.6805C49.085 58.6604 49.1926 58.6403 49.3011 58.6199C49.4161 58.5983 49.5325 58.5763 49.6495 58.554C49.7432 58.5362 49.8367 58.5186 49.9313 58.5005C50.074 58.4734 50.2191 58.4456 50.3647 58.4177C50.4397 58.4032 50.5138 58.3891 50.5894 58.3747C50.8124 58.3317 51.0383 58.288 51.2684 58.2434C57.7586 56.981 64.023 55.5759 64.3045 55.5126C64.3326 55.5068 64.3607 55.5034 64.3888 55.4993C65.11 55.3925 65.8166 55.8096 66.0234 56.4826C66.0961 56.7191 66.1045 56.9604 66.0588 57.1874C65.9582 57.687 65.5951 58.118 65.0762 58.2785L53.9447 61.7238C53.4915 61.8642 53.1755 62.2738 53.155 62.7477C53.1345 63.2215 53.4137 63.6572 53.8529 63.8363L74.233 72.1464C74.6768 72.3273 75.0236 72.6702 75.2094 73.1121C75.3952 73.5539 75.398 74.0417 75.2169 74.4853C75.0359 74.9292 74.6931 75.2759 74.2512 75.4618C74.0304 75.5545 73.798 75.6015 73.5654 75.6029C73.562 75.6029 73.5586 75.6024 73.5552 75.6024C73.5006 75.6024 73.446 75.6003 73.3915 75.5952C73.3754 75.5937 73.3594 75.5903 73.3433 75.5885C73.3017 75.5834 73.2601 75.5786 73.2188 75.5707C73.1926 75.5656 73.1668 75.5578 73.1409 75.5518C73.1099 75.5443 73.0787 75.5381 73.048 75.529C73.0162 75.5197 72.985 75.5072 72.9537 75.496C72.9288 75.4871 72.9035 75.4796 72.8789 75.4697L59.457 69.9969C58.8828 69.7627 58.2276 70.0384 57.9934 70.6128C57.7592 71.187 58.0349 71.8423 58.6093 72.0765L74.8814 78.7113C74.9924 78.7565 75.0973 78.812 75.1951 78.8764C75.4886 79.07 75.7185 79.3457 75.8578 79.6771C76.0204 80.0637 76.0429 80.4853 75.9246 80.882C75.9077 80.9386 75.8879 80.9949 75.8653 81.0504C75.842 81.1077 75.816 81.1631 75.7876 81.2166C75.7214 81.3409 75.6408 81.4534 75.5508 81.5558C75.4949 81.6194 75.4352 81.6787 75.3716 81.733C75.3614 81.7416 75.3522 81.7514 75.3419 81.7597C74.9322 82.0947 74.3844 82.2389 73.8492 82.1308C73.7406 82.1088 73.6326 82.0776 73.5264 82.0343L71.9668 81.3985Z" fill="#159822"/>
</svg>
