<svg width="136" height="135" viewBox="0 0 136 135" fill="none" xmlns="http://www.w3.org/2000/svg">
<g clip-path="url(#clip0_8589_22034)">
<path d="M68 125.5C100.033 125.5 126 99.5325 126 67.5C126 35.4675 100.033 9.5 68 9.5C35.9675 9.5 10 35.4675 10 67.5C10 99.5325 35.9675 125.5 68 125.5Z" stroke="#D1D1D1"/>
<path d="M133 67.5C133 103.399 103.899 132.5 68 132.5C32.1015 132.5 3 103.399 3 67.5C3 31.6015 32.1015 2.5 68 2.5C103.899 2.5 133 31.6015 133 67.5ZM68 134.5C105.003 134.5 135 104.503 135 67.5C135 30.4969 105.003 0.5 68 0.5C30.9969 0.5 1 30.4969 1 67.5C1 104.503 30.9969 134.5 68 134.5Z" fill="#159822" stroke="#159822"/>
<path d="M94.3802 37.791H90.2997C89.6905 37.791 89.3048 38.1768 89.3048 38.6032H89.3047V51.7992C89.3047 52.3473 89.9544 52.6316 90.6243 52.6316C91.274 52.6316 91.9439 52.3475 91.9439 51.7992V47.0893H94.2179C96.8976 47.0893 98.9888 45.8101 98.9888 42.4807V42.3591C98.9888 39.0295 96.9585 37.791 94.3802 37.791ZM96.3493 42.6838C96.3493 44.2673 95.5374 45.0186 94.2177 45.0186H91.9439V40.1055H94.2177C95.5374 40.1055 96.3493 40.8567 96.3493 42.4402V42.6838Z" fill="#159822"/>
<path d="M72.3503 42.9492C68.4963 39.0952 63.3723 36.9727 57.9218 36.9727C52.4714 36.9727 47.3474 39.0952 43.4934 42.9492C43.0282 43.4142 43.0282 44.1683 43.4934 44.6335C43.9584 45.0985 44.7124 45.0985 45.1774 44.6335C48.5816 41.2294 53.1076 39.3546 57.9217 39.3546C62.7358 39.3546 67.2619 41.2294 70.6659 44.6335C70.8986 44.866 71.2034 44.9822 71.5081 44.9822C71.8128 44.9822 72.1176 44.866 72.3503 44.6335C72.8153 44.1684 72.8153 43.4142 72.3503 42.9492Z" fill="#159822"/>
<path d="M67.4379 47.8628C62.1911 42.616 53.6541 42.616 48.4075 47.8628C47.9423 48.3279 47.9423 49.082 48.4075 49.5471C48.8725 50.0121 49.6267 50.0121 50.0917 49.5471C54.4098 45.2291 61.4356 45.2291 65.7537 49.5471C65.9862 49.7796 66.2909 49.8958 66.5957 49.8958C66.9004 49.8958 67.2053 49.7796 67.4379 49.5471C67.903 49.082 67.903 48.3279 67.4379 47.8628Z" fill="#159822"/>
<path d="M62.603 52.697C60.0225 50.1166 55.8238 50.1166 53.2434 52.697C52.7782 53.1621 52.7782 53.9161 53.2434 54.3813C53.7084 54.8464 54.4626 54.8463 54.9276 54.3813C56.5795 52.7295 59.267 52.7295 60.9189 54.3813C61.1514 54.6139 61.4563 54.73 61.761 54.73C62.0656 54.73 62.3705 54.6138 62.603 54.3813C63.0682 53.9161 63.0682 53.1622 62.603 52.697Z" fill="#159822"/>
<path d="M83.1044 75.8934C82.5891 75.6098 82.0806 75.2992 81.5934 74.9701L73.716 69.6485C71.3253 68.0333 68.5365 67.1797 65.6513 67.1797H51.1928C47.3549 67.1797 43.7439 68.6716 41.0246 71.3804C39.627 72.773 38.0347 73.9378 36.292 74.8427C35.2614 75.3779 34.6211 76.4312 34.6211 77.5917C34.6211 79.3005 36.0113 80.6907 37.7202 80.6907H42.6496C43.3073 80.6907 43.8405 80.1574 43.8405 79.4997C43.8405 78.842 43.3073 78.3088 42.6496 78.3088H37.7202C37.3247 78.3088 37.0029 77.987 37.0029 77.5915C37.0029 77.3236 37.151 77.0803 37.3895 76.9565C39.3474 75.9399 41.1361 74.6314 42.7056 73.0677C44.9752 70.8066 47.9893 69.5614 51.1927 69.5614H54.4297V78.3088H50.4731C49.8154 78.3088 49.2821 78.842 49.2821 79.4997C49.2821 80.1574 49.8154 80.6907 50.4731 80.6907H83.1285C84.1076 80.6907 84.904 79.8942 84.904 78.9152C84.904 77.6615 84.2143 76.5036 83.1044 75.8934ZM56.8119 78.3089V69.5616H65.6515C68.0597 69.5616 70.3874 70.2742 72.3828 71.6222L80.2602 76.9438C80.8072 77.3133 81.3779 77.662 81.9568 77.9804C82.1067 78.0629 82.2323 78.1762 82.3267 78.3089H56.8119Z" fill="#159822"/>
<path d="M59.7641 82.5H56.0854C55.4277 82.5 54.8945 83.0332 54.8945 83.6909C54.8945 84.3486 55.4277 84.8819 56.0854 84.8819H59.7641C60.4218 84.8819 60.9551 84.3486 60.9551 83.6909C60.9551 83.0332 60.4218 82.5 59.7641 82.5Z" fill="#159822"/>
<path d="M107.072 81.5015L106.695 80.8771C105.278 78.5244 102.919 76.8678 100.226 76.3319L97.1508 75.7205V60.136H105.108C106.746 60.136 108.079 58.8031 108.079 57.165V33.971C108.079 32.3327 106.746 31 105.108 31H81.9138C80.2754 31 78.9427 32.3328 78.9427 33.971V42.7693C78.9427 43.427 79.4758 43.9603 80.1337 43.9603C80.7915 43.9603 81.3247 43.427 81.3247 42.7693V33.971C81.3247 33.6461 81.589 33.3817 81.9139 33.3817H105.108C105.433 33.3817 105.697 33.6461 105.697 33.971V57.1651C105.697 57.49 105.433 57.7544 105.108 57.7544H81.9138C81.5888 57.7544 81.3245 57.49 81.3245 57.1651V50.5117C81.3245 49.854 80.7914 49.3207 80.1335 49.3207C79.4757 49.3207 78.9426 49.854 78.9426 50.5117V57.1651C78.9426 58.8035 80.2754 60.1361 81.9136 60.1361H90.9366V74.4849L89.356 74.1706C87.1746 73.7368 85.0479 72.4203 83.6378 71.4675L75.7606 66.1461C72.7636 64.1216 69.268 63.0515 65.6513 63.0515H51.193C46.382 63.0515 41.8554 64.9215 38.4473 68.3169C36.2907 70.4655 33.576 71.9309 30.5967 72.555L28.8868 72.913C26.3449 73.4453 24.5 75.7169 24.5 78.314V89.848C24.5 91.2238 25.3123 92.474 26.5697 93.0328L31.3133 95.141C31.6002 96.6411 32.3229 98.0735 33.4818 99.2325C35.022 100.773 37.0452 101.543 39.0686 101.543C41.0919 101.543 43.1149 100.773 44.6553 99.2325C45.6459 98.2418 46.316 97.051 46.6695 95.7894H86.2215C86.5751 97.051 87.2453 98.2418 88.2359 99.2325C89.7283 100.725 91.7121 101.547 93.8227 101.547C95.9331 101.547 97.9172 100.725 99.4096 99.2325C100.4 98.2418 101.07 97.051 101.424 95.7894H103.683C106.118 95.7894 108.099 93.8083 108.099 91.3734V85.1962C108.099 83.8942 107.744 82.6167 107.072 81.5015ZM93.3185 60.136H94.769V75.2468L93.3185 74.9583V60.136ZM42.9709 97.5484C41.9286 98.5908 40.5426 99.1649 39.0684 99.1649C37.5942 99.1649 36.2082 98.5908 35.1659 97.5484C33.4937 95.8763 33.1218 93.3897 34.0482 91.3542C34.0557 91.3379 34.0629 91.3214 34.0704 91.3051C34.0987 91.2447 34.1286 91.1849 34.1591 91.1255C34.1735 91.0974 34.1878 91.0695 34.2028 91.0417C34.2304 90.9901 34.2592 90.9389 34.2886 90.8879C34.3088 90.8528 34.3296 90.818 34.3506 90.7834C34.3779 90.7385 34.4055 90.6938 34.4342 90.6495C34.4602 90.6095 34.487 90.57 34.5141 90.5307C34.5408 90.4916 34.5675 90.4525 34.5952 90.4141C34.627 90.3702 34.6602 90.3271 34.6935 90.284C34.7195 90.2503 34.7448 90.2164 34.7715 90.1832C34.8107 90.1347 34.8517 90.0874 34.8925 90.04C34.9159 90.0131 34.9383 89.9855 34.9621 89.9589C35.0228 89.8914 35.0854 89.8253 35.1497 89.7605C35.1553 89.7549 35.1603 89.7491 35.1659 89.7435C35.1781 89.7313 35.191 89.7198 35.2034 89.7077C35.258 89.6542 35.3128 89.6013 35.3688 89.5505C35.3834 89.5373 35.3987 89.525 35.4134 89.512C35.4692 89.4625 35.5254 89.4133 35.5829 89.3665C35.5883 89.3621 35.594 89.358 35.5994 89.3536C37.618 87.72 40.5294 87.7219 42.5456 89.3601C42.5479 89.3621 42.5503 89.3637 42.5528 89.3657C42.6143 89.4158 42.6746 89.4684 42.7345 89.5216C42.7453 89.5311 42.7564 89.5401 42.767 89.5497C42.8362 89.6122 42.9041 89.6767 42.9708 89.7433C43.0426 89.8152 43.1118 89.8891 43.1791 89.9641C43.2087 89.9971 43.2366 90.0309 43.2652 90.0643C43.3001 90.1052 43.3352 90.1461 43.3688 90.1878C43.4066 90.2346 43.443 90.2823 43.4789 90.33C43.4991 90.3566 43.5192 90.3834 43.5388 90.4103C43.5824 90.4704 43.6249 90.5312 43.6658 90.5927C43.6729 90.6032 43.6797 90.6138 43.6866 90.6242C45.0875 92.764 44.8491 95.67 42.9709 97.5484ZM97.725 97.5484C96.6825 98.5908 95.2966 99.1649 93.8223 99.1649C92.3481 99.1649 90.9624 98.5908 89.92 97.5484C88.0415 95.67 87.8031 92.7635 89.2042 90.6239C89.2109 90.6136 89.2176 90.6033 89.2244 90.5932C89.2654 90.5315 89.308 90.4706 89.3518 90.4102C89.3712 90.3834 89.3911 90.3569 89.4112 90.3307C89.4473 90.2826 89.4839 90.2348 89.5219 90.1876C89.5554 90.1463 89.59 90.1058 89.6248 90.0653C89.6537 90.0315 89.6819 89.9972 89.7118 89.9641C89.7791 89.8891 89.8483 89.8153 89.9201 89.7435C90.9625 88.7011 92.3483 88.127 93.8225 88.127C95.2968 88.127 96.6827 88.7011 97.725 89.7435C97.7969 89.8153 97.8661 89.8893 97.9334 89.9643C97.9631 89.9972 97.991 90.0312 98.0198 90.0648C98.0547 90.1055 98.0896 90.1463 98.1231 90.1878C98.161 90.2348 98.1974 90.2825 98.2335 90.3303C98.2536 90.3569 98.2737 90.3836 98.2933 90.4105C98.3368 90.4707 98.3795 90.5313 98.4203 90.5929C98.4273 90.6033 98.4342 90.6138 98.441 90.6242C99.8416 92.7638 99.6032 95.6702 97.725 97.5484ZM105.717 91.3734C105.717 92.4951 104.804 93.4076 103.683 93.4076H101.722C101.675 91.6803 101.066 90.0323 99.9685 88.6812C99.9611 88.6721 99.9541 88.6626 99.9466 88.6535C99.8787 88.5707 99.8083 88.4895 99.7368 88.4089C99.7185 88.3883 99.7012 88.3671 99.6828 88.3465C99.607 88.2631 99.5286 88.1812 99.4489 88.1006C99.4354 88.0869 99.423 88.0725 99.4093 88.059C98.3832 87.0331 97.1248 86.3239 95.7528 85.9811C95.1291 85.8251 94.482 85.745 93.8223 85.745C93.2948 85.745 92.7751 85.7964 92.2689 85.8966C90.7506 86.1977 89.3549 86.9398 88.2356 88.059C88.2222 88.0723 88.21 88.0864 88.1967 88.0999C88.1167 88.1811 88.038 88.2631 87.9621 88.3468C87.9441 88.3666 87.9275 88.3871 87.9099 88.4071C87.8377 88.4884 87.7665 88.5703 87.6981 88.6539C87.6912 88.6623 87.6849 88.6709 87.678 88.6794C86.5799 90.0307 85.9696 91.6797 85.9228 93.4078H46.968C46.9211 91.6775 46.3095 90.0266 45.2087 88.6742C45.2036 88.6678 45.1987 88.6615 45.1936 88.6551C45.1218 88.5672 45.0472 88.4812 44.9713 88.396C44.9572 88.3803 44.9442 88.3641 44.9299 88.3484C44.841 88.2503 44.7495 88.1537 44.655 88.0591C44.27 87.6741 43.8546 87.3371 43.4168 87.0483C42.1031 86.1819 40.5857 85.7487 39.0684 85.7487C37.0452 85.7487 35.0219 86.5189 33.4816 88.0591C33.3936 88.1471 33.3086 88.2374 33.2253 88.3288C33.2006 88.356 33.177 88.3835 33.1526 88.4108C33.0939 88.4773 33.0361 88.5444 32.9797 88.6123C32.9547 88.6425 32.9298 88.6729 32.9053 88.7036C32.847 88.7762 32.7902 88.8497 32.7346 88.924C32.7173 88.9472 32.6995 88.9699 32.6827 88.9932C32.5335 89.1975 32.395 89.4081 32.267 89.6241C32.2634 89.6302 32.26 89.6364 32.2564 89.6424C32.1939 89.7487 32.1339 89.8565 32.0766 89.9654C32.075 89.9685 32.0734 89.9718 32.0716 89.9749C31.6564 90.765 31.3771 91.6196 31.2491 92.506L27.5373 90.8562C27.1392 90.6792 26.8821 90.2835 26.8821 89.848V78.314C26.8821 76.8378 27.9308 75.5467 29.3757 75.244L31.0855 74.8859C34.5177 74.167 37.6448 72.4789 40.1289 70.0041C43.0875 67.0564 47.017 65.4331 51.1935 65.4331H65.6518C68.7915 65.4331 71.8261 66.3621 74.4278 68.1195L82.305 73.4409C83.8857 74.5089 86.2883 75.9886 88.8918 76.5065L99.7613 78.668C101.799 79.0734 103.583 80.3266 104.656 82.1063L105.032 82.7307C105.48 83.4747 105.717 84.3274 105.717 85.1962V91.3734Z" fill="#159822"/>
<path d="M41.6256 91.0903C40.9424 90.4073 40.0346 90.0312 39.0688 90.0312C38.103 90.0312 37.195 90.4075 36.5122 91.0903C35.8293 91.7731 35.4531 92.6811 35.4531 93.6469C35.4531 94.6127 35.8293 95.5207 36.5122 96.2035C37.195 96.8864 38.103 97.2626 39.0689 97.2626C40.0347 97.2626 40.9427 96.8865 41.6256 96.2035C43.0353 94.7938 43.0353 92.5001 41.6256 91.0903ZM39.9412 94.5193C39.7082 94.7523 39.3983 94.8807 39.0688 94.8807C38.7391 94.8807 38.4294 94.7523 38.1964 94.5192C37.9634 94.2862 37.8349 93.9764 37.8349 93.6468C37.8349 93.3171 37.9632 93.0074 38.1964 92.7744C38.4294 92.5414 38.7391 92.4129 39.0688 92.4129C39.3983 92.4129 39.7082 92.5412 39.9412 92.7744C40.4222 93.2555 40.4222 94.0383 39.9412 94.5193Z" fill="#159822"/>
<path d="M96.3777 91.0905C95.6949 90.4075 94.7869 90.0312 93.821 90.0312C92.8552 90.0312 91.9473 90.4073 91.2642 91.0903C89.8546 92.5001 89.8546 94.7938 91.2642 96.2035C91.9472 96.8865 92.8552 97.2626 93.821 97.2626C94.7869 97.2626 95.6948 96.8865 96.3776 96.2037C97.0606 95.5209 97.4366 94.6129 97.4366 93.6471C97.4366 92.6813 97.0606 91.7733 96.3777 91.0905ZM94.6934 94.5195C94.4604 94.7525 94.1506 94.8808 93.821 94.8808C93.4915 94.8808 93.1816 94.7525 92.9486 94.5195C92.4676 94.0385 92.4676 93.2557 92.9486 92.7747C93.1816 92.5417 93.4915 92.4132 93.821 92.4132C94.1506 92.4132 94.4604 92.5415 94.6935 92.7747C94.9265 93.0077 95.0549 93.3174 95.0549 93.6471C95.0549 93.9764 94.9267 94.2863 94.6934 94.5195Z" fill="#159822"/>
</g>
<defs>
<clipPath id="clip0_8589_22034">
<rect width="135" height="135" fill="white" transform="translate(0.5)"/>
</clipPath>
</defs>
</svg>
