<svg width="24" height="24" viewBox="0 0 24 24" fill="none" xmlns="http://www.w3.org/2000/svg">
<rect width="24" height="24" fill="white"/>
<path d="M13.1682 3.09961C13.3033 3.24232 13.4054 3.4109 13.4679 3.59426C13.5304 3.77763 13.5518 3.97163 13.5308 4.16353C13.5308 5.76389 13.5308 7.35531 13.5308 8.95567C13.5308 9.90336 13.3449 10.0732 12.3873 10.0822C11.4297 10.0911 10.528 10.0822 9.59829 10.0822C9.17994 10.0822 8.87315 10.1626 8.79877 10.6365C8.70581 11.2444 8.18519 11.0925 7.78543 11.1014C7.38568 11.1103 6.97662 11.164 6.93014 10.6454C6.88366 10.1269 6.57686 10.0464 6.10273 10.0911C5.17307 10.0911 4.15043 10.0911 3.18357 10.0911C2.59788 10.0911 2.25391 9.8676 2.25391 9.25964C2.25391 7.47154 2.25391 5.62084 2.25391 3.80591C2.29368 3.5627 2.36553 3.32535 2.46773 3.09961H13.1682ZM7.89699 9.35799C9.2729 9.35799 10.686 9.35799 12.0247 9.35799C12.5825 9.35799 12.7871 9.15236 12.7778 8.62487C12.7778 7.27484 12.7778 5.9427 12.7778 4.5748C12.7778 4.01155 12.5918 3.77909 11.9782 3.78803C9.2698 3.78803 6.53968 3.78803 3.78786 3.78803C3.19287 3.78803 2.96045 3.99366 2.96975 4.56586C2.96975 5.88906 2.96975 7.21226 2.96975 8.53546C2.96975 9.13448 3.17428 9.37587 3.81575 9.35799C5.20096 9.33117 6.57687 9.35799 7.89699 9.35799Z" stroke="#D5692B" stroke-width="0.5" stroke-miterlimit="10" stroke-linecap="round"/>
<path d="M7.8441 9.15215H4.12543C3.60481 9.15215 3.30732 8.99122 3.31662 8.45478C3.31662 7.23887 3.31662 6.02295 3.31662 4.81598C3.31662 4.27955 3.58622 4.0918 4.12543 4.0918H11.5628C12.1113 4.0918 12.3344 4.31531 12.3251 4.8428C12.3251 6.02295 12.3251 7.21205 12.3251 8.41902C12.3251 9.0091 12.0555 9.18791 11.4884 9.18791C10.2984 9.0985 9.07127 9.15215 7.8441 9.15215Z" stroke="#D5692B" stroke-width="0.5" stroke-miterlimit="10" stroke-linecap="round"/>
<path d="M14.7234 11.8351H21.5936C21.7841 11.8279 21.9742 11.8569 22.153 11.9204C22.3319 11.9839 22.4959 12.0808 22.6358 12.2053C22.7757 12.3299 22.8886 12.4797 22.9683 12.6463C23.0479 12.8129 23.0925 12.9929 23.0997 13.1761C23.0997 14.0165 23.0997 14.8659 23.0997 15.7063C23.0978 15.8971 23.0467 16.0845 22.951 16.2517C22.8158 16.5069 22.605 16.7179 22.3452 16.8579C22.0854 16.998 21.7883 17.0608 21.4914 17.0385H7.90893C7.73474 17.0556 7.55875 17.0361 7.39316 16.9814C7.22757 16.9267 7.07632 16.838 6.94988 16.7215C6.82344 16.605 6.72483 16.4635 6.66088 16.3067C6.59693 16.1499 6.56916 15.9817 6.5795 15.8136V14.7497C6.5795 14.6066 6.52372 14.5709 6.38427 14.5887C6.04995 14.6166 5.73179 14.7394 5.47024 14.9416C5.20868 15.1438 5.01555 15.4162 4.91539 15.7242C4.82716 16.1311 4.82716 16.5511 4.91539 16.958C4.96369 17.3134 5.13809 17.6418 5.40911 17.8878C5.68014 18.1338 6.03117 18.2822 6.40286 18.308C7.4162 18.308 8.42954 18.308 9.44288 18.308C9.83086 18.2915 10.2196 18.3064 10.605 18.3527C10.9052 18.4119 11.1773 18.5634 11.3802 18.7844C11.5832 19.0053 11.7059 19.2837 11.7299 19.5776C11.7678 19.891 11.6872 20.207 11.5029 20.468C11.3186 20.729 11.0427 20.9175 10.7258 20.9991C10.0471 21.1095 9.35589 21.1306 8.67126 21.0617V21.0617C8.59473 21.0573 8.52271 21.0254 8.46937 20.9725C8.41604 20.9195 8.38524 20.8493 8.38306 20.7756C8.38015 20.704 8.40528 20.634 8.45348 20.5793C8.50168 20.5247 8.56944 20.4895 8.64337 20.4806H8.90367H10.2982C10.5041 20.4723 10.6981 20.3857 10.8376 20.2398C10.977 20.0939 11.0505 19.9007 11.0419 19.7027C11.0333 19.5047 10.9432 19.3182 10.7915 19.184C10.6399 19.0499 10.439 18.9792 10.2331 18.9875C8.99664 18.9875 7.75088 18.9875 6.51442 18.9875C5.99366 18.9851 5.48881 18.8146 5.08084 18.5034C4.67288 18.1921 4.38544 17.7581 4.26463 17.2709C4.20437 16.8984 4.18567 16.5207 4.20885 16.1444C4.20658 15.7926 4.30292 15.4467 4.48775 15.1431C4.67842 14.8035 4.95796 14.5176 5.29874 14.3138C5.63951 14.1099 6.02971 13.9951 6.43075 13.9808C6.56091 13.9808 6.61669 13.9808 6.60739 13.8109C6.5981 13.641 6.60739 13.3728 6.60739 13.1583C6.59227 12.9925 6.6146 12.8256 6.67286 12.669C6.73112 12.5123 6.82393 12.3697 6.94492 12.2508C7.06591 12.1319 7.21222 12.0395 7.3738 11.9801C7.53539 11.9207 7.70842 11.8956 7.88104 11.9066C10.168 11.9066 12.4457 11.9066 14.7234 11.9066V11.8351ZM7.85315 12.4877C7.45339 12.4877 7.26746 12.6933 7.27675 13.0778C7.27675 13.9182 7.27675 14.7497 7.27675 15.5901C7.27675 15.6884 7.27675 15.7778 7.27675 15.8762C7.26903 15.9489 7.27855 16.0223 7.3046 16.0909C7.33065 16.1595 7.37255 16.2215 7.42715 16.2723C7.48175 16.3231 7.54762 16.3613 7.6198 16.3841C7.69198 16.4068 7.76859 16.4135 7.84385 16.4037H21.5379C21.6643 16.4218 21.7934 16.4111 21.9148 16.3726C22.0361 16.3341 22.1465 16.2687 22.2368 16.1818C22.3272 16.0949 22.3952 15.9888 22.4352 15.8721C22.4753 15.7553 22.4864 15.6312 22.4675 15.5096V13.3639C22.4864 13.2423 22.4753 13.1182 22.4352 13.0014C22.3952 12.8847 22.3272 12.7786 22.2368 12.6917C22.1465 12.6048 22.0361 12.5394 21.9148 12.5009C21.7934 12.4624 21.6643 12.4517 21.5379 12.4698H7.85315V12.4877Z" stroke="#D5692B" stroke-width="0.5" stroke-miterlimit="10" stroke-linecap="round"/>
<path d="M7.82477 14.5176V13.4804C7.82477 13.2033 7.94562 13.0871 8.21523 13.0781H9.14489C9.4238 13.0781 9.57254 13.1944 9.57254 13.4626C9.57254 14.142 9.57254 14.8305 9.57254 15.51C9.57254 15.7513 9.45169 15.8676 9.19138 15.8765C8.84145 15.8944 8.49078 15.8944 8.14085 15.8765C7.90844 15.8765 7.79688 15.7424 7.79688 15.51C7.79688 15.2775 7.79688 14.8305 7.79688 14.4818L7.82477 14.5176ZM8.69865 14.2046C8.93107 14.2046 8.92177 14.2046 8.93107 13.9811C8.94037 13.7576 8.93107 13.7487 8.70795 13.7576C8.48483 13.7665 8.47553 13.7576 8.47553 14.0169C8.47553 14.2762 8.52202 14.1778 8.69865 14.1689V14.2046ZM8.43835 15.0093C8.43835 15.2328 8.43835 15.2417 8.67076 15.2417C8.90318 15.2417 8.89388 15.2417 8.91248 15.0093C8.93107 14.7768 8.8567 14.7589 8.68006 14.8036C8.50342 14.8484 8.43835 14.8305 8.43835 15.0093Z" stroke="#D5692B" stroke-width="0.5" stroke-miterlimit="10" stroke-linecap="round"/>
<path d="M18.6618 14.5172C18.6575 14.6946 18.6153 14.8693 18.5379 15.0305C18.4604 15.1916 18.3494 15.3357 18.2117 15.4539C18.074 15.5721 17.9125 15.6618 17.7373 15.7175C17.562 15.7732 17.3768 15.7937 17.1929 15.7778C16.8481 15.7392 16.5315 15.5758 16.3074 15.3209C16.0833 15.066 15.9684 14.7386 15.9862 14.4051C16.0039 14.0717 16.1529 13.7573 16.403 13.5257C16.653 13.2942 16.9853 13.1627 17.3324 13.1582C17.5131 13.1616 17.6912 13.1997 17.8564 13.2702C18.0216 13.3407 18.1704 13.4423 18.2942 13.5688C18.4181 13.6954 18.5144 13.8445 18.5775 14.0074C18.6406 14.1702 18.6693 14.3435 18.6618 14.5172ZM17.2766 13.793C17.0892 13.793 16.9095 13.8646 16.777 13.992C16.6445 14.1194 16.5701 14.2923 16.5701 14.4725C16.5701 14.6527 16.6445 14.8255 16.777 14.9529C16.9095 15.0804 17.0892 15.1519 17.2766 15.1519C17.464 15.1519 17.6437 15.0804 17.7762 14.9529C17.9087 14.8255 17.9832 14.6527 17.9832 14.4725C17.9832 14.2923 17.9087 14.1194 17.7762 13.992C17.6437 13.8646 17.464 13.793 17.2766 13.793V13.793Z" stroke="#D5692B" stroke-width="0.5" stroke-miterlimit="10" stroke-linecap="round"/>
<path d="M10.0359 14.5163C10.0203 14.3352 10.044 14.153 10.1054 13.9811C10.1667 13.8092 10.2645 13.6515 10.3925 13.5178C10.5205 13.3841 10.6759 13.2774 10.849 13.2044C11.022 13.1314 11.2089 13.0938 11.3979 13.0938C11.5868 13.0938 11.7737 13.1314 11.9468 13.2044C12.1198 13.2774 12.2752 13.3841 12.4032 13.5178C12.5312 13.6515 12.629 13.8092 12.6904 13.9811C12.7517 14.153 12.7754 14.3352 12.7598 14.5163C12.7316 14.845 12.5758 15.1515 12.3235 15.3749C12.0712 15.5983 11.7408 15.7223 11.3979 15.7223C11.0549 15.7223 10.7245 15.5983 10.4722 15.3749C10.2199 15.1515 10.0642 14.845 10.0359 14.5163V14.5163ZM11.3746 13.81C11.1872 13.81 11.0075 13.8816 10.875 14.009C10.7425 14.1365 10.6681 14.3093 10.6681 14.4895C10.6681 14.6697 10.7425 14.8425 10.875 14.97C11.0075 15.0974 11.1872 15.169 11.3746 15.169C11.562 15.169 11.7417 15.0974 11.8742 14.97C12.0067 14.8425 12.0812 14.6697 12.0812 14.4895C12.0812 14.3093 12.0067 14.1365 11.8742 14.009C11.7417 13.8816 11.562 13.81 11.3746 13.81V13.81Z" stroke="#D5692B" stroke-width="0.5" stroke-miterlimit="10" stroke-linecap="round"/>
<path d="M15.7268 14.4001C15.7434 14.6618 15.6783 14.9222 15.5398 15.1479C15.4014 15.3737 15.1959 15.5545 14.9498 15.6671C14.7037 15.7797 14.4282 15.8189 14.1587 15.7798C13.8892 15.7407 13.638 15.6249 13.4374 15.4475C13.2369 15.27 13.096 15.0389 13.0331 14.7839C12.9701 14.5289 12.9879 14.2616 13.0841 14.0164C13.1803 13.7711 13.3505 13.5592 13.5729 13.4077C13.7954 13.2562 14.0598 13.1722 14.3323 13.1663C14.6855 13.1588 15.028 13.283 15.288 13.5131C15.548 13.7431 15.7052 14.061 15.7268 14.4001V14.4001ZM13.6629 14.4895C13.6629 14.6658 13.7351 14.8351 13.8638 14.9606C13.9926 15.0861 14.1676 15.1577 14.3509 15.1601C14.5363 15.1582 14.714 15.0889 14.8485 14.9662C14.983 14.8435 15.0643 14.6764 15.076 14.4985C15.0772 14.4081 15.0599 14.3183 15.0251 14.2343C14.9902 14.1504 14.9385 14.0738 14.8729 14.0091C14.8073 13.9443 14.7291 13.8926 14.6427 13.8569C14.5563 13.8213 14.4635 13.8023 14.3695 13.8011C14.2735 13.801 14.1784 13.8197 14.0902 13.856C14.002 13.8924 13.9224 13.9457 13.8562 14.0126C13.7901 14.0795 13.7389 14.1587 13.7056 14.2453C13.6724 14.332 13.6579 14.4242 13.6629 14.5164V14.4895Z" stroke="#D5692B" stroke-width="0.5" stroke-miterlimit="10" stroke-linecap="round"/>
<path d="M20.3109 13.1666C20.4993 13.1516 20.6888 13.1743 20.8675 13.2334C21.0462 13.2924 21.2102 13.3864 21.3492 13.5095C21.4882 13.6326 21.5992 13.7821 21.6751 13.9485C21.751 14.1149 21.7902 14.2947 21.7902 14.4764C21.7902 14.6581 21.751 14.8378 21.6751 15.0043C21.5992 15.1707 21.4882 15.3201 21.3492 15.4432C21.2102 15.5663 21.0462 15.6603 20.8675 15.7194C20.6888 15.7784 20.4993 15.8011 20.3109 15.7862C20.1351 15.7885 19.9606 15.7576 19.7972 15.695C19.6338 15.6325 19.4849 15.5397 19.3588 15.4218C19.2328 15.3039 19.1321 15.1633 19.0626 15.0079C18.9931 14.8526 18.9561 14.6857 18.9536 14.5166C18.9487 14.3418 18.9801 14.1678 19.0459 14.0047C19.1118 13.8417 19.2109 13.693 19.3373 13.5673C19.4637 13.4415 19.6149 13.3413 19.7821 13.2725C19.9493 13.2037 20.1291 13.1677 20.3109 13.1666ZM19.5951 14.5166C19.5969 14.6506 19.6399 14.7811 19.7187 14.8916C19.7974 15.0022 19.9084 15.0879 20.0376 15.138C20.1669 15.188 20.3087 15.2002 20.4451 15.173C20.5815 15.1458 20.7066 15.0804 20.8045 14.985C20.9023 14.8896 20.9687 14.7685 20.9952 14.637C21.0217 14.5054 21.0072 14.3693 20.9535 14.2456C20.8997 14.122 20.8092 14.0164 20.6932 13.9421C20.5772 13.8678 20.441 13.8282 20.3017 13.8282C20.2077 13.8269 20.1145 13.844 20.0276 13.8782C19.9407 13.9125 19.8619 13.9633 19.7959 14.0276C19.7299 14.0919 19.6781 14.1684 19.6436 14.2524C19.6091 14.3364 19.5926 14.4263 19.5951 14.5166V14.5166Z" stroke="#D5692B" stroke-width="0.5" stroke-miterlimit="10" stroke-linecap="round"/>
</svg>
