<svg width="136" height="135" viewBox="0 0 136 135" fill="none" xmlns="http://www.w3.org/2000/svg">
<g clip-path="url(#clip0_8598_19423)">
<path d="M68 125.5C100.033 125.5 126 99.5325 126 67.5C126 35.4675 100.033 9.5 68 9.5C35.9675 9.5 10 35.4675 10 67.5C10 99.5325 35.9675 125.5 68 125.5Z" stroke="#D1D1D1"/>
<path d="M133 67.5C133 103.399 103.899 132.5 68 132.5C32.1015 132.5 3 103.399 3 67.5C3 31.6015 32.1015 2.5 68 2.5C103.899 2.5 133 31.6015 133 67.5ZM68 134.5C105.003 134.5 135 104.503 135 67.5C135 30.4969 105.003 0.5 68 0.5C30.9969 0.5 1 30.4969 1 67.5C1 104.503 30.9969 134.5 68 134.5Z" fill="#159822" stroke="#159822"/>
<path d="M104.015 42.8434C94.734 32.8836 81.6078 27.1719 68.0012 27.1719C54.3946 27.1719 41.2672 32.8836 31.9871 42.8434C31.7844 43.0602 31.6719 43.3461 31.6719 43.6426L31.6731 98.6562C31.6731 99.3031 32.1981 99.8281 32.8449 99.8281H44.5637H58.6262H72.6887H103.157C103.804 99.8281 104.329 99.3031 104.329 98.6562L104.33 43.6426C104.33 43.3461 104.218 43.0602 104.015 42.8434ZM100.348 42.4707H35.6528C44.3317 34.2066 55.9684 29.5156 68.0012 29.5156C80.034 29.5156 91.6707 34.2066 100.348 42.4707ZM43.3918 54.125V50.6094C43.3918 49.9637 43.918 49.4375 44.5637 49.4375H91.4387C92.0844 49.4375 92.6106 49.9637 92.6106 50.6094V54.125H43.3918ZM90.2668 56.4688V58.8125H45.7356V56.4688H90.2668ZM72.6887 83.4219H59.7981V70.5312C59.7981 69.8844 59.2731 69.3594 58.6262 69.3594H45.7356V65.8438H90.2668V97.4844H73.8606V84.5938C73.8606 83.9469 73.3356 83.4219 72.6887 83.4219ZM64.4856 85.7656H66.8293V88.1094H64.4856V85.7656ZM50.4231 85.7656H52.7668V88.1094H50.4231V85.7656ZM45.7356 83.4219V71.7031H48.0793V75.2188C48.0793 75.8656 48.6043 76.3906 49.2512 76.3906H53.9387C54.5856 76.3906 55.1106 75.8656 55.1106 75.2188V71.7031H57.4543V83.4219H45.7356ZM90.2668 63.5H45.7356V61.1562H90.2668V63.5ZM50.4231 71.7031H52.7668V74.0469H50.4231V71.7031ZM45.7356 85.7656H48.0793V89.2812C48.0793 89.9281 48.6043 90.4531 49.2512 90.4531H53.9387C54.5856 90.4531 55.1106 89.9281 55.1106 89.2812V85.7656H57.4543V97.4844H45.7356V85.7656ZM59.7981 97.4844V85.7656H62.1418V89.2812C62.1418 89.9281 62.6668 90.4531 63.3137 90.4531H68.0012C68.6481 90.4531 69.1731 89.9281 69.1731 89.2812V85.7656H71.5168V97.4844H59.7981ZM92.6106 97.4844V59.9844V56.4688H93.7824C94.4293 56.4688 94.9543 55.9438 94.9543 55.2969V50.6094C94.9543 48.6711 93.377 47.0938 91.4387 47.0938H44.5637C42.6254 47.0938 41.0481 48.6711 41.0481 50.6094V55.2969C41.0481 55.9438 41.5731 56.4688 42.2199 56.4688H43.3918V59.9844V70.5312V84.5938V97.4844H34.0168L34.0156 44.8133H101.987V65.8426H96.1262C95.4793 65.8426 94.9543 66.3676 94.9543 67.0145V78.7332C94.9543 79.3801 95.4793 79.9051 96.1262 79.9051H101.986V97.4832H92.6106V97.4844ZM101.986 74.0469V77.5625H97.2981V68.1875H101.987V71.7031H99.643V74.0469H101.986Z" fill="#159822"/>
<path d="M56.2812 37.7188H79.7187V40.0625H56.2812V37.7188Z" fill="#159822"/>
<path d="M56.2812 33.0312H79.7187V35.375H56.2812V33.0312Z" fill="#159822"/>
<path d="M48.0781 92.7969H55.1094V95.1406H48.0781V92.7969Z" fill="#159822"/>
<path d="M48.0781 78.7344H55.1094V81.0781H48.0781V78.7344Z" fill="#159822"/>
<path d="M62.1406 92.7969H69.1719V95.1406H62.1406V92.7969Z" fill="#159822"/>
<path d="M37.5312 67.0156H39.875V69.3594H37.5312V67.0156Z" fill="#159822"/>
<path d="M37.5312 71.7031H39.875V74.0469H37.5312V71.7031Z" fill="#159822"/>
<path d="M37.5312 76.3906H39.875V78.7344H37.5312V76.3906Z" fill="#159822"/>
</g>
<defs>
<clipPath id="clip0_8598_19423">
<rect width="135" height="135" fill="white" transform="translate(0.5)"/>
</clipPath>
</defs>
</svg>
