<svg width="25" height="24" viewBox="0 0 25 24" fill="none" xmlns="http://www.w3.org/2000/svg">
<path d="M13.5106 3.73438C13.6526 3.88771 13.7599 4.06972 13.8255 4.26811C13.8911 4.46651 13.9133 4.67666 13.8906 4.88438C13.8906 6.61438 13.8906 8.34438 13.8906 10.0844C13.8906 11.0844 13.7006 11.2844 12.6906 11.3044H9.81063C9.38063 11.3044 9.06062 11.4044 8.98062 11.9044C8.88062 12.5744 8.34062 12.4044 7.92062 12.4144C7.50062 12.4244 7.08063 12.4844 7.03063 11.9244C6.98063 11.3644 6.59062 11.3044 6.14062 11.3044H3.14062C2.53062 11.3044 2.14062 11.0644 2.14062 10.4144C2.14062 8.41438 2.14062 6.46438 2.14062 4.49437C2.1813 4.23271 2.25523 3.97731 2.36062 3.73438H13.5106ZM8.00062 10.5144C9.44062 10.5144 10.8706 10.5144 12.3106 10.5144C12.8806 10.5144 13.1006 10.2944 13.0906 9.72437C13.0906 8.25437 13.0906 6.79438 13.0906 5.32438C13.0906 4.72438 12.8906 4.47438 12.2606 4.47438C9.42062 4.47438 6.59062 4.47438 3.75062 4.47438C3.13062 4.47438 2.89062 4.69437 2.90062 5.31437C2.90062 6.75437 2.90062 8.18438 2.90062 9.61438C2.90062 10.2644 3.11062 10.5344 3.78062 10.5144C5.21062 10.4944 6.61062 10.5144 8.00062 10.5144Z" stroke="#D5692B" stroke-width="0.5" stroke-miterlimit="10" stroke-linecap="round"/>
<path d="M15.7105 21.545H9.34047C8.24047 21.545 7.99047 21.335 7.98047 20.265C8.00047 18.815 8.00047 17.335 8.00047 15.875C8.00047 15.015 8.38047 14.625 9.25047 14.625H22.2505C23.2505 14.625 23.4505 14.875 23.4605 15.865C23.4605 17.365 23.4605 18.865 23.4605 20.355C23.4605 21.185 23.1205 21.555 22.2805 21.545C20.0805 21.535 17.8905 21.545 15.7105 21.545ZM13.4305 20.335C14.0505 20.335 14.6705 20.335 15.3005 20.335C15.5005 20.335 15.7405 20.335 15.7405 20.015C15.7405 19.695 15.5405 19.725 15.3605 19.725C14.0805 19.725 12.8105 19.725 11.5305 19.725C11.3505 19.725 11.1505 19.785 11.1305 20.005C11.1105 20.225 11.3405 20.335 11.5605 20.335C12.1805 20.345 12.8005 20.335 13.4305 20.335V20.335Z" stroke="#D5692B" stroke-width="0.5" stroke-miterlimit="10" stroke-linecap="round"/>
<path d="M7.93847 13.454H5.34847C5.07847 13.454 4.75847 13.454 4.72847 13.084C4.69847 12.714 5.02847 12.584 5.33847 12.584H10.6085C10.8985 12.584 11.2685 12.634 11.2685 13.034C11.2685 13.434 10.8485 13.454 10.5285 13.464L7.93847 13.454Z" stroke="#D5692B" stroke-width="0.5" stroke-miterlimit="10" stroke-linecap="round"/>
<path d="M16.0793 13.6737C16.0793 13.9237 16.1693 14.2837 15.8093 14.3437C15.4493 14.4037 15.4793 14.0337 15.4293 13.7837C15.2593 13.0137 15.0093 12.9337 14.3393 13.4337C14.2003 13.5739 14.03 13.6792 13.8425 13.7409C13.6549 13.8026 13.4554 13.819 13.2603 13.7888C13.0652 13.7586 12.88 13.6825 12.7199 13.5669C12.5598 13.4513 12.4294 13.2994 12.3393 13.1237C12.2493 12.9737 12.1293 12.8137 12.2893 12.6437C12.4493 12.4737 12.6893 12.5337 12.8193 12.7037C13.2693 13.2737 13.6793 13.1637 14.1693 12.7037C14.3499 12.5412 14.5748 12.4364 14.8153 12.4025C15.0558 12.3687 15.301 12.4074 15.5193 12.5137C15.7169 12.6301 15.8755 12.8024 15.9752 13.0088C16.0748 13.2153 16.1111 13.4466 16.0793 13.6737V13.6737Z" stroke="#D5692B" stroke-width="0.5" stroke-miterlimit="10" stroke-linecap="round"/>
<path d="M8 10.244H4.1C3.56 10.244 3.25 10.074 3.25 9.48401C3.25 8.17401 3.25 6.85401 3.25 5.54401C3.25 4.96401 3.53 4.75401 4.08 4.76401H11.88C12.45 4.76401 12.68 5.00401 12.67 5.57401C12.67 6.85401 12.67 8.13401 12.67 9.42401C12.67 10.064 12.38 10.254 11.8 10.254C10.52 10.234 9.24 10.244 8 10.244Z" stroke="#D5692B" stroke-width="0.5" stroke-miterlimit="10" stroke-linecap="round"/>
</svg>
