<svg width="24" height="24" viewBox="0 0 24 24" fill="none" xmlns="http://www.w3.org/2000/svg">
<g clip-path="url(#clip0_2800_18539)">
<rect width="24" height="24" fill="white"/>
<path d="M12.9086 22.0687H3.9986C3.75981 22.0791 3.52077 22.0555 3.2886 21.9987C2.90491 21.9074 2.56271 21.6906 2.31633 21.3826C2.06994 21.0746 1.93348 20.6931 1.9286 20.2987C1.89359 19.9864 1.89359 19.6711 1.9286 19.3588C1.97905 18.9035 2.20208 18.4849 2.5518 18.1892C2.90151 17.8934 3.35131 17.7429 3.8086 17.7688H14.5086C15.0386 17.7688 14.9886 17.8388 14.9886 17.2788V15.2787C14.9886 14.7387 15.1186 14.6287 15.6386 14.6287H16.8286C17.0486 14.6287 17.1286 14.5787 17.1286 14.3387C17.1286 13.5587 17.1286 12.7787 17.1286 11.9887C17.1286 11.5887 17.2486 11.4688 17.6386 11.4688H20.5886C20.9486 11.4688 21.0786 11.5987 21.0786 11.9688C21.0786 12.7687 21.0786 13.5687 21.0786 14.3587C21.0786 14.5787 21.1486 14.6487 21.3486 14.6287H21.6286C21.9886 14.6287 22.1286 14.7887 22.1286 15.1487C22.1286 15.9587 22.1286 16.7587 22.1286 17.5687C22.1286 17.7487 22.1886 17.8187 22.3586 17.8488C22.7795 17.9017 23.1671 18.1049 23.45 18.421C23.733 18.737 23.8923 19.1446 23.8986 19.5687C23.9658 20.0513 23.9108 20.543 23.7386 20.9987C23.583 21.3539 23.3197 21.6512 22.9859 21.8485C22.6521 22.0459 22.2648 22.1335 21.8786 22.0988H12.8786L12.9086 22.0687ZM12.9086 21.2788H22.2186C22.4275 21.259 22.6249 21.174 22.7829 21.0358C22.9408 20.8976 23.0513 20.7132 23.0986 20.5087C23.1835 20.1234 23.1835 19.7241 23.0986 19.3387C23.0589 19.1554 22.9685 18.9869 22.8377 18.8525C22.7068 18.7182 22.5408 18.6233 22.3586 18.5787C22.2126 18.5365 22.0604 18.5196 21.9086 18.5288H3.7586C3.50668 18.5279 3.26373 18.6222 3.07834 18.7928C2.89294 18.9634 2.77875 19.1976 2.7586 19.4488C2.6937 19.7991 2.6937 20.1584 2.7586 20.5087C2.78797 20.6384 2.84289 20.7609 2.92016 20.8691C2.99742 20.9772 3.09548 21.0689 3.2086 21.1387C3.42523 21.2579 3.67231 21.3101 3.9186 21.2888L12.9086 21.2788ZM19.1086 14.5687H20.1086C20.2586 14.5687 20.3286 14.5187 20.3186 14.3587C20.3186 13.6987 20.3186 13.0387 20.3186 12.3587C20.3186 12.1987 20.2486 12.1487 20.0986 12.1487H18.0986C17.9486 12.1487 17.8886 12.1987 17.8886 12.3587V14.3587C17.8886 14.5287 17.9486 14.5787 18.0986 14.5687H19.1086ZM16.9986 17.7587C17.3386 17.7587 17.6686 17.7587 17.9986 17.7587C18.1486 17.7587 18.2086 17.7087 18.2086 17.5587C18.2086 16.8887 18.2086 16.2188 18.2086 15.5588C18.2086 15.4188 18.1486 15.3587 18.0086 15.3587H15.9986C15.8386 15.3587 15.7786 15.4287 15.7786 15.5787C15.7786 16.2387 15.7786 16.8987 15.7786 17.5787C15.7786 17.7387 15.8486 17.7888 15.9986 17.7788C16.3186 17.7488 16.6386 17.7587 16.9986 17.7587ZM21.3886 16.5687V15.5687C21.3886 15.4287 21.3886 15.3587 21.1986 15.3587H19.1986C19.0586 15.3587 18.9986 15.4188 18.9986 15.5588V17.5587C18.9986 17.6887 19.0486 17.7487 19.1886 17.7487H21.1886C21.3186 17.7487 21.3786 17.6987 21.3686 17.5587L21.3886 16.5687Z" fill="#D5692B"/>
<path d="M9.39188 1.50977H10.3919C10.7219 1.50977 10.8419 1.63977 10.8519 1.96977C10.8519 2.50977 10.8519 3.04977 10.8519 3.58977C10.8462 3.62659 10.848 3.66416 10.8571 3.7003C10.8661 3.73643 10.8823 3.77039 10.9046 3.80019C10.927 3.82999 10.9551 3.85503 10.9872 3.87385C11.0194 3.89266 11.0549 3.90487 11.0919 3.90977C11.363 3.98693 11.6247 4.09427 11.8719 4.22977C11.8914 4.24972 11.9148 4.26558 11.9405 4.2764C11.9663 4.28722 11.9939 4.2928 12.0219 4.2928C12.0498 4.2928 12.0775 4.28722 12.1032 4.2764C12.129 4.26558 12.1523 4.24972 12.1719 4.22977L13.2919 3.09977C13.5919 2.80977 13.7619 2.80977 14.0519 3.09977L15.3519 4.40977C15.6219 4.67977 15.6219 4.85977 15.3519 5.12977C15.0819 5.39977 14.6319 5.86977 14.2619 6.21977C14.2278 6.24362 14.1989 6.27407 14.1769 6.30932C14.1549 6.34457 14.1402 6.38388 14.1336 6.42493C14.1271 6.46598 14.1289 6.50792 14.1389 6.54827C14.1489 6.58861 14.1669 6.62653 14.1919 6.65977C14.317 6.87676 14.4144 7.10856 14.4819 7.34977C14.4853 7.38339 14.4958 7.41591 14.5127 7.44519C14.5296 7.47448 14.5525 7.49986 14.5799 7.51969C14.6072 7.53951 14.6385 7.55333 14.6716 7.56024C14.7047 7.56715 14.7389 7.56698 14.7719 7.55977H16.2819C16.7519 7.55977 16.8819 7.68977 16.8819 8.15977V9.89977C16.8819 10.2598 16.7419 10.3898 16.3819 10.3898H14.7519C14.5719 10.3898 14.4719 10.3898 14.4219 10.6198C14.3586 10.8877 14.2541 11.1441 14.1119 11.3798C14.0932 11.405 14.0799 11.4339 14.0727 11.4645C14.0656 11.4951 14.0648 11.5268 14.0704 11.5578C14.0761 11.5887 14.088 11.6181 14.1054 11.6443C14.1229 11.6704 14.1455 11.6927 14.1719 11.7098C14.5519 12.0798 14.9119 12.4498 15.2819 12.8198C15.6519 13.1898 15.5819 13.2898 15.2819 13.5798L14.0019 14.8698C13.7219 15.1498 13.5319 15.1398 13.2419 14.8698C12.9519 14.5998 12.5119 14.1498 12.1519 13.7698C12.1082 13.7131 12.0445 13.6753 11.9738 13.6642C11.9031 13.653 11.8309 13.6693 11.7719 13.7098C11.5307 13.8434 11.2713 13.9411 11.0019 13.9998C10.8219 13.9998 10.7719 14.1398 10.7719 14.3298C10.7719 14.8598 10.7719 15.3898 10.7719 15.9198C10.7719 16.2598 10.6319 16.3998 10.3019 16.3998H8.42188C8.08187 16.3998 7.95187 16.2498 7.95187 15.8998C7.95187 15.3798 7.95187 14.8498 7.95187 14.3298C7.95899 14.2915 7.95804 14.2521 7.94906 14.2142C7.94009 14.1762 7.9233 14.1406 7.89977 14.1095C7.87624 14.0785 7.84648 14.0527 7.81241 14.0338C7.77833 14.0149 7.74068 14.0033 7.70187 13.9998C7.45674 13.9299 7.22152 13.8291 7.00187 13.6998C6.94286 13.6593 6.8706 13.643 6.79994 13.6542C6.72927 13.6653 6.66556 13.7031 6.62187 13.7598L5.53188 14.8498C5.22188 15.1598 5.05187 15.1598 4.74187 14.8498L3.47188 13.5798C3.18188 13.2898 3.18188 13.1198 3.47188 12.8298C3.76188 12.5398 4.19187 12.0898 4.57188 11.7298C4.63133 11.6858 4.67101 11.6202 4.68225 11.5471C4.69349 11.4741 4.67538 11.3995 4.63188 11.3398C4.49552 11.1012 4.39129 10.8456 4.32188 10.5798C4.30765 10.5207 4.27239 10.4688 4.2227 10.4339C4.17301 10.3989 4.11228 10.3832 4.05188 10.3898H2.45188C2.06188 10.3898 1.93187 10.2498 1.92188 9.83977V8.04977C1.92188 7.65977 2.06188 7.50977 2.46188 7.50977C2.86188 7.50977 3.46188 7.50977 3.99188 7.50977C4.18188 7.50977 4.30187 7.50977 4.35187 7.24977C4.41039 7.00553 4.50834 6.77247 4.64187 6.55977C4.66242 6.53117 4.67693 6.49869 4.68455 6.46431C4.69216 6.42993 4.69271 6.39436 4.68616 6.35977C4.67962 6.32517 4.66611 6.29226 4.64647 6.26304C4.62682 6.23381 4.60144 6.20889 4.57188 6.18977L3.47188 5.08977C3.18188 4.79977 3.18188 4.62977 3.47188 4.33977L4.77187 2.99977C5.04187 2.73977 5.22187 2.73977 5.49187 2.99977C5.76187 3.25977 6.25187 3.74977 6.62187 4.13977C6.63791 4.17367 6.66138 4.20352 6.69052 4.22713C6.71967 4.25073 6.75375 4.26747 6.79024 4.27611C6.82673 4.28476 6.8647 4.28508 6.90134 4.27706C6.93797 4.26903 6.97233 4.25287 7.00187 4.22977C7.25912 4.07852 7.5347 3.9609 7.82188 3.87977C7.95188 3.87977 7.99187 3.75977 7.99187 3.62977C7.99187 3.07977 7.99187 2.53977 7.99187 1.98977C7.99187 1.63977 8.11188 1.50977 8.47188 1.50977H9.39188ZM15.0519 9.63977H15.8419C16.0119 9.63977 16.0819 9.58977 16.0719 9.41977C16.0619 9.24977 16.0719 8.81977 16.0719 8.52977C16.0719 8.23977 16.0019 8.27977 15.8219 8.28977H14.3619C14.0119 8.28977 13.8919 8.18977 13.8019 7.86977C13.6923 7.4183 13.5136 6.98652 13.2719 6.58977C13.1019 6.29977 13.1219 6.17977 13.3619 5.93977L14.4419 4.85977C14.5519 4.75977 14.5719 4.67977 14.4419 4.56977C14.3119 4.45977 13.9819 4.12977 13.7619 3.88977C13.5419 3.64977 13.5719 3.78977 13.4619 3.88977L12.3919 4.99977C12.3586 5.05153 12.3144 5.09536 12.2623 5.12815C12.2103 5.16094 12.1516 5.1819 12.0906 5.18953C12.0295 5.19716 11.9676 5.19128 11.909 5.17232C11.8505 5.15335 11.7968 5.12175 11.7519 5.07977C11.3514 4.84559 10.9207 4.66727 10.4719 4.54977C10.1319 4.45977 10.0519 4.33977 10.0519 3.98977C10.0519 3.63977 10.0519 2.98977 10.0519 2.50977C10.0519 2.33977 9.99187 2.27977 9.83187 2.28977C9.67188 2.29977 9.23187 2.28977 8.94187 2.28977C8.65187 2.28977 8.70187 2.34977 8.70187 2.52977C8.70187 3.02977 8.70187 3.52977 8.70187 4.02977C8.7133 4.08854 8.71233 4.14904 8.69902 4.20742C8.68571 4.26579 8.66036 4.32074 8.62459 4.36875C8.58882 4.41676 8.54341 4.45677 8.49129 4.48622C8.43916 4.51567 8.38146 4.5339 8.32187 4.53977C7.85852 4.65156 7.41388 4.83009 7.00187 5.06977C6.72187 5.22977 6.59187 5.20977 6.35187 4.96977C6.11188 4.72977 5.64187 4.26977 5.29187 3.90977C5.18187 3.78977 5.10187 3.76977 4.98187 3.90977C4.86188 4.04977 4.55188 4.35977 4.32188 4.56977C4.09188 4.77977 4.21188 4.75977 4.32188 4.86977C4.68854 5.21643 5.04854 5.57643 5.40188 5.94977C5.45302 5.98333 5.49641 6.02741 5.52916 6.07908C5.5619 6.13075 5.58325 6.18881 5.59177 6.24939C5.60029 6.30997 5.59578 6.37166 5.57856 6.43036C5.56133 6.48906 5.53178 6.5434 5.49187 6.58977C5.27309 6.98251 5.10827 7.40296 5.00187 7.83977C4.90188 8.20977 4.79187 8.28977 4.40188 8.28977H2.92188C2.74188 8.28977 2.67188 8.28977 2.68188 8.51977C2.69188 8.74977 2.68188 9.10977 2.68188 9.40977C2.68188 9.70977 2.75188 9.63977 2.92188 9.63977H4.43187C4.75187 9.63977 4.87187 9.71976 4.95187 10.0298C5.06659 10.4874 5.24857 10.9255 5.49187 11.3298C5.53549 11.3773 5.56811 11.4338 5.58745 11.4953C5.60679 11.5569 5.61236 11.6219 5.60377 11.6858C5.59519 11.7498 5.57265 11.811 5.53776 11.8653C5.50287 11.9195 5.45648 11.9654 5.40188 11.9998C5.05188 12.3498 4.71187 12.6998 4.35187 12.9998C4.19187 13.1498 4.20187 13.2398 4.35187 13.3798C4.58315 13.5705 4.80038 13.7778 5.00187 13.9998C5.11187 14.1098 5.18188 14.1098 5.30188 13.9998C5.64188 13.6398 6.00187 13.2798 6.36188 12.9298C6.72188 12.5798 6.74187 12.6498 7.06187 12.8398C7.44827 13.069 7.86599 13.2408 8.30188 13.3498C8.64188 13.4398 8.72188 13.5498 8.72188 13.9198C8.72188 14.2898 8.72188 14.9198 8.72188 15.3498C8.72188 15.5398 8.79188 15.6098 8.97188 15.5998C9.15188 15.5898 9.54187 15.5998 9.82187 15.5998C10.1019 15.5998 10.0819 15.5298 10.0719 15.3298C10.0719 14.8498 10.0719 14.3298 10.0719 13.8998C10.0719 13.4698 10.1619 13.4398 10.5019 13.3498C10.9288 13.2377 11.3391 13.0696 11.7219 12.8498C12.0719 12.6398 12.1819 12.6598 12.4719 12.9498L13.4719 13.9498C13.5819 14.0498 13.6519 14.0798 13.7619 13.9498C13.8719 13.8198 14.2019 13.4998 14.4319 13.2898C14.6619 13.0798 14.5519 13.0998 14.4319 12.9798L13.3319 11.9998C13.248 11.936 13.1912 11.843 13.1726 11.7393C13.1541 11.6355 13.1753 11.5286 13.2319 11.4398C13.5012 10.9917 13.7033 10.5065 13.8319 9.99977C13.8491 9.89962 13.9047 9.81014 13.9869 9.75037C14.069 9.6906 14.1713 9.66527 14.2719 9.67977L15.0519 9.63977Z" fill="#D5692B"/>
<path d="M5.85 20.9998C5.70698 21.0039 5.56461 20.9791 5.43131 20.9272C5.29801 20.8752 5.17649 20.797 5.07393 20.6973C4.97137 20.5975 4.88986 20.4782 4.83422 20.3464C4.77858 20.2146 4.74994 20.0729 4.75 19.9298C4.75768 19.6415 4.87635 19.3672 5.08127 19.1641C5.28619 18.961 5.56156 18.8449 5.85 18.8398C6.13147 18.8448 6.40033 18.9574 6.60124 19.1546C6.80214 19.3518 6.91981 19.6185 6.93 19.8998C6.93547 20.0441 6.91144 20.1879 6.85936 20.3225C6.80728 20.4571 6.72826 20.5797 6.62714 20.6827C6.52602 20.7857 6.40494 20.8669 6.2713 20.9215C6.13767 20.976 5.99431 21.0027 5.85 20.9998ZM6.16 19.9298C6.16002 19.8883 6.15168 19.8471 6.13548 19.8089C6.11928 19.7706 6.09555 19.7359 6.0657 19.707C6.03584 19.6781 6.00048 19.6555 5.96171 19.6405C5.92293 19.6255 5.88154 19.6185 5.84 19.6198C5.75778 19.6198 5.67893 19.6525 5.6208 19.7106C5.56266 19.7688 5.53 19.8476 5.53 19.9298C5.53 20.0121 5.56266 20.0909 5.6208 20.149C5.67893 20.2072 5.75778 20.2398 5.84 20.2398C5.92578 20.2372 6.00717 20.2013 6.06691 20.1397C6.12665 20.0781 6.16004 19.9957 6.16 19.9098V19.9298Z" fill="#D5692B"/>
<path d="M12.9083 20.9993C12.7657 21.002 12.6241 20.9759 12.4918 20.9226C12.3596 20.8693 12.2394 20.7899 12.1386 20.689C12.0378 20.5882 11.9583 20.4681 11.905 20.3358C11.8517 20.2035 11.8256 20.0619 11.8283 19.9193C11.8542 19.6495 11.9798 19.3991 12.1804 19.2168C12.381 19.0346 12.6423 18.9336 12.9133 18.9336C13.1843 18.9336 13.4457 19.0346 13.6463 19.2168C13.8469 19.3991 13.9724 19.6495 13.9983 19.9193C13.9997 20.0624 13.9723 20.2042 13.9179 20.3365C13.8635 20.4688 13.7831 20.5889 13.6815 20.6896C13.5799 20.7903 13.4591 20.8696 13.3263 20.9228C13.1935 20.976 13.0514 21.002 12.9083 20.9993ZM12.9083 20.2393C12.9499 20.2407 12.9912 20.2336 13.03 20.2186C13.0688 20.2037 13.1042 20.181 13.134 20.1521C13.1639 20.1232 13.1876 20.0886 13.2038 20.0503C13.22 20.012 13.2283 19.9709 13.2283 19.9293C13.2258 19.8505 13.1934 19.7757 13.1377 19.7199C13.0819 19.6642 13.0071 19.6318 12.9283 19.6293C12.845 19.6237 12.7628 19.6509 12.6993 19.7051C12.6358 19.7593 12.596 19.8362 12.5883 19.9193C12.5956 19.9998 12.6323 20.0749 12.6913 20.1302C12.7502 20.1855 12.8275 20.2172 12.9083 20.2193V20.2393Z" fill="#D5692B"/>
<path d="M20.0004 21.0003C19.8574 21.0058 19.7149 20.982 19.5815 20.9304C19.4481 20.8789 19.3267 20.8006 19.2246 20.7004C19.1225 20.6002 19.042 20.4802 18.988 20.3478C18.9339 20.2154 18.9075 20.0733 18.9104 19.9303C18.9077 19.7855 18.9339 19.6416 18.9875 19.507C19.0411 19.3725 19.121 19.2499 19.2225 19.1466C19.3239 19.0433 19.445 18.9612 19.5786 18.9052C19.7121 18.8491 19.8555 18.8203 20.0004 18.8203C20.2854 18.8278 20.5568 18.9437 20.7594 19.1443C20.9619 19.345 21.0803 19.6154 21.0904 19.9003C21.0944 20.045 21.0691 20.1891 21.0159 20.3237C20.9627 20.4584 20.8827 20.5808 20.7808 20.6836C20.6789 20.7865 20.5572 20.8676 20.4231 20.922C20.2889 20.9764 20.1451 21.0031 20.0004 21.0003ZM20.0004 20.2403C20.042 20.2391 20.0829 20.2294 20.1207 20.212C20.1585 20.1946 20.1924 20.1698 20.2204 20.139C20.2484 20.1082 20.2699 20.0721 20.2836 20.0328C20.2974 19.9935 20.3031 19.9518 20.3004 19.9103C20.3017 19.8701 20.2949 19.83 20.2805 19.7924C20.266 19.7549 20.2441 19.7206 20.2161 19.6917C20.1881 19.6628 20.1546 19.6398 20.1175 19.6241C20.0805 19.6084 20.0406 19.6003 20.0004 19.6003C19.9588 19.6003 19.9177 19.6086 19.8794 19.6248C19.8411 19.641 19.8065 19.6648 19.7775 19.6946C19.7486 19.7245 19.726 19.7598 19.711 19.7986C19.696 19.8374 19.689 19.8788 19.6904 19.9203C19.6953 20 19.7299 20.0749 19.7872 20.1304C19.8446 20.1859 19.9206 20.218 20.0004 20.2203V20.2403Z" fill="#D5692B"/>
<path d="M9.37121 21.0003C9.22861 21.0017 9.08719 20.9743 8.95542 20.9198C8.82365 20.8653 8.70424 20.7847 8.60434 20.6829C8.50444 20.5812 8.4261 20.4603 8.37401 20.3275C8.32193 20.1948 8.29716 20.0529 8.30121 19.9103C8.29989 19.7676 8.32685 19.6261 8.38053 19.4939C8.43421 19.3618 8.51356 19.2415 8.61397 19.1402C8.71439 19.0388 8.8339 18.9584 8.96559 18.9035C9.09727 18.8486 9.23853 18.8203 9.38121 18.8203C9.66869 18.8254 9.94296 18.9419 10.1463 19.1452C10.3496 19.3486 10.4661 19.6228 10.4712 19.9103C10.474 20.0551 10.4473 20.1989 10.3929 20.333C10.3385 20.4672 10.2574 20.5889 10.1545 20.6908C10.0517 20.7927 9.92926 20.8727 9.79461 20.9259C9.65997 20.9791 9.51592 21.0044 9.37121 21.0003ZM9.68121 19.9303C9.68419 19.8902 9.67848 19.8498 9.66446 19.8121C9.65044 19.7743 9.62845 19.74 9.59997 19.7116C9.57149 19.6831 9.53721 19.6611 9.49945 19.6471C9.4617 19.633 9.42137 19.6273 9.38121 19.6303C9.33934 19.6255 9.29693 19.6302 9.25714 19.6441C9.21735 19.658 9.1812 19.6807 9.1514 19.7105C9.1216 19.7403 9.09892 19.7765 9.08503 19.8162C9.07114 19.856 9.06642 19.8984 9.07121 19.9403C9.07121 20.0199 9.10281 20.0962 9.15908 20.1524C9.21534 20.2087 9.29164 20.2403 9.37121 20.2403C9.41454 20.2437 9.4581 20.2374 9.49865 20.2217C9.5392 20.206 9.57571 20.1815 9.60547 20.1498C9.63524 20.1181 9.6575 20.0801 9.67061 20.0387C9.68372 19.9972 9.68734 19.9534 9.68121 19.9103V19.9303Z" fill="#D5692B"/>
<path d="M17.5216 19.8998C17.5285 20.0444 17.5055 20.1889 17.454 20.3242C17.4024 20.4595 17.3234 20.5826 17.222 20.6859C17.1206 20.7892 16.9989 20.8704 16.8646 20.9245C16.7303 20.9785 16.5863 21.0041 16.4416 20.9998C16.2989 21.0012 16.1574 20.9742 16.0252 20.9205C15.893 20.8668 15.7728 20.7875 15.6714 20.6871C15.5701 20.5867 15.4896 20.4672 15.4347 20.3355C15.3798 20.2038 15.3516 20.0625 15.3516 19.9198C15.3619 19.6315 15.483 19.3583 15.6898 19.1571C15.8966 18.9559 16.1731 18.8422 16.4616 18.8398C16.7427 18.8398 17.0123 18.9515 17.2111 19.1503C17.4099 19.3491 17.5216 19.6187 17.5216 19.8998ZM16.7516 19.8998C16.7386 19.8284 16.7009 19.7638 16.6452 19.7173C16.5895 19.6708 16.5192 19.6453 16.4466 19.6453C16.374 19.6453 16.3037 19.6708 16.2479 19.7173C16.1922 19.7638 16.1545 19.8284 16.1416 19.8998C16.1334 19.9445 16.1352 19.9904 16.1468 20.0343C16.1584 20.0782 16.1795 20.1191 16.2086 20.1539C16.2377 20.1888 16.2741 20.2168 16.3152 20.2361C16.3563 20.2553 16.4012 20.2653 16.4466 20.2653C16.492 20.2653 16.5368 20.2553 16.5779 20.2361C16.6191 20.2168 16.6555 20.1888 16.6846 20.1539C16.7137 20.1191 16.7347 20.0782 16.7463 20.0343C16.7579 19.9904 16.7597 19.9445 16.7516 19.8998Z" fill="#D5692B"/>
<path d="M9.38843 12.8591C8.61257 12.861 7.85367 12.632 7.20832 12.2013C6.56297 11.7707 6.06033 11.1577 5.76438 10.4405C5.46843 9.72331 5.39254 8.93428 5.54638 8.17381C5.70021 7.41335 6.07681 6.71585 6.62825 6.17006C7.17969 5.62428 7.88104 5.25489 8.64305 5.1089C9.40506 4.96292 10.1933 5.04693 10.9074 5.35026C11.6215 5.65359 12.2292 6.16252 12.6532 6.81228C13.0772 7.46204 13.2984 8.22325 13.2884 8.99905C13.2779 10.0264 12.8624 11.0082 12.1321 11.7309C11.4018 12.4537 10.4159 12.8591 9.38843 12.8591ZM9.38843 5.85905C8.76698 5.85707 8.15891 6.03955 7.64123 6.38337C7.12354 6.72719 6.71952 7.2169 6.48033 7.79048C6.24114 8.36406 6.17753 8.99573 6.29755 9.60548C6.41758 10.2152 6.71584 10.7757 7.15458 11.2158C7.59331 11.6559 8.15279 11.956 8.76216 12.078C9.37153 12.1999 10.0034 12.1383 10.5777 11.901C11.1521 11.6636 11.6431 11.2612 11.9885 10.7446C12.334 10.228 12.5184 9.62051 12.5184 8.99905C12.5279 8.5814 12.4531 8.16613 12.2985 7.77802C12.1439 7.38991 11.9127 7.03693 11.6187 6.74013C11.3247 6.44333 10.9739 6.20881 10.5873 6.05056C10.2007 5.89231 9.78615 5.81357 9.36843 5.81905L9.38843 5.85905Z" fill="#D5692B"/>
<path d="M12.2191 8.99963C12.2092 9.56107 12.0338 10.1071 11.7147 10.5692C11.3956 11.0312 10.9471 11.3887 10.4255 11.5968C9.90398 11.8048 9.33258 11.8542 8.78307 11.7386C8.23356 11.6231 7.73042 11.3478 7.33683 10.9473C6.94324 10.5468 6.67672 10.0389 6.57075 9.4875C6.46477 8.93607 6.52406 8.36561 6.74116 7.84775C6.95826 7.32988 7.3235 6.88769 7.79104 6.57669C8.25857 6.26568 8.80756 6.09972 9.36909 6.09963C9.74799 6.09821 10.1233 6.17262 10.473 6.31849C10.8227 6.46435 11.1397 6.67872 11.4053 6.94896C11.6709 7.21921 11.8797 7.53986 12.0195 7.89204C12.1592 8.24423 12.2271 8.62081 12.2191 8.99963ZM9.39909 6.87963C8.9886 6.87576 8.58614 6.99344 8.2424 7.21786C7.89866 7.44228 7.62901 7.76339 7.46741 8.14076C7.30582 8.51813 7.2595 8.93488 7.3343 9.33852C7.4091 9.74216 7.60166 10.1146 7.88774 10.4091C8.17382 10.7035 8.54062 10.9066 8.94195 10.993C9.34328 11.0794 9.76119 11.045 10.143 10.8943C10.5249 10.7436 10.8536 10.4833 11.0878 10.1461C11.322 9.80898 11.4512 9.41007 11.4591 8.99963C11.4657 8.72445 11.4174 8.45072 11.317 8.19443C11.2166 7.93815 11.0661 7.70446 10.8743 7.50706C10.6824 7.30965 10.4532 7.15248 10.1999 7.04475C9.94659 6.93701 9.67435 6.88088 9.39909 6.87963Z" fill="#D5692B"/>
</g>
<defs>
<clipPath id="clip0_2800_18539">
<rect width="24" height="24" fill="white"/>
</clipPath>
</defs>
</svg>
