<svg width="136" height="135" viewBox="0 0 136 135" fill="none" xmlns="http://www.w3.org/2000/svg">
<g clip-path="url(#clip0_8598_19402)">
<path d="M68 125.5C100.033 125.5 126 99.5325 126 67.5C126 35.4675 100.033 9.5 68 9.5C35.9675 9.5 10 35.4675 10 67.5C10 99.5325 35.9675 125.5 68 125.5Z" stroke="#D1D1D1"/>
<path d="M133 67.5C133 103.399 103.899 132.5 68 132.5C32.1015 132.5 3 103.399 3 67.5C3 31.6015 32.1015 2.5 68 2.5C103.899 2.5 133 31.6015 133 67.5ZM68 134.5C105.003 134.5 135 104.503 135 67.5C135 30.4969 105.003 0.5 68 0.5C30.9969 0.5 1 30.4969 1 67.5C1 104.503 30.9969 134.5 68 134.5Z" fill="#159822" stroke="#159822"/>
<path d="M95.375 33.2812V36.7031H90.8125V41.2656H86.25V36.7031H81.6875H77.125V41.2656H72.5625V36.7031H68V50.3906H81.6875H95.375V58.375H90.8125V62.9375H86.25V58.375H81.6875V72.0625H95.375V80.0469H90.8125V84.6094H86.25V80.0469H81.6875H77.125V84.6094H72.5625V80.0469H68H63.4375V84.6094H58.875V80.0469H54.3125H49.75V84.6094H45.1875V80.0469H40.625V72.0625H54.3125H68V58.375H63.4375V62.9375H58.875V58.375H54.3125H49.75V62.9375H45.1875V58.375H40.625V50.3906H54.3125V36.7031H49.75V41.2656H45.1875V36.7031H40.625V33.2812H37.2031V101.719H40.625V93.7344H54.3125H68H81.6875H95.375V101.719H98.7969V33.2812H95.375Z" fill="white"/>
<path d="M98.7969 32.1406H95.375C95.0725 32.1406 94.7824 32.2608 94.5685 32.4747C94.3545 32.6886 94.2344 32.9787 94.2344 33.2812V35.5625H68C67.6975 35.5625 67.4074 35.6827 67.1935 35.8966C66.9795 36.1105 66.8594 36.4006 66.8594 36.7031V49.25H55.4531V36.7031C55.4531 36.4006 55.333 36.1105 55.119 35.8966C54.9051 35.6827 54.615 35.5625 54.3125 35.5625H41.7656V33.2812C41.7656 32.9787 41.6455 32.6886 41.4315 32.4747C41.2176 32.2608 40.9275 32.1406 40.625 32.1406H37.2031C36.9006 32.1406 36.6105 32.2608 36.3966 32.4747C36.1827 32.6886 36.0625 32.9787 36.0625 33.2812V101.719C36.0625 102.021 36.1827 102.311 36.3966 102.525C36.6105 102.739 36.9006 102.859 37.2031 102.859H40.625C40.9275 102.859 41.2176 102.739 41.4315 102.525C41.6455 102.311 41.7656 102.021 41.7656 101.719V98.2969H94.2344V101.719C94.2344 102.021 94.3545 102.311 94.5685 102.525C94.7824 102.739 95.0725 102.859 95.375 102.859H98.7969C99.0994 102.859 99.3895 102.739 99.6034 102.525C99.8173 102.311 99.9375 102.021 99.9375 101.719V33.2812C99.9375 32.9787 99.8173 32.6886 99.6034 32.4747C99.3895 32.2608 99.0994 32.1406 98.7969 32.1406ZM39.4844 100.578H38.3438V34.4219H39.4844V100.578ZM87.3906 37.8438H89.6719V40.125H87.3906V37.8438ZM73.7031 37.8438H75.9844V40.125H73.7031V37.8438ZM69.1406 37.8438H71.4219V41.2656C71.4219 41.5681 71.542 41.8583 71.756 42.0722C71.9699 42.2861 72.26 42.4062 72.5625 42.4062H77.125C77.4275 42.4062 77.7176 42.2861 77.9315 42.0722C78.1455 41.8583 78.2656 41.5681 78.2656 41.2656V37.8438H80.5469V49.25H69.1406V37.8438ZM46.3281 37.8438H48.6094V40.125H46.3281V37.8438ZM41.7656 37.8438H44.0469V41.2656C44.0469 41.5681 44.167 41.8583 44.381 42.0722C44.5949 42.2861 44.885 42.4062 45.1875 42.4062H49.75C50.0525 42.4062 50.3426 42.2861 50.5565 42.0722C50.7705 41.8583 50.8906 41.5681 50.8906 41.2656V37.8438H53.1719V49.25H41.7656V37.8438ZM41.7656 59.5156H44.0469V62.9375C44.0469 63.24 44.167 63.5301 44.381 63.744C44.5949 63.958 44.885 64.0781 45.1875 64.0781H49.75C50.0525 64.0781 50.3426 63.958 50.5565 63.744C50.7705 63.5301 50.8906 63.24 50.8906 62.9375V59.5156H53.1719V70.9219H41.7656V59.5156ZM46.3281 61.7969V59.5156H48.6094V61.7969H46.3281ZM41.7656 81.1875H44.0469V84.6094C44.0469 84.9119 44.167 85.202 44.381 85.4159C44.5949 85.6298 44.885 85.75 45.1875 85.75H49.75C50.0525 85.75 50.3426 85.6298 50.5565 85.4159C50.7705 85.202 50.8906 84.9119 50.8906 84.6094V81.1875H53.1719V92.5938H41.7656V81.1875ZM46.3281 83.4688V81.1875H48.6094V83.4688H46.3281ZM94.2344 96.0156H41.7656V94.875H94.2344V96.0156ZM58.875 85.75H63.4375C63.74 85.75 64.0301 85.6298 64.244 85.4159C64.458 85.202 64.5781 84.9119 64.5781 84.6094V81.1875H66.8594V92.5938H55.4531V81.1875H57.7344V84.6094C57.7344 84.9119 57.8545 85.202 58.0685 85.4159C58.2824 85.6298 58.5725 85.75 58.875 85.75ZM60.0156 83.4688V81.1875H62.2969V83.4688H60.0156ZM72.5625 85.75H77.125C77.4275 85.75 77.7176 85.6298 77.9315 85.4159C78.1455 85.202 78.2656 84.9119 78.2656 84.6094V81.1875H80.5469V92.5938H69.1406V81.1875H71.4219V84.6094C71.4219 84.9119 71.542 85.202 71.756 85.4159C71.9699 85.6298 72.26 85.75 72.5625 85.75ZM73.7031 83.4688V81.1875H75.9844V83.4688H73.7031ZM94.2344 92.5938H82.8281V81.1875H85.1094V84.6094C85.1094 84.9119 85.2295 85.202 85.4435 85.4159C85.6574 85.6298 85.9475 85.75 86.25 85.75H90.8125C91.115 85.75 91.4051 85.6298 91.619 85.4159C91.833 85.202 91.9531 84.9119 91.9531 84.6094V81.1875H94.2344V92.5938ZM87.3906 83.4688V81.1875H89.6719V83.4688H87.3906ZM94.2344 78.9062H41.7656V76.625H94.2344V78.9062ZM94.2344 74.3438H41.7656V73.2031H94.2344V74.3438ZM58.875 64.0781H63.4375C63.74 64.0781 64.0301 63.958 64.244 63.744C64.458 63.5301 64.5781 63.24 64.5781 62.9375V59.5156H66.8594V70.9219H55.4531V59.5156H57.7344V62.9375C57.7344 63.24 57.8545 63.5301 58.0685 63.744C58.2824 63.958 58.5725 64.0781 58.875 64.0781ZM60.0156 61.7969V59.5156H62.2969V61.7969H60.0156ZM94.2344 70.9219H82.8281V59.5156H85.1094V62.9375C85.1094 63.24 85.2295 63.5301 85.4435 63.744C85.6574 63.958 85.9475 64.0781 86.25 64.0781H90.8125C91.115 64.0781 91.4051 63.958 91.619 63.744C91.833 63.5301 91.9531 63.24 91.9531 62.9375V59.5156H94.2344V70.9219ZM87.3906 61.7969V59.5156H89.6719V61.7969H87.3906ZM94.2344 57.2344H81.6875C81.385 57.2344 81.0949 57.3545 80.881 57.5685C80.667 57.7824 80.5469 58.0725 80.5469 58.375V70.9219H69.1406V58.375C69.1406 58.0725 69.0205 57.7824 68.8065 57.5685C68.5926 57.3545 68.3025 57.2344 68 57.2344H41.7656V54.9531H94.2344V57.2344ZM94.2344 52.6719H41.7656V51.5312H94.2344V52.6719ZM94.2344 49.25H82.8281V37.8438H85.1094V41.2656C85.1094 41.5681 85.2295 41.8583 85.4435 42.0722C85.6574 42.2861 85.9475 42.4062 86.25 42.4062H90.8125C91.115 42.4062 91.4051 42.2861 91.619 42.0722C91.833 41.8583 91.9531 41.5681 91.9531 41.2656V37.8438H94.2344V49.25ZM97.6562 100.578H96.5156V34.4219H97.6562V100.578Z" fill="#159822"/>
</g>
<defs>
<clipPath id="clip0_8598_19402">
<rect width="135" height="135" fill="white" transform="translate(0.5)"/>
</clipPath>
</defs>
</svg>
