<svg width="136" height="135" viewBox="0 0 136 135" fill="none" xmlns="http://www.w3.org/2000/svg">
<g clip-path="url(#clip0_8599_32556)">
<path d="M68 125.5C100.033 125.5 126 99.5325 126 67.5C126 35.4675 100.033 9.5 68 9.5C35.9675 9.5 10 35.4675 10 67.5C10 99.5325 35.9675 125.5 68 125.5Z" stroke="#D1D1D1"/>
<path d="M133 67.5C133 103.399 103.899 132.5 68 132.5C32.1015 132.5 3 103.399 3 67.5C3 31.6015 32.1015 2.5 68 2.5C103.899 2.5 133 31.6015 133 67.5ZM68 134.5C105.003 134.5 135 104.503 135 67.5C135 30.4969 105.003 0.5 68 0.5C30.9969 0.5 1 30.4969 1 67.5C1 104.503 30.9969 134.5 68 134.5Z" fill="#159822" stroke="#159822"/>
<path d="M51.1961 31.8027C49.896 31.8046 48.6498 32.3219 47.7307 33.2413C46.8116 34.1607 46.2945 35.407 46.293 36.707C46.293 37.0007 46.4097 37.2824 46.6174 37.4901C46.8251 37.6978 47.1067 37.8145 47.4005 37.8145C47.6942 37.8145 47.9758 37.6978 48.1835 37.4901C48.3912 37.2824 48.5079 37.0007 48.5079 36.707C48.5085 35.9939 48.7921 35.3103 49.2963 34.806C49.8006 34.3018 50.4842 34.0182 51.1973 34.0176H58.4044C58.6981 34.0176 58.9798 33.9009 59.1875 33.6932C59.3952 33.4855 59.5119 33.2039 59.5119 32.9102C59.5119 32.6164 59.3952 32.3348 59.1875 32.1271C58.9798 31.9194 58.6981 31.8027 58.4044 31.8027H51.1961Z" fill="#159822"/>
<path d="M65.0418 31.8027H63.0801C62.7864 31.8027 62.5047 31.9194 62.297 32.1271C62.0894 32.3348 61.9727 32.6164 61.9727 32.9102C61.9727 33.2039 62.0894 33.4855 62.297 33.6932C62.5047 33.9009 62.7864 34.0176 63.0801 34.0176H65.0418C65.3355 34.0176 65.6172 33.9009 65.8249 33.6932C66.0326 33.4855 66.1493 33.2039 66.1493 32.9102C66.1493 32.6164 66.0326 32.3348 65.8249 32.1271C65.6172 31.9194 65.3355 31.8027 65.0418 31.8027Z" fill="#159822"/>
<path d="M58.959 30.2207H65.0397C65.3334 30.2207 65.6151 30.104 65.8227 29.8963C66.0304 29.6887 66.1471 29.407 66.1471 29.1133C66.1471 28.8196 66.0304 28.5379 65.8227 28.3302C65.6151 28.1225 65.3334 28.0059 65.0397 28.0059H58.959C58.6653 28.0059 58.3836 28.1225 58.1759 28.3302C57.9682 28.5379 57.8516 28.8196 57.8516 29.1133C57.8516 29.407 57.9682 29.6887 58.1759 29.8963C58.3836 30.104 58.6653 30.2207 58.959 30.2207Z" fill="#159822"/>
<path d="M43.6022 37.8145C43.7478 37.8147 43.892 37.7862 44.0265 37.7307C44.161 37.6751 44.2833 37.5936 44.3863 37.4907C44.4893 37.3879 44.571 37.2657 44.6267 37.1312C44.6824 36.9967 44.711 36.8526 44.7109 36.707C44.7127 34.9875 45.3965 33.339 46.6123 32.123C47.828 30.907 49.4765 30.2229 51.196 30.2207H54.1196C54.4133 30.2207 54.6949 30.104 54.9026 29.8963C55.1103 29.6887 55.227 29.407 55.227 29.1133C55.227 28.8196 55.1103 28.5379 54.9026 28.3302C54.6949 28.1225 54.4133 28.0059 54.1196 28.0059H51.196C48.8893 28.0087 46.6779 28.9264 45.0469 30.5576C43.4159 32.1888 42.4986 34.4003 42.4961 36.707C42.496 36.8524 42.5245 36.9963 42.5801 37.1306C42.6356 37.2649 42.7171 37.387 42.8198 37.4898C42.9225 37.5927 43.0445 37.6743 43.1787 37.73C43.313 37.7857 43.4569 37.8144 43.6022 37.8145Z" fill="#159822"/>
<path d="M80.0058 31.8027C78.7056 31.8042 77.4591 32.3214 76.5397 33.2408C75.6202 34.1602 75.1031 35.4068 75.1016 36.707C75.1016 37.0007 75.2182 37.2824 75.4259 37.4901C75.6336 37.6978 75.9153 37.8145 76.209 37.8145C76.5027 37.8145 76.7844 37.6978 76.992 37.4901C77.1997 37.2824 77.3164 37.0007 77.3164 36.707C77.3171 35.9939 77.6006 35.3103 78.1049 34.806C78.6091 34.3018 79.2928 34.0182 80.0058 34.0176H83.3452C83.6389 34.0176 83.9206 33.9009 84.1283 33.6932C84.3359 33.4855 84.4526 33.2039 84.4526 32.9102C84.4526 32.6164 84.3359 32.3348 84.1283 32.1271C83.9206 31.9194 83.6389 31.8027 83.3452 31.8027H80.0058Z" fill="#159822"/>
<path d="M86.9063 32.9102C86.9062 33.0556 86.9348 33.1997 86.9904 33.334C87.046 33.4684 87.1276 33.5906 87.2304 33.6934C87.3333 33.7963 87.4554 33.8778 87.5898 33.9335C87.7242 33.9891 87.8682 34.0177 88.0137 34.0176H93.8501C94.1438 34.0176 94.4255 33.9009 94.6332 33.6932C94.8409 33.4855 94.9575 33.2039 94.9575 32.9102C94.9575 32.6165 94.8409 32.3348 94.6332 32.1271C94.4255 31.9194 94.1438 31.8027 93.8501 31.8027H88.0137C87.8682 31.8027 87.7242 31.8312 87.5898 31.8869C87.4554 31.9425 87.3333 32.0241 87.2304 32.1269C87.1276 32.2298 87.046 32.3519 86.9904 32.4863C86.9348 32.6207 86.9062 32.7647 86.9063 32.9102Z" fill="#159822"/>
<path d="M92.3222 30.2207H93.848C94.1417 30.2207 94.4234 30.104 94.6311 29.8963C94.8388 29.6887 94.9554 29.407 94.9554 29.1133C94.9554 28.8196 94.8388 28.5379 94.6311 28.3302C94.4234 28.1225 94.1417 28.0059 93.848 28.0059H92.3222C92.0285 28.0059 91.7469 28.1225 91.5392 28.3302C91.3315 28.5379 91.2148 28.8196 91.2148 29.1133C91.2148 29.407 91.3315 29.6887 91.5392 29.8963C91.7469 30.104 92.0285 30.2207 92.3222 30.2207Z" fill="#159822"/>
<path d="M72.4121 37.8145C72.7058 37.8145 72.9875 37.6978 73.1952 37.4901C73.4028 37.2824 73.5195 37.0007 73.5195 36.707C73.5214 34.9873 74.2053 33.3386 75.4214 32.1225C76.6374 30.9065 78.2861 30.2225 80.0058 30.2207H86.2321C86.5258 30.2207 86.8075 30.104 87.0152 29.8963C87.2228 29.6887 87.3395 29.407 87.3395 29.1133C87.3395 28.8196 87.2228 28.5379 87.0152 28.3302C86.8075 28.1225 86.5258 28.0059 86.2321 28.0059H80.0058C77.6989 28.0084 75.4872 28.9259 73.856 30.5571C72.2247 32.1884 71.3072 34.4001 71.3047 36.707C71.3046 36.8525 71.3332 36.9965 71.3888 37.1309C71.4444 37.2653 71.526 37.3874 71.6288 37.4903C71.7317 37.5931 71.8538 37.6747 71.9882 37.7303C72.1226 37.7859 72.2666 37.8145 72.4121 37.8145Z" fill="#159822"/>
<path d="M96.7911 64.6992C96.4974 64.6992 96.2157 64.8159 96.008 65.0236C95.8003 65.2313 95.6836 65.5129 95.6836 65.8066V69.6035C95.6836 69.8972 95.8003 70.1789 96.008 70.3866C96.2157 70.5943 96.4974 70.7109 96.7911 70.7109C97.0848 70.7109 97.3665 70.5943 97.5741 70.3866C97.7818 70.1789 97.8985 69.8972 97.8985 69.6035V65.8066C97.8985 65.5129 97.7818 65.2313 97.5741 65.0236C97.3665 64.8159 97.0848 64.6992 96.7911 64.6992Z" fill="#159822"/>
<path d="M104.389 96.982H101.699V57.6844L104.521 57.3452C104.807 57.304 105.066 57.1524 105.242 56.9228C105.418 56.6932 105.497 56.4039 105.463 56.1168C105.428 55.8296 105.283 55.5673 105.057 55.386C104.832 55.2048 104.544 55.1189 104.256 55.1468L81.701 57.8565L81.0935 45.1142C81.2884 45.0272 81.454 44.8857 81.5702 44.7067C81.6864 44.5277 81.7483 44.3189 81.7485 44.1055V40.3086C81.7483 40.0149 81.6316 39.7334 81.4239 39.5257C81.2163 39.3181 80.9347 39.2013 80.6411 39.2012H67.9848C67.6911 39.2012 67.4094 39.3178 67.2017 39.5255C66.9941 39.7332 66.8774 40.0149 66.8774 40.3086V44.1055C66.877 44.3198 66.939 44.5296 67.0557 44.7094C67.1725 44.8892 67.3389 45.0311 67.5349 45.118L66.8451 59.6448L53.0542 61.3002L52.2873 45.1129C52.4818 45.0259 52.647 44.8845 52.7629 44.7058C52.8789 44.527 52.9407 44.3185 52.941 44.1055V40.3086C52.941 40.0149 52.8243 39.7332 52.6166 39.5255C52.4089 39.3178 52.1272 39.2012 51.8335 39.2012H39.1773C38.8836 39.2012 38.6019 39.3178 38.3942 39.5255C38.1865 39.7332 38.0699 40.0149 38.0699 40.3086V44.1055C38.0699 44.3201 38.1323 44.5302 38.2496 44.71C38.3669 44.8897 38.534 45.0315 38.7305 45.118L36.71 87.4898H35.8677C35.5832 87.4898 35.3096 87.5993 35.1036 87.7956C34.8977 87.9919 34.7752 88.2599 34.7615 88.5441L34.3565 96.982H31.6152C31.4697 96.9819 31.3257 97.0105 31.1913 97.0661C31.0569 97.1218 30.9348 97.2033 30.8319 97.3062C30.7291 97.409 30.6475 97.5311 30.5919 97.6655C30.5363 97.7999 30.5077 97.944 30.5078 98.0894V101.886C30.5077 102.032 30.5363 102.176 30.5919 102.31C30.6475 102.445 30.7291 102.567 30.8319 102.67C30.9348 102.772 31.0569 102.854 31.1913 102.91C31.3257 102.965 31.4697 102.994 31.6152 102.994H104.389C104.534 102.994 104.678 102.965 104.813 102.91C104.947 102.854 105.069 102.772 105.172 102.67C105.275 102.567 105.356 102.445 105.412 102.31C105.468 102.176 105.496 102.032 105.496 101.886V98.0894C105.496 97.944 105.468 97.7999 105.412 97.6655C105.356 97.5311 105.275 97.409 105.172 97.3062C105.069 97.2033 104.947 97.1218 104.813 97.0661C104.678 97.0105 104.534 96.9819 104.389 96.982ZM93.2707 96.982V85.4332C93.2707 85.1395 93.1541 84.8578 92.9464 84.6501C92.7387 84.4424 92.457 84.3258 92.1633 84.3258H84.5696C84.4241 84.3257 84.2801 84.3543 84.1457 84.4099C84.0113 84.4655 83.8892 84.5471 83.7863 84.6499C83.6835 84.7528 83.6019 84.8749 83.5463 85.0093C83.4906 85.1437 83.4621 85.2877 83.4621 85.4332V96.982H81.7536V85.4332C81.7536 85.1395 81.6369 84.8578 81.4292 84.6501C81.2215 84.4424 80.9398 84.3258 80.6461 84.3258H73.0524C72.9069 84.3257 72.7629 84.3543 72.6285 84.4099C72.4941 84.4655 72.372 84.5471 72.2691 84.6499C72.1663 84.7528 72.0847 84.8749 72.0291 85.0093C71.9735 85.1437 71.9449 85.2877 71.945 85.4332V96.982H46.6128V64.3055L99.4843 57.9514V96.982H93.2707ZM91.0559 96.982H85.677V86.5406H91.0559V96.982ZM79.5387 96.982H74.1598V86.5406H79.5387V96.982ZM69.0973 41.416H79.5387V42.998H69.0973V41.416ZM69.7529 45.2129H78.8812L79.4963 58.1223L69.0777 59.3746L69.7529 45.2129ZM40.2885 41.416H50.7261V42.998H40.2847L40.2885 41.416ZM40.9473 45.2129H50.075L50.8489 61.5648L41.575 62.6804C41.2954 62.7147 41.0393 62.8542 40.859 63.0706C40.6786 63.287 40.5875 63.564 40.6042 63.8452C40.6209 64.1264 40.7442 64.3907 40.9488 64.5843C41.1535 64.7778 41.4243 64.8861 41.706 64.887C41.7506 64.887 41.7952 64.8845 41.8395 64.8794L44.398 64.5713V87.4898H38.9273L40.9473 45.2129ZM36.9232 89.7047H44.398V96.982H36.5739L36.9232 89.7047ZM103.281 100.779H32.7226V99.1969H103.281V100.779Z" fill="#159822"/>
<path d="M65.752 80.6348H53.0957C52.802 80.6348 52.5203 80.7514 52.3126 80.9591C52.105 81.1668 51.9883 81.4485 51.9883 81.7422C51.9883 82.0359 52.105 82.3176 52.3126 82.5253C52.5203 82.7329 52.802 82.8496 53.0957 82.8496H65.752C66.0457 82.8496 66.3273 82.7329 66.535 82.5253C66.7427 82.3176 66.8594 82.0359 66.8594 81.7422C66.8594 81.4485 66.7427 81.1668 66.535 80.9591C66.3273 80.7514 66.0457 80.6348 65.752 80.6348Z" fill="#159822"/>
<path d="M65.752 73.041H53.0957C52.802 73.041 52.5203 73.1577 52.3126 73.3654C52.105 73.5731 51.9883 73.8547 51.9883 74.1484C51.9883 74.4421 52.105 74.7238 52.3126 74.9315C52.5203 75.1392 52.802 75.2559 53.0957 75.2559H65.752C66.0457 75.2559 66.3273 75.1392 66.535 74.9315C66.7427 74.7238 66.8594 74.4421 66.8594 74.1484C66.8594 73.8547 66.7427 73.5731 66.535 73.3654C66.3273 73.1577 66.0457 73.041 65.752 73.041Z" fill="#159822"/>
<path d="M65.752 76.8379H53.0957C52.802 76.8379 52.5203 76.9546 52.3126 77.1622C52.105 77.3699 51.9883 77.6516 51.9883 77.9453C51.9883 78.239 52.105 78.5207 52.3126 78.7284C52.5203 78.9361 52.802 79.0527 53.0957 79.0527H65.752C66.0457 79.0527 66.3273 78.9361 66.535 78.7284C66.7427 78.5207 66.8594 78.239 66.8594 77.9453C66.8594 77.6516 66.7427 77.3699 66.535 77.1622C66.3273 76.9546 66.0457 76.8379 65.752 76.8379Z" fill="#159822"/>
<path d="M78.7441 74.9395H74.9473C74.8018 74.9394 74.6578 74.968 74.5234 75.0236C74.389 75.0792 74.2669 75.1608 74.164 75.2636C74.0612 75.3665 73.9796 75.4886 73.924 75.623C73.8684 75.7574 73.8398 75.9014 73.8398 76.0469V79.8438C73.8398 79.9892 73.8684 80.1332 73.924 80.2676C73.9796 80.402 74.0612 80.5242 74.164 80.627C74.2669 80.7299 74.389 80.8114 74.5234 80.867C74.6578 80.9227 74.8018 80.9513 74.9473 80.9512H78.7441C79.0378 80.9512 79.3195 80.8345 79.5272 80.6268C79.7349 80.4191 79.8516 80.1375 79.8516 79.8438V76.0469C79.8516 75.7532 79.7349 75.4715 79.5272 75.2638C79.3195 75.0561 79.0378 74.9395 78.7441 74.9395ZM77.6367 78.7363H76.0547V77.1543H77.6367V78.7363Z" fill="#159822"/>
<path d="M90.2637 74.9395H86.4668C86.3214 74.9394 86.1773 74.968 86.0429 75.0236C85.9085 75.0792 85.7864 75.1608 85.6836 75.2636C85.5807 75.3665 85.4991 75.4886 85.4435 75.623C85.3879 75.7574 85.3593 75.9014 85.3594 76.0469V79.8438C85.3593 79.9892 85.3879 80.1332 85.4435 80.2676C85.4991 80.402 85.5807 80.5242 85.6836 80.627C85.7864 80.7299 85.9085 80.8114 86.0429 80.867C86.1773 80.9227 86.3214 80.9513 86.4668 80.9512H90.2637C90.5574 80.9512 90.8391 80.8345 91.0467 80.6268C91.2544 80.4191 91.3711 80.1375 91.3711 79.8438V76.0469C91.3711 75.7532 91.2544 75.4715 91.0467 75.2638C90.8391 75.0561 90.5574 74.9395 90.2637 74.9395ZM89.1563 78.7363H87.5742V77.1543H89.1563V78.7363Z" fill="#159822"/>
</g>
<defs>
<clipPath id="clip0_8599_32556">
<rect width="135" height="135" fill="white" transform="translate(0.5)"/>
</clipPath>
</defs>
</svg>
