<svg width="115" height="115" viewBox="0 0 115 115" fill="none" xmlns="http://www.w3.org/2000/svg">
<path d="M89 54H88.9533C88.5109 41.0658 80.1661 29.7327 67.9463 25.4703C67.6856 23.7667 66.2235 22.5066 64.5 22.5H50.5C48.7765 22.5066 47.3144 23.7667 47.0537 25.4703C34.8339 29.7327 26.4891 41.0658 26.0467 54H26C24.067 54 22.5 55.567 22.5 57.5V59.8333C22.5 61.7664 24.067 63.3333 26 63.3333H89C90.933 63.3333 92.5 61.7664 92.5 59.8333V57.5C92.5 55.567 90.933 54 89 54ZM47 27.9728V48.1667C47 48.811 47.5224 49.3333 48.1667 49.3333C48.811 49.3333 49.3333 48.811 49.3333 48.1667V26C49.3333 25.3557 49.8557 24.8333 50.5 24.8333H56.3333V50.5C56.3333 51.1443 56.8557 51.6667 57.5 51.6667C58.1443 51.6667 58.6667 51.1443 58.6667 50.5V24.8333H64.5C65.1443 24.8333 65.6667 25.3557 65.6667 26V48.1667C65.6667 48.811 66.189 49.3333 66.8333 49.3333C67.4776 49.3333 68 48.811 68 48.1667V27.9728C78.8605 32.1346 86.1882 42.3774 86.62 54H28.38C28.8118 42.3774 36.1395 32.1346 47 27.9728ZM90.1667 59.8333C90.1667 60.4776 89.6443 61 89 61H26C25.3557 61 24.8333 60.4776 24.8333 59.8333V57.5C24.8333 56.8557 25.3557 56.3333 26 56.3333H89C89.6443 56.3333 90.1667 56.8557 90.1667 57.5V59.8333Z" fill="#159822"/>
<path d="M51.6667 73.832H36.5C34.567 73.832 33 75.399 33 77.332V81.9987C33 82.643 33.5224 83.1653 34.1667 83.1653C34.811 83.1653 35.3333 82.643 35.3333 81.9987V77.332C35.3333 76.6877 35.8557 76.1653 36.5 76.1653H51.6667C52.311 76.1653 52.8333 75.643 52.8333 74.9987C52.8333 74.3544 52.311 73.832 51.6667 73.832Z" fill="#159822"/>
<path d="M91.333 73.8347H86.55C85.9919 71.1206 83.6043 69.1715 80.8333 69.168H34.1667C30.9467 69.1718 28.3371 71.7813 28.3333 75.0013H23.6667C23.0224 75.0013 22.5 75.5237 22.5 76.168V85.5013C22.5 86.1456 23.0224 86.668 23.6667 86.668H28.6833C29.7171 90.1235 32.8931 92.4936 36.5 92.5013H43.5C48.8387 92.4862 53.7805 89.6802 56.5293 85.1035C56.8642 84.5674 57.5703 84.4044 58.1064 84.7392C58.254 84.8314 58.3785 84.9559 58.4707 85.1035C61.2195 89.6802 66.1613 92.4862 71.5 92.5013H78.5C82.5561 92.4965 85.9939 89.5157 86.5733 85.5013H91.333C91.978 85.5013 92.5 84.9789 92.5 84.3347V75.0013C92.5 74.357 91.978 73.8347 91.333 73.8347ZM28.3333 84.3347H24.8333V80.8347H28.3333V84.3347ZM28.3333 78.5013H24.8333V77.3347H28.3333V78.5013ZM84.3333 84.3347C84.3295 87.5547 81.72 90.1642 78.5 90.168H71.5C66.9816 90.1547 62.7991 87.7798 60.4727 83.9065C59.4791 82.2634 57.3416 81.7369 55.6987 82.7305C55.2173 83.0216 54.8137 83.4251 54.5227 83.9065C52.1971 87.7784 48.0166 90.1531 43.5 90.168H36.5C33.28 90.1642 30.6705 87.5547 30.6667 84.3347V75.0013C30.6667 73.0683 32.2336 71.5013 34.1667 71.5013H80.8333C82.7664 71.5013 84.3333 73.0683 84.3333 75.0013V84.3347ZM90.1667 83.168H86.6667V79.668H90.1667V83.168ZM90.1667 77.3347H86.6667V76.168H90.1667V77.3347Z" fill="#159822"/>
<path d="M58.668 73.832H56.3347C55.6904 73.832 55.168 74.3544 55.168 74.9987C55.168 75.643 55.6904 76.1653 56.3347 76.1653H58.668C59.3123 76.1653 59.8347 75.643 59.8347 74.9987C59.8347 74.3544 59.3123 73.832 58.668 73.832Z" fill="#159822"/>
</svg>
