<svg width="136" height="135" viewBox="0 0 136 135" fill="none" xmlns="http://www.w3.org/2000/svg">
<g clip-path="url(#clip0_8598_19351)">
<path d="M68 125.5C100.033 125.5 126 99.5325 126 67.5C126 35.4675 100.033 9.5 68 9.5C35.9675 9.5 10 35.4675 10 67.5C10 99.5325 35.9675 125.5 68 125.5Z" stroke="#D1D1D1"/>
<path d="M133 67.5C133 103.399 103.899 132.5 68 132.5C32.1015 132.5 3 103.399 3 67.5C3 31.6015 32.1015 2.5 68 2.5C103.899 2.5 133 31.6015 133 67.5ZM68 134.5C105.003 134.5 135 104.503 135 67.5C135 30.4969 105.003 0.5 68 0.5C30.9969 0.5 1 30.4969 1 67.5C1 104.503 30.9969 134.5 68 134.5Z" fill="#159822" stroke="#159822"/>
<path d="M88.9219 82.0781H104.156V91.4531H88.9219V82.0781Z" fill="white"/>
<path d="M84.2344 89.1094H79.5952L78.375 92.625H84.2344V89.1094Z" fill="white"/>
<path d="M84.2344 99.6561C85.5288 99.6561 86.5781 98.6068 86.5781 97.3124C86.5781 96.018 85.5288 94.9688 84.2344 94.9688C82.94 94.9688 81.8906 96.018 81.8906 97.3124C81.8906 98.6068 82.94 99.6561 84.2344 99.6561Z" fill="white"/>
<path d="M98.2969 99.6561C99.5913 99.6561 100.641 98.6068 100.641 97.3124C100.641 96.018 99.5913 94.9688 98.2969 94.9688C97.0025 94.9688 95.9531 96.018 95.9531 97.3124C95.9531 98.6068 97.0025 99.6561 98.2969 99.6561Z" fill="white"/>
<path d="M91.2656 29.4902L78.375 37.6934V58.7871H81.8906V42.3809H100.641V58.7871H104.156V37.6934L91.2656 29.4902Z" fill="white"/>
<path d="M33.8438 37.6934V58.7871H37.3594V42.3809H56.1094V58.7871H59.625V37.6934L46.7344 29.4902L33.8438 37.6934Z" fill="white"/>
<path d="M33.8438 78.709V99.8027H37.3594V83.3965H56.1094V99.8027H59.625V78.709L46.7344 70.5059L33.8438 78.709Z" fill="white"/>
<path d="M104.156 80.9062H88.9219C88.6111 80.9062 88.313 81.0297 88.0932 81.2495C87.8735 81.4693 87.75 81.7674 87.75 82.0782V84.422H81.8906C81.7087 84.4221 81.5293 84.4645 81.3666 84.5458C81.2039 84.6272 81.0624 84.7453 80.9531 84.8907L77.4375 89.5782C77.2852 89.781 77.2029 90.0278 77.2031 90.2812V97.3126C77.2031 97.6234 77.3266 97.9215 77.5464 98.1412C77.7661 98.361 78.0642 98.4845 78.375 98.4845H80.9209C81.163 99.1698 81.6117 99.7632 82.2051 100.183C82.7985 100.603 83.5075 100.828 84.2344 100.828C84.9612 100.828 85.6702 100.603 86.2636 100.183C86.8571 99.7632 87.3057 99.1698 87.5479 98.4845H94.9834C95.2255 99.1698 95.6742 99.7632 96.2676 100.183C96.861 100.603 97.57 100.828 98.2969 100.828C99.0237 100.828 99.7327 100.603 100.326 100.183C100.92 99.7632 101.368 99.1698 101.61 98.4845H104.156C104.467 98.4845 104.765 98.361 104.985 98.1412C105.205 97.9215 105.328 97.6234 105.328 97.3126V82.0782C105.328 81.7674 105.205 81.4693 104.985 81.2495C104.765 81.0297 104.467 80.9062 104.156 80.9062ZM79.5469 90.6725L79.8398 90.2812H83.0625V91.4532H79.5469V90.6725ZM84.2344 98.4845C84.0026 98.4845 83.776 98.4157 83.5833 98.287C83.3906 98.1582 83.2404 97.9752 83.1517 97.7611C83.063 97.5469 83.0398 97.3113 83.085 97.084C83.1302 96.8567 83.2418 96.6478 83.4057 96.484C83.5696 96.3201 83.7784 96.2085 84.0058 96.1632C84.2331 96.118 84.4687 96.1412 84.6828 96.2299C84.897 96.3186 85.08 96.4688 85.2088 96.6615C85.3375 96.8543 85.4063 97.0808 85.4063 97.3126C85.4058 97.6233 85.2822 97.9211 85.0625 98.1408C84.8429 98.3604 84.545 98.484 84.2344 98.4845ZM87.75 96.1407H87.5479C87.3057 95.4554 86.8571 94.862 86.2636 94.4422C85.6702 94.0225 84.9612 93.7971 84.2344 93.7971C83.5075 93.7971 82.7985 94.0225 82.2051 94.4422C81.6117 94.862 81.163 95.4554 80.9209 96.1407H79.5469V93.797H84.2344C84.5452 93.797 84.8432 93.6735 85.063 93.4537C85.2828 93.234 85.4063 92.9359 85.4063 92.6251V89.1095C85.4063 88.7987 85.2828 88.5006 85.063 88.2808C84.8432 88.0611 84.5452 87.9376 84.2344 87.9376H81.5977L82.4766 86.7657H87.75V96.1407ZM98.2969 98.4845C98.0651 98.4845 97.8385 98.4157 97.6458 98.287C97.4531 98.1582 97.3029 97.9752 97.2142 97.7611C97.1255 97.5469 97.1023 97.3113 97.1475 97.084C97.1927 96.8567 97.3043 96.6478 97.4682 96.484C97.6321 96.3201 97.8409 96.2085 98.0683 96.1632C98.2956 96.118 98.5312 96.1412 98.7453 96.2299C98.9595 96.3186 99.1425 96.4688 99.2713 96.6615C99.4 96.8543 99.4688 97.0808 99.4688 97.3126C99.4683 97.6233 99.3447 97.9211 99.125 98.1408C98.9054 98.3604 98.6075 98.484 98.2969 98.4845ZM102.984 96.1407H101.61C101.368 95.4554 100.92 94.862 100.326 94.4422C99.7327 94.0225 99.0237 93.7971 98.2969 93.7971C97.57 93.7971 96.861 94.0225 96.2676 94.4422C95.6742 94.862 95.2255 95.4554 94.9834 96.1407H90.0938V92.6251H102.984V96.1407ZM102.984 90.2812H90.0938V83.2501H102.984V90.2812Z" fill="#159822"/>
<path d="M104.785 36.5585L91.894 28.3554C91.7063 28.2355 91.4883 28.1719 91.2656 28.1719C91.0429 28.1719 90.8249 28.2355 90.6372 28.3554L77.7466 36.5585C77.5801 36.6642 77.443 36.8103 77.348 36.9832C77.253 37.156 77.2032 37.35 77.2031 37.5472V43.4066H60.7969V37.5472C60.7968 37.35 60.747 37.156 60.652 36.9832C60.557 36.8103 60.4199 36.6642 60.2534 36.5585L47.3628 28.3554C47.1751 28.2355 46.9571 28.1719 46.7344 28.1719C46.5117 28.1719 46.2937 28.2355 46.106 28.3554L33.2153 36.5585C33.0489 36.6642 32.9118 36.8103 32.8168 36.9832C32.7218 37.156 32.6719 37.35 32.6719 37.5472V58.641C32.6719 58.9518 32.7953 59.2499 33.0151 59.4696C33.2349 59.6894 33.5329 59.8129 33.8438 59.8129H45.5625V69.7167L33.2153 77.5741C33.0489 77.6799 32.9118 77.8259 32.8168 77.9988C32.7218 78.1716 32.6719 78.3656 32.6719 78.5629V99.6566C32.6719 99.9674 32.7953 100.265 33.0151 100.485C33.2349 100.705 33.5329 100.828 33.8438 100.828H59.625C59.9358 100.828 60.2339 100.705 60.4536 100.485C60.6734 100.265 60.7969 99.9674 60.7969 99.6566V86.766H77.2031C77.5139 86.766 77.812 86.6425 78.0318 86.4228C78.2515 86.203 78.375 85.9049 78.375 85.5941C78.375 85.2833 78.2515 84.9852 78.0318 84.7655C77.812 84.5457 77.5139 84.4222 77.2031 84.4222H60.7969V78.5629C60.7968 78.3656 60.747 78.1716 60.652 77.9988C60.557 77.8259 60.4199 77.6799 60.2534 77.5741L47.9062 69.7167V59.8129H59.625C59.9358 59.8129 60.2339 59.6894 60.4536 59.4696C60.6734 59.2499 60.7969 58.9518 60.7969 58.641V45.7504H77.2031V58.641C77.2031 58.9518 77.3266 59.2499 77.5464 59.4696C77.7661 59.6894 78.0642 59.8129 78.375 59.8129H90.0938V78.5629C90.0938 78.8737 90.2172 79.1717 90.437 79.3915C90.6568 79.6113 90.9548 79.7347 91.2656 79.7347C91.5764 79.7347 91.8745 79.6113 92.0943 79.3915C92.314 79.1717 92.4375 78.8737 92.4375 78.5629V59.8129H104.156C104.467 59.8129 104.765 59.6894 104.985 59.4696C105.205 59.2499 105.328 58.9518 105.328 58.641V37.5472C105.328 37.35 105.278 37.156 105.183 36.9832C105.088 36.8103 104.951 36.6642 104.785 36.5585ZM54.9375 98.4847H38.5312V87.9379H54.9375V98.4847ZM54.9375 85.5941H38.5312V84.4222H54.9375V85.5941ZM58.4531 79.2059V98.4847H57.2812V83.2504C57.2812 82.9396 57.1578 82.6415 56.938 82.4217C56.7182 82.202 56.4202 82.0785 56.1094 82.0785H37.3594C37.0486 82.0785 36.7505 82.202 36.5307 82.4217C36.311 82.6415 36.1875 82.9396 36.1875 83.2504V98.4847H35.0156V79.2059L46.7344 71.7484L58.4531 79.2059ZM54.9375 57.4691H38.5312V46.9222H54.9375V57.4691ZM54.9375 44.5785H38.5312V43.4066H54.9375V44.5785ZM58.4531 57.4691H57.2812V42.2347C57.2812 41.9239 57.1578 41.6259 56.938 41.4061C56.7182 41.1863 56.4202 41.0629 56.1094 41.0629H37.3594C37.0486 41.0629 36.7505 41.1863 36.5307 41.4061C36.311 41.6259 36.1875 41.9239 36.1875 42.2347V57.4691H35.0156V38.1903L46.7344 30.7328L58.4531 38.1903V57.4691ZM99.4688 57.4691H83.0625V46.9222H99.4688V57.4691ZM99.4688 44.5785H83.0625V43.4066H99.4688V44.5785ZM102.984 57.4691H101.812V42.2347C101.812 41.9239 101.689 41.6259 101.469 41.4061C101.249 41.1863 100.951 41.0629 100.641 41.0629H81.8906C81.5798 41.0629 81.2818 41.1863 81.062 41.4061C80.8422 41.6259 80.7188 41.9239 80.7188 42.2347V57.4691H79.5469V38.1903L91.2656 30.7328L102.984 38.1903V57.4691Z" fill="#159822"/>
</g>
<defs>
<clipPath id="clip0_8598_19351">
<rect width="135" height="135" fill="white" transform="translate(0.5)"/>
</clipPath>
</defs>
</svg>
