<svg width="136" height="135" viewBox="0 0 136 135" fill="none" xmlns="http://www.w3.org/2000/svg">
<g clip-path="url(#clip0_8598_19374)">
<path d="M68 125.5C100.033 125.5 126 99.5325 126 67.5C126 35.4675 100.033 9.5 68 9.5C35.9675 9.5 10 35.4675 10 67.5C10 99.5325 35.9675 125.5 68 125.5Z" stroke="#D1D1D1"/>
<path d="M133 67.5C133 103.399 103.899 132.5 68 132.5C32.1015 132.5 3 103.399 3 67.5C3 31.6015 32.1015 2.5 68 2.5C103.899 2.5 133 31.6015 133 67.5ZM68 134.5C105.003 134.5 135 104.503 135 67.5C135 30.4969 105.003 0.5 68 0.5C30.9969 0.5 1 30.4969 1 67.5C1 104.503 30.9969 134.5 68 134.5Z" fill="#159822" stroke="#159822"/>
<path d="M92.4579 31.34C92.3401 30.8817 91.9881 30.52 91.5331 30.3899L82.1998 27.7232C81.4981 27.5 80.7483 27.8879 80.5251 28.5897C80.3019 29.2915 80.6898 30.0412 81.3916 30.2644C81.4164 30.2722 81.4414 30.2794 81.4666 30.2859L86.0693 31.6019L38.8345 43.7125C38.1211 43.8955 37.6913 44.622 37.8741 45.3354C37.8743 45.3357 37.8743 45.3362 37.8745 45.3365C38.026 45.926 38.5576 46.3382 39.1665 46.3379C39.2785 46.3377 39.3899 46.3239 39.4984 46.2965L91.4984 32.9632C92.2116 32.78 92.6413 32.0532 92.4579 31.34Z" fill="#159822"/>
<path d="M101.833 81.0059C101.097 81.0059 100.5 81.6029 100.5 82.3392V86.3392H93.8333C93.097 86.3392 92.5 86.9362 92.5 87.6725C92.5 88.4089 93.097 89.0059 93.8333 89.0059H101.833C102.57 89.0059 103.167 88.4089 103.167 87.6725V82.3392C103.167 81.6029 102.57 81.0059 101.833 81.0059Z" fill="#159822"/>
<path d="M88.5 86.3398H85.8333C85.097 86.3398 84.5 86.9368 84.5 87.6731C84.5 88.4094 85.097 89.0064 85.8333 89.0064H88.5C89.2363 89.0064 89.8333 88.4094 89.8333 87.6731C89.8333 86.9368 89.2363 86.3398 88.5 86.3398Z" fill="#159822"/>
<path d="M107.166 61.0065C107.039 61.0067 106.913 61.0247 106.792 61.0602L103.167 62.1269V42.3389C103.167 41.6025 102.569 41.0057 101.833 41.0059C101.704 41.0059 101.576 41.0247 101.452 41.0615L38.7853 59.7282C38.2205 59.8967 37.8335 60.4162 37.8333 61.0055V81.2722L29.4587 83.7269C28.8908 83.8932 28.5003 84.4139 28.5 85.0055V93.0055C28.5 93.7419 29.097 94.3389 29.8333 94.3389H107.167C107.903 94.3389 108.5 93.7419 108.5 93.0055V62.3389C108.5 61.6025 107.902 61.006 107.166 61.0065ZM40.5 62.0002L100.5 44.1335V62.9029L97.8333 63.6855V48.5335L43.1667 65.3535V79.7082L40.7053 80.4295L40.5 80.4895V62.0002ZM95.1667 52.1442V64.4722L45.8333 78.9269V67.3269L95.1667 52.1442ZM105.833 91.6722H31.1667V86.0042L105.833 64.1189V91.6722Z" fill="#159822"/>
</g>
<defs>
<clipPath id="clip0_8598_19374">
<rect width="135" height="135" fill="white" transform="translate(0.5)"/>
</clipPath>
</defs>
</svg>
