<svg width="115" height="115" viewBox="0 0 115 115" fill="none" xmlns="http://www.w3.org/2000/svg">
<path d="M65.8125 90.75C65.1555 90.75 64.625 90.2195 64.625 89.5625C64.625 85.633 67.8205 82.4375 71.75 82.4375C72.407 82.4375 72.9375 82.968 72.9375 83.625C72.9375 84.282 72.407 84.8125 71.75 84.8125C69.1303 84.8125 67 86.9428 67 89.5625C67 90.2195 66.4695 90.75 65.8125 90.75Z" fill="#159822"/>
<path d="M75.3125 84.8125H71.75C71.093 84.8125 70.5625 84.282 70.5625 83.625C70.5625 82.968 71.093 82.4375 71.75 82.4375H75.3125C75.9695 82.4375 76.5 82.968 76.5 83.625C76.5 84.282 75.9695 84.8125 75.3125 84.8125Z" fill="#159822"/>
<path d="M65.8125 94.3125C65.1555 94.3125 64.625 93.782 64.625 93.125V89.5625C64.625 88.9055 65.1555 88.375 65.8125 88.375C66.4695 88.375 67 88.9055 67 89.5625V93.125C67 93.782 66.4695 94.3125 65.8125 94.3125Z" fill="#159822"/>
<path d="M67 95.499C65.6902 95.499 64.625 94.434 64.625 93.1242C64.625 92.4939 65.1213 92.0387 65.751 92.0045C66.4039 91.9831 66.9298 92.4985 67 93.123C67.6552 93.123 68.1875 93.6547 68.1875 94.3105C68.1875 94.967 67.657 95.499 67 95.499Z" fill="#159822"/>
<path d="M94.312 90.75C93.656 90.75 93.125 90.2195 93.125 89.5625C93.125 86.9428 90.995 84.8125 88.375 84.8125C87.718 84.8125 87.1875 84.282 87.1875 83.625C87.1875 82.968 87.718 82.4375 88.375 82.4375C92.305 82.4375 95.5 85.633 95.5 89.5625C95.5 90.2195 94.969 90.75 94.312 90.75Z" fill="#159822"/>
<path d="M88.375 84.8125H84.8125C84.1555 84.8125 83.625 84.282 83.625 83.625C83.625 82.968 84.1555 82.4375 84.8125 82.4375H88.375C89.032 82.4375 89.5625 82.968 89.5625 83.625C89.5625 84.282 89.032 84.8125 88.375 84.8125Z" fill="#159822"/>
<path d="M94.312 94.3125C93.656 94.3125 93.125 93.782 93.125 93.125V89.5625C93.125 88.9055 93.656 88.375 94.312 88.375C94.969 88.375 95.5 88.9055 95.5 89.5625V93.125C95.5 93.782 94.969 94.3125 94.312 94.3125Z" fill="#159822"/>
<path d="M93.1245 95.5C92.4675 95.5 91.9375 94.969 91.9375 94.3125C91.9375 93.6555 92.4675 93.125 93.1245 93.125C93.1245 92.468 93.6555 91.9375 94.3115 91.9375C94.9685 91.9375 95.4995 92.468 95.4995 93.125C95.4995 94.4348 94.4345 95.5 93.1245 95.5Z" fill="#159822"/>
<path d="M93.125 95.5H67C66.343 95.5 65.8125 94.969 65.8125 94.3125C65.8125 93.6555 66.343 93.125 67 93.125H93.125C93.782 93.125 94.312 93.6555 94.312 94.3125C94.312 94.969 93.782 95.5 93.125 95.5Z" fill="#159822"/>
<path d="M75.3125 84.8127C74.6555 84.8127 74.125 84.2822 74.125 83.6252V78.9512C74.125 78.2948 74.6555 77.7637 75.3125 77.7637C75.9695 77.7637 76.5 78.2948 76.5 78.9512V83.6252C76.5 84.2822 75.9695 84.8127 75.3125 84.8127Z" fill="#159822"/>
<path d="M84.8125 84.8127C84.1555 84.8127 83.625 84.2822 83.625 83.6252V78.9512C83.625 78.2948 84.1555 77.7637 84.8125 77.7637C85.4695 77.7637 86 78.2948 86 78.9512V83.6252C86 84.2822 85.4695 84.8127 84.8125 84.8127Z" fill="#159822"/>
<path d="M80.0613 81.2516C73.5133 81.2516 68.1875 75.9258 68.1875 69.3789C68.1875 68.7226 68.718 68.1914 69.375 68.1914C70.032 68.1914 70.5625 68.7226 70.5625 69.3789C70.5625 74.616 74.8231 78.8766 80.0613 78.8766C85.3007 78.8766 89.5625 74.616 89.5625 69.3789C89.5625 68.7226 90.093 68.1914 90.75 68.1914C91.407 68.1914 91.938 68.7226 91.938 69.3789C91.938 75.9258 86.6106 81.2516 80.0613 81.2516Z" fill="#159822"/>
<path d="M69.375 70.6228C68.718 70.6228 68.1875 70.0923 68.1875 69.4353V62.25C68.1875 61.593 68.718 61.0625 69.375 61.0625C70.032 61.0625 70.5625 61.593 70.5625 62.25V69.4353C70.5625 70.0923 70.032 70.6228 69.375 70.6228Z" fill="#159822"/>
<path d="M90.75 70.5648C90.093 70.5648 89.5625 70.0343 89.5625 69.3773V62.25C89.5625 61.593 90.093 61.0625 90.75 61.0625C91.407 61.0625 91.938 61.593 91.938 62.25V69.3773C91.938 70.0343 91.407 70.5648 90.75 70.5648Z" fill="#159822"/>
<path d="M90.75 63.4363C90.093 63.4363 89.5625 62.9052 89.5625 62.2488C89.5625 60.2861 87.9639 58.6875 86 58.6875C85.343 58.6875 84.8125 58.157 84.8125 57.5C84.8125 56.843 85.343 56.3125 86 56.3125C89.2737 56.3125 91.938 58.9751 91.938 62.2488C91.938 62.9052 91.407 63.4363 90.75 63.4363Z" fill="#159822"/>
<path d="M86 58.6875C85.343 58.6875 84.8125 58.157 84.8125 57.5V52.75C84.8125 52.093 85.343 51.5625 86 51.5625C86.657 51.5625 87.1875 52.093 87.1875 52.75V57.5C87.1875 58.157 86.657 58.6875 86 58.6875Z" fill="#159822"/>
<path d="M86 53.9375H78.875C78.218 53.9375 77.6875 53.407 77.6875 52.75C77.6875 52.093 78.218 51.5625 78.875 51.5625H86C86.657 51.5625 87.1875 52.093 87.1875 52.75C87.1875 53.407 86.657 53.9375 86 53.9375Z" fill="#159822"/>
<path d="M69.375 63.4375C68.718 63.4375 68.1875 62.907 68.1875 62.25C68.1875 56.3566 72.9816 51.5625 78.875 51.5625C79.532 51.5625 80.0625 52.093 80.0625 52.75C80.0625 53.407 79.532 53.9375 78.875 53.9375C74.2926 53.9375 70.5625 57.6676 70.5625 62.25C70.5625 62.907 70.032 63.4375 69.375 63.4375Z" fill="#159822"/>
<path d="M90.75 67.03C90.522 67.03 90.29 66.9639 90.0859 66.8271L86.5234 64.4225C85.9795 64.0543 85.8369 63.3168 86.2028 62.7729C86.571 62.229 87.3073 62.0875 87.8524 62.4522L91.415 64.8568C91.959 65.225 92.101 65.9625 91.736 66.5064C91.506 66.8474 91.131 67.03 90.75 67.03Z" fill="#159822"/>
<path d="M80.656 65.8123C76.367 65.8123 72.7152 64.6155 72.5633 64.5645C71.9423 64.3563 71.6048 63.6854 71.8101 63.0633C72.0171 62.4423 72.6891 62.1013 73.3113 62.3089C73.3461 62.3223 76.7648 63.4373 80.656 63.4373C84.4302 63.4373 86.6411 62.3826 86.6637 62.3721C87.2488 62.0868 87.9625 62.3269 88.2513 62.9148C88.5401 63.5016 88.3023 64.209 87.7179 64.5013C87.6088 64.5535 85.0332 65.8123 80.656 65.8123Z" fill="#159822"/>
<path d="M69.3765 67.0294C68.9955 67.0294 68.6198 66.8467 68.3908 66.5069C68.0237 65.9631 68.1675 65.2255 68.7114 64.8573L72.2739 62.4527C72.819 62.0869 73.5553 62.2295 73.9235 62.7734C74.2906 63.3173 74.1468 64.0548 73.6029 64.423L70.0404 66.8276C69.8363 66.9644 69.6044 67.0294 69.3765 67.0294Z" fill="#159822"/>
<path d="M77.6862 85.9989C77.5082 85.9989 77.3261 85.9583 77.1568 85.8742L74.7818 84.6867C74.195 84.3933 73.9573 83.6795 74.2507 83.0933C74.5452 82.5065 75.2579 82.2711 75.8447 82.5622L78.2196 83.7497C78.8059 84.0431 79.0436 84.7569 78.7502 85.3436C78.5415 85.7588 78.1222 85.9989 77.6862 85.9989Z" fill="#159822"/>
<path d="M77.6897 86C77.2537 86 76.8345 85.76 76.6257 85.3431C76.3323 84.7569 76.5701 84.0431 77.1563 83.7497L79.5313 82.5622C80.1169 82.2711 80.8307 82.5065 81.1252 83.0927C81.4186 83.6795 81.1809 84.3933 80.5941 84.6867L78.2191 85.8742C78.0498 85.9594 77.8677 86 77.6897 86Z" fill="#159822"/>
<path d="M82.4397 86C82.0037 86 81.5845 85.76 81.3757 85.3431C81.0823 84.7569 81.3201 84.0431 81.9063 83.7497L84.2813 82.5622C84.8692 82.2711 85.5807 82.5065 85.8752 83.0927C86.1686 83.6795 85.9309 84.3933 85.3441 84.6867L82.9691 85.8742C82.7998 85.9594 82.6177 86 82.4397 86Z" fill="#159822"/>
<path d="M82.4362 85.9989C82.2582 85.9989 82.0761 85.9583 81.9068 85.8742L79.5318 84.6867C78.945 84.3933 78.7073 83.6795 79.0007 83.0933C79.2952 82.5065 80.009 82.2711 80.5947 82.5622L82.9697 83.7497C83.5559 84.0431 83.7936 84.7569 83.5002 85.3436C83.2915 85.7588 82.8722 85.9989 82.4362 85.9989Z" fill="#159822"/>
<path d="M24.25 70.5146C23.593 70.5146 23.0625 69.984 23.0625 69.3271V64.1973C23.0625 63.5403 23.593 63.0098 24.25 63.0098C24.907 63.0098 25.4375 63.5403 25.4375 64.1973V69.3271C25.4375 69.984 24.907 70.5146 24.25 70.5146Z" fill="#159822"/>
<path d="M45.625 70.5637C44.968 70.5637 44.4375 70.0331 44.4375 69.3762V64.0312C44.4375 63.3742 44.968 62.8438 45.625 62.8438C46.282 62.8438 46.8125 63.3742 46.8125 64.0312V69.3762C46.8125 70.0331 46.282 70.5637 45.625 70.5637Z" fill="#159822"/>
<path d="M45.625 65.2176C44.968 65.2176 44.4375 64.6865 44.4375 64.0301C44.4375 58.4654 39.9096 53.9375 34.3426 53.9375C28.7779 53.9375 24.25 58.4654 24.25 64.0301C24.25 64.6865 23.7195 65.2176 23.0625 65.2176C22.4055 65.2176 21.875 64.6865 21.875 64.0301C21.875 57.1556 27.4681 51.5625 34.3426 51.5625C41.2183 51.5625 46.8125 57.1556 46.8125 64.0301C46.8125 64.6865 46.282 65.2176 45.625 65.2176Z" fill="#159822"/>
<path d="M45.6256 67.0012C45.2684 67.0012 44.9153 66.8412 44.6816 66.5356C41.7604 62.7203 40.4459 63.1135 36.9344 64.1595C33.9112 65.06 29.7723 66.2933 22.8769 65.2032C22.2293 65.1011 21.7863 64.4935 21.8901 63.8446C21.9921 63.1975 22.5975 62.7499 23.2486 62.8583C29.6077 63.8591 33.4514 62.718 36.256 61.883C39.9745 60.7785 42.6557 59.9795 46.5684 65.0907C46.9673 65.6108 46.8687 66.3565 46.3475 66.7554C46.1312 66.9218 45.8772 67.0012 45.6256 67.0012Z" fill="#159822"/>
<path d="M39.7139 63.4704C39.4837 63.4704 39.2495 63.4031 39.0454 63.264C38.5038 62.8934 38.3646 62.1536 38.734 61.612L42.2715 56.4347C42.6432 55.8931 43.3808 55.7568 43.9235 56.1233C44.4651 56.4938 44.6042 57.2337 44.2349 57.7752L40.6973 62.9526C40.4642 63.29 40.0925 63.4704 39.7139 63.4704Z" fill="#159822"/>
<path d="M20.6875 90.75C20.0305 90.75 19.5 90.2195 19.5 89.5625C19.5 85.633 22.6955 82.4375 26.625 82.4375C27.282 82.4375 27.8125 82.968 27.8125 83.625C27.8125 84.282 27.282 84.8125 26.625 84.8125C24.0053 84.8125 21.875 86.9428 21.875 89.5625C21.875 90.2195 21.3445 90.75 20.6875 90.75Z" fill="#159822"/>
<path d="M30.1875 84.8125H26.625C25.968 84.8125 25.4375 84.282 25.4375 83.625C25.4375 82.968 25.968 82.4375 26.625 82.4375H30.1875C30.8445 82.4375 31.375 82.968 31.375 83.625C31.375 84.282 30.8445 84.8125 30.1875 84.8125Z" fill="#159822"/>
<path d="M20.6875 94.3125C20.0305 94.3125 19.5 93.782 19.5 93.125V89.5625C19.5 88.9055 20.0305 88.375 20.6875 88.375C21.3445 88.375 21.875 88.9055 21.875 89.5625V93.125C21.875 93.782 21.3445 94.3125 20.6875 94.3125Z" fill="#159822"/>
<path d="M21.875 95.499C20.5652 95.499 19.5 94.434 19.5 93.1242C19.5 92.4939 19.9963 92.0387 20.626 92.0045C21.2946 91.9831 21.8037 92.4985 21.875 93.123C22.5302 93.123 23.0625 93.6547 23.0625 94.3105C23.0625 94.967 22.532 95.499 21.875 95.499Z" fill="#159822"/>
<path d="M49.1875 90.75C48.5305 90.75 48 90.2195 48 89.5625C48 86.9428 45.8697 84.8125 43.25 84.8125C42.593 84.8125 42.0625 84.282 42.0625 83.625C42.0625 82.968 42.593 82.4375 43.25 82.4375C47.1795 82.4375 50.375 85.633 50.375 89.5625C50.375 90.2195 49.8445 90.75 49.1875 90.75Z" fill="#159822"/>
<path d="M43.25 84.8125H39.6875C39.0305 84.8125 38.5 84.282 38.5 83.625C38.5 82.968 39.0305 82.4375 39.6875 82.4375H43.25C43.907 82.4375 44.4375 82.968 44.4375 83.625C44.4375 84.282 43.907 84.8125 43.25 84.8125Z" fill="#159822"/>
<path d="M49.1875 94.3125C48.5305 94.3125 48 93.782 48 93.125V89.5625C48 88.9055 48.5305 88.375 49.1875 88.375C49.8445 88.375 50.375 88.9055 50.375 89.5625V93.125C50.375 93.782 49.8445 94.3125 49.1875 94.3125Z" fill="#159822"/>
<path d="M48 95.5C47.343 95.5 46.8125 94.969 46.8125 94.3125C46.8125 93.6555 47.343 93.125 48 93.125C48 92.468 48.5305 91.9375 49.1875 91.9375C49.8445 91.9375 50.375 92.468 50.375 93.125C50.375 94.4348 49.3098 95.5 48 95.5Z" fill="#159822"/>
<path d="M48 95.5H21.875C21.218 95.5 20.6875 94.969 20.6875 94.3125C20.6875 93.6555 21.218 93.125 21.875 93.125H48C48.657 93.125 49.1875 93.6555 49.1875 94.3125C49.1875 94.969 48.657 95.5 48 95.5Z" fill="#159822"/>
<path d="M30.1875 84.8127C29.5305 84.8127 29 84.2822 29 83.6252V78.9512C29 78.2948 29.5305 77.7637 30.1875 77.7637C30.8445 77.7637 31.375 78.2948 31.375 78.9512V83.6252C31.375 84.2822 30.8445 84.8127 30.1875 84.8127Z" fill="#159822"/>
<path d="M39.6875 84.8127C39.0305 84.8127 38.5 84.2822 38.5 83.6252V78.9512C38.5 78.2948 39.0305 77.7637 39.6875 77.7637C40.3445 77.7637 40.875 78.2948 40.875 78.9512V83.6252C40.875 84.2822 40.3445 84.8127 39.6875 84.8127Z" fill="#159822"/>
<path d="M34.9363 81.2516C28.3883 81.2516 23.0625 75.9258 23.0625 69.3789C23.0625 68.7226 23.593 68.1914 24.25 68.1914C24.907 68.1914 25.4375 68.7226 25.4375 69.3789C25.4375 74.616 29.6981 78.8766 34.9363 78.8766C40.1757 78.8766 44.4375 74.616 44.4375 69.3789C44.4375 68.7226 44.968 68.1914 45.625 68.1914C46.282 68.1914 46.8125 68.7226 46.8125 69.3789C46.8125 75.9258 41.4856 81.2516 34.9363 81.2516Z" fill="#159822"/>
<path d="M32.5612 85.9989C32.3832 85.9989 32.2011 85.9583 32.0318 85.8742L29.6568 84.6867C29.07 84.3933 28.8323 83.6795 29.1257 83.0933C29.4202 82.5065 30.1329 82.2711 30.7197 82.5622L33.0947 83.7497C33.6809 84.0431 33.9186 84.7569 33.6252 85.3436C33.4165 85.7588 32.9972 85.9989 32.5612 85.9989Z" fill="#159822"/>
<path d="M32.5647 86C32.1287 86 31.7095 85.76 31.5007 85.3431C31.2073 84.7569 31.4451 84.0431 32.0313 83.7497L34.4063 82.5622C34.9919 82.2711 35.7057 82.5065 36.0002 83.0927C36.2936 83.6795 36.0559 84.3933 35.4691 84.6867L33.0941 85.8742C32.9248 85.9594 32.7427 86 32.5647 86Z" fill="#159822"/>
<path d="M37.3147 86C36.8787 86 36.4595 85.76 36.2507 85.3431C35.9573 84.7569 36.1951 84.0431 36.7813 83.7497L39.1563 82.5622C39.7442 82.2711 40.4557 82.5065 40.7502 83.0927C41.0436 83.6795 40.8059 84.3933 40.2191 84.6867L37.8441 85.8742C37.6748 85.9594 37.4927 86 37.3147 86Z" fill="#159822"/>
<path d="M37.3112 85.9989C37.1332 85.9989 36.9511 85.9583 36.7818 85.8742L34.4068 84.6867C33.82 84.3933 33.5823 83.6795 33.8757 83.0933C34.1702 82.5065 34.884 82.2711 35.4697 82.5622L37.8447 83.7497C38.4309 84.0431 38.6686 84.7569 38.3752 85.3436C38.1665 85.7588 37.7472 85.9989 37.3112 85.9989Z" fill="#159822"/>
<path d="M77.6875 44.4375C77.5379 44.4375 77.3883 44.4102 77.2468 44.3534L71.5221 42.0625H59.875C59.218 42.0625 58.6875 41.532 58.6875 40.875C58.6875 40.218 59.218 39.6875 59.875 39.6875H71.75C71.9008 39.6875 72.0504 39.7159 72.1907 39.7716L76.5012 41.496V40.8738C76.5012 40.218 77.0334 39.6875 77.6887 39.6875H80.0625V21.875H56.3125V25.4363C56.3125 26.0927 55.782 26.6238 55.125 26.6238C54.468 26.6238 53.9375 26.0927 53.9375 25.4363V20.6875C53.9375 20.0305 54.468 19.5 55.125 19.5H81.25C81.907 19.5 82.4375 20.0305 82.4375 20.6875V40.875C82.4375 41.532 81.907 42.0625 81.25 42.0625H78.8762L78.875 43.2512C78.875 43.6443 78.679 44.0136 78.3537 44.2334C78.1543 44.3673 77.9212 44.4375 77.6875 44.4375Z" fill="#159822"/>
<path d="M37.3125 49.1875C37.0788 49.1875 36.8457 49.1173 36.6463 48.9834C36.321 48.7636 36.125 48.3943 36.125 48.0012L36.1238 46.8125H33.75C33.093 46.8125 32.5625 46.282 32.5625 45.625V25.4375C32.5625 24.7805 33.093 24.25 33.75 24.25H59.875C60.532 24.25 61.0625 24.7805 61.0625 25.4375V45.625C61.0625 46.282 60.532 46.8125 59.875 46.8125H43.4779L37.7532 49.1034C37.6117 49.1602 37.4621 49.1875 37.3125 49.1875ZM34.9375 44.4375H37.3113C37.9666 44.4375 38.4988 44.968 38.4988 45.6238V46.246L42.8093 44.5216C42.9496 44.4659 43.0992 44.4375 43.25 44.4375H58.6875V26.625H34.9375V44.4375Z" fill="#159822"/>
<path d="M52.7488 61.0635C52.5493 61.0635 52.3464 61.0136 52.1608 60.9069C51.592 60.5817 51.3937 59.8557 51.719 59.2869L56.469 50.9744C56.7931 50.4056 57.5191 50.2049 58.0891 50.5326C58.6579 50.8578 58.8562 51.5838 58.5309 52.1526L53.7809 60.4651C53.5623 60.8484 53.1622 61.0635 52.7488 61.0635Z" fill="#159822"/>
<path d="M59.8746 58.6883C59.667 58.6883 59.4554 58.6338 59.2641 58.5184C58.7016 58.1815 58.5196 57.4521 58.857 56.8891L62.4195 50.9516C62.7564 50.3891 63.4847 50.2071 64.0489 50.5445C64.6113 50.8814 64.7934 51.6108 64.4559 52.1739L60.8934 58.1114C60.6713 58.483 60.2782 58.6883 59.8746 58.6883Z" fill="#159822"/>
<path d="M56.3125 61.0625H52.75C52.093 61.0625 51.5625 60.532 51.5625 59.875C51.5625 59.218 52.093 58.6875 52.75 58.6875H56.3125C56.9695 58.6875 57.5 59.218 57.5 59.875C57.5 60.532 56.9695 61.0625 56.3125 61.0625Z" fill="#159822"/>
<path d="M53.939 69.3749C53.83 69.3749 53.7204 69.3592 53.6125 69.3297C52.9817 69.1493 52.6164 68.4912 52.7956 67.8621L55.1706 59.5496C55.3509 58.9176 56.0125 58.5604 56.6381 58.7326C57.269 58.913 57.6343 59.5711 57.4551 60.2002L55.0801 68.5127C54.9305 69.0351 54.4556 69.3749 53.939 69.3749Z" fill="#159822"/>
<path d="M64.625 58.6875H59.875C59.218 58.6875 58.6875 58.157 58.6875 57.5C58.6875 56.843 59.218 56.3125 59.875 56.3125H64.625C65.282 56.3125 65.8125 56.843 65.8125 57.5C65.8125 58.157 65.282 58.6875 64.625 58.6875Z" fill="#159822"/>
<path d="M53.9379 69.3754C53.6341 69.3754 53.3297 69.2589 53.0983 69.0275C52.6339 68.5631 52.6339 67.8128 53.0983 67.3483L63.7858 56.6608C64.2503 56.1964 65.0006 56.1964 65.465 56.6608C65.9295 57.1253 65.9295 57.8756 65.465 58.34L54.7775 69.0275C54.5462 69.2589 54.2418 69.3754 53.9379 69.3754Z" fill="#159822"/>
<path d="M46.8125 38.5C46.1555 38.5 45.625 37.9695 45.625 37.3125V30.1875C45.625 29.5305 46.1555 29 46.8125 29C47.4695 29 48 29.5305 48 30.1875V37.3125C48 37.9695 47.4695 38.5 46.8125 38.5Z" fill="#159822"/>
<path d="M46.8495 42.0625C46.1931 42.0625 45.6562 41.532 45.6562 40.875C45.6562 40.218 46.181 39.6875 46.8368 39.6875H46.8495C47.5053 39.6875 48.037 40.218 48.037 40.875C48.037 41.532 47.5053 42.0625 46.8495 42.0625Z" fill="#159822"/>
<path d="M68.1875 33.75C67.5305 33.75 67 33.2195 67 32.5625V25.4375C67 24.7805 67.5305 24.25 68.1875 24.25C68.8445 24.25 69.375 24.7805 69.375 25.4375V32.5625C69.375 33.2195 68.8445 33.75 68.1875 33.75Z" fill="#159822"/>
<path d="M68.2245 37.3125C67.5681 37.3125 67.0312 36.782 67.0312 36.125C67.0312 35.468 67.5559 34.9375 68.2117 34.9375H68.2245C68.8803 34.9375 69.412 35.468 69.412 36.125C69.412 36.782 68.8803 37.3125 68.2245 37.3125Z" fill="#159822"/>
</svg>
