<svg width="135" height="135" viewBox="0 0 135 135" fill="none" xmlns="http://www.w3.org/2000/svg">
<g clip-path="url(#clip0_8556_20933)">
<path d="M67.5 125.5C99.5325 125.5 125.5 99.5325 125.5 67.5C125.5 35.4675 99.5325 9.5 67.5 9.5C35.4675 9.5 9.5 35.4675 9.5 67.5C9.5 99.5325 35.4675 125.5 67.5 125.5Z" stroke="#D1D1D1"/>
<path d="M132.5 67.5C132.5 103.399 103.399 132.5 67.5 132.5C31.6015 132.5 2.5 103.399 2.5 67.5C2.5 31.6015 31.6015 2.5 67.5 2.5C103.399 2.5 132.5 31.6015 132.5 67.5ZM67.5 134.5C104.503 134.5 134.5 104.503 134.5 67.5C134.5 30.4969 104.503 0.5 67.5 0.5C30.4969 0.5 0.5 30.4969 0.5 67.5C0.5 104.503 30.4969 134.5 67.5 134.5Z" fill="#159822" stroke="#159822"/>
<path d="M87.4213 43.9836L82.9825 25.1745C82.8379 24.5621 82.224 24.1833 81.6122 24.3275C80.9999 24.4719 80.6207 25.0855 80.7651 25.6978L85.204 44.5069C85.3279 45.0312 85.7955 45.3845 86.3117 45.3845C86.3982 45.3845 86.4861 45.3747 86.574 45.3539C87.1864 45.2095 87.5658 44.5958 87.4213 43.9836Z" fill="#159822"/>
<path d="M100.547 99.5988L88.2872 47.6492C88.1426 47.0368 87.5279 46.6578 86.9169 46.8021C86.3046 46.9466 85.9253 47.5602 86.0698 48.1725L98.3296 100.122C98.4534 100.646 98.9211 101 99.4372 101C99.5238 101 99.6118 100.99 99.6998 100.969C100.312 100.825 100.691 100.211 100.547 99.5988Z" fill="#159822"/>
<path d="M38.5736 91.3333C37.9623 91.1892 37.3477 91.568 37.2033 92.1804L35.4526 99.5988C35.3081 100.211 35.6874 100.825 36.2997 100.969C36.3876 100.99 36.4755 101 36.5622 101C37.0784 101 37.5463 100.646 37.6699 100.122L39.4205 92.7037C39.5651 92.0914 39.1859 91.4778 38.5736 91.3333Z" fill="#159822"/>
<path d="M54.3859 24.3276C53.7747 24.1831 53.1601 24.5622 53.0155 25.1746L38.3354 87.38C38.1909 87.9922 38.5702 88.6059 39.1825 88.7503C39.2704 88.7711 39.3583 88.7809 39.445 88.7809C39.9613 88.7809 40.4291 88.4274 40.5528 87.9033L55.2329 25.6979C55.3774 25.0857 54.9981 24.472 54.3859 24.3276Z" fill="#159822"/>
<path d="M106.762 99.5498L85.7199 25.1264C85.5487 24.5208 84.9186 24.1691 84.3139 24.3401C83.7085 24.5112 83.3565 25.1408 83.5276 25.7462L104.57 100.17C104.712 100.671 105.168 100.999 105.665 100.999C105.768 100.999 105.872 100.985 105.976 100.956C106.581 100.785 106.933 100.155 106.762 99.5498Z" fill="#159822"/>
<path d="M51.6829 24.3401C51.0779 24.1691 50.4479 24.5208 50.277 25.1263L29.2347 99.5497C29.0636 100.155 29.4154 100.785 30.0209 100.956C30.1245 100.985 30.2288 100.999 30.3315 100.999C30.8282 100.999 31.2851 100.671 31.427 100.17L52.4692 25.7463C52.6402 25.1406 52.2882 24.5112 51.6829 24.3401Z" fill="#159822"/>
<path d="M70.9475 25.4011C70.9282 24.7723 70.4072 24.2767 69.7739 24.2975C69.145 24.3168 68.6508 24.8423 68.6703 25.4711L68.8043 29.83H67.1927L67.3267 25.4711C67.3461 24.8423 66.8521 24.3168 66.2231 24.2975C65.6019 24.2783 65.0688 24.7723 65.0495 25.4011L64.8795 30.9343C64.8699 31.2423 64.9856 31.5411 65.2002 31.7624C65.4149 31.9836 65.7098 32.1085 66.0182 32.1085H69.9793C70.2875 32.1085 70.5826 31.9836 70.7971 31.7624C71.0118 31.5411 71.1274 31.2423 71.1179 30.9343L70.9475 25.4011Z" fill="#159822"/>
<path d="M71.2064 33.7974C71.1876 33.1823 70.6834 32.6934 70.0678 32.6934H65.9305C65.3149 32.6934 64.8109 33.1823 64.792 33.7974L64.4927 43.512C64.4832 43.82 64.5988 44.1188 64.8133 44.3401C65.028 44.5613 65.3231 44.6863 65.6313 44.6863H70.367C70.6752 44.6863 70.9704 44.5614 71.185 44.3401C71.3995 44.1188 71.5152 43.82 71.5056 43.512L71.2064 33.7974ZM66.806 42.408L67.035 34.9717H68.9632L69.1922 42.408H66.806Z" fill="#159822"/>
<path d="M71.6189 47.1626C71.6001 46.5475 71.0958 46.0586 70.4804 46.0586H65.5199C64.9044 46.0586 64.4002 46.5475 64.3813 47.1626L64.0396 58.2501C64.0301 58.5581 64.1457 58.8569 64.3602 59.0782C64.5749 59.2994 64.8699 59.4245 65.1782 59.4245H70.8222C71.1304 59.4245 71.4255 59.2996 71.6402 59.0782C71.8547 58.8569 71.9703 58.5581 71.9608 58.2501L71.6189 47.1626ZM66.3528 57.1461L66.6245 48.3368H69.3759L69.6476 57.1461H66.3528Z" fill="#159822"/>
<path d="M72.1186 63.403C72.0998 62.7877 71.5956 62.2988 70.98 62.2988H65.0201C64.4045 62.2988 63.9004 62.7877 63.8815 63.4028L63.4654 76.9312C63.4558 77.2392 63.5715 77.538 63.7861 77.7593C64.0006 77.9806 64.2956 78.1055 64.6038 78.1055H71.3961C71.7043 78.1055 71.9994 77.9806 72.2139 77.7595C72.4286 77.5382 72.5442 77.2394 72.5347 76.9314L72.1186 63.403ZM65.7785 75.8272L66.1247 64.5772H69.8754L70.2212 75.8272H65.7785Z" fill="#159822"/>
<path d="M72.7333 83.4497C72.7142 82.8344 72.21 82.3457 71.5944 82.3457H64.4013C63.7857 82.3457 63.2817 82.8346 63.2627 83.4497L62.7584 99.8244C62.739 100.453 63.233 100.979 63.862 100.998C64.4857 101.017 65.0163 100.523 65.0356 99.8946L65.5059 84.6241H70.4898L70.9602 99.8946C70.9791 100.512 71.4851 100.999 72.0981 100.999C72.11 100.999 72.1218 100.998 72.1336 100.998C72.7625 100.979 73.2567 100.453 73.2372 99.8244L72.7333 83.4497Z" fill="#159822"/>
</g>
<defs>
<clipPath id="clip0_8556_20933">
<rect width="135" height="135" fill="white"/>
</clipPath>
</defs>
</svg>
