<svg width="136" height="135" viewBox="0 0 136 135" fill="none" xmlns="http://www.w3.org/2000/svg">
<g clip-path="url(#clip0_8589_22149)">
<path d="M68 125.5C100.033 125.5 126 99.5325 126 67.5C126 35.4675 100.033 9.5 68 9.5C35.9675 9.5 10 35.4675 10 67.5C10 99.5325 35.9675 125.5 68 125.5Z" stroke="#D1D1D1"/>
<path d="M133 67.5C133 103.399 103.899 132.5 68 132.5C32.1015 132.5 3 103.399 3 67.5C3 31.6015 32.1015 2.5 68 2.5C103.899 2.5 133 31.6015 133 67.5ZM68 134.5C105.003 134.5 135 104.503 135 67.5C135 30.4969 105.003 0.5 68 0.5C30.9969 0.5 1 30.4969 1 67.5C1 104.503 30.9969 134.5 68 134.5Z" fill="#159822" stroke="#159822"/>
<path d="M99.0782 53.9531H32.922C32.6195 53.9531 32.3292 54.0733 32.1153 54.2872C31.9014 54.5011 31.7812 54.7912 31.7812 55.0938C31.7812 55.3963 31.9014 55.6864 32.1153 55.9003C32.3292 56.1142 32.6195 56.2344 32.922 56.2344H99.0782C99.3807 56.2344 99.6709 56.1142 99.8848 55.9003C100.099 55.6864 100.219 55.3963 100.219 55.0938C100.219 54.7912 100.099 54.5011 99.8848 54.2872C99.6709 54.0733 99.3807 53.9531 99.0782 53.9531Z" fill="#159822"/>
<path d="M99.0782 32.2812H85.3907C85.0882 32.2812 84.798 32.4014 84.5841 32.6153C84.3702 32.8292 84.25 33.1195 84.25 33.422V49.3906H81.9689V48.5192C81.9682 46.6657 81.5388 44.8376 80.7142 43.1777C80.043 41.8357 79.6916 40.3563 79.6875 38.8559V33.422C79.6875 33.1195 79.5674 32.8292 79.3535 32.6153C79.1395 32.4014 78.8494 32.2812 78.5469 32.2812H73.9844C73.6819 32.2812 73.3918 32.4014 73.1779 32.6153C72.964 32.8292 72.8439 33.1195 72.8439 33.422V38.8559C72.8398 40.3563 72.4884 41.8357 71.8172 43.1777C71.7728 43.269 71.7409 43.3658 71.7032 43.4582C71.6599 43.3658 71.6279 43.269 71.5892 43.1777C70.918 41.8357 70.5666 40.3563 70.5625 38.8559V33.422C70.5625 33.1195 70.4424 32.8292 70.2285 32.6153C70.0145 32.4014 69.7244 32.2812 69.4219 32.2812H64.8594C64.5569 32.2812 64.2668 32.4014 64.0528 32.6153C63.8389 32.8292 63.7188 33.1195 63.7188 33.422V38.8559C63.7165 40.356 63.3671 41.8352 62.6979 43.1777C61.8713 44.8372 61.4399 46.6653 61.4375 48.5192V49.3906H50.0312V41.8786C50.0301 41.517 50.1008 41.1587 50.2393 40.8246C50.3777 40.4907 50.5812 40.1874 50.8377 39.9326C51.3069 39.466 51.6787 38.9112 51.9319 38.2999C52.185 37.6887 52.3144 37.0331 52.3125 36.3715V34.5625H54.5938V36.3715C54.5918 37.0331 54.7212 37.6887 54.9744 38.2999C55.2275 38.9112 55.5994 39.466 56.0686 39.9326C56.3251 40.1874 56.5285 40.4907 56.667 40.8246C56.8054 41.1587 56.8762 41.517 56.875 41.8786V45.9688C56.875 46.2713 56.9952 46.5614 57.2091 46.7753C57.423 46.9892 57.7131 47.1095 58.0156 47.1095C58.3181 47.1095 58.6084 46.9892 58.8223 46.7753C59.0361 46.5614 59.1562 46.2713 59.1562 45.9688V41.8786C59.1583 41.217 59.0289 40.5614 58.7757 39.9502C58.5226 39.3389 58.1507 38.7841 57.6814 38.3175C57.4249 38.0627 57.2215 37.7594 57.083 37.4254C56.9447 37.0913 56.8739 36.7331 56.875 36.3715V33.422C56.875 33.1195 56.7549 32.8292 56.541 32.6153C56.3271 32.4014 56.037 32.2812 55.7345 32.2812H51.172C50.8695 32.2812 50.5792 32.4014 50.3653 32.6153C50.1514 32.8292 50.0312 33.1195 50.0312 33.422V36.3715C50.0324 36.7331 49.9618 37.0913 49.8232 37.4254C49.6849 37.7594 49.4814 38.0627 49.2248 38.3175C49.1066 38.4475 48.995 38.5834 48.8906 38.7247C48.7862 38.5834 48.6747 38.4475 48.5564 38.3175C48.2999 38.0627 48.0965 37.7594 47.958 37.4254C47.8197 37.0913 47.749 36.7331 47.75 36.3715V33.422C47.75 33.1195 47.6299 32.8292 47.416 32.6153C47.2021 32.4014 46.912 32.2812 46.6095 32.2812H42.047C41.7445 32.2812 41.4542 32.4014 41.2403 32.6153C41.0264 32.8292 40.9062 33.1195 40.9062 33.422V36.3715C40.9074 36.7331 40.8368 37.0913 40.6982 37.4254C40.5598 37.7594 40.3565 38.0627 40.0998 38.3175C39.6307 38.7841 39.2588 39.3389 39.0056 39.9502C38.7525 40.5614 38.6231 41.217 38.625 41.8786V49.3906H32.922C32.6195 49.3906 32.3292 49.5109 32.1153 49.7248C31.9014 49.9387 31.7812 50.2288 31.7812 50.5312C31.7812 50.8339 31.9014 51.1239 32.1153 51.3378C32.3292 51.5517 32.6195 51.672 32.922 51.672H99.0782C99.3807 51.672 99.6709 51.5517 99.8848 51.3378C100.099 51.1239 100.219 50.8339 100.219 50.5312C100.219 50.2288 100.099 49.9387 99.8848 49.7248C99.6709 49.5109 99.3807 49.3906 99.0782 49.3906H86.5312V45.9688H97.9375C97.9375 46.2713 98.0578 46.5614 98.2717 46.7753C98.4855 46.9892 98.7757 47.1095 99.0782 47.1095C99.3807 47.1095 99.6709 46.9892 99.8848 46.7753C100.099 46.5614 100.219 46.2713 100.219 45.9688V33.422C100.219 33.1195 100.099 32.8292 99.8848 32.6153C99.6709 32.4014 99.3807 32.2812 99.0782 32.2812ZM77.4062 34.5625V37.9845H75.125V34.5625H77.4062ZM41.7127 39.9326C42.1818 39.466 42.5538 38.9112 42.8069 38.2999C43.0601 37.6887 43.1894 37.0331 43.1875 36.3715V34.5625H45.4688V36.3715C45.4668 37.0331 45.5962 37.6887 45.8494 38.2999C46.1025 38.9112 46.4744 39.466 46.9436 39.9326C47.2001 40.1874 47.4035 40.4907 47.542 40.8246C47.6804 41.1587 47.7511 41.517 47.75 41.8786V43.6875H40.9062V41.8786C40.9052 41.517 40.9758 41.1587 41.1143 40.8246C41.2527 40.4907 41.4561 40.1874 41.7127 39.9326ZM40.9062 45.9688H47.75V49.3906H40.9062V45.9688ZM63.7188 48.5192C63.721 47.0191 64.0704 45.5399 64.7397 44.1974C65.5662 42.5379 65.9977 40.7098 66 38.8559V34.5625H68.2812V38.8559C68.2819 40.7094 68.7113 42.5375 69.5359 44.1974C70.2071 45.5394 70.5585 47.0187 70.5625 48.5192V49.3906H63.7188V48.5192ZM72.8439 49.3906V48.5192C72.8479 47.0187 73.1992 45.5394 73.8703 44.1974C74.482 42.9634 74.877 41.6334 75.0383 40.2656H77.4929C77.656 41.6338 78.0531 42.9637 78.6667 44.1974C79.3379 45.5394 79.6892 47.0187 79.6932 48.5192V49.3906H72.8439ZM97.9375 34.5625V36.8438H86.5312V34.5625H97.9375ZM86.5312 43.6875V39.125H97.9375V43.6875H86.5312Z" fill="#159822"/>
<path d="M99.0782 80.1875H32.922C32.6195 80.1875 32.3292 80.3077 32.1153 80.5216C31.9014 80.7355 31.7812 81.0256 31.7812 81.3281C31.7812 81.6306 31.9014 81.9208 32.1153 82.1347C32.3292 82.3486 32.6195 82.4688 32.922 82.4688H97.9375V98.4375H81.9689V85.8906C81.9689 85.5881 81.8486 85.298 81.6347 85.0841C81.4208 84.8702 81.1307 84.75 80.8282 84.75C80.5257 84.75 80.2355 84.8702 80.0216 85.0841C79.8077 85.298 79.6875 85.5881 79.6875 85.8906V98.4375H77.4062V90.4531C77.4062 90.1506 77.2861 89.8605 77.0722 89.6466C76.8583 89.4327 76.5682 89.3125 76.2657 89.3125H59.1562C58.8538 89.3125 58.5637 89.4327 58.3498 89.6466C58.1359 89.8605 58.0156 90.1506 58.0156 90.4531V98.4375H54.5938V85.8906C54.5938 85.5881 54.4736 85.298 54.2598 85.0841C54.0459 84.8702 53.7556 84.75 53.4531 84.75H35.2031C34.9006 84.75 34.6105 84.8702 34.3966 85.0841C34.1827 85.298 34.0625 85.5881 34.0625 85.8906V98.4375H32.922C32.6195 98.4375 32.3292 98.5577 32.1153 98.7716C31.9014 98.9855 31.7812 99.2756 31.7812 99.5781C31.7812 99.8806 31.9014 100.171 32.1153 100.385C32.3292 100.599 32.6195 100.719 32.922 100.719H99.0782C99.3807 100.719 99.6709 100.599 99.8848 100.385C100.099 100.171 100.219 99.8806 100.219 99.5781V81.3281C100.219 81.0256 100.099 80.7355 99.8848 80.5216C99.6709 80.3077 99.3807 80.1875 99.0782 80.1875ZM75.125 93.875H71.7032V91.5938H75.125V93.875ZM69.4219 93.875H66V91.5938H69.4219V93.875ZM63.7188 91.5938V93.875H60.297V91.5938H63.7188ZM52.3125 89.7482C51.8899 89.2539 51.3651 88.857 50.7744 88.5848C50.1837 88.3127 49.541 88.1718 48.8906 88.1718C48.2402 88.1718 47.5977 88.3127 47.007 88.5848C46.4162 88.857 45.8914 89.2539 45.4688 89.7482V87.0312H52.3125V89.7482ZM51.172 92.7344C51.172 93.1856 51.0381 93.6266 50.7874 94.0018C50.5367 94.3769 50.1805 94.6693 49.7636 94.842C49.3468 95.0146 48.8881 95.0598 48.4456 94.9718C48.0031 94.8838 47.5967 94.6665 47.2775 94.3475C46.9585 94.0284 46.7412 93.6219 46.6532 93.1794C46.5652 92.7369 46.6105 92.2782 46.7831 91.8614C46.9558 91.4445 47.2481 91.0883 47.6232 90.8376C47.9984 90.5869 48.4394 90.4531 48.8906 90.4531C49.4956 90.4531 50.076 90.6935 50.5037 91.1213C50.9315 91.5491 51.172 92.1293 51.172 92.7344ZM36.3438 91.5938H43.1875V93.875H36.3438V91.5938ZM43.1875 87.0312V89.3125H36.3438V87.0312H43.1875ZM36.3438 96.1562H43.1875V98.4375H36.3438V96.1562ZM45.4688 98.4375V95.7205C45.8914 96.2149 46.4162 96.6118 47.007 96.8839C47.5977 97.156 48.2402 97.297 48.8906 97.297C49.541 97.297 50.1837 97.156 50.7744 96.8839C51.3651 96.6118 51.8899 96.2149 52.3125 95.7205V98.4375H45.4688ZM60.297 96.1562H63.7188V98.4375H60.297V96.1562ZM66 96.1562H69.4219V98.4375H66V96.1562ZM71.7032 98.4375V96.1562H75.125V98.4375H71.7032Z" fill="#159822"/>
<path d="M94.5156 93.8751C94.8181 93.8751 95.1083 93.7549 95.3222 93.541C95.5361 93.3271 95.6562 93.037 95.6562 92.7345V88.172C95.6562 87.8695 95.5361 87.5793 95.3222 87.3654C95.1083 87.1515 94.8181 87.0312 94.5156 87.0312H85.3906C85.0881 87.0312 84.798 87.1515 84.5841 87.3654C84.3702 87.5793 84.25 87.8695 84.25 88.172V92.7345C84.25 93.037 84.3702 93.3271 84.5841 93.541C84.798 93.7549 85.0881 93.8751 85.3906 93.8751H94.5156ZM86.5312 89.3126H93.375V91.5939H86.5312V89.3126Z" fill="#159822"/>
<path d="M97.9375 63.288V59.6562C97.9375 59.3537 97.8174 59.0636 97.6035 58.8497C97.3896 58.6358 97.0994 58.5156 96.797 58.5156H92.2344C91.9319 58.5156 91.6418 58.6358 91.4279 58.8497C91.214 59.0636 91.0939 59.3537 91.0939 59.6562V63.288C90.429 63.5231 89.853 63.9578 89.4446 64.5328C89.0363 65.1077 88.8154 65.7948 88.8125 66.5V74.4844C88.8163 74.8738 88.8873 75.2597 89.0224 75.625H85.3907V68.7812C85.6932 68.7812 85.9833 68.6611 86.1972 68.4472C86.4111 68.2333 86.5312 67.9431 86.5312 67.6406C86.5312 67.3381 86.4111 67.048 86.1972 66.8341C85.9833 66.6202 85.6932 66.5 85.3907 66.5H76.2657C75.9632 66.5 75.673 66.6202 75.4591 66.8341C75.2452 67.048 75.125 67.3381 75.125 67.6406C75.125 67.9431 75.2452 68.2333 75.4591 68.4472C75.673 68.6611 75.9632 68.7812 76.2657 68.7812V75.625H72.8439V65.3594C72.8439 65.0569 72.7236 64.7667 72.5097 64.5528C72.2958 64.3389 72.0057 64.2188 71.7032 64.2188H58.0156C57.7131 64.2188 57.423 64.3389 57.2091 64.5528C56.9952 64.7667 56.875 65.0569 56.875 65.3594V75.625H54.5938V74.4844C54.5938 74.1819 54.4736 73.8917 54.2598 73.6778C54.0459 73.4639 53.7556 73.3438 53.4531 73.3438C53.1506 73.3438 52.8605 73.4639 52.6466 73.6778C52.4327 73.8917 52.3125 74.1819 52.3125 74.4844V75.625H45.4688V68.1128C45.4676 67.7513 45.5383 67.393 45.6768 67.059C45.8152 66.725 46.0186 66.4217 46.2752 66.1669C46.7443 65.7004 47.1163 65.1455 47.3694 64.5342C47.6226 63.9229 47.7519 63.2675 47.75 62.6059V60.7969H50.0312V62.6059C50.0294 63.2675 50.1587 63.9229 50.4119 64.5342C50.665 65.1455 51.0369 65.7004 51.5061 66.1669C51.7626 66.4217 51.966 66.725 52.1045 67.059C52.2429 67.393 52.3137 67.7513 52.3125 68.1128V69.9219C52.3125 70.2244 52.4327 70.5145 52.6466 70.7284C52.8605 70.9423 53.1506 71.0625 53.4531 71.0625C53.7556 71.0625 54.0459 70.9423 54.2598 70.7284C54.4736 70.5145 54.5938 70.2244 54.5938 69.9219V68.1128C54.5957 67.4512 54.4664 66.7958 54.2132 66.1846C53.9601 65.5733 53.5882 65.0183 53.1189 64.5518C52.8624 64.297 52.659 63.9938 52.5205 63.6597C52.3822 63.3257 52.3114 62.9675 52.3125 62.6059V59.6562C52.3125 59.3537 52.1924 59.0636 51.9785 58.8497C51.7646 58.6358 51.4745 58.5156 51.172 58.5156H46.6095C46.307 58.5156 46.0167 58.6358 45.8028 58.8497C45.5889 59.0636 45.4688 59.3537 45.4688 59.6562V62.6059C45.4699 62.9675 45.3993 63.3257 45.2607 63.6597C45.1223 63.9938 44.919 64.297 44.6623 64.5518C44.5441 64.6818 44.4325 64.8177 44.3281 64.959C44.2237 64.8177 44.1123 64.6818 43.9939 64.5518C43.7374 64.297 43.534 63.9938 43.3955 63.6597C43.2571 63.3257 43.1865 62.9675 43.1875 62.6059V59.6562C43.1875 59.3537 43.0674 59.0636 42.8535 58.8497C42.6396 58.6358 42.3495 58.5156 42.047 58.5156H37.4845C37.182 58.5156 36.8917 58.6358 36.6778 58.8497C36.4639 59.0636 36.3438 59.3537 36.3438 59.6562V62.6059C36.3449 62.9675 36.2743 63.3257 36.1357 63.6597C35.9973 63.9938 35.7939 64.297 35.5373 64.5518C35.0682 65.0183 34.6963 65.5733 34.4431 66.1846C34.19 66.7958 34.0606 67.4512 34.0625 68.1128V75.625H32.922C32.6195 75.625 32.3292 75.7452 32.1153 75.9591C31.9014 76.173 31.7812 76.4631 31.7812 76.7656C31.7812 77.0681 31.9014 77.3583 32.1153 77.5722C32.3292 77.7861 32.6195 77.9062 32.922 77.9062H99.0782C99.3045 77.906 99.5256 77.8384 99.7133 77.7121C99.9011 77.5859 100.047 77.4066 100.133 77.1971C100.218 76.9876 100.24 76.7574 100.194 76.5358C100.148 76.3141 100.038 76.111 99.8766 75.9524C100.1 75.495 100.217 74.9932 100.219 74.4844V66.5C100.216 65.7948 99.9951 65.1077 99.5867 64.5328C99.1784 63.9578 98.6024 63.5231 97.9375 63.288ZM37.1502 66.1669C37.6193 65.7004 37.9912 65.1455 38.2444 64.5342C38.4975 63.9229 38.6269 63.2675 38.625 62.6059V60.7969H40.9062V62.6059C40.9044 63.2675 41.0337 63.9229 41.2869 64.5342C41.54 65.1455 41.9119 65.7004 42.3811 66.1669C42.6376 66.4217 42.841 66.725 42.9795 67.059C43.1179 67.393 43.1886 67.7513 43.1875 68.1128V69.9219H36.3438V68.1128C36.3426 67.7513 36.4133 67.393 36.5518 67.059C36.6902 66.725 36.8936 66.4217 37.1502 66.1669ZM36.3438 72.2031H43.1875V75.625H36.3438V72.2031ZM93.375 60.7969H95.6562V63.0781H93.375V60.7969ZM92.2344 65.3594H96.797C97.0994 65.3594 97.3896 65.4795 97.6035 65.6935C97.8174 65.9074 97.9375 66.1975 97.9375 66.5V69.9219H91.0939V66.5C91.0939 66.1975 91.214 65.9074 91.4279 65.6935C91.6418 65.4795 91.9319 65.3594 92.2344 65.3594ZM70.5625 71.0625H66V66.5H70.5625V71.0625ZM63.7188 66.5V68.7812H59.1562V66.5H63.7188ZM59.1562 71.0625H63.7188V75.625H59.1562V71.0625ZM66 75.625V73.3438H70.5625V75.625H66ZM78.5469 75.625V68.7812H83.1094V75.625H78.5469ZM92.2344 75.625C91.9319 75.625 91.6418 75.5048 91.4279 75.2909C91.214 75.077 91.0939 74.7869 91.0939 74.4844V72.2031H97.9375V74.4844C97.9375 74.7869 97.8174 75.077 97.6035 75.2909C97.3896 75.5048 97.0994 75.625 96.797 75.625H92.2344Z" fill="#159822"/>
</g>
<defs>
<clipPath id="clip0_8589_22149">
<rect width="135" height="135" fill="white" transform="translate(0.5)"/>
</clipPath>
</defs>
</svg>
