<svg width="24" height="24" viewBox="0 0 24 24" fill="none" xmlns="http://www.w3.org/2000/svg">
<rect width="24" height="24" fill="white"/>
<g clip-path="url(#clip0_2800_18354)">
<path d="M22.6288 18.2697C22.5622 18.4573 22.434 18.6168 22.2651 18.7221C22.0962 18.8275 21.8966 18.8724 21.6988 18.8497H21.3088C21.1688 18.8497 21.1188 18.9097 21.1288 19.0397C21.1437 19.2194 21.1437 19.4 21.1288 19.5797C21.0857 19.8588 20.944 20.1132 20.7293 20.2967C20.5146 20.4802 20.2412 20.5806 19.9588 20.5797C18.9588 20.5797 17.8788 20.5797 16.8288 20.5797C16.6545 20.5919 16.4797 20.5662 16.3163 20.5043C16.1529 20.4425 16.0048 20.3461 15.8823 20.2216C15.7597 20.0971 15.6655 19.9476 15.6062 19.7833C15.5469 19.6189 15.5239 19.4437 15.5388 19.2697C15.5388 18.7697 15.5388 18.7697 15.0288 18.7697H9.6488C9.1788 18.7697 9.2288 18.7097 9.2288 19.1797C9.23635 19.3634 9.20657 19.5467 9.14125 19.7186C9.07594 19.8905 8.97645 20.0473 8.8488 20.1797C8.73167 20.2949 8.59246 20.3854 8.43952 20.4455C8.28659 20.5057 8.12307 20.5343 7.9588 20.5297H4.9588C4.79429 20.5337 4.63064 20.5049 4.47737 20.445C4.3241 20.3851 4.18429 20.2952 4.06609 20.1808C3.94788 20.0663 3.85365 19.9294 3.78887 19.7781C3.7241 19.6269 3.69008 19.4642 3.6888 19.2997V19.2697C3.6888 18.7997 3.6888 18.7997 3.1988 18.7997H2.8788C2.67624 18.792 2.48438 18.7067 2.34292 18.5616C2.20146 18.4164 2.12122 18.2224 2.1188 18.0197V12.4497C2.1188 12.2097 2.2388 12.0697 2.4388 12.0697C2.6388 12.0697 2.7488 12.2097 2.7488 12.4497V17.7797C2.7488 18.1197 2.7488 18.1497 3.1088 18.1497H21.6588C21.9888 18.1497 22.0188 18.1497 22.0188 17.7997V6.72967C22.0188 6.37967 22.0188 6.34967 21.6388 6.34967H13.3088C13.2094 6.36476 13.1082 6.36476 13.0088 6.34967C12.9367 6.32895 12.8741 6.28356 12.8321 6.22141C12.7901 6.15926 12.7712 6.08432 12.7788 6.00967C12.7786 5.9361 12.8064 5.86521 12.8565 5.81137C12.9067 5.75752 12.9754 5.72474 13.0488 5.71967C13.1218 5.70991 13.1958 5.70991 13.2688 5.71967H19.9588C20.2288 5.71967 20.2388 5.71967 20.2288 5.43967C20.2558 5.2958 20.231 5.14702 20.1588 5.01967C20.1057 4.94717 20.034 4.89032 19.9513 4.85513C19.8686 4.81993 19.7779 4.80768 19.6888 4.81967H5.1288C5.00226 4.80349 4.87374 4.82433 4.7588 4.87967C4.65767 4.9792 4.58561 5.10442 4.55036 5.24187C4.51512 5.37931 4.51804 5.52376 4.5588 5.65967C4.56817 5.67804 4.58251 5.6934 4.60019 5.70401C4.61788 5.71462 4.63818 5.72005 4.6588 5.71967H11.5288C11.8588 5.71967 12.0188 5.82967 12.0188 6.04967C12.0188 6.26967 11.8388 6.37967 11.5188 6.37967H3.1488C2.7688 6.37967 2.7488 6.37967 2.7488 6.76967V10.9497C2.7488 11.1197 2.7488 11.2597 2.5588 11.3297C2.5109 11.3518 2.45814 11.3614 2.40552 11.3574C2.35289 11.3535 2.30214 11.3362 2.25808 11.3071C2.21402 11.2781 2.1781 11.2383 2.15373 11.1915C2.12935 11.1447 2.11733 11.0924 2.1188 11.0397V6.54967C2.1116 6.43572 2.12857 6.32153 2.16861 6.2146C2.20864 6.10767 2.27083 6.01041 2.35109 5.9292C2.43135 5.848 2.52788 5.78468 2.63434 5.74339C2.74079 5.70211 2.85477 5.68381 2.9688 5.68967H3.7088C3.8388 5.68967 3.8888 5.68967 3.8888 5.50967C3.8738 5.35336 3.8738 5.19598 3.8888 5.03967C3.93766 4.78371 4.07424 4.5528 4.27502 4.3867C4.4758 4.2206 4.72822 4.1297 4.9888 4.12967H7.1388C11.2988 4.12967 15.4488 4.12967 19.6088 4.12967C19.7803 4.11612 19.9528 4.13994 20.1142 4.19947C20.2757 4.25901 20.4223 4.35285 20.544 4.47452C20.6656 4.59619 20.7595 4.74281 20.819 4.90425C20.8785 5.0657 20.9023 5.23813 20.8888 5.40967C20.8888 5.69967 20.8888 5.69967 21.1788 5.69967H21.6988C21.8956 5.67441 22.0951 5.71715 22.2642 5.82082C22.4334 5.9245 22.562 6.08286 22.6288 6.26967V18.2697ZM6.4688 18.8497H4.8288C4.3488 18.8497 4.3488 18.8497 4.3488 19.3197C4.33892 19.4044 4.34851 19.4902 4.37683 19.5706C4.40515 19.651 4.45146 19.7239 4.51223 19.7837C4.57299 19.8435 4.64661 19.8886 4.72747 19.9157C4.80832 19.9427 4.89429 19.9509 4.9788 19.9397C5.8888 19.9397 6.7988 19.9397 7.6988 19.9397C8.5988 19.9397 8.5988 19.6697 8.5688 19.0397C8.5688 18.8897 8.5688 18.8297 8.3688 18.8297L6.4688 18.8497ZM18.3088 18.8497H16.6688C16.1988 18.8497 16.1988 18.8497 16.1988 19.3297C16.1908 19.4126 16.2015 19.4963 16.23 19.5746C16.2585 19.6529 16.3041 19.7239 16.3635 19.7824C16.4229 19.8408 16.4946 19.8853 16.5734 19.9125C16.6521 19.9397 16.736 19.949 16.8188 19.9397C17.7288 19.9397 18.6388 19.9397 19.5388 19.9397C20.4388 19.9397 20.4488 19.6697 20.4188 19.0497C20.4188 18.8697 20.3588 18.8297 20.1888 18.8297L18.3088 18.8497Z" fill="#D5692B" stroke="#D5692B" stroke-width="0.25" stroke-miterlimit="10"/>
<path d="M7.22154 11.76H4.46154C3.96154 11.76 3.72154 11.53 3.72154 11.03V8.03005C3.70011 7.93191 3.70245 7.83006 3.72838 7.73301C3.75431 7.63596 3.80307 7.54652 3.87059 7.47215C3.93812 7.39777 4.02244 7.34062 4.11655 7.30547C4.21065 7.27031 4.31179 7.25817 4.41154 7.27005H10.0315C10.1241 7.26249 10.2171 7.27514 10.3043 7.30715C10.3914 7.33915 10.4706 7.38973 10.5362 7.45537C10.6019 7.52102 10.6524 7.60016 10.6844 7.68731C10.7164 7.77445 10.7291 7.86752 10.7215 7.96005V11.02C10.7327 11.1173 10.7218 11.2158 10.6896 11.3083C10.6573 11.4007 10.6046 11.4847 10.5354 11.5539C10.4662 11.6231 10.3822 11.6758 10.2898 11.7081C10.1973 11.7403 10.0988 11.7512 10.0015 11.74L7.22154 11.76ZM7.82154 11.08H7.92154H9.92154C10.0815 11.08 10.1015 10.99 10.1015 10.86C10.1015 9.96005 10.1015 9.05005 10.1015 8.14005C10.1015 7.97005 10.0415 7.93005 9.88154 7.93005H4.56154C4.40154 7.93005 4.35154 7.98005 4.35154 8.14005C4.35154 9.05005 4.35154 9.96005 4.35154 10.88C4.35154 11.04 4.41154 11.08 4.56154 11.08H6.86154C6.91648 11.0857 6.97183 11.0743 7.02011 11.0475C7.06839 11.0206 7.10728 10.9797 7.13154 10.93C7.27154 10.68 7.42154 10.44 7.57154 10.21C7.61397 10.1358 7.68417 10.0814 7.76669 10.0589C7.8492 10.0364 7.93728 10.0476 8.01154 10.09C8.0858 10.1325 8.14016 10.2027 8.16267 10.2852C8.18517 10.3677 8.17397 10.4558 8.13154 10.53L7.82154 11.08Z" fill="#D5692B" stroke="#D5692B" stroke-width="0.25" stroke-miterlimit="10"/>
<path d="M7.21072 17.2087H4.43072C4.33438 17.2219 4.23627 17.2127 4.14408 17.1817C4.0519 17.1507 3.96814 17.0988 3.89937 17.03C3.8306 16.9612 3.77868 16.8775 3.74769 16.7853C3.7167 16.6931 3.70747 16.595 3.72072 16.4987V13.4287C3.7111 13.3348 3.72268 13.24 3.7546 13.1512C3.78653 13.0624 3.83798 12.9819 3.90518 12.9157C3.97237 12.8495 4.05358 12.7992 4.14281 12.7685C4.23204 12.7379 4.32702 12.7277 4.42072 12.7387H10.0007C10.098 12.7275 10.1965 12.7384 10.289 12.7706C10.3814 12.8029 10.4654 12.8556 10.5346 12.9248C10.6038 12.994 10.6565 13.078 10.6887 13.1704C10.721 13.2629 10.7319 13.3614 10.7207 13.4587V16.4587C10.7323 16.5542 10.7218 16.6512 10.6901 16.7421C10.6583 16.833 10.6062 16.9154 10.5376 16.983C10.469 17.0506 10.3859 17.1016 10.2946 17.132C10.2032 17.1625 10.1061 17.1716 10.0107 17.1587L7.21072 17.2087ZM7.21072 13.3987H4.84073C4.35073 13.3987 4.35072 13.3987 4.35072 13.8987V16.3387C4.35072 16.4387 4.35072 16.5487 4.50072 16.5487C5.16739 16.5487 5.83406 16.5487 6.50072 16.5487C6.61072 16.5487 6.62072 16.4887 6.57072 16.4087C6.52073 16.3287 6.41072 16.1587 6.34072 16.0287C6.30716 15.993 6.28195 15.9504 6.26691 15.9038C6.25187 15.8572 6.24738 15.8079 6.25376 15.7593C6.26015 15.7108 6.27725 15.6643 6.30383 15.6232C6.3304 15.5821 6.36579 15.5474 6.40742 15.5217C6.44906 15.496 6.4959 15.4798 6.54454 15.4744C6.59319 15.469 6.64243 15.4745 6.6887 15.4905C6.73496 15.5065 6.77709 15.5325 6.81203 15.5668C6.84697 15.6011 6.87385 15.6427 6.89072 15.6887C7.03072 15.9087 7.17072 16.1287 7.29072 16.3487C7.32133 16.414 7.37139 16.4683 7.43404 16.5041C7.4967 16.5399 7.56888 16.5555 7.64072 16.5487C8.36739 16.5487 9.09739 16.5487 9.83073 16.5487C10.0107 16.5487 10.0807 16.4987 10.0807 16.2987C10.0807 15.4187 10.0807 14.5287 10.0807 13.6387C10.0807 13.4387 10.0107 13.3887 9.83073 13.3987H7.21072Z" fill="#D5692B" stroke="#D5692B" stroke-width="0.25" stroke-miterlimit="10"/>
<path d="M18.0591 14.9713C18.0591 14.4113 18.0591 13.8513 18.0591 13.2913C18.0496 13.2177 18.0569 13.1428 18.0805 13.0724C18.1041 13.0021 18.1434 12.938 18.1954 12.885C18.2474 12.832 18.3108 12.7916 18.3807 12.7667C18.4507 12.7418 18.5253 12.7331 18.5991 12.7413H20.4991C20.5733 12.7334 20.6483 12.7422 20.7186 12.7671C20.7889 12.7919 20.8527 12.8322 20.9055 12.8849C20.9582 12.9377 20.9985 13.0015 21.0233 13.0718C21.0482 13.1421 21.057 13.2171 21.0491 13.2913V16.6713C21.0554 16.7433 21.0457 16.8159 21.0207 16.8837C20.9956 16.9516 20.9559 17.0131 20.9042 17.0637C20.8526 17.1144 20.7904 17.153 20.7221 17.1768C20.6538 17.2006 20.5811 17.2089 20.5091 17.2013C19.8425 17.2013 19.2025 17.2013 18.5891 17.2013C18.5176 17.2092 18.4452 17.201 18.3773 17.1771C18.3094 17.1533 18.2477 17.1145 18.1968 17.0636C18.1459 17.0127 18.1071 16.951 18.0833 16.8831C18.0594 16.8152 18.0512 16.7428 18.0591 16.6713C18.0491 16.1013 18.0591 15.5413 18.0591 14.9713ZM19.5491 14.6613H20.2491C20.3691 14.6613 20.4191 14.6613 20.4191 14.5013C20.4191 14.1813 20.4191 13.8713 20.4191 13.5613C20.4191 13.4313 20.3591 13.4013 20.2491 13.4013H18.8491C18.7091 13.4013 18.6791 13.4613 18.6791 13.5813C18.6791 13.8813 18.6791 14.1813 18.6791 14.4813C18.6791 14.6313 18.7391 14.6613 18.8691 14.6613H19.5491ZM19.5491 15.3113H18.8491C18.7191 15.3113 18.6691 15.3613 18.6691 15.4913C18.6691 15.7813 18.6691 16.0813 18.6691 16.3713C18.6691 16.5013 18.7191 16.5513 18.8491 16.5513C19.3091 16.5513 19.7691 16.5513 20.2191 16.5513C20.3591 16.5513 20.4091 16.5013 20.4091 16.3613C20.4091 16.2213 20.4091 15.7913 20.4091 15.5013C20.4091 15.2113 20.3491 15.3113 20.2091 15.3113C20.0691 15.3113 19.7791 15.2713 19.5591 15.2713L19.5491 15.3113Z" fill="#D5692B" stroke="#D5692B" stroke-width="0.25" stroke-miterlimit="10"/>
<path d="M12.2081 8.41028C12.1934 8.25499 12.2113 8.09832 12.2606 7.95034C12.31 7.80235 12.3897 7.6663 12.4946 7.55091C12.5996 7.43552 12.7275 7.34333 12.8702 7.28024C13.0129 7.21716 13.1671 7.18457 13.3231 7.18457C13.4791 7.18457 13.6334 7.21716 13.7761 7.28024C13.9187 7.34333 14.0466 7.43552 14.1516 7.55091C14.2566 7.6663 14.3363 7.80235 14.3856 7.95034C14.435 8.09832 14.4528 8.25499 14.4381 8.41028C14.4528 8.56558 14.435 8.72224 14.3856 8.87023C14.3363 9.01821 14.2566 9.15426 14.1516 9.26965C14.0466 9.38505 13.9187 9.47724 13.7761 9.54032C13.6334 9.60341 13.4791 9.63599 13.3231 9.63599C13.1671 9.63599 13.0129 9.60341 12.8702 9.54032C12.7275 9.47724 12.5996 9.38505 12.4946 9.26965C12.3897 9.15426 12.31 9.01821 12.2606 8.87023C12.2113 8.72224 12.1934 8.56558 12.2081 8.41028ZM13.7881 8.41028C13.7882 8.34815 13.7757 8.28666 13.7513 8.2295C13.7269 8.17235 13.6913 8.12072 13.6464 8.07773C13.6015 8.03475 13.5484 8.00129 13.4903 7.97939C13.4322 7.95748 13.3702 7.94758 13.3081 7.95028C13.1835 7.95028 13.0639 7.9998 12.9758 8.08794C12.8876 8.17608 12.8381 8.29563 12.8381 8.42028C12.8407 8.54413 12.891 8.6622 12.9786 8.7498C13.0662 8.83739 13.1843 8.88773 13.3081 8.89028C13.371 8.89304 13.4339 8.88284 13.4927 8.86033C13.5515 8.83781 13.6051 8.80346 13.6501 8.7594C13.6951 8.71533 13.7305 8.6625 13.7543 8.60417C13.778 8.54584 13.7896 8.48325 13.7881 8.42028V8.41028Z" fill="#D5692B" stroke="#D5692B" stroke-width="0.25" stroke-miterlimit="10"/>
<path d="M15.4102 8.41953C15.4122 8.19887 15.4793 7.98372 15.6031 7.80108C15.7269 7.61844 15.902 7.47644 16.1062 7.39291C16.3104 7.30939 16.5348 7.28805 16.7511 7.33158C16.9674 7.37512 17.1661 7.48158 17.3221 7.63761C17.4781 7.79364 17.5846 7.99228 17.6281 8.20861C17.6717 8.42493 17.6503 8.64929 17.5668 8.85353C17.4833 9.05777 17.3413 9.23279 17.1586 9.35661C16.976 9.48043 16.7609 9.54755 16.5402 9.54953C16.3914 9.55086 16.2439 9.52254 16.1062 9.46623C15.9685 9.40991 15.8434 9.32673 15.7382 9.22153C15.633 9.11633 15.5498 8.99123 15.4935 8.85353C15.4372 8.71583 15.4089 8.56829 15.4102 8.41953ZM16.5402 7.95953C16.4782 7.95546 16.4159 7.96401 16.3573 7.98468C16.2986 8.00534 16.2448 8.03768 16.199 8.07974C16.1532 8.1218 16.1164 8.17271 16.0908 8.22939C16.0652 8.28607 16.0514 8.34735 16.0502 8.40953C16.0502 8.53512 16.0994 8.65571 16.1872 8.74545C16.2751 8.83519 16.3946 8.88691 16.5202 8.88953C16.5818 8.89228 16.6433 8.88235 16.7009 8.86034C16.7585 8.83833 16.811 8.80471 16.8551 8.76158C16.8992 8.71844 16.9339 8.66671 16.9571 8.60959C16.9804 8.55247 16.9916 8.49118 16.9902 8.42953C16.9929 8.36877 16.9833 8.3081 16.9619 8.25117C16.9405 8.19424 16.9077 8.14225 16.8657 8.09832C16.8236 8.05439 16.7731 8.01944 16.7172 7.99559C16.6612 7.97173 16.601 7.95947 16.5402 7.95953Z" fill="#D5692B" stroke="#D5692B" stroke-width="0.25" stroke-miterlimit="10"/>
<path d="M20.8483 8.42005C20.863 8.57534 20.8451 8.73201 20.7958 8.87999C20.7465 9.02798 20.6667 9.16403 20.5618 9.27942C20.4568 9.39481 20.3289 9.487 20.1862 9.55009C20.0435 9.61317 19.8893 9.64576 19.7333 9.64576C19.5773 9.64576 19.423 9.61317 19.2803 9.55009C19.1377 9.487 19.0098 9.39481 18.9048 9.27942C18.7998 9.16403 18.7201 9.02798 18.6708 8.87999C18.6214 8.73201 18.6036 8.57534 18.6183 8.42005C18.6036 8.26475 18.6214 8.10809 18.6708 7.9601C18.7201 7.81212 18.7998 7.67607 18.9048 7.56068C19.0098 7.44528 19.1377 7.35309 19.2803 7.29001C19.423 7.22692 19.5773 7.19434 19.7333 7.19434C19.8893 7.19434 20.0435 7.22692 20.1862 7.29001C20.3289 7.35309 20.4568 7.44528 20.5618 7.56068C20.6667 7.67607 20.7465 7.81212 20.7958 7.9601C20.8451 8.10809 20.863 8.26475 20.8483 8.42005ZM19.7183 7.96005C19.5944 7.9626 19.4764 8.01294 19.3888 8.10053C19.3012 8.18813 19.2508 8.3062 19.2483 8.43005C19.2559 8.55473 19.3109 8.67179 19.402 8.75729C19.4931 8.8428 19.6134 8.89028 19.7383 8.89005C19.7996 8.88877 19.86 8.87526 19.916 8.85031C19.9719 8.82536 20.0224 8.78948 20.0643 8.74476C20.1062 8.70004 20.1388 8.6474 20.1601 8.58992C20.1814 8.53244 20.191 8.47128 20.1883 8.41005C20.1898 8.34882 20.1786 8.28794 20.1552 8.23131C20.1319 8.17469 20.097 8.12356 20.0527 8.0812C20.0085 8.03884 19.9559 8.00618 19.8983 7.98532C19.8407 7.96446 19.7794 7.95585 19.7183 7.96005Z" fill="#D5692B" stroke="#D5692B" stroke-width="0.25" stroke-miterlimit="10"/>
<path d="M14.3884 16.06H16.5084C16.5775 16.0545 16.6465 16.0709 16.7057 16.1068C16.7649 16.1427 16.8114 16.1963 16.8384 16.26C16.8663 16.3189 16.8736 16.3854 16.8591 16.4489C16.8446 16.5124 16.8091 16.5692 16.7584 16.61C16.6973 16.6715 16.615 16.7072 16.5284 16.71H12.2084C12.1236 16.7025 12.0446 16.6634 11.9872 16.6005C11.9298 16.5375 11.8981 16.4553 11.8984 16.37C11.8982 16.3267 11.9071 16.2838 11.9246 16.2441C11.942 16.2043 11.9675 16.1687 11.9996 16.1395C12.0316 16.1103 12.0694 16.0881 12.1106 16.0744C12.1517 16.0608 12.1953 16.0559 12.2384 16.06H14.3884Z" fill="#D5692B" stroke="#D5692B" stroke-width="0.25" stroke-miterlimit="10"/>
<path d="M14.3685 13.88H12.3085C12.0685 13.88 11.9285 13.77 11.9185 13.58C11.9085 13.39 12.0385 13.27 12.2685 13.25H12.5285H16.3085H16.5885C16.6318 13.2513 16.6745 13.2611 16.7141 13.2789C16.7536 13.2967 16.7892 13.3221 16.819 13.3537C16.8487 13.3853 16.8719 13.4224 16.8873 13.4629C16.9026 13.5035 16.9098 13.5467 16.9085 13.59C16.9048 13.633 16.8925 13.6749 16.8722 13.713C16.8519 13.7511 16.8241 13.7848 16.7904 13.8119C16.7568 13.839 16.718 13.859 16.6764 13.8707C16.6349 13.8824 16.5913 13.8856 16.5485 13.88H14.3685Z" fill="#D5692B" stroke="#D5692B" stroke-width="0.25" stroke-miterlimit="10"/>
<path d="M14.3686 14.6593H16.5086C16.5672 14.6504 16.6271 14.6585 16.6812 14.6825C16.7353 14.7066 16.7814 14.7457 16.814 14.7951C16.8466 14.8446 16.8644 14.9023 16.8652 14.9615C16.866 15.0208 16.8499 15.079 16.8186 15.1293C16.8006 15.1691 16.7728 15.2037 16.7378 15.2299C16.7029 15.2562 16.6619 15.2731 16.6186 15.2793C16.5152 15.2857 16.4114 15.2823 16.3086 15.2693H12.4386C12.3589 15.279 12.2783 15.279 12.1986 15.2693C12.1155 15.2642 12.0377 15.2268 11.9817 15.1652C11.9256 15.1036 11.8959 15.0225 11.8986 14.9393C11.8997 14.8959 11.9098 14.8531 11.9285 14.8138C11.9471 14.7746 11.9738 14.7396 12.0068 14.7113C12.0398 14.6831 12.0784 14.662 12.12 14.6496C12.1617 14.6372 12.2055 14.6337 12.2486 14.6393L14.3686 14.6593Z" fill="#D5692B" stroke="#D5692B" stroke-width="0.25" stroke-miterlimit="10"/>
<path d="M9.41038 9.58959C9.41275 9.64369 9.40091 9.69746 9.37604 9.74556C9.35116 9.79365 9.31412 9.8344 9.26861 9.86373C9.22309 9.89306 9.17069 9.90996 9.11661 9.91274C9.06253 9.91553 9.00867 9.90409 8.96038 9.87959C8.86038 9.87959 8.77038 9.75959 8.67038 9.70959C8.21094 9.44697 7.6882 9.31555 7.15918 9.32966C6.63017 9.34376 6.11518 9.50286 5.67038 9.78959L5.51038 9.86959C5.44016 9.90999 5.35753 9.92314 5.27823 9.90654C5.19893 9.88994 5.12851 9.84476 5.08038 9.77959C5.05464 9.74841 5.03546 9.71235 5.02401 9.67357C5.01255 9.63479 5.00906 9.59409 5.01373 9.55393C5.0184 9.51377 5.03114 9.47496 5.05119 9.43985C5.07123 9.40473 5.09817 9.37403 5.13038 9.34959C5.38411 9.13349 5.68056 8.97334 6.00038 8.87959C6.52474 8.68588 7.08778 8.62022 7.64264 8.68805C8.1975 8.75589 8.72814 8.95526 9.19038 9.26959C9.36038 9.36959 9.41038 9.46959 9.41038 9.58959Z" fill="#D5692B" stroke="#D5692B" stroke-width="0.25" stroke-miterlimit="10"/>
<path d="M9.40873 15.0498C9.40527 15.1085 9.38616 15.1653 9.35338 15.2142C9.32059 15.2631 9.27534 15.3023 9.22229 15.3278C9.16925 15.3533 9.11035 15.3641 9.0517 15.3592C8.99305 15.3543 8.93678 15.3338 8.88873 15.2998C8.63478 15.1068 8.34626 14.9643 8.03873 14.8798C7.6232 14.7633 7.18743 14.7379 6.76116 14.8052C6.33489 14.8725 5.92817 15.0309 5.56873 15.2698C5.36873 15.4098 5.18873 15.3898 5.07873 15.2698C4.96873 15.1498 4.99873 14.9298 5.19873 14.7898C5.62703 14.465 6.13473 14.2612 6.66873 14.1998C7.55265 14.0559 8.4581 14.2563 9.19873 14.7598C9.25386 14.7885 9.30154 14.8296 9.33799 14.88C9.37445 14.9303 9.39867 14.9884 9.40873 15.0498Z" fill="#D5692B" stroke="#D5692B" stroke-width="0.25" stroke-miterlimit="10"/>
</g>
<defs>
<clipPath id="clip0_2800_18354">
<rect width="20.76" height="16.7" fill="white" transform="translate(2 4)"/>
</clipPath>
</defs>
</svg>
