<svg width="116" height="115" viewBox="0 0 116 115" fill="none" xmlns="http://www.w3.org/2000/svg">
<path fill-rule="evenodd" clip-rule="evenodd" d="M89.4344 27.1144C89.7223 27.1144 89.9984 27 90.202 26.7965C90.4055 26.5929 90.5194 26.3168 90.5194 26.0289C90.5194 25.741 90.4055 25.4649 90.202 25.2613C89.9984 25.0578 89.7223 24.9434 89.4344 24.9434H61.4194C60.3452 24.9426 59.3092 25.3419 58.5134 26.0634L27.2704 54.3164C26.7078 54.8257 26.2581 55.4471 25.9502 56.1407C25.6423 56.8342 25.4829 57.5846 25.4824 58.3434V61.8434C25.4824 62.1309 25.5966 62.4066 25.7999 62.6099C26.0032 62.8132 26.2789 62.9274 26.5664 62.9274C26.8539 62.9274 27.1296 62.8132 27.3329 62.6099C27.5362 62.4066 27.6504 62.1309 27.6504 61.8434V58.3434C27.6509 57.8882 27.7465 57.4382 27.9311 57.0221C28.1157 56.606 28.3852 56.2332 28.7224 55.9274L33.0704 51.9964V77.0354H26.5704C26.2826 77.0354 26.0067 77.1497 25.8032 77.3532C25.5997 77.5567 25.4854 77.8326 25.4854 78.1204C25.4854 78.4082 25.5997 78.6841 25.8032 78.8876C26.0067 79.0911 26.2826 79.2054 26.5704 79.2054H27.6504V87.8874C27.6509 88.4624 27.8794 89.0138 28.2859 89.4205C28.6923 89.8273 29.2434 90.0563 29.8184 90.0574H88.3504C88.9254 90.0563 89.4765 89.8273 89.8829 89.4205C90.2894 89.0138 90.5174 88.4624 90.5184 87.8874V46.6484C90.5184 46.0732 90.2897 45.5216 89.8833 45.1146C89.4769 44.7076 88.9256 44.4785 88.3504 44.4774H81.8424V27.1144H89.4294H89.4344ZM61.4194 27.1144H68.8424V44.4774H62.3424C62.0545 44.4774 61.7784 44.5918 61.5748 44.7953C61.3713 44.9989 61.2569 45.275 61.2569 45.5629C61.2569 45.8508 61.3713 46.1269 61.5748 46.3305C61.7784 46.534 62.0545 46.6484 62.3424 46.6484H63.4264V54.2484C63.4261 54.5359 63.3119 54.8116 63.1087 55.015C62.9055 55.2184 62.6299 55.3329 62.3424 55.3334H59.0844V28.4714L59.9674 27.6714C60.3654 27.3117 60.883 27.1132 61.4194 27.1144ZM52.5804 55.3294H50.4124C50.1245 55.3294 49.8484 55.4438 49.6448 55.6473C49.4413 55.8509 49.3269 56.127 49.3269 56.4149C49.3269 56.7028 49.4413 56.9789 49.6448 57.1825C49.8484 57.386 50.1245 57.5004 50.4124 57.5004H51.4964V65.1004C51.4964 65.388 51.3822 65.6638 51.179 65.8673C50.9757 66.0707 50.7 66.1851 50.4124 66.1854H47.1614V39.2534L56.9164 30.4354V55.3354H52.5804V55.3294ZM35.2424 50.0354L44.9984 41.2144V66.1814H38.4984C38.2106 66.1814 37.9347 66.2957 37.7312 66.4992C37.5277 66.7027 37.4134 66.9786 37.4134 67.2664C37.4134 67.5542 37.5277 67.8301 37.7312 68.0336C37.9347 68.2371 38.2106 68.3514 38.4984 68.3514H39.5824V75.9514C39.5821 76.0944 39.5536 76.236 39.4985 76.368C39.4434 76.5 39.3627 76.6198 39.2611 76.7205C39.1596 76.8212 39.0391 76.9009 38.9067 76.9549C38.7742 77.009 38.6324 77.0363 38.4894 77.0354H35.2424V50.0354ZM68.8424 87.8864C68.2672 87.8853 67.7159 87.6562 67.3095 87.2492C66.9031 86.8422 66.6747 86.2906 66.6744 85.7154V79.2044H77.5144V85.7154C77.5141 86.2913 77.2852 86.8435 76.8779 87.2506C76.4706 87.6577 75.9183 87.8864 75.3424 87.8864H68.8424ZM69.8954 72.3154C67.5896 71.5766 65.5299 70.221 63.9394 68.3954C62.4892 66.4544 61.5949 64.1552 61.3524 61.7444C63.6587 62.4823 65.7188 63.8376 67.3094 65.6634C68.7591 67.605 69.6531 69.9045 69.8954 72.3154ZM70.3354 66.3604C70.2915 65.7563 70.2975 65.1495 70.3534 64.5464C70.7102 61.8684 71.8019 59.3416 73.5074 57.2464C74.7842 59.6268 75.3794 62.3134 75.2274 65.0104C75.1907 65.3979 75.1279 65.7824 75.0394 66.1614C74.3767 67.3896 73.8823 68.7014 73.5694 70.0614C73.5634 70.0754 73.5694 70.0904 73.5594 70.1044C73.3614 70.9561 73.2251 71.8211 73.1514 72.6924H72.1164C71.9418 70.486 71.3368 68.3352 70.3354 66.3614V66.3604ZM77.9574 65.6604C79.5508 63.8367 81.6114 62.4821 83.9174 61.7424C83.6754 64.153 82.7795 66.4518 81.3264 68.3904C79.7323 70.2133 77.672 71.5678 75.3664 72.3084C75.6096 69.8994 76.5058 67.6025 77.9584 65.6654L77.9574 65.6604ZM79.6784 74.8604V77.0354H64.5034V74.8634H79.6794L79.6784 74.8604ZM88.3494 87.8834H79.0754C79.4647 87.2259 79.6719 86.4765 79.6754 85.7124V79.2044C80.2501 79.2031 80.8008 78.9741 81.2069 78.5675C81.6131 78.161 81.8416 77.6101 81.8424 77.0354V74.8634C81.8419 74.2884 81.6134 73.737 81.2069 73.3303C80.8005 72.9235 80.2494 72.6945 79.6744 72.6934H79.6374C80.9183 71.9115 82.0594 70.9208 83.0134 69.7624C85.0466 67.0098 86.1562 63.6843 86.1834 60.2624C86.1809 60.1039 86.1437 59.948 86.0744 59.8054C86.0051 59.6629 85.9054 59.5373 85.7823 59.4375C85.6592 59.3377 85.5158 59.2661 85.362 59.2277C85.2083 59.1893 85.048 59.1851 84.8924 59.2154C82.1113 59.8482 79.5371 61.1787 77.4124 63.0814C77.1575 60.1214 76.1851 57.2681 74.5794 54.7684C74.49 54.6374 74.3729 54.5277 74.2364 54.447C74.0998 54.3663 73.9473 54.3166 73.7894 54.3014C73.6318 54.2874 73.473 54.3076 73.3239 54.3606C73.1748 54.4136 73.0389 54.4981 72.9254 54.6084C70.5602 57.0732 68.9561 60.1679 68.3054 63.5214C66.1118 61.3802 63.3669 59.8899 60.3764 59.2164C60.2208 59.1861 60.0605 59.1903 59.9068 59.2287C59.753 59.2671 59.6096 59.3387 59.4865 59.4385C59.3634 59.5383 59.2637 59.6639 59.1944 59.8064C59.1251 59.949 59.0879 60.1049 59.0854 60.2634C59.1121 63.6854 60.2219 67.011 62.2554 69.7634C63.209 70.9218 64.3498 71.9125 65.6304 72.6944H64.5034C63.9284 72.6955 63.3773 72.9245 62.9709 73.3313C62.5645 73.738 62.3359 74.2894 62.3354 74.8644V77.0354C62.3357 77.6105 62.5641 78.162 62.9706 78.5688C63.377 78.9757 63.9283 79.2046 64.5034 79.2054V85.7154C64.5072 86.4795 64.7143 87.2288 65.1034 87.8864H29.8184V79.2044H38.4894C39.3523 79.2033 40.1796 78.8599 40.7895 78.2494C41.3994 77.6389 41.7421 76.8113 41.7424 75.9484V68.3484H50.4124C51.275 68.3471 52.1018 68.0036 52.7115 67.3934C53.3212 66.7832 53.6639 65.956 53.6644 65.0934V57.4934H62.3354C63.1981 57.4918 64.0249 57.1481 64.6346 56.5377C65.2442 55.9274 65.5869 55.1001 65.5874 54.2374V46.6374H88.3504V87.8774L88.3494 87.8834ZM79.6794 44.4774H71.0074V27.1144H79.6794V44.4774Z" fill="#159822"/>
</svg>
