<svg width="116" height="115" viewBox="0 0 116 115" fill="none" xmlns="http://www.w3.org/2000/svg">
<path d="M95.8477 90.04L91.3591 88.9181L86.3751 72.7186C86.2933 72.4528 86.1285 72.2202 85.9049 72.055C85.6811 71.8897 85.4105 71.8007 85.1323 71.8007H70.8329V53.8267L75.332 60.2488C76.1432 61.406 77.2209 62.351 78.4742 63.004C79.7274 63.6569 81.1194 63.9988 82.5325 64.0006C83.0411 64.0033 83.5488 63.9598 84.0495 63.8707C85.5579 63.6079 86.9715 62.9555 88.1501 61.9782C89.3286 61.0008 90.2314 59.7324 90.769 58.2988L96.7492 42.3631C96.8239 42.1661 96.8495 41.9539 96.825 41.7446C96.7993 41.5353 96.7236 41.3353 96.6032 41.1618C96.484 40.9883 96.3235 40.8466 96.1375 40.7488C95.9503 40.6509 95.743 40.6 95.5324 40.6003H87.7323C87.4593 40.6002 87.1933 40.6861 86.9718 40.8457C86.7504 41.0053 86.5848 41.2306 86.4986 41.4895L83.4424 50.6625L79.4308 44.6512C78.6017 43.4029 77.4763 42.3796 76.1552 41.6727C74.834 40.9658 73.3583 40.5973 71.8599 40.6003H66.9331V26.9501C66.9346 25.4086 66.5141 23.8961 65.7169 22.5766C64.9199 21.2571 63.7766 20.1811 62.4114 19.4654C61.0462 18.7497 59.5111 18.4214 57.9725 18.5165C56.434 18.6114 54.9508 19.1259 53.6839 20.0041C53.0767 19.4031 52.3308 18.961 51.5122 18.7168C50.6935 18.4727 49.8273 18.434 48.9901 18.6043C48.1529 18.7745 47.3706 19.1484 46.7123 19.6928C46.054 20.2373 45.5399 20.9356 45.2156 21.726C44.8913 22.5163 44.7667 23.3745 44.8529 24.2244C44.939 25.0744 45.2333 25.8901 45.7095 26.5993C46.1859 27.3086 46.8296 27.8895 47.5838 28.2908C48.3379 28.6921 49.1794 28.9014 50.0336 28.9001V40.6003H47.4338C47.4317 38.877 46.7463 37.2249 45.5278 36.0063C44.3092 34.7878 42.6572 34.1023 40.934 34.1002H35.7342C31.2538 34.1054 26.9584 35.8876 23.7902 39.0559C20.6221 42.2242 18.84 46.5198 18.8349 51.0004V57.5005C18.8324 60.5413 19.8 63.5035 21.5968 65.9565C23.3937 68.4095 25.9261 70.2253 28.8258 71.14C31.7256 72.0547 34.8416 72.0203 37.7206 71.0422C40.5995 70.064 43.0914 68.193 44.8338 65.701V72.8642L41.4904 81.7823L27.1351 75.8022C26.8506 75.6836 26.5334 75.6698 26.2399 75.7633C25.9463 75.8569 25.6954 76.0518 25.5322 76.3131L19.0325 86.7132C18.8867 86.9458 18.8183 87.2185 18.837 87.4923C18.8557 87.7661 18.9607 88.027 19.1368 88.2376C19.3127 88.4481 19.5509 88.5975 19.817 88.6643C20.0832 88.7313 20.3637 88.7122 20.6184 88.61L26.6501 86.1959L46.9775 93.8205C47.2237 93.913 47.4923 93.9285 47.7476 93.8652C48.003 93.8018 48.2329 93.6625 48.4074 93.4656L58.4171 82.2009H76.4955L82.6495 95.7391C82.7825 96.031 83.019 96.2639 83.3133 96.392C83.6074 96.5202 83.9387 96.5347 84.2431 96.4333L95.9425 92.5334C96.2088 92.4442 96.4394 92.2711 96.5999 92.04C96.7592 91.8087 96.8395 91.532 96.8294 91.2512C96.8183 90.9704 96.7169 90.7005 96.5397 90.4822C96.3637 90.2638 96.1208 90.1087 95.8477 90.04ZM88.6695 43.2003H93.656L92.6812 45.8004H87.8025L88.6695 43.2003ZM86.9354 48.4005H91.705L90.4622 51.7297L86.3712 50.0904L86.9354 48.4005ZM85.1323 53.8124L85.5471 52.567L89.5418 54.1647L88.3341 57.3823C87.8961 58.5616 87.1054 59.5775 86.0696 60.2917C85.7728 60.4937 85.4593 60.6699 85.1323 60.8182V53.8124ZM82.5325 53.9944V61.3889C81.5389 61.3872 80.5602 61.1478 79.6783 60.6905C78.7962 60.2332 78.0365 59.5713 77.4626 58.7602L76.6489 57.5902L81.9787 53.152L82.5325 53.9944ZM78.3532 47.7258L80.524 50.9758L75.1514 55.4595L72.9128 52.2601L78.3532 47.7258ZM70.8329 43.2003H71.8599C72.8191 43.1995 73.7665 43.4121 74.6335 43.8227C75.5005 44.2334 76.2652 44.8315 76.8725 45.5742L71.4127 50.1243L70.8329 49.2909V43.2003ZM52.6336 26.9501C52.6308 25.4572 53.2003 24.0198 54.225 22.9342C55.2498 21.8484 56.6517 21.1969 58.1423 21.1137C59.6329 21.0303 61.0987 21.5217 62.2379 22.4865C63.3773 23.4512 64.1034 24.8161 64.2668 26.3001H59.1333C58.099 26.3001 57.1071 26.711 56.3757 27.4424C55.6444 28.1738 55.2334 29.1658 55.2334 30.2001C55.2334 31.2345 55.6444 32.2265 56.3757 32.9579C57.1071 33.6893 58.099 34.1002 59.1333 34.1002H64.3331V40.6003H52.6336V26.9501ZM64.3331 28.9001V31.5002H59.1333C58.7886 31.5002 58.4579 31.3632 58.2141 31.1194C57.9703 30.8756 57.8334 30.5449 57.8334 30.2001C57.8334 29.8554 57.9703 29.5248 58.2141 29.281C58.4579 29.0372 58.7886 28.9001 59.1333 28.9001H64.3331ZM47.4338 23.7C47.4309 23.1936 47.5767 22.6975 47.8533 22.2733C48.1299 21.8491 48.5249 21.5154 48.9894 21.3137C49.4539 21.1119 49.9673 21.0511 50.4662 21.1385C50.9649 21.2261 51.427 21.4581 51.7951 21.806C50.7925 23.1031 50.1915 24.6654 50.0662 26.3001H50.0336C49.3441 26.3001 48.6829 26.0261 48.1953 25.5386C47.7077 25.051 47.4338 24.3897 47.4338 23.7ZM47.4338 43.2003H68.233V45.8004H47.4338V43.2003ZM47.4338 66.6007V64.0006H68.233V66.6007H47.4338ZM68.233 69.2007V71.8007H47.4338V69.2007H68.233ZM48.449 61.4006L47.799 58.8005H68.233V61.4006H48.449ZM52.6336 56.2005V53.6005H68.233V56.2005H52.6336ZM52.6336 51.0004V49.7004C52.6336 49.3556 52.4966 49.025 52.2528 48.7812C52.009 48.5374 51.6784 48.4005 51.3337 48.4005H68.233V51.0004H52.6336ZM46.1339 51.0004H50.0336V56.2005H44.8338V51.0004H46.1339ZM40.934 36.7002C41.9683 36.7002 42.9603 37.1112 43.6917 37.8426C44.423 38.574 44.8338 39.5659 44.8338 40.6003V48.4005H40.6272L37.4359 36.7002H40.934ZM42.234 51.0004V56.2005H37.0342V51.0004H42.234ZM37.9324 48.4005H37.6841L34.5734 44.2533C34.9795 44.1232 35.399 44.0389 35.8239 44.0025L36.713 43.9323L37.9324 48.4005ZM33.1343 69.2007C30.0324 69.1973 27.0586 67.9634 24.8653 65.77C22.6719 63.5765 21.4382 60.6026 21.4347 57.5005V51.0004C21.4406 47.3805 22.8182 43.8974 25.2901 41.253C27.762 38.6084 31.1443 36.9993 34.7553 36.7497L36.0176 41.379L35.6276 41.4102C33.5387 41.5738 31.5878 42.5172 30.1625 44.0532C28.7372 45.5891 27.9418 47.6051 27.9345 49.7004V53.6005C27.9392 54.936 28.4574 56.2185 29.3819 57.1823C30.3064 58.146 31.5663 58.7171 32.9003 58.7771C32.9796 58.7771 33.0537 58.8005 33.1343 58.8005H37.9688L37.0732 62.386C37.0254 62.5776 37.0219 62.7775 37.0629 62.9708C37.1039 63.1639 37.1884 63.3452 37.3099 63.5008C37.4315 63.6564 37.5868 63.7823 37.7644 63.8689C37.9417 63.9556 38.1366 64.0006 38.3341 64.0006H42.8319C41.7675 65.5979 40.3258 66.908 38.6343 67.815C36.9427 68.722 35.0536 69.198 33.1343 69.2007ZM33.1343 48.4005C32.2414 48.4061 31.3656 48.6445 30.5929 49.092C30.7373 47.7542 31.3508 46.5107 32.3244 45.582L34.4342 48.4005H33.1343ZM34.4342 51.0004V56.2005H33.1343C32.4448 56.2005 31.7834 55.9266 31.2959 55.439C30.8083 54.9513 30.5344 54.29 30.5344 53.6005C30.5344 52.9109 30.8083 52.2495 31.2959 51.7619C31.7834 51.2744 32.4448 51.0004 33.1343 51.0004H34.4342ZM39.9994 61.4006L40.6493 58.8005H45.1185L45.7685 61.4006H39.9994ZM84.5318 93.5982L78.5156 80.3627C78.4123 80.1356 78.2459 79.9429 78.0361 79.8079C77.8263 79.6728 77.5822 79.6009 77.3327 79.6008H57.8334C57.6496 79.6008 57.468 79.6397 57.3003 79.7149C57.1327 79.7903 56.983 79.9002 56.8611 80.0376L47.0541 91.0696L27.0908 83.5827C26.7869 83.4711 26.4525 83.4749 26.151 83.5932L23.3456 84.7164L27.1546 78.6245L41.7361 84.7008C41.8973 84.7682 42.0705 84.8024 42.2452 84.8014C42.4199 84.8004 42.5927 84.7642 42.7531 84.6949C42.9136 84.6256 43.0583 84.5246 43.1789 84.3982C43.2994 84.2716 43.3932 84.1221 43.4547 83.9585L47.0346 74.4008H84.1717L89.0894 90.3832C89.1552 90.5971 89.2751 90.7903 89.4375 90.9443C89.5998 91.0983 89.7992 91.2077 90.0163 91.262L90.886 91.4804L84.5318 93.5982Z" fill="#159822"/>
</svg>
