<svg width="136" height="135" viewBox="0 0 136 135" fill="none" xmlns="http://www.w3.org/2000/svg">
<g clip-path="url(#clip0_8598_19389)">
<path d="M68 125.5C100.033 125.5 126 99.5325 126 67.5C126 35.4675 100.033 9.5 68 9.5C35.9675 9.5 10 35.4675 10 67.5C10 99.5325 35.9675 125.5 68 125.5Z" stroke="#D1D1D1"/>
<path d="M133 67.5C133 103.399 103.899 132.5 68 132.5C32.1015 132.5 3 103.399 3 67.5C3 31.6015 32.1015 2.5 68 2.5C103.899 2.5 133 31.6015 133 67.5ZM68 134.5C105.003 134.5 135 104.503 135 67.5C135 30.4969 105.003 0.5 68 0.5C30.9969 0.5 1 30.4969 1 67.5C1 104.503 30.9969 134.5 68 134.5Z" fill="#159822" stroke="#159822"/>
<path d="M103.375 91.4689H103.139C103.283 91.0665 103.375 90.6385 103.375 90.1875V74.8125C103.375 72.6933 101.65 70.9689 99.5312 70.9689H91.6081C91.7516 70.5665 91.8439 70.1385 91.8439 69.6875V54.3125C91.8439 52.1933 90.1193 50.4688 88 50.4688H77.6361L69.6141 35.0938H71.3439V22.2812H63.6562V35.0938H65.345L56.9899 50.4688H47C44.8808 50.4688 43.1562 52.1933 43.1562 54.3125V69.6875C43.1562 70.1385 43.2485 70.5665 43.392 70.9689H35.4688C33.3496 70.9689 31.625 72.6933 31.625 74.8125V90.1875C31.625 90.6385 31.7173 91.0665 31.8608 91.4689H31.625C29.5058 91.4689 27.7812 93.1933 27.7812 95.3125V97.875C27.7812 99.9942 29.5058 101.719 31.625 101.719H103.375C105.494 101.719 107.219 99.9942 107.219 97.875V95.3125C107.219 93.1933 105.494 91.4689 103.375 91.4689ZM100.812 74.8125V90.1875C100.812 90.8948 100.239 91.4689 99.5312 91.4689H99.0264L93.6785 81.2189H95.6875V73.5312H99.5312C100.239 73.5312 100.812 74.1054 100.812 74.8125ZM57.25 90.1875V74.8125C57.25 74.1054 57.8241 73.5312 58.5312 73.5312H62.375V81.2189H72.625V73.5312H76.4689C77.1761 73.5312 77.75 74.1054 77.75 74.8125V90.1875C77.75 90.8948 77.1761 91.4689 76.4689 91.4689H58.5312C57.8241 91.4689 57.25 90.8948 57.25 90.1875ZM76.4689 53.7732L78.7558 58.1562H76.4689V53.7732ZM80.0934 60.7188L85.4413 70.9689H81.5939H76.4689H70.0625C69.3554 70.9689 68.7812 70.3947 68.7812 69.6875V54.3125C68.7812 53.6066 69.3554 53.0312 70.0625 53.0312H73.9062V60.7188H80.0934ZM92.3423 78.6562L89.6682 73.5312H93.125V78.6562H92.3423ZM70.0625 73.5312V78.6562H64.9375V73.5312H70.0625ZM80.3125 90.1875V74.8125C80.3125 74.1054 80.8866 73.5312 81.5939 73.5312H86.7778L96.136 91.4689H81.5939C80.8866 91.4689 80.3125 90.8948 80.3125 90.1875ZM88 53.0312C88.7072 53.0312 89.2812 53.6066 89.2812 54.3125V69.6875C89.2812 70.2884 88.8584 70.7702 88.2998 70.9086L78.9723 53.0312H88ZM66.2189 24.8438H68.7812V32.5312H66.2189V24.8438ZM67.4769 36.5391L74.7455 50.4688H70.0625C69.0747 50.4688 68.1816 50.8545 67.5 51.4682C66.8185 50.8532 65.9254 50.4688 64.9375 50.4688H59.906L67.4769 36.5391ZM53.4062 53.0312H58.5312V58.1562H53.4062V53.0312ZM45.7188 69.6875V54.3125C45.7188 53.6066 46.2927 53.0312 47 53.0312H50.8438V60.7188H61.0938V53.0312H64.9375C65.6447 53.0312 66.2189 53.6066 66.2189 54.3125V69.6875C66.2189 70.3947 65.6447 70.9689 64.9375 70.9689H58.5312H53.4062H47C46.2927 70.9689 45.7188 70.3947 45.7188 69.6875ZM41.875 73.5312H47V78.6562H41.875V73.5312ZM34.1875 90.1875V74.8125C34.1875 74.1054 34.7615 73.5312 35.4688 73.5312H39.3125V81.2189H49.5625V73.5312H53.4062C54.1136 73.5312 54.6875 74.1054 54.6875 74.8125V90.1875C54.6875 90.8948 54.1136 91.4689 53.4062 91.4689H35.4688C34.7615 91.4689 34.1875 90.8948 34.1875 90.1875ZM30.3438 97.875V95.3125C30.3438 94.6052 30.9178 94.0312 31.625 94.0312H35.4688H53.4062H58.5312H76.4689H81.5939H96.9689V99.1562H31.625C30.9178 99.1562 30.3438 98.5823 30.3438 97.875ZM104.656 97.875C104.656 98.5823 104.082 99.1562 103.375 99.1562H99.5312V94.0312H103.375C104.082 94.0312 104.656 94.6052 104.656 95.3125V97.875Z" fill="#159822"/>
</g>
<defs>
<clipPath id="clip0_8598_19389">
<rect width="135" height="135" fill="white" transform="translate(0.5)"/>
</clipPath>
</defs>
</svg>
