<svg width="24" height="24" viewBox="0 0 24 24" fill="none" xmlns="http://www.w3.org/2000/svg">
<rect width="24" height="24" fill="white"/>
<g clip-path="url(#clip0_2800_18263)">
<path d="M22.7194 9.16016H11.3494C11.0788 9.16016 10.8594 9.37954 10.8594 9.65016V10.0802C10.8594 10.3508 11.0788 10.5702 11.3494 10.5702H22.7194C22.99 10.5702 23.2094 10.3508 23.2094 10.0802V9.65016C23.2094 9.37954 22.99 9.16016 22.7194 9.16016Z" stroke="#D5692B" stroke-width="0.5" stroke-miterlimit="10" stroke-linecap="round"/>
<path d="M22.4012 10.8799H11.5312V16.3499H22.4012V10.8799Z" stroke="#D5692B" stroke-width="0.5" stroke-miterlimit="10" stroke-linecap="round"/>
<path d="M15.9811 18.0098H11.6211" stroke="#D5692B" stroke-width="0.5" stroke-miterlimit="10" stroke-linecap="round"/>
<path d="M22.5592 18.0098H18.1992" stroke="#D5692B" stroke-width="0.5" stroke-miterlimit="10" stroke-linecap="round"/>
<path d="M17.1017 18.0303H17.0117" stroke="#D5692B" stroke-width="0.5" stroke-miterlimit="10" stroke-linecap="round"/>
<path d="M11.6597 18.01C11.5548 18.0155 11.45 17.9993 11.3518 17.9624C11.2535 17.9254 11.164 17.8685 11.0888 17.7952C11.0137 17.7219 10.9545 17.6339 10.9151 17.5366C10.8756 17.4393 10.8568 17.3349 10.8597 17.23V17.23C10.8583 17.1293 10.877 17.0294 10.9146 16.9361C10.9522 16.8427 11.008 16.7577 11.0787 16.6861C11.1494 16.6144 11.2336 16.5576 11.3265 16.5188C11.4194 16.4799 11.519 16.46 11.6197 16.46H22.4997C22.6003 16.46 22.7 16.4799 22.7928 16.5188C22.8857 16.5576 22.9699 16.6144 23.0406 16.6861C23.1113 16.7577 23.1671 16.8427 23.2047 16.9361C23.2423 17.0294 23.261 17.1293 23.2597 17.23C23.2597 17.4315 23.1796 17.6248 23.0371 17.7674C22.8945 17.9099 22.7012 17.99 22.4997 17.99" stroke="#D5692B" stroke-width="0.5" stroke-miterlimit="10" stroke-linecap="round"/>
<path d="M13.3284 7.58008H13.9184C14.0988 7.58008 14.2717 7.65172 14.3993 7.77925C14.5268 7.90677 14.5984 8.07973 14.5984 8.26008V9.15008H12.6484V8.26008C12.6484 8.07973 12.7201 7.90677 12.8476 7.77925C12.9751 7.65172 13.1481 7.58008 13.3284 7.58008V7.58008Z" stroke="#D5692B" stroke-width="0.5" stroke-miterlimit="10" stroke-linecap="round"/>
<path d="M20.2403 7.59961H20.8303C21.0107 7.59961 21.1836 7.67125 21.3111 7.79878C21.4387 7.9263 21.5103 8.09926 21.5103 8.27961V9.16961H19.5703V8.27961C19.5703 8.09926 19.642 7.9263 19.7695 7.79878C19.897 7.67125 20.07 7.59961 20.2503 7.59961H20.2403Z" stroke="#D5692B" stroke-width="0.5" stroke-miterlimit="10" stroke-linecap="round"/>
<path d="M16.9692 11.71L15.9692 13.27C15.9604 13.2784 15.9534 13.2885 15.9486 13.2996C15.9439 13.3108 15.9414 13.3228 15.9414 13.335C15.9414 13.3471 15.9439 13.3591 15.9486 13.3703C15.9534 13.3815 15.9604 13.3916 15.9692 13.4L16.8692 13.93L16.5792 15.53H16.6292L17.9992 13.75C18.0135 13.7325 18.0238 13.7119 18.0291 13.6899C18.0344 13.6679 18.0347 13.645 18.0299 13.6229C18.025 13.6007 18.0153 13.58 18.0013 13.5622C17.9873 13.5443 17.9695 13.5299 17.9492 13.52L17.1192 13.15V11.72L16.9692 11.71Z" stroke="#D5692B" stroke-width="0.5" stroke-miterlimit="10" stroke-linecap="round"/>
<path d="M19.1914 13.6299H20.8714" stroke="#D5692B" stroke-width="0.5" stroke-miterlimit="10" stroke-linecap="round"/>
<path d="M14.0781 12.79V14.44" stroke="#D5692B" stroke-width="0.5" stroke-miterlimit="10" stroke-linecap="round"/>
<path d="M13.2109 13.6304L14.9509 13.6104" stroke="#D5692B" stroke-width="0.5" stroke-miterlimit="10" stroke-linecap="round"/>
<path d="M0.25 17.3395L0.36 8.26953" stroke="#D5692B" stroke-width="0.5" stroke-miterlimit="10" stroke-linecap="round"/>
<path d="M0.41 6.09047C0.41 5.87047 0.25 5.23047 0.66 5.23047H9.78C9.88609 5.23047 9.98783 5.27261 10.0628 5.34763C10.1379 5.42264 10.18 5.52438 10.18 5.63047V17.3405C10.18 17.4466 10.1379 17.5483 10.0628 17.6233C9.98783 17.6983 9.88609 17.7405 9.78 17.7405H0.66C0.606636 17.7418 0.553544 17.7324 0.503854 17.7129C0.454164 17.6934 0.40888 17.6642 0.370671 17.6269C0.332461 17.5896 0.3021 17.5451 0.281376 17.4959C0.260652 17.4467 0.249983 17.3939 0.25 17.3405" stroke="#D5692B" stroke-width="0.5" stroke-miterlimit="10" stroke-linecap="round"/>
<path d="M0.378906 6.78027V7.55027" stroke="#D5692B" stroke-width="0.5" stroke-miterlimit="10" stroke-linecap="round"/>
<path d="M5.55905 12.2298L4.25905 13.5898C4.24073 13.6085 4.23047 13.6336 4.23047 13.6598C4.23047 13.686 4.24073 13.7111 4.25905 13.7298L5.04905 14.4098L4.48905 15.9298L6.14905 14.4098C6.16587 14.3957 6.17939 14.3781 6.18866 14.3582C6.19794 14.3384 6.20275 14.3167 6.20275 14.2948C6.20275 14.2729 6.19794 14.2512 6.18866 14.2313C6.17939 14.2115 6.16587 14.1939 6.14905 14.1798L5.39905 13.6698L5.65905 12.2898C5.66306 12.2769 5.66264 12.2631 5.65785 12.2506C5.65306 12.238 5.64418 12.2274 5.63265 12.2205C5.62111 12.2135 5.60758 12.2107 5.59424 12.2124C5.58089 12.2141 5.5685 12.2202 5.55905 12.2298V12.2298Z" stroke="#D5692B" stroke-width="0.5" stroke-miterlimit="10" stroke-linecap="round"/>
<path d="M6.87031 6.78027H3.55031C3.00907 6.78027 2.57031 7.21903 2.57031 7.76027V8.60027C2.57031 9.14151 3.00907 9.58027 3.55031 9.58027H6.87031C7.41155 9.58027 7.85031 9.14151 7.85031 8.60027V7.76027C7.85031 7.21903 7.41155 6.78027 6.87031 6.78027Z" stroke="#D5692B" stroke-width="0.5" stroke-miterlimit="10" stroke-linecap="round"/>
<path d="M7.48094 10.6396H6.09094C5.88107 10.6396 5.71094 10.8098 5.71094 11.0196V11.3496C5.71094 11.5595 5.88107 11.7296 6.09094 11.7296H7.48094C7.69081 11.7296 7.86094 11.5595 7.86094 11.3496V11.0196C7.86094 10.8098 7.69081 10.6396 7.48094 10.6396Z" stroke="#D5692B" stroke-width="0.5" stroke-miterlimit="10" stroke-linecap="round"/>
<path d="M4.34031 10.6396H2.95031C2.74044 10.6396 2.57031 10.8098 2.57031 11.0196V11.3496C2.57031 11.5595 2.74044 11.7296 2.95031 11.7296H4.34031C4.55018 11.7296 4.72031 11.5595 4.72031 11.3496V11.0196C4.72031 10.8098 4.55018 10.6396 4.34031 10.6396Z" stroke="#D5692B" stroke-width="0.5" stroke-miterlimit="10" stroke-linecap="round"/>
<path d="M0.300781 12.7998H1.59078" stroke="#D5692B" stroke-width="0.5" stroke-miterlimit="10" stroke-linecap="round"/>
<path d="M0.359375 13.5596H1.58938" stroke="#D5692B" stroke-width="0.5" stroke-miterlimit="10" stroke-linecap="round"/>
<path d="M0.359375 14.3301H1.58938" stroke="#D5692B" stroke-width="0.5" stroke-miterlimit="10" stroke-linecap="round"/>
<path d="M0.359375 15.0703H1.58938" stroke="#D5692B" stroke-width="0.5" stroke-miterlimit="10" stroke-linecap="round"/>
<path d="M8.91016 12.7998H10.0402" stroke="#D5692B" stroke-width="0.5" stroke-miterlimit="10" stroke-linecap="round"/>
<path d="M8.73047 13.5596H10.0405" stroke="#D5692B" stroke-width="0.5" stroke-miterlimit="10" stroke-linecap="round"/>
<path d="M8.73047 14.3301H10.0405" stroke="#D5692B" stroke-width="0.5" stroke-miterlimit="10" stroke-linecap="round"/>
<path d="M10.0405 15.0703H8.73047" stroke="#D5692B" stroke-width="0.5" stroke-miterlimit="10" stroke-linecap="round"/>
<path d="M0.300781 16.6201H7.71078" stroke="#D5692B" stroke-width="0.5" stroke-miterlimit="10" stroke-linecap="round"/>
<path d="M8.51953 16.6201H10.0395" stroke="#D5692B" stroke-width="0.5" stroke-miterlimit="10" stroke-linecap="round"/>
<path d="M1.12899 17.7505H2.77899V18.0005C2.77899 18.0766 2.76399 18.1521 2.73484 18.2224C2.7057 18.2928 2.66297 18.3567 2.60912 18.4106C2.55526 18.4644 2.49132 18.5072 2.42095 18.5363C2.35058 18.5655 2.27516 18.5805 2.19899 18.5805H1.69899C1.62329 18.5805 1.54835 18.5654 1.47853 18.5361C1.40871 18.5069 1.34543 18.464 1.29237 18.41C1.2393 18.356 1.19753 18.292 1.16948 18.2217C1.14143 18.1514 1.12767 18.0762 1.12899 18.0005V17.7305V17.7505Z" stroke="#D5692B" stroke-width="0.5" stroke-miterlimit="10" stroke-linecap="round"/>
<path d="M7.71094 17.7502H9.28094V18.0002C9.28094 18.1567 9.21878 18.3068 9.10813 18.4174C8.99748 18.5281 8.84741 18.5902 8.69094 18.5902H8.14094C8.02689 18.5902 7.91752 18.5449 7.83688 18.4643C7.75624 18.3836 7.71094 18.2743 7.71094 18.1602V17.7402V17.7502Z" stroke="#D5692B" stroke-width="0.5" stroke-miterlimit="10" stroke-linecap="round"/>
</g>
<defs>
<clipPath id="clip0_2800_18263">
<rect width="23.51" height="13.84" fill="white" transform="translate(0 5)"/>
</clipPath>
</defs>
</svg>
