<svg width="24" height="24" viewBox="0 0 24 24" fill="none" xmlns="http://www.w3.org/2000/svg">
<path d="M4.44531 20.2502L4.60603 6.43945" stroke="#D5692A" stroke-width="0.75" stroke-miterlimit="10" stroke-linecap="round"/>
<path d="M4.68214 3.13932C4.68214 2.79647 4.44643 1.85361 5.06786 1.85361H18.9321C19.0132 1.85219 19.0938 1.86693 19.1691 1.89699C19.2445 1.92704 19.3131 1.9718 19.3709 2.02865C19.4288 2.0855 19.4747 2.15331 19.5061 2.22811C19.5374 2.30291 19.5536 2.38321 19.5536 2.46432V20.25C19.5536 20.3311 19.5374 20.4114 19.5061 20.4862C19.4747 20.5611 19.4288 20.6289 19.3709 20.6857C19.3131 20.7426 19.2445 20.7873 19.1691 20.8174C19.0938 20.8474 19.0132 20.8622 18.9321 20.8608H5.06786C4.91343 20.8499 4.76889 20.7808 4.66347 20.6674C4.55805 20.554 4.49962 20.4049 4.5 20.25" stroke="#D5692A" stroke-width="0.75" stroke-miterlimit="10" stroke-linecap="round"/>
<path d="M4.64844 4.16797V5.34654" stroke="#D5692A" stroke-width="0.75" stroke-miterlimit="10" stroke-linecap="round"/>
<path d="M12.5253 12.4931L10.5325 14.5502C10.5185 14.5633 10.5074 14.579 10.4998 14.5965C10.4922 14.6141 10.4883 14.6329 10.4883 14.652C10.4883 14.6711 10.4922 14.69 10.4998 14.7075C10.5074 14.725 10.5185 14.7408 10.5325 14.7538L11.7432 15.8252L10.9289 18.0967C10.9289 18.0967 10.9289 18.1824 11.0039 18.0967L13.5325 15.7931C13.5594 15.771 13.5811 15.7432 13.596 15.7117C13.6109 15.6802 13.6186 15.6458 13.6186 15.611C13.6186 15.5761 13.6109 15.5417 13.596 15.5102C13.5811 15.4787 13.5594 15.4509 13.5325 15.4288L12.3968 14.6467L12.7075 12.5038C12.7089 12.4797 12.7007 12.4559 12.6846 12.4378C12.6685 12.4198 12.6459 12.4088 12.6218 12.4074C12.5976 12.406 12.5739 12.4142 12.5558 12.4303C12.5377 12.4463 12.5268 12.4689 12.5253 12.4931V12.4931Z" stroke="#D5692A" stroke-width="0.75" stroke-miterlimit="10" stroke-linecap="round"/>
<path d="M13.884 4.16797H10.1126C8.93506 4.16797 7.98047 5.12256 7.98047 6.30011C7.98047 7.47766 8.93506 8.43225 10.1126 8.43225H13.884C15.0616 8.43225 16.0162 7.47766 16.0162 6.30011C16.0162 5.12256 15.0616 4.16797 13.884 4.16797Z" stroke="#D5692A" stroke-width="0.75" stroke-miterlimit="10" stroke-linecap="round"/>
<path d="M15.1929 10.0498H13.575C13.1194 10.0498 12.75 10.4192 12.75 10.8748V10.8855C12.75 11.3412 13.1194 11.7105 13.575 11.7105H15.1929C15.6485 11.7105 16.0179 11.3412 16.0179 10.8855V10.8748C16.0179 10.4192 15.6485 10.0498 15.1929 10.0498Z" stroke="#D5692A" stroke-width="0.75" stroke-miterlimit="10" stroke-linecap="round"/>
<path d="M10.4233 10.0498H8.80547C8.34983 10.0498 7.98047 10.4192 7.98047 10.8748V10.8855C7.98047 11.3412 8.34983 11.7105 8.80547 11.7105H10.4233C10.879 11.7105 11.2483 11.3412 11.2483 10.8855V10.8748C11.2483 10.4192 10.879 10.0498 10.4233 10.0498Z" stroke="#D5692A" stroke-width="0.75" stroke-miterlimit="10" stroke-linecap="round"/>
<path d="M4.53125 13.3389H6.48125" stroke="#D5692A" stroke-width="0.75" stroke-miterlimit="10" stroke-linecap="round"/>
<path d="M4.60547 14.4854H6.48047" stroke="#D5692A" stroke-width="0.75" stroke-miterlimit="10" stroke-linecap="round"/>
<path d="M4.60547 15.6641H6.48047" stroke="#D5692A" stroke-width="0.75" stroke-miterlimit="10" stroke-linecap="round"/>
<path d="M4.60547 16.7891H6.48047" stroke="#D5692A" stroke-width="0.75" stroke-miterlimit="10" stroke-linecap="round"/>
<path d="M17.625 13.3389H19.3393" stroke="#D5692A" stroke-width="0.75" stroke-miterlimit="10" stroke-linecap="round"/>
<path d="M17.3555 14.4854H19.3376" stroke="#D5692A" stroke-width="0.75" stroke-miterlimit="10" stroke-linecap="round"/>
<path d="M17.3555 15.6641H19.3376" stroke="#D5692A" stroke-width="0.75" stroke-miterlimit="10" stroke-linecap="round"/>
<path d="M19.3376 16.7891H17.3555" stroke="#D5692A" stroke-width="0.75" stroke-miterlimit="10" stroke-linecap="round"/>
<path d="M4.53125 19.1465H15.8027" stroke="#D5692A" stroke-width="0.75" stroke-miterlimit="10" stroke-linecap="round"/>
<path d="M17.0352 19.1465H19.3387" stroke="#D5692A" stroke-width="0.75" stroke-miterlimit="10" stroke-linecap="round"/>
<path d="M5.78516 20.8604H8.30301C8.30301 21.1985 8.16868 21.5228 7.92957 21.7619C7.69047 22.001 7.36616 22.1354 7.02801 22.1354V22.1354C6.70023 22.1354 6.38572 22.0059 6.15295 21.7751C5.92017 21.5444 5.78798 21.231 5.78516 20.9032V20.8604Z" stroke="#D5692A" stroke-width="0.75" stroke-miterlimit="10" stroke-linecap="round"/>
<path d="M15.8047 20.8604H18.1833C18.1833 21.2013 18.0478 21.5284 17.8067 21.7695C17.5656 22.0106 17.2385 22.1461 16.8975 22.1461H16.7368C16.4896 22.1461 16.2525 22.0479 16.0777 21.873C15.9029 21.6982 15.8047 21.4611 15.8047 21.2139V20.8604Z" stroke="#D5692A" stroke-width="0.75" stroke-miterlimit="10" stroke-linecap="round"/>
</svg>
