<svg width="116" height="115" viewBox="0 0 116 115" fill="none" xmlns="http://www.w3.org/2000/svg">
<path fill-rule="evenodd" clip-rule="evenodd" d="M62.519 69.8866C62.249 70.0476 62.051 70.1596 61.86 70.2806C60.926 70.8736 60.41 70.8976 60.043 70.3606C59.656 69.7956 59.888 69.3406 60.885 68.6966L63.685 66.8876C61.065 63.3716 58.896 59.5966 56.044 56.3246L55.797 56.4506C55.784 56.6956 55.76 56.9406 55.759 57.1866C55.759 59.1646 55.732 61.1426 55.778 63.1196C55.8031 63.5644 55.9601 63.9915 56.229 64.3466C58.285 67.0176 59.396 69.9156 58.467 73.3176C58.3157 73.915 58.075 74.4861 57.753 75.0116C57.3396 75.6869 57.1418 76.4721 57.186 77.2626C57.207 82.8376 57.198 88.4126 57.197 93.9869C57.197 95.3269 56.98 95.5389 55.628 95.5389H38.306C37.028 95.5389 36.799 95.3119 36.797 94.0049C36.797 90.5886 36.81 87.1716 36.778 83.7546C36.7661 83.332 36.6161 82.925 36.351 82.5956C35.208 81.2786 34.025 79.9956 32.818 78.7346C32.4905 78.3096 32.0079 78.0318 31.4759 77.9621C30.9439 77.8924 30.406 78.0364 29.98 78.3626C28.1629 79.4851 26.5613 80.9238 25.251 82.6106C25.1288 82.7044 25.0363 82.8316 24.9846 82.9768C24.9328 83.1219 24.9242 83.2789 24.9595 83.4289C24.9949 83.5789 25.0729 83.7155 25.184 83.8222C25.2952 83.9289 25.4348 84.0013 25.586 84.0306C27.611 84.8796 29.651 85.7006 31.724 86.4216C32.787 86.7916 33.056 87.1626 32.57 88.2066C32.364 88.6486 32.135 89.0806 31.958 89.5336C31.7858 89.9364 31.7052 90.3725 31.7222 90.8102C31.7391 91.248 31.853 91.6769 32.0558 92.0649C32.2586 92.4529 32.5451 92.7919 32.8947 93.0559C33.2442 93.3199 33.6481 93.5029 34.077 93.5919C34.202 93.6219 34.327 93.6489 34.452 93.6759C34.5819 93.6859 34.7079 93.7249 34.8208 93.7899C34.9336 93.8549 35.0305 93.9439 35.1044 94.0509C35.1782 94.1589 35.2271 94.2809 35.2474 94.4099C35.2678 94.5379 35.2591 94.6699 35.222 94.7949C35.2003 94.9159 35.1537 95.0319 35.0853 95.1349C35.0169 95.2379 34.928 95.3249 34.8243 95.3919C34.7205 95.4589 34.6041 95.5039 34.4823 95.5239C34.3604 95.5439 34.2358 95.5389 34.116 95.5089C33.4787 95.4249 32.8642 95.2169 32.3077 94.8949C31.7512 94.5739 31.2638 94.1449 30.8735 93.6349C30.4832 93.1239 30.1977 92.5409 30.0334 91.9199C29.869 91.2982 29.8292 90.6505 29.916 90.0136C30.0647 89.3592 30.2473 88.713 30.463 88.0776C30.24 88.0036 29.979 87.9396 29.735 87.8356C28.041 87.1156 26.32 86.4496 24.667 85.6436C24.3519 85.5073 24.0667 85.3102 23.8278 85.0636C23.5889 84.817 23.4009 84.5257 23.2747 84.2064C23.1485 83.8871 23.0865 83.546 23.0922 83.2027C23.0979 82.8594 23.1713 82.5206 23.308 82.2056C23.3218 82.0611 23.3019 81.9154 23.2498 81.7799C23.1978 81.6443 23.115 81.5228 23.008 81.4246C21.8619 80.6236 21.017 79.4618 20.608 78.1246C20.3977 77.4057 20.3479 76.6494 20.4621 75.9091C20.5763 75.1688 20.8518 74.4627 21.269 73.8406C25.169 68.1133 29.0884 62.399 33.027 56.6976C34.2327 55.0023 36.0519 53.8439 38.098 53.4686C38.3243 53.4564 38.5423 53.3793 38.726 53.2466C39.0761 52.8503 39.5214 52.5497 40.0199 52.3733C40.5184 52.1969 41.0536 52.1506 41.575 52.2386C41.901 52.2556 42.228 52.2386 42.632 52.2386C42.632 51.6826 42.665 51.1986 42.615 50.7216C42.556 50.516 42.4339 50.3342 42.266 50.2016C41.312 49.2826 40.366 48.3516 39.371 47.4816C39.066 47.2501 38.695 47.1218 38.312 47.1156C37.3936 47.1457 36.4908 46.8732 35.7424 46.34C34.994 45.8068 34.4416 45.0425 34.17 44.1646C33.9107 43.2818 33.9583 42.3371 34.305 41.4848C34.6517 40.6324 35.2771 39.9228 36.079 39.4716C36.252 39.3716 36.431 39.2826 36.435 39.2806C35.7706 37.6893 35.2029 36.0594 34.735 34.3996C34.6788 33.8435 34.4995 33.3068 34.2101 32.8286C33.9208 32.3504 33.5286 31.9425 33.062 31.6346C32.3341 31.0898 31.8136 30.3131 31.5862 29.4328C31.3588 28.5524 31.4381 27.6209 31.811 26.7916C32.1416 25.9189 32.7591 25.1846 33.5621 24.7092C34.3651 24.2339 35.306 24.0457 36.23 24.1756C36.5559 24.2616 36.902 24.2226 37.2007 24.0665C37.4993 23.9103 37.7287 23.6482 37.844 23.3316C37.201 22.7772 36.4429 22.3726 35.6244 22.1469C34.806 21.9213 33.9476 21.8802 33.1114 22.0267C32.2751 22.1732 31.4818 22.5036 30.7888 22.994C30.0958 23.4844 29.5203 24.1227 29.104 24.8626C28.1045 26.6664 27.5216 28.6711 27.398 30.7296C27.164 33.4156 26.998 36.1086 26.774 38.7916C26.6756 39.4937 26.538 40.1898 26.362 40.8766C28.0594 40.8204 29.6801 40.1564 30.929 39.0056C31.6384 38.3037 32.2899 37.5456 32.877 36.7386C32.9351 36.6106 33.0188 36.4959 33.1231 36.4016C33.2273 36.3074 33.3499 36.2356 33.4831 36.1908C33.6163 36.1459 33.7573 36.129 33.8973 36.141C34.0374 36.153 34.1734 36.1937 34.297 36.2606C34.4142 36.3409 34.5125 36.4457 34.585 36.5679C34.6575 36.69 34.7024 36.8265 34.7167 36.9678C34.731 37.1091 34.7142 37.2518 34.6677 37.386C34.6211 37.5202 34.5458 37.6426 34.447 37.7446C33.4482 39.4851 31.9487 40.8848 30.1437 41.7617C28.3387 42.6386 26.3116 42.9522 24.326 42.6616C24.0435 42.6673 23.7644 42.5983 23.517 42.4616C23.2378 42.2624 23.0473 41.9621 22.986 41.6246C23.0079 41.4564 23.07 41.2959 23.1669 41.1566C23.2639 41.0174 23.3929 40.9035 23.543 40.8246C23.9708 40.673 24.3373 40.3858 24.5868 40.0068C24.8362 39.6277 24.955 39.1774 24.925 38.7246C25.143 36.0366 25.314 33.3456 25.539 30.6586C25.6844 28.4242 26.2937 26.2446 27.328 24.2586C27.8443 23.2419 28.5812 22.3533 29.4849 21.6579C30.3887 20.9625 31.4363 20.4778 32.5514 20.2393C33.6665 20.0007 34.8207 20.0143 35.9299 20.2791C37.039 20.5439 38.075 21.0531 38.962 21.7696C39.081 21.8606 39.205 21.9466 39.353 22.0546C40.9839 20.8347 42.8737 20.0067 44.876 19.6346C46.5302 19.357 48.2231 19.4126 49.8554 19.7982C51.4878 20.1837 53.0267 20.8915 54.3817 21.8799C55.7368 22.8684 56.8808 24.1175 57.7465 25.5541C58.6122 26.9907 59.1822 28.5857 59.423 30.2456C59.6933 32.3144 59.4653 34.4178 58.758 36.3806C58.437 37.2806 57.987 37.5986 57.402 37.3866C56.817 37.1746 56.689 36.6416 57.011 35.7556C57.545 34.3458 57.7732 32.8386 57.6803 31.3339C57.5873 29.8292 57.1755 28.3615 56.4721 27.0281C55.7687 25.6947 54.7899 24.5261 53.6004 23.5998C52.411 22.6736 51.0381 22.0109 49.573 21.6556C47.6014 21.0921 45.5049 21.142 43.5623 21.7988C41.6198 22.4557 39.9232 23.6882 38.698 25.3326C35.911 28.8046 35.577 32.6976 37.423 36.7616C37.4776 36.8774 37.5401 36.9894 37.61 37.0966C37.635 37.1366 37.685 37.1606 37.651 37.1336C37.9126 35.8912 38.2397 34.6635 38.631 33.4556C39.1067 32.1897 39.8289 31.0308 40.7559 30.0462C41.6829 29.0615 42.7961 28.2707 44.031 27.7196C44.986 27.2646 45.431 27.4806 45.719 28.5196C46.2928 30.7649 47.3467 32.859 48.808 34.6576C50.0048 36.1553 51.6783 37.1981 53.55 37.6126C53.8579 37.6429 54.1529 37.7513 54.407 37.9276C55.282 38.5972 56.2998 39.0558 57.381 39.2676C58.139 39.5055 58.8002 39.9809 59.267 40.6236C59.7338 41.2664 59.9814 42.0423 59.973 42.8366C60.027 43.5997 59.856 44.3619 59.4811 45.0288C59.1062 45.6957 58.544 46.238 57.864 46.5886C57.7592 46.6905 57.6325 46.7672 57.4936 46.8129C57.3546 46.8586 57.2071 46.872 57.0623 46.8522C56.9174 46.8323 56.7789 46.7798 56.6574 46.6984C56.5358 46.6171 56.4344 46.5092 56.3608 46.3829C56.2872 46.2565 56.2433 46.1151 56.2325 45.9692C56.2217 45.8234 56.2442 45.677 56.2984 45.5412C56.3526 45.4054 56.437 45.2837 56.5452 45.1853C56.6535 45.087 56.7827 45.0146 56.923 44.9736C57.3403 44.7659 57.6794 44.4291 57.89 44.0133C58.1006 43.5975 58.1714 43.1249 58.092 42.6656C58.0276 42.2037 57.8095 41.777 57.473 41.4541C57.1365 41.1312 56.7012 40.931 56.237 40.8856C56.175 41.8496 56.179 42.8216 56.037 43.7736C55.8968 44.9521 55.5057 46.0868 54.89 47.1014C54.2744 48.116 53.4485 48.987 52.468 49.6556C52.0137 49.8903 51.6607 50.2827 51.4751 50.7592C51.2895 51.2357 51.2842 51.7635 51.46 52.2436H53.053C53.5697 52.2185 54.0822 52.347 54.5259 52.6129C54.9696 52.8788 55.3246 53.2702 55.546 53.7376C55.6767 53.9773 55.8703 54.1768 56.106 54.3146C57.2966 54.9835 58.3167 55.9181 59.087 57.0456C61.217 60.1283 63.3534 63.2063 65.496 66.2796C66.124 67.1856 66.047 67.5706 65.143 68.1666C64.806 68.3886 64.471 68.6136 64.079 68.8736C64.734 70.0336 65.313 71.1786 66.021 72.2366C66.3455 72.5338 66.769 72.6996 67.209 72.7016C67.742 72.7576 67.778 72.2786 67.889 71.8676C68.035 71.2648 68.3401 70.7123 68.7724 70.2676C69.2048 69.8229 69.7486 69.5024 70.347 69.3396C71.277 69.0526 72.206 68.7526 73.154 68.5396C73.3247 68.535 73.492 68.4914 73.6431 68.4121C73.7943 68.3328 73.9252 68.2199 74.026 68.0822C74.1268 67.9444 74.1947 67.7854 74.2245 67.6173C74.2543 67.4493 74.2453 67.2766 74.198 67.1126C74.1437 66.6794 74.1613 66.2401 74.25 65.8126C74.615 63.9036 76.166 62.9476 78.441 63.2426V32.9486C77.031 32.6996 77.013 32.7016 76.728 34.0176C76.2788 35.8724 76.272 37.8067 76.708 39.6646C76.7716 39.7917 76.8061 39.9313 76.809 40.0733C76.8118 40.2153 76.783 40.3562 76.7246 40.4857C76.6661 40.6152 76.5796 40.73 76.4712 40.8219C76.3628 40.9137 76.2354 40.9802 76.098 41.0166C75.9598 41.052 75.8154 41.0556 75.6756 41.0271C75.5357 40.9987 75.4042 40.9389 75.2908 40.8522C75.1775 40.7656 75.0852 40.6544 75.021 40.527C74.9567 40.3996 74.9222 40.2593 74.92 40.1166C74.2483 37.3251 74.4422 34.3952 75.476 31.7166C75.5886 31.5307 75.7409 31.372 75.9221 31.252C76.1033 31.132 76.3089 31.0536 76.524 31.0226C77.3177 30.9571 78.115 30.9467 78.91 30.9916C80.11 30.9916 80.359 31.2356 80.359 32.4226C80.359 39.924 80.359 47.424 80.359 54.9226V62.6726C81.2001 62.6179 82.044 62.6246 82.884 62.6926C83.8843 62.8432 84.7982 63.3454 85.4615 64.1092C86.1248 64.8729 86.4941 65.8481 86.503 66.8596C86.537 68.4263 86.5387 69.993 86.5081 71.5596C86.5179 72.3493 86.3034 73.1256 85.8895 73.7983C85.4757 74.471 84.8794 75.0124 84.17 75.3596C83.9757 75.4401 83.813 75.582 83.707 75.7637C83.601 75.9454 83.5574 76.1568 83.583 76.3656C83.6004 82.2743 83.604 88.183 83.594 94.0919C83.594 95.3049 83.37 95.5289 82.165 95.5309C81.395 95.5309 80.6254 95.5309 79.856 95.5309C78.786 95.5309 78.508 95.2479 78.508 94.1499C78.508 87.7786 78.516 81.4086 78.491 75.0376C78.4336 74.4653 78.3115 73.9014 78.127 73.3566C77.949 72.6186 77.759 71.8826 77.621 71.3336C76.741 70.8816 75.93 70.4526 75.104 70.0526C74.9267 69.9738 74.728 69.9573 74.54 70.0056C73.3347 70.3543 72.1347 70.7176 70.94 71.0956C70.5083 71.1957 70.1333 71.4615 69.8959 71.8357C69.6584 72.2099 69.5777 72.6624 69.671 73.0956C69.9297 75.1323 70.1987 77.168 70.478 79.2026C70.59 80.0286 70.936 80.1746 71.587 79.6646C72.92 78.6196 74.238 77.5556 75.566 76.5036C76.208 75.9956 76.745 75.9736 77.118 76.4296C77.2077 76.5485 77.2697 76.6859 77.2994 76.8319C77.3292 76.9778 77.326 77.1285 77.29 77.273C77.2541 77.4175 77.1863 77.5522 77.0917 77.6672C76.9971 77.7822 76.878 77.8746 76.743 77.9376C75.504 78.9376 74.253 79.9186 73.01 80.9116C71.456 82.1536 70.568 82.1546 69.027 80.8696C68.468 81.1816 67.896 81.5156 67.312 81.8236C66.2491 82.4209 65.0051 82.6108 63.8124 82.3577C62.6197 82.1047 61.5599 81.4261 60.831 80.4486C60.137 79.558 59.4527 78.658 58.778 77.7486C58.6737 77.6572 58.5907 77.5439 58.5352 77.4168C58.4797 77.2897 58.453 77.1518 58.4569 77.0132C58.4608 76.8745 58.4953 76.7384 58.5579 76.6146C58.6206 76.4908 58.7098 76.3824 58.8192 76.297C58.9285 76.2117 59.0554 76.1516 59.1907 76.121C59.3261 76.0904 59.4665 76.0901 59.6019 76.12C59.7374 76.15 59.8645 76.2095 59.9743 76.2943C60.0841 76.3791 60.1738 76.4871 60.237 76.6106C60.92 77.5106 61.599 78.4106 62.302 79.2976C62.7643 79.9416 63.4523 80.3877 64.2288 80.5471C65.0054 80.7065 65.8135 80.5674 66.492 80.1576C66.904 79.899 67.3311 79.6652 67.771 79.4576C67.9108 79.4175 68.0408 79.349 68.1529 79.2564C68.2649 79.1637 68.3567 79.049 68.4224 78.9193C68.4881 78.7895 68.5263 78.6477 68.5347 78.5025C68.5431 78.3574 68.5214 78.212 68.471 78.0756C68.271 76.9396 68.138 75.7906 67.976 74.6476C67.9524 74.6076 67.9227 74.5715 67.888 74.5406C67.627 74.5576 67.329 74.5866 67.03 74.5906C66.4747 74.6199 65.9225 74.49 65.4385 74.2161C64.9545 73.9422 64.5589 73.5358 64.298 73.0446C63.711 72.0246 63.142 70.9916 62.519 69.8866ZM55.298 77.6036C54.961 77.6956 54.744 77.7656 54.521 77.8136C54.2724 77.8746 54.0198 77.9184 53.765 77.9446C53.6273 77.9803 53.4835 77.9856 53.3435 77.9601C53.2036 77.9345 53.0709 77.8788 52.9547 77.7967C52.8384 77.7147 52.7415 77.6083 52.6706 77.485C52.5997 77.3616 52.5565 77.2243 52.544 77.0826C52.5501 76.8144 52.6593 76.5589 52.8489 76.3692C53.0385 76.1794 53.2939 76.07 53.562 76.0636C54.277 75.9145 54.9394 75.5776 55.481 75.0876C56.4094 74.0376 56.9297 72.6891 56.947 71.2876C56.9685 69.0531 56.1058 66.9008 54.547 65.2996C54.3296 65.0691 54.1599 64.7978 54.0478 64.5014C53.9358 64.205 53.8835 63.8893 53.894 63.5726C53.923 60.7476 53.903 57.9236 53.908 55.0986C53.908 54.6296 53.861 54.1686 53.292 54.1196C52.669 54.0656 52.037 54.1066 51.37 54.1066C51.37 54.4986 51.37 54.7796 51.37 55.0606C51.37 56.9606 51.405 58.8606 51.358 60.7606C51.3597 61.3371 51.2469 61.9081 51.0262 62.4407C50.8056 62.9732 50.4814 63.4567 50.0725 63.863C49.6636 64.2693 49.1781 64.5904 48.6442 64.8077C48.1102 65.025 47.5385 65.1342 46.9621 65.1289C46.3856 65.1236 45.816 65.004 45.2861 64.7769C44.7563 64.5498 44.2768 64.2198 43.8754 63.8061C43.474 63.3923 43.1588 62.903 42.9479 62.3665C42.7371 61.83 42.6348 61.2569 42.647 60.6806C42.623 58.7806 42.647 56.8806 42.642 54.9806C42.642 54.7076 42.642 54.4336 42.642 54.0916C42.118 54.0916 41.688 54.0916 41.258 54.0916C40.241 54.0966 40.1 54.2316 40.098 55.2506C40.098 57.7666 40.054 60.2846 40.117 62.7986C40.1541 63.3402 40.0817 63.8837 39.9042 64.3967C39.7268 64.9097 39.4478 65.3817 39.084 65.7846C37.7009 67.3047 36.9735 69.3092 37.06 71.3626C37.188 74.2416 38.553 75.7556 41.382 76.1086C41.5057 76.1085 41.6281 76.1333 41.742 76.1815C41.8559 76.2297 41.9589 76.3003 42.045 76.3891C42.131 76.4779 42.1983 76.5832 42.2429 76.6985C42.2874 76.8139 42.3083 76.937 42.3042 77.0606C42.3002 77.1842 42.2714 77.3058 42.2194 77.418C42.1675 77.5302 42.0935 77.6308 42.0018 77.7139C41.9102 77.7969 41.8028 77.8606 41.686 77.9013C41.5692 77.942 41.4454 77.9588 41.322 77.9506C40.9637 77.9558 40.6056 77.9287 40.252 77.8696C39.738 77.7876 39.229 77.6696 38.71 77.5636V93.6439H55.298V77.6036ZM44.081 29.7916C42.9782 30.3927 42.0278 31.2384 41.3027 32.2639C40.5775 33.2895 40.097 34.4675 39.898 35.7076C39.6714 37.9768 39.6046 40.2591 39.698 42.5376C39.7252 44.062 40.2339 45.5388 41.1514 46.7564C42.0689 47.9741 43.3482 48.8703 44.806 49.3166C46.2354 49.7642 47.7675 49.7633 49.1963 49.314C50.6251 48.8647 51.8821 47.9887 52.798 46.8036C54.0886 44.9842 54.6237 42.7353 54.291 40.5296C54.2597 40.2576 54.1397 40.0036 53.9495 39.8066C53.7594 39.6096 53.5097 39.4806 53.239 39.4396C52.745 39.3086 52.244 39.1906 51.766 39.0126C48.637 37.8496 46.697 35.4646 45.266 32.5826C44.826 31.6916 44.487 30.7556 44.081 29.7916ZM35.181 70.4916C35.4388 68.1245 36.416 65.8932 37.981 64.0986C38.1463 63.847 38.2272 63.5493 38.212 63.2486C38.232 60.8626 38.229 58.4756 38.227 56.0896C38.227 55.8736 38.193 55.6596 38.169 55.3826C36.5802 55.7583 35.1952 56.7275 34.298 58.0916C32.7594 60.3316 31.2224 62.5726 29.687 64.8146C29.416 65.2146 29.154 65.6146 28.857 66.0556L35.181 70.4916ZM27.787 67.5816C26.075 70.0926 24.387 72.5086 22.78 74.9816C22.4674 75.538 22.3057 76.1664 22.311 76.8046C22.265 78.5106 23.467 79.4436 24.582 80.2766C25.992 79.1446 27.37 78.0476 28.73 76.9276C28.7921 76.8542 28.8382 76.7685 28.8652 76.6762C28.8922 76.5839 28.8997 76.487 28.887 76.3916C28.8313 75.8413 28.9024 75.2855 29.095 74.767C29.2876 74.2485 29.5965 73.7811 29.998 73.4006C30.793 72.5676 31.547 71.7006 32.358 70.8006L27.787 67.5816ZM84.66 69.2306H84.666C84.666 68.4866 84.683 67.7416 84.666 66.9976C84.6688 66.3234 84.4037 65.6758 83.9289 65.1971C83.4542 64.7184 82.8087 64.4479 82.1345 64.4451C81.4604 64.4423 80.8127 64.7075 80.334 65.1822C79.8553 65.657 79.5848 66.3024 79.582 66.9766C79.554 68.516 79.554 70.0556 79.582 71.5956C79.5922 72.2601 79.8626 72.8941 80.3351 73.3615C80.8077 73.8288 81.4447 74.0921 82.1092 74.0948C82.7738 74.0976 83.413 73.8395 83.8894 73.3762C84.3658 72.9128 84.6414 72.281 84.657 71.6166C84.68 70.8186 84.656 70.0226 84.656 69.2266L84.66 69.2306ZM80.425 75.6436V93.6439H81.69V75.9136L80.425 75.6436ZM36.811 80.0836C36.671 78.0836 37.251 76.1226 35.942 74.4256C35.8322 74.2821 35.7613 74.1126 35.736 73.9336C35.605 72.8276 34.726 72.4236 33.936 71.9336C32.081 73.5226 30.785 75.2116 30.773 76.1026C33.73 75.8726 34.838 78.4646 36.811 80.0836ZM49.482 51.3736H44.498C44.498 52.2566 44.453 53.2056 44.509 54.1486C44.5458 54.7838 44.8215 55.3816 45.2808 55.8219C45.74 56.2623 46.3489 56.5126 46.985 56.5226C47.6085 56.5251 48.2099 56.2926 48.6697 55.8716C49.1294 55.4506 49.4138 54.8718 49.466 54.2506C49.549 53.2916 49.482 52.3096 49.482 51.3736ZM49.482 57.6276C48.7419 58.1152 47.8765 58.3779 46.9902 58.3841C46.104 58.3904 45.2349 58.1398 44.488 57.6626C44.488 58.0626 44.488 58.3416 44.488 58.6196C44.488 59.3886 44.452 60.1616 44.507 60.9266C44.5491 61.561 44.829 62.1562 45.2908 62.5931C45.7526 63.0301 46.3623 63.2767 46.998 63.2836C47.621 63.2843 48.2213 63.0501 48.6792 62.6276C49.137 62.2052 49.4187 61.6256 49.468 61.0046C49.551 59.9396 49.484 58.8636 49.484 57.6266L49.482 57.6276ZM37.733 40.8786C37.1698 40.9585 36.6602 41.2558 36.3135 41.7068C35.9668 42.1579 35.8104 42.7268 35.878 43.2916C35.9384 43.8299 36.2044 44.3241 36.6205 44.6709C37.0366 45.0177 37.5707 45.1903 38.111 45.1526L37.733 40.8786ZM77.905 65.1016C77.6507 64.9884 77.366 64.963 77.0957 65.0295C76.8254 65.0959 76.5849 65.2504 76.412 65.4686C76.1426 65.9565 75.9995 66.5041 75.9958 67.0614C75.9921 67.6188 76.128 68.1682 76.391 68.6596C76.77 68.9325 77.1854 69.151 77.625 69.3086C77.724 67.8106 77.81 66.5216 77.905 65.1016ZM34.437 30.3016L35.804 26.0666C35.2897 26.0277 34.7778 26.1695 34.3568 26.4677C33.9358 26.7658 33.6321 27.2015 33.498 27.6996C33.3299 28.1756 33.3315 28.6952 33.5026 29.1701C33.6738 29.6451 34.0039 30.0463 34.437 30.3056V30.3016ZM90.9283 50.5916C91.5373 50.9364 92.2443 51.0669 92.9353 50.9623C93.6273 50.8577 94.2643 50.524 94.7443 50.0146C95.2153 49.5004 95.5093 48.8479 95.5813 48.1538C95.6533 47.4597 95.5003 46.7608 95.1443 46.1606C94.6353 45.2735 94.2553 44.3182 94.0173 43.3236C93.6533 41.3848 93.4463 39.4197 93.3993 37.4476C93.3073 35.2121 93.7533 32.9873 94.6993 30.9596C95.9343 28.4596 94.2993 26.1386 91.5133 26.1316C86.8131 26.1216 82.122 26.1316 77.426 26.1316C75.168 26.1316 72.91 26.1086 70.652 26.1406C70.1746 26.1274 69.7001 26.2201 69.2626 26.412C68.8252 26.6039 68.4357 26.8903 68.1221 27.2507C67.8086 27.611 67.5787 28.0363 67.449 28.4961C67.3193 28.9558 67.293 29.4385 67.372 29.9096C67.442 30.4836 67.704 31.0336 67.829 31.6036C67.9207 31.9034 67.9259 32.223 67.844 32.5256C66.7528 35.0486 66.0625 37.7265 65.798 40.4626C65.54 43.5526 65.988 46.4626 68.098 48.9076C68.3271 49.1951 68.6109 49.4342 68.9331 49.6112C69.2552 49.7881 69.6093 49.8994 69.9748 49.9384C70.3403 49.9775 70.7099 49.9436 71.0622 49.8388C71.4144 49.7339 71.7424 49.5602 72.027 49.3276C72.165 49.2276 72.297 49.1176 72.427 49.0126L72.386 49.2206C73.437 49.6636 74.463 50.1836 75.545 50.5206C76.554 50.8396 77.111 50.5566 77.235 49.9056C77.35 49.3056 76.972 48.9626 75.944 48.7286C75.1509 48.6247 74.4097 48.2765 73.8234 47.7323C73.2371 47.1881 72.8347 46.4749 72.672 45.6916C72.497 44.8646 72.33 44.0356 72.204 43.1996C72.2158 43.0592 72.198 42.9178 72.1517 42.7847C72.1055 42.6515 72.0318 42.5296 71.9355 42.4267C71.8392 42.3238 71.7224 42.2422 71.5926 42.1873C71.4628 42.1323 71.323 42.1052 71.182 42.1076C71.039 42.1189 70.9005 42.1627 70.7769 42.2357C70.6534 42.3086 70.5481 42.4088 70.4692 42.5286C70.3902 42.6483 70.3396 42.7845 70.3212 42.9268C70.3028 43.0691 70.3171 43.2137 70.363 43.3496C70.563 44.5346 70.825 45.7116 71.134 46.8726C71.249 47.3026 71.309 47.6906 70.876 47.8386C70.4866 47.9509 70.0734 47.9509 69.684 47.8386C69.444 47.6905 69.2514 47.4768 69.129 47.2226C67.8764 45.3453 67.3463 43.0777 67.637 40.8396C67.8646 38.4096 68.4412 36.0251 69.349 33.7596C69.3722 33.6115 69.4252 33.4696 69.5049 33.3426C69.5845 33.2156 69.6891 33.106 69.8124 33.0207C69.9356 32.9353 70.0749 32.8758 70.2218 32.8459C70.3688 32.816 70.5202 32.8162 70.667 32.8466C71.2302 32.8862 71.7953 32.8906 72.359 32.8596C72.492 32.8809 72.628 32.8733 72.7578 32.8373C72.8876 32.8013 73.0081 32.7377 73.1112 32.651C73.2142 32.5643 73.2973 32.4564 73.355 32.3346C73.4126 32.2129 73.4433 32.0802 73.445 31.9455C73.4468 31.8108 73.4195 31.6774 73.365 31.5542C73.3106 31.431 73.2303 31.321 73.1295 31.2316C73.0287 31.1423 72.9099 31.0756 72.7811 31.0363C72.6523 30.997 72.5165 30.9858 72.383 31.0036C71.639 30.9886 70.894 30.9706 70.151 31.0036C69.9748 31.0284 69.7958 30.9851 69.6503 30.8825C69.5049 30.78 69.4039 30.6259 69.368 30.4516C68.929 29.2016 69.282 27.9566 71.011 27.9666C77.811 28.0056 84.611 27.9826 91.4113 27.9846C91.6423 27.978 91.8733 27.9931 92.1013 28.0296C92.4453 28.0914 92.7533 28.2827 92.9613 28.5642C93.1693 28.8457 93.2623 29.1961 93.2203 29.5436C93.0983 30.6086 92.7433 30.9916 91.8673 30.9916C91.4823 30.9736 91.0973 30.9853 90.7153 31.0266C90.5983 31.029 90.4833 31.057 90.3778 31.1088C90.2727 31.1605 90.1803 31.2347 90.1071 31.3261C90.0338 31.4174 89.9815 31.5238 89.9539 31.6376C89.9262 31.7514 89.9239 31.8698 89.947 31.9846C90.1088 32.3556 90.4063 32.6505 90.7793 32.8086C91.1593 32.9059 91.5543 32.937 91.9453 32.9006C91.8913 33.2876 91.8453 33.5876 91.8073 33.8886C91.2423 38.4626 91.2593 42.9606 93.5583 47.1576C93.7153 47.3977 93.7843 47.685 93.7523 47.9702C93.7213 48.2554 93.5913 48.5208 93.3853 48.7206C93.1933 48.9325 92.9343 49.0721 92.6523 49.1161C92.3693 49.1602 92.0803 49.106 91.8333 48.9626C90.7533 48.4671 89.8474 47.6585 89.233 46.6416C88.2971 44.9833 87.7356 43.1401 87.588 41.2416C87.6026 41.1002 87.5853 40.9574 87.5373 40.8236C87.4892 40.6898 87.4118 40.5685 87.3106 40.4687C87.2094 40.3689 87.0871 40.293 86.9527 40.2468C86.8183 40.2006 86.6752 40.1851 86.534 40.2016C86.3981 40.2143 86.2666 40.257 86.1491 40.3265C86.0316 40.3961 85.9309 40.4909 85.8544 40.604C85.7779 40.7172 85.7274 40.8458 85.7066 40.9808C85.6858 41.1158 85.6952 41.2537 85.734 41.3846C85.8966 43.488 86.5032 45.5329 87.514 47.3846C87.6539 47.5327 87.7477 47.7182 87.784 47.9186C87.8203 48.119 87.7976 48.3257 87.7185 48.5134C87.6395 48.7011 87.5075 48.8617 87.3387 48.9758C87.17 49.0898 86.9717 49.1523 86.768 49.1556C86.2997 49.2352 85.8192 49.2043 85.3649 49.0654C84.9105 48.9265 84.4949 48.6835 84.151 48.3556C83.9593 48.2312 83.805 48.057 83.7048 47.8516C83.6045 47.6461 83.5621 47.4173 83.582 47.1896C83.605 42.6896 83.595 38.1986 83.596 33.7036C83.596 33.4536 83.617 33.2036 83.631 32.9146H86.0791C86.0051 33.5086 85.933 34.0376 85.874 34.5686C85.8151 35.0996 85.748 35.6396 85.719 36.1776C85.6816 36.3147 85.6747 36.4583 85.6988 36.5983C85.7229 36.7383 85.7773 36.8713 85.8584 36.988C85.9394 37.1047 86.045 37.2022 86.1678 37.2737C86.2906 37.3451 86.4276 37.3888 86.569 37.4016C86.7102 37.3947 86.8485 37.3595 86.9757 37.2981C87.103 37.2367 87.2166 37.1504 87.3099 37.0443C87.4032 36.9381 87.4742 36.8143 87.5187 36.6802C87.5632 36.5461 87.5803 36.4045 87.569 36.2636C87.7311 34.9636 87.902 33.6686 88.101 32.3766C88.1712 32.2078 88.1942 32.0232 88.1676 31.8424C88.1409 31.6615 88.0657 31.4913 87.9499 31.3499C87.8341 31.2086 87.682 31.1013 87.51 31.0396C87.3379 30.9779 87.1523 30.9641 86.973 30.9996C85.771 30.9816 84.565 30.9916 83.359 30.9916C81.969 30.9916 81.739 31.2176 81.739 32.5916C81.739 41.891 81.739 51.191 81.739 60.4916C81.6925 60.717 81.7101 60.9508 81.79 61.1666C82.0069 61.5053 82.339 61.7539 82.725 61.8666C83.0945 61.714 83.3935 61.4286 83.563 61.0666C83.6362 60.8209 83.6485 60.5611 83.599 60.3096C83.599 57.2783 83.599 54.247 83.599 51.2156C83.599 50.9466 83.623 50.6776 83.641 50.2986C85.741 51.4776 87.641 51.4756 89.265 49.6256C89.867 49.9716 90.379 50.3186 90.9283 50.5916ZM71.578 38.0916C71.4367 38.0932 71.2972 38.1239 71.1682 38.1817C71.0392 38.2396 70.9235 38.3234 70.8282 38.4279C70.733 38.5324 70.6603 38.6553 70.6147 38.7891C70.5691 38.923 70.5515 39.0647 70.563 39.2056C70.552 39.3327 70.5674 39.4606 70.6084 39.5814C70.6494 39.7021 70.715 39.813 70.8012 39.907C70.8873 40.0011 70.992 40.0762 71.1087 40.1276C71.2254 40.179 71.3515 40.2056 71.479 40.2056C71.6241 40.1919 71.7651 40.1495 71.8936 40.0808C72.0222 40.0122 72.1359 39.9186 72.228 39.8057C72.3201 39.6927 72.3888 39.5626 72.4302 39.4229C72.4716 39.2831 72.4848 39.1365 72.469 38.9916C72.464 38.756 72.3688 38.5314 72.2031 38.3639C72.0373 38.1965 71.8136 38.099 71.578 38.0916ZM45.368 77.0546C45.384 77.6646 45.792 77.9626 46.62 77.9646C47.471 77.9646 47.92 77.6326 47.901 77.0026C47.887 76.4026 47.476 76.1106 46.645 76.1086C45.767 76.1076 45.352 76.4156 45.368 77.0546ZM48.978 41.0766C48.967 41.2004 48.983 41.325 49.0249 41.442C49.0668 41.5589 49.1336 41.6654 49.2208 41.7539C49.3079 41.8425 49.4132 41.9111 49.5295 41.9549C49.6457 41.9987 49.7701 42.0167 49.894 42.0076C50.0111 42.0171 50.1288 42.0018 50.2395 41.9626C50.3502 41.9234 50.4513 41.8613 50.5363 41.7803C50.6213 41.6993 50.6882 41.6012 50.7326 41.4925C50.777 41.3838 50.798 41.267 50.794 41.1496C50.8095 41.03 50.7996 40.9085 50.7651 40.7929C50.7306 40.6773 50.6721 40.5703 50.5936 40.4788C50.5151 40.3872 50.4182 40.3132 50.3092 40.2615C50.2002 40.2098 50.0816 40.1816 49.961 40.1786C49.8356 40.1635 49.7084 40.1755 49.5881 40.214C49.4678 40.2525 49.3572 40.3166 49.2639 40.4017C49.1705 40.4869 49.0967 40.5912 49.0474 40.7075C48.998 40.8238 48.9744 40.9493 48.978 41.0756V41.0766ZM44.098 42.0106C44.2217 42.021 44.3461 42.0043 44.4625 41.9615C44.579 41.9187 44.6846 41.851 44.7721 41.763C44.8596 41.6751 44.9268 41.569 44.9689 41.4524C45.011 41.3357 45.0271 41.2112 45.016 41.0876C45.0245 40.9709 45.0084 40.8537 44.9685 40.7436C44.9287 40.6336 44.8661 40.5332 44.7849 40.4489C44.7037 40.3646 44.6056 40.2985 44.4971 40.2546C44.3885 40.2108 44.272 40.1904 44.155 40.1946C44.034 40.1803 43.9112 40.1919 43.795 40.2286C43.6787 40.2654 43.5717 40.3265 43.4808 40.4078C43.39 40.4892 43.3176 40.5889 43.2683 40.7005C43.219 40.812 43.1941 40.9327 43.195 41.0546C43.1839 41.1784 43.1992 41.3032 43.24 41.4207C43.2807 41.5381 43.3459 41.6456 43.4312 41.736C43.5166 41.8264 43.6202 41.8976 43.7351 41.9449C43.8501 41.9923 43.9738 42.0147 44.098 42.0106Z" fill="#159822"/>
</svg>
