<svg width="115" height="115" viewBox="0 0 115 115" fill="none" xmlns="http://www.w3.org/2000/svg">
<path d="M93.5381 87.8681H92.3361V61.9228C92.3341 60.0772 91.6001 58.3079 90.2951 57.0029C88.9899 55.6979 87.2206 54.9639 85.375 54.9618H81.0574C82.2871 54.4619 83.4542 53.82 84.5348 53.0491L89.2746 49.6636C89.4146 49.5636 89.5329 49.4362 89.622 49.289C89.7111 49.1418 89.7691 48.978 89.7931 48.8076C89.8171 48.6372 89.8051 48.4637 89.7601 48.2978C89.7141 48.1319 89.6352 47.977 89.5277 47.8427C88.165 46.1411 87.0661 44.2442 86.2679 42.2157C87.3437 41.9957 88.2994 41.3839 88.9497 40.4991C89.5999 39.6143 89.8981 38.5196 89.7871 37.4272C89.6761 36.3348 89.1629 35.3226 88.3477 34.587C87.5325 33.8515 86.4731 33.4449 85.375 33.4462H84.7422V32.1806H89.8051C90.1401 32.1806 90.4621 32.0472 90.7001 31.8099C90.9371 31.5725 91.0701 31.2506 91.0701 30.9149C91.0701 30.5793 90.9371 30.2574 90.7001 30.02C90.4621 29.7827 90.1401 29.6493 89.8051 29.6493H85.9359C85.6094 26.7587 84.1893 24.1025 81.9668 22.2255C79.7443 20.3485 76.8879 19.3929 73.9834 19.5548C71.0789 19.7167 68.3463 20.9837 66.3462 23.096C64.346 25.2084 63.2299 28.0059 63.2266 30.9149C63.2266 31.2506 63.3599 31.5725 63.5973 31.8099C63.8346 32.0472 64.1566 32.1806 64.4922 32.1806V33.4462H63.8594C62.7617 33.4455 61.7028 33.8524 60.8881 34.588C60.0733 35.3236 59.5607 36.3355 59.4496 37.4275C59.3385 38.5196 59.6368 39.614 60.2868 40.4986C60.9367 41.3832 61.8919 41.995 62.9673 42.2154C62.1686 44.2439 61.0695 46.1409 59.7069 47.8427C59.5995 47.977 59.5206 48.1318 59.4751 48.2977C59.4295 48.4635 59.4182 48.6369 59.4419 48.8073C59.4656 48.9776 59.5238 49.1413 59.6128 49.2885C59.7019 49.4356 59.82 49.563 59.96 49.663L64.6996 53.0485C65.7803 53.8196 66.9473 54.4617 68.1771 54.9618H63.8594C62.0139 54.9639 60.2445 55.6979 58.9396 57.0029C57.6346 58.3079 56.9005 60.0772 56.8985 61.9228V75.9532L56.5278 75.5825C56.4103 75.465 56.2707 75.3717 56.1172 75.3081C55.9636 75.2445 55.7991 75.2118 55.6329 75.2118H40.4453V72.6806H49.9375C50.7764 72.6796 51.5806 72.3459 52.1738 71.7528C52.767 71.1596 53.1006 70.3554 53.1016 69.5165V50.5321C53.1006 49.6933 52.767 48.889 52.1738 48.2959C51.5806 47.7027 50.7764 47.369 49.9375 47.3681H23.3594C22.5205 47.369 21.7163 47.7027 21.1231 48.2959C20.53 48.889 20.1963 49.6933 20.1953 50.5321V69.5165C20.1963 70.3554 20.53 71.1596 21.1231 71.7528C21.7163 72.3459 22.5205 72.6796 23.3594 72.6806H32.8516V75.2118H21.461C21.1253 75.2118 20.8034 75.3452 20.566 75.5825C20.3287 75.8199 20.1953 76.1418 20.1953 76.4774V94.1962C20.1953 94.5322 20.3287 94.8542 20.566 95.0912C20.8034 95.3282 21.1253 95.4622 21.461 95.4622H93.5381C93.8741 95.4622 94.1961 95.3282 94.4331 95.0912C94.6711 94.8542 94.8041 94.5322 94.8041 94.1962V89.1337C94.8041 88.798 94.6711 88.4761 94.4331 88.2388C94.1961 88.0014 93.8741 87.8681 93.5381 87.8681ZM86.0079 57.5381C87.0616 57.6917 88.0249 58.2191 88.722 59.0241C89.4191 59.8291 89.8031 60.8579 89.8051 61.9228V70.1493H87.112C87.6152 67.8584 87.22 65.4616 86.0079 63.4535V57.5381ZM86.0079 72.9788L86.1572 72.6799H89.8051V87.8674H86.0079V72.9788ZM83.4766 57.4931V60.0243H80.9453V57.4931H83.4766ZM85.375 35.9774C85.8703 35.9773 86.346 36.1709 86.7005 36.5168C87.055 36.8627 87.2602 37.3336 87.2722 37.8287C87.2843 38.3239 87.1022 38.8041 86.7649 39.1668C86.4276 39.5295 85.9618 39.746 85.4671 39.7699C85.1392 38.5273 84.9217 37.2583 84.8171 35.9774H85.375ZM86.7451 48.3598L83.0637 50.9893C82.0678 51.7006 80.9859 52.283 79.8438 52.7228C79.7473 52.1756 79.6937 51.6217 79.6834 51.0662C80.8949 50.3639 81.948 49.4185 82.7767 48.2896C83.6053 47.1607 84.1915 45.8726 84.4984 44.5063C85.1272 45.8572 85.8793 47.1472 86.7451 48.3598ZM78.4141 57.4931V60.0243H70.8203V57.4931H78.4141ZM71.4373 54.9618C71.4617 54.886 71.4853 54.8103 71.5081 54.7346C71.5106 54.7264 71.5128 54.7177 71.5153 54.7095V54.7076V54.7047C71.5944 54.4489 71.6664 54.1827 71.7299 53.9137C71.8717 53.315 71.9712 52.7071 72.0276 52.0944C73.7249 52.5438 75.5099 52.5438 77.2072 52.0944C77.289 52.9803 77.4601 53.8557 77.718 54.7073V54.7087C77.7199 54.7144 77.7212 54.7202 77.7231 54.7259C77.7468 54.8047 77.7713 54.8834 77.7966 54.9621L71.4373 54.9618ZM74.6172 49.8993C72.6039 49.897 70.6737 49.0963 69.2501 47.6727C67.8265 46.249 67.0257 44.3189 67.0235 42.3056V33.4604C71.5055 36.5452 76.7736 38.2893 82.211 38.4886V42.3056C82.2087 44.3189 81.4079 46.249 79.9843 47.6727C78.5607 49.0963 76.6305 49.897 74.6172 49.8993ZM69.7001 32.1806H82.211V35.9572C77.788 35.7793 73.4828 34.4797 69.7001 32.1806ZM74.6172 22.0556C76.7469 22.0583 78.8046 22.8269 80.4146 24.221C82.0246 25.6152 83.0794 27.5419 83.3866 29.6493H65.8479C66.155 27.5419 67.2099 25.6152 68.8198 24.221C70.4298 22.8269 72.4875 22.0583 74.6172 22.0556ZM61.961 37.8759C61.9613 37.3725 62.1614 36.8898 62.5174 36.5338C62.8733 36.1779 63.356 35.9778 63.8594 35.9774H64.4174C64.3128 37.2582 64.0952 38.5272 63.7673 39.7697C63.2808 39.7459 62.8221 39.5361 62.4859 39.1836C62.1497 38.8311 61.9618 38.363 61.961 37.8759ZM66.1706 50.9893L62.4889 48.3595C63.3547 47.1456 64.1068 45.8543 64.7354 44.5022C65.0419 45.8695 65.6281 47.1585 66.4571 48.2883C67.286 49.418 68.3397 50.364 69.552 51.0667C69.5424 51.6223 69.4895 52.1762 69.3938 52.7236C68.2505 52.2839 67.1675 51.7012 66.1706 50.9893ZM65.7579 57.4931H68.2891V60.0243H65.7579V57.4931ZM65.5452 64.5233C65.6839 64.3154 65.7578 64.0711 65.7579 63.8212V62.5556H83.4766V63.8212C83.4766 64.0711 83.5506 64.3154 83.6892 64.5233C84.3329 65.4917 84.7098 66.6127 84.7821 67.7732C84.8543 68.9337 84.6192 70.0928 84.1006 71.1335L83.6101 72.1144C83.5222 72.2901 83.4765 72.484 83.4766 72.6806V87.8681H65.7579V72.6806C65.7579 72.4841 65.7121 72.2902 65.6242 72.1145L65.1337 71.1336C64.6151 70.0929 64.38 68.9338 64.4523 67.7732C64.5245 66.6127 64.9015 65.4917 65.5452 64.5233ZM59.4297 61.9228C59.4311 60.8579 59.8154 59.8291 60.5125 59.0241C61.2095 58.2191 62.1729 57.6917 63.2266 57.5381V63.4535C62.0144 65.4616 61.6192 67.8584 62.1225 70.1493H59.4297V61.9228ZM59.4297 72.6806H63.0773L63.2266 72.9794V82.2818L59.4297 78.4849V72.6806ZM53.1016 77.7431H55.1087L63.2266 85.8609V87.8681H53.1016V77.7431ZM30.3203 65.0868V54.9618H42.9766V65.0868H30.3203ZM37.9141 67.6181V75.2118H35.3829V67.6181H37.9141ZM23.3594 70.1493C23.1916 70.1493 23.0306 70.0826 22.9119 69.964C22.7933 69.8453 22.7266 69.6843 22.7266 69.5165V50.5321C22.7266 50.3643 22.7933 50.2033 22.9119 50.0847C23.0306 49.966 23.1916 49.8993 23.3594 49.8993H49.9375C50.1054 49.8993 50.2663 49.966 50.385 50.0847C50.5037 50.2033 50.5703 50.3643 50.5703 50.5321V69.5165C50.5703 69.6843 50.5037 69.8453 50.385 69.964C50.2663 70.0826 50.1054 70.1493 49.9375 70.1493H40.4453V67.6181H44.2422C44.5779 67.6181 44.8998 67.4847 45.1372 67.2474C45.3745 67.01 45.5079 66.6881 45.5079 66.3524V53.6962C45.5079 53.3605 45.3745 53.0386 45.1372 52.8013C44.8998 52.5639 44.5779 52.4306 44.2422 52.4306H29.0547C28.7191 52.4306 28.3971 52.5639 28.1598 52.8013C27.9224 53.0386 27.7891 53.3605 27.7891 53.6962V66.3524C27.7891 66.6881 27.9224 67.01 28.1598 67.2474C28.3971 67.4847 28.7191 67.6181 29.0547 67.6181H32.8516V70.1493H23.3594ZM22.7266 85.3368H32.8516V82.8056H22.7266V77.7431H50.5703V82.8056H35.3829V85.3368H50.5703V87.8681H22.7266V85.3368ZM92.2731 92.9306H22.7266V90.3993H92.2731V92.9306Z" fill="#159822"/>
<path d="M70.8203 41.0391C71.5193 41.0391 72.086 40.4724 72.086 39.7734C72.086 39.0745 71.5193 38.5078 70.8203 38.5078C70.1214 38.5078 69.5547 39.0745 69.5547 39.7734C69.5547 40.4724 70.1214 41.0391 70.8203 41.0391Z" fill="#159822"/>
<path d="M78.414 41.0391C79.113 41.0391 79.6796 40.4724 79.6796 39.7734C79.6796 39.0745 79.113 38.5078 78.414 38.5078C77.715 38.5078 77.1484 39.0745 77.1484 39.7734C77.1484 40.4724 77.715 41.0391 78.414 41.0391Z" fill="#159822"/>
<path d="M76.2519 43.9413C75.8175 44.3746 75.229 44.618 74.6154 44.618C74.0019 44.618 73.4133 44.3746 72.979 43.9413C72.8619 43.8216 72.7223 43.7263 72.5682 43.661C72.4141 43.5956 72.2485 43.5615 72.0811 43.5606C71.9137 43.5597 71.7478 43.592 71.593 43.6556C71.4382 43.7193 71.2975 43.813 71.1792 43.9314C71.0608 44.0497 70.9671 44.1904 70.9035 44.3453C70.8399 44.5001 70.8076 44.666 70.8086 44.8334C70.8095 45.0008 70.8437 45.1663 70.909 45.3204C70.9744 45.4745 71.0697 45.6142 71.1894 45.7312C72.0987 46.6385 73.3309 47.148 74.6154 47.148C75.9 47.148 77.1321 46.6385 78.0415 45.7312C78.1612 45.6142 78.2565 45.4745 78.3218 45.3204C78.3872 45.1663 78.4213 45.0008 78.4223 44.8334C78.4233 44.666 78.391 44.5001 78.3274 44.3453C78.2638 44.1904 78.1701 44.0497 78.0517 43.9314C77.9334 43.813 77.7927 43.7193 77.6379 43.6556C77.483 43.592 77.3171 43.5597 77.1497 43.5606C76.9823 43.5615 76.8168 43.5956 76.6627 43.661C76.5086 43.7263 76.3689 43.8216 76.2519 43.9413Z" fill="#159822"/>
<path d="M69.5547 82.8047H79.6797C80.0154 82.8047 80.3373 82.6714 80.5747 82.434C80.812 82.1967 80.9453 81.8747 80.9453 81.5391V71.4141C80.9453 71.0784 80.812 70.7565 80.5747 70.5191C80.3373 70.2818 80.0154 70.1484 79.6797 70.1484H69.5547C69.2191 70.1484 68.8971 70.2818 68.6598 70.5191C68.4224 70.7565 68.2891 71.0784 68.2891 71.4141V81.5391C68.2891 81.8747 68.4224 82.1967 68.6598 82.434C68.8971 82.6714 69.2191 82.8047 69.5547 82.8047ZM70.8203 72.6797H78.4141V75.211H70.8203V72.6797ZM70.8203 77.7422H78.4141V80.2734H70.8203V77.7422Z" fill="#159822"/>
</svg>
